  0
SECTION
  2
HEADER
  9
$ACADVER
  1
AC1018
  9
$ACADMAINTVER
 70
     0
  9
$DWGCODEPAGE
  3
ANSI_936
  9
$INSBASE
 10
0.0
 20
0.0
 30
0.0
  9
$EXTMIN
 10
491.3403839298315
 20
613.0161600229173
 30
0.0
  9
$EXTMAX
 10
670.6939030041723
 20
677.8523748720621
 30
0.0
  9
$LIMMIN
 10
0.0
 20
0.0
  9
$LIMMAX
 10
420.0
 20
297.0
  9
$ORTHOMODE
 70
     1
  9
$REGENMODE
 70
     1
  9
$FILLMODE
 70
     1
  9
$QTEXTMODE
 70
     0
  9
$MIRRTEXT
 70
     0
  9
$LTSCALE
 40
1.0
  9
$ATTMODE
 70
     1
  9
$TEXTSIZE
 40
2.5
  9
$TRACEWID
 40
1.0
  9
$TEXTSTYLE
  7
Standard
  9
$CLAYER
  8
0
  9
$CELTYPE
  6
ByLayer
  9
$CECOLOR
 62
   256
  9
$CELTSCALE
 40
1.0
  9
$DISPSILH
 70
     0
  9
$DIMSCALE
 40
1.0
  9
$DIMASZ
 40
2.5
  9
$DIMEXO
 40
0.625
  9
$DIMDLI
 40
3.75
  9
$DIMRND
 40
0.0
  9
$DIMDLE
 40
0.0
  9
$DIMEXE
 40
1.25
  9
$DIMTP
 40
0.0
  9
$DIMTM
 40
0.0
  9
$DIMTXT
 40
2.5
  9
$DIMCEN
 40
2.5
  9
$DIMTSZ
 40
0.0
  9
$DIMTOL
 70
     0
  9
$DIMLIM
 70
     0
  9
$DIMTIH
 70
     0
  9
$DIMTOH
 70
     0
  9
$DIMSE1
 70
     0
  9
$DIMSE2
 70
     0
  9
$DIMTAD
 70
     1
  9
$DIMZIN
 70
     8
  9
$DIMBLK
  1

  9
$DIMASO
 70
     1
  9
$DIMSHO
 70
     1
  9
$DIMPOST
  1

  9
$DIMAPOST
  1

  9
$DIMALT
 70
     0
  9
$DIMALTD
 70
     3
  9
$DIMALTF
 40
0.03937007874016
  9
$DIMLFAC
 40
1.0
  9
$DIMTOFL
 70
     1
  9
$DIMTVP
 40
0.0
  9
$DIMTIX
 70
     0
  9
$DIMSOXD
 70
     0
  9
$DIMSAH
 70
     0
  9
$DIMBLK1
  1

  9
$DIMBLK2
  1

  9
$DIMSTYLE
  2
ISO-25
  9
$DIMCLRD
 70
     0
  9
$DIMCLRE
 70
     0
  9
$DIMCLRT
 70
     0
  9
$DIMTFAC
 40
1.0
  9
$DIMGAP
 40
0.625
  9
$DIMJUST
 70
     0
  9
$DIMSD1
 70
     0
  9
$DIMSD2
 70
     0
  9
$DIMTOLJ
 70
     0
  9
$DIMTZIN
 70
     8
  9
$DIMALTZ
 70
     0
  9
$DIMALTTZ
 70
     0
  9
$DIMUPT
 70
     0
  9
$DIMDEC
 70
     2
  9
$DIMTDEC
 70
     2
  9
$DIMALTU
 70
     2
  9
$DIMALTTD
 70
     3
  9
$DIMTXSTY
  7
Standard
  9
$DIMAUNIT
 70
     0
  9
$DIMADEC
 70
     0
  9
$DIMALTRND
 40
0.0
  9
$DIMAZIN
 70
     0
  9
$DIMDSEP
 70
    44
  9
$DIMATFIT
 70
     3
  9
$DIMFRAC
 70
     0
  9
$DIMLDRBLK
  1

  9
$DIMLUNIT
 70
     2
  9
$DIMLWD
 70
    -2
  9
$DIMLWE
 70
    -2
  9
$DIMTMOVE
 70
     0
  9
$LUNITS
 70
     2
  9
$LUPREC
 70
     4
  9
$SKETCHINC
 40
1.0
  9
$FILLETRAD
 40
1.0
  9
$AUNITS
 70
     0
  9
$AUPREC
 70
     0
  9
$MENU
  1
.
  9
$ELEVATION
 40
0.0
  9
$PELEVATION
 40
0.0
  9
$THICKNESS
 40
0.0
  9
$LIMCHECK
 70
     0
  9
$CHAMFERA
 40
0.0
  9
$CHAMFERB
 40
0.0
  9
$CHAMFERC
 40
0.0
  9
$CHAMFERD
 40
0.0
  9
$SKPOLY
 70
     0
  9
$TDCREATE
 40
2455910.426057396
  9
$TDUCREATE
 40
2455910.092724063
  9
$TDUPDATE
 40
2455910.669615336
  9
$TDUUPDATE
 40
2455910.336282002
  9
$TDINDWG
 40
0.2200309259
  9
$TDUSRTIMER
 40
0.2200298380
  9
$USRTIMER
 70
     1
  9
$ANGBASE
 50
0.0
  9
$ANGDIR
 70
     0
  9
$PDMODE
 70
     0
  9
$PDSIZE
 40
0.0
  9
$PLINEWID
 40
0.0
  9
$SPLFRAME
 70
     0
  9
$SPLINETYPE
 70
     6
  9
$SPLINESEGS
 70
     8
  9
$HANDSEED
  5
E6E
  9
$SURFTAB1
 70
     6
  9
$SURFTAB2
 70
     6
  9
$SURFTYPE
 70
     6
  9
$SURFU
 70
     6
  9
$SURFV
 70
     6
  9
$UCSBASE
  2

  9
$UCSNAME
  2

  9
$UCSORG
 10
0.0
 20
0.0
 30
0.0
  9
$UCSXDIR
 10
1.0
 20
0.0
 30
0.0
  9
$UCSYDIR
 10
0.0
 20
1.0
 30
0.0
  9
$UCSORTHOREF
  2

  9
$UCSORTHOVIEW
 70
     0
  9
$UCSORGTOP
 10
0.0
 20
0.0
 30
0.0
  9
$UCSORGBOTTOM
 10
0.0
 20
0.0
 30
0.0
  9
$UCSORGLEFT
 10
0.0
 20
0.0
 30
0.0
  9
$UCSORGRIGHT
 10
0.0
 20
0.0
 30
0.0
  9
$UCSORGFRONT
 10
0.0
 20
0.0
 30
0.0
  9
$UCSORGBACK
 10
0.0
 20
0.0
 30
0.0
  9
$PUCSBASE
  2

  9
$PUCSNAME
  2

  9
$PUCSORG
 10
0.0
 20
0.0
 30
0.0
  9
$PUCSXDIR
 10
1.0
 20
0.0
 30
0.0
  9
$PUCSYDIR
 10
0.0
 20
1.0
 30
0.0
  9
$PUCSORTHOREF
  2

  9
$PUCSORTHOVIEW
 70
     0
  9
$PUCSORGTOP
 10
0.0
 20
0.0
 30
0.0
  9
$PUCSORGBOTTOM
 10
0.0
 20
0.0
 30
0.0
  9
$PUCSORGLEFT
 10
0.0
 20
0.0
 30
0.0
  9
$PUCSORGRIGHT
 10
0.0
 20
0.0
 30
0.0
  9
$PUCSORGFRONT
 10
0.0
 20
0.0
 30
0.0
  9
$PUCSORGBACK
 10
0.0
 20
0.0
 30
0.0
  9
$USERI1
 70
     0
  9
$USERI2
 70
     0
  9
$USERI3
 70
     0
  9
$USERI4
 70
     0
  9
$USERI5
 70
     0
  9
$USERR1
 40
0.0
  9
$USERR2
 40
0.0
  9
$USERR3
 40
0.0
  9
$USERR4
 40
0.0
  9
$USERR5
 40
0.0
  9
$WORLDVIEW
 70
     1
  9
$SHADEDGE
 70
     3
  9
$SHADEDIF
 70
    70
  9
$TILEMODE
 70
     1
  9
$MAXACTVP
 70
    64
  9
$PINSBASE
 10
0.0
 20
0.0
 30
0.0
  9
$PLIMCHECK
 70
     0
  9
$PEXTMIN
 10
0.0
 20
0.0
 30
0.0
  9
$PEXTMAX
 10
0.0
 20
0.0
 30
0.0
  9
$PLIMMIN
 10
0.0
 20
0.0
  9
$PLIMMAX
 10
12.0
 20
9.0
  9
$UNITMODE
 70
     0
  9
$VISRETAIN
 70
     1
  9
$PLINEGEN
 70
     0
  9
$PSLTSCALE
 70
     1
  9
$TREEDEPTH
 70
  3020
  9
$CMLSTYLE
  2
Standard
  9
$CMLJUST
 70
     0
  9
$CMLSCALE
 40
20.0
  9
$PROXYGRAPHICS
 70
     1
  9
$MEASUREMENT
 70
     1
  9
$CELWEIGHT
370
    -1
  9
$ENDCAPS
280
     0
  9
$JOINSTYLE
280
     0
  9
$LWDISPLAY
290
     0
  9
$INSUNITS
 70
     4
  9
$HYPERLINKBASE
  1

  9
$STYLESHEET
  1

  9
$XEDIT
290
     1
  9
$CEPSNTYPE
380
     0
  9
$PSTYLEMODE
290
     1
  9
$FINGERPRINTGUID
  2
{FDEAD578-A652-11D2-9A35-0060089B3A3F}
  9
$VERSIONGUID
  2
{E2492BBC-F7A8-414C-8598-E30976C4C629}
  9
$EXTNAMES
290
     1
  9
$PSVPSCALE
 40
0.0
  9
$OLESTARTUP
290
     0
  9
$SORTENTS
280
   127
  9
$INDEXCTL
280
     0
  9
$HIDETEXT
280
     1
  9
$XCLIPFRAME
290
     0
  9
$HALOGAP
280
     0
  9
$OBSCOLOR
 70
   257
  9
$OBSLTYPE
280
     0
  9
$INTERSECTIONDISPLAY
280
     0
  9
$INTERSECTIONCOLOR
 70
   257
  9
$DIMASSOC
280
     2
  9
$PROJECTNAME
  1

  0
ENDSEC
  0
SECTION
  2
CLASSES
  0
CLASS
  1
ACDBDICTIONARYWDFLT
  2
AcDbDictionaryWithDefault
  3
ObjectDBX Classes
 90
        0
 91
        1
280
     0
281
     0
  0
CLASS
  1
DICTIONARYVAR
  2
AcDbDictionaryVar
  3
ObjectDBX Classes
 90
        0
 91
        2
280
     0
281
     0
  0
CLASS
  1
DIMASSOC
  2
AcDbDimAssoc
  3
"AcDbDimAssoc|Product Desc:     AcDim ARX App For Dimension|Company:          Autodesk, Inc.|WEB Address:      www.autodesk.com"
 90
        0
 91
       23
280
     0
281
     0
  0
ENDSEC
  0
SECTION
  2
TABLES
  0
TABLE
  2
VPORT
  5
8
330
0
100
AcDbSymbolTable
 70
    10
  0
VPORT
  5
E6D
330
8
100
AcDbSymbolTableRecord
100
AcDbViewportTableRecord
  2
*Active
 70
     0
 10
0.0
 20
0.0
 11
1.0
 21
1.0
 12
584.7985457921343
 22
638.8785545319344
 13
0.0
 23
0.0
 14
10.0
 24
10.0
 15
10.0
 25
10.0
 16
0.0
 26
0.0
 36
1.0
 17
0.0
 27
0.0
 37
0.0
 40
118.0455165418517
 41
2.05722891566265
 42
50.0
 43
0.0
 44
0.0
 50
0.0
 51
0.0
 71
     0
 72
  1000
 73
     1
 74
     3
 75
     0
 76
     0
 77
     0
 78
     0
281
     0
 65
     1
110
0.0
120
0.0
130
0.0
111
1.0
121
0.0
131
0.0
112
0.0
122
1.0
132
0.0
 79
     0
146
0.0
  0
ENDTAB
  0
TABLE
  2
LTYPE
  5
5
330
0
100
AcDbSymbolTable
 70
     2
  0
LTYPE
  5
14
330
5
100
AcDbSymbolTableRecord
100
AcDbLinetypeTableRecord
  2
ByBlock
 70
     0
  3

 72
    65
 73
     0
 40
0.0
  0
LTYPE
  5
15
330
5
100
AcDbSymbolTableRecord
100
AcDbLinetypeTableRecord
  2
ByLayer
 70
     0
  3

 72
    65
 73
     0
 40
0.0
  0
LTYPE
  5
16
330
5
100
AcDbSymbolTableRecord
100
AcDbLinetypeTableRecord
  2
Continuous
 70
     0
  3
Solid line
 72
    65
 73
     0
 40
0.0
  0
LTYPE
  5
100
330
5
100
AcDbSymbolTableRecord
100
AcDbLinetypeTableRecord
  2
CENTER2
 70
     0
  3
Center (.5x) ___ _ ___ _ ___ _ ___ _ ___ _ ___
 72
    65
 73
     4
 40
28.575
 49
19.05
 74
     0
 49
-3.174999999999999
 74
     0
 49
3.174999999999999
 74
     0
 49
-3.174999999999999
 74
     0
  0
ENDTAB
  0
TABLE
  2
LAYER
  5
2
330
0
100
AcDbSymbolTable
 70
     2
  0
LAYER
  5
10
330
2
100
AcDbSymbolTableRecord
100
AcDbLayerTableRecord
  2
0
 70
     0
 62
     7
  6
Continuous
370
    -3
390
F
  0
LAYER
  5
91
330
2
100
AcDbSymbolTableRecord
100
AcDbLayerTableRecord
  2
Defpoints
 70
     0
 62
     7
  6
Continuous
290
     0
370
    -3
390
F
  0
ENDTAB
  0
TABLE
  2
STYLE
  5
3
330
0
100
AcDbSymbolTable
 70
     2
  0
STYLE
  5
11
330
3
100
AcDbSymbolTableRecord
100
AcDbTextStyleTableRecord
  2
Standard
 70
     0
 40
0.0
 41
1.0
 50
0.0
 71
     0
 42
2.5
  3
txt
  4

  0
STYLE
  5
FF
330
3
100
AcDbSymbolTableRecord
100
AcDbTextStyleTableRecord
  2

 70
     1
 40
0.0
 41
1.0
 50
0.0
 71
     0
 42
2.5
  3
ltypeshp.shx
  4

  0
ENDTAB
  0
TABLE
  2
VIEW
  5
6
330
0
100
AcDbSymbolTable
 70
     0
  0
ENDTAB
  0
TABLE
  2
UCS
  5
7
330
0
100
AcDbSymbolTable
 70
     0
  0
ENDTAB
  0
TABLE
  2
APPID
  5
9
330
0
100
AcDbSymbolTable
 70
     1
  0
APPID
  5
12
330
9
100
AcDbSymbolTableRecord
100
AcDbRegAppTableRecord
  2
ACAD
 70
     0
  0
ENDTAB
  0
TABLE
  2
DIMSTYLE
  5
A
330
0
100
AcDbSymbolTable
 70
     1
100
AcDbDimStyleTable
 71
     1
340
27
  0
DIMSTYLE
105
27
102
{ACAD_REACTORS
330
A9
330
C1
330
D9
330
F1
330
14C
330
4CF
330
558
330
5FD
330
647
330
6C5
330
83D
330
855
330
92F
330
963
330
A70
330
AC8
330
AE0
330
B20
330
BB5
330
C3B
330
D68
330
D84
102
}
330
A
100
AcDbSymbolTableRecord
100
AcDbDimStyleTableRecord
  2
ISO-25
 70
     0
 41
2.5
 42
0.625
 43
3.75
 44
1.25
 73
     0
 74
     0
 77
     1
 78
     8
140
2.5
141
2.5
143
0.03937007874016
147
0.625
171
     3
172
     1
271
     2
272
     2
274
     3
278
    44
283
     0
284
     8
340
11
  0
ENDTAB
  0
TABLE
  2
BLOCK_RECORD
  5
1
330
0
100
AcDbSymbolTable
 70
    64
  0
BLOCK_RECORD
  5
1F
330
1
100
AcDbSymbolTableRecord
100
AcDbBlockTableRecord
  2
*Model_Space
340
22
  0
BLOCK_RECORD
  5
50
330
1
100
AcDbSymbolTableRecord
100
AcDbBlockTableRecord
  2
*Paper_Space
340
51
  0
BLOCK_RECORD
  5
55
330
1
100
AcDbSymbolTableRecord
100
AcDbBlockTableRecord
  2
*Paper_Space0
340
56
  0
BLOCK_RECORD
  5
AA
330
1
100
AcDbSymbolTableRecord
100
AcDbBlockTableRecord
  2
*D2
340
0
  0
BLOCK_RECORD
  5
C2
330
1
100
AcDbSymbolTableRecord
100
AcDbBlockTableRecord
  2
*D3
340
0
  0
BLOCK_RECORD
  5
DA
330
1
100
AcDbSymbolTableRecord
100
AcDbBlockTableRecord
  2
*D4
340
0
  0
BLOCK_RECORD
  5
F2
330
1
100
AcDbSymbolTableRecord
100
AcDbBlockTableRecord
  2
*D5
340
0
  0
BLOCK_RECORD
  5
14D
330
1
100
AcDbSymbolTableRecord
100
AcDbBlockTableRecord
  2
*D7
340
0
  0
BLOCK_RECORD
  5
4D0
330
1
100
AcDbSymbolTableRecord
100
AcDbBlockTableRecord
  2
*D23
340
0
  0
BLOCK_RECORD
  5
559
330
1
100
AcDbSymbolTableRecord
100
AcDbBlockTableRecord
  2
*D29
340
0
  0
BLOCK_RECORD
  5
5FE
330
1
100
AcDbSymbolTableRecord
100
AcDbBlockTableRecord
  2
*D34
340
0
  0
BLOCK_RECORD
  5
648
330
1
100
AcDbSymbolTableRecord
100
AcDbBlockTableRecord
  2
*D36
340
0
  0
BLOCK_RECORD
  5
6C6
330
1
100
AcDbSymbolTableRecord
100
AcDbBlockTableRecord
  2
*D39
340
0
  0
BLOCK_RECORD
  5
83E
330
1
100
AcDbSymbolTableRecord
100
AcDbBlockTableRecord
  2
*D42
340
0
  0
BLOCK_RECORD
  5
856
330
1
100
AcDbSymbolTableRecord
100
AcDbBlockTableRecord
  2
*D43
340
0
  0
BLOCK_RECORD
  5
930
330
1
100
AcDbSymbolTableRecord
100
AcDbBlockTableRecord
  2
*D45
340
0
  0
BLOCK_RECORD
  5
964
330
1
100
AcDbSymbolTableRecord
100
AcDbBlockTableRecord
  2
*D47
340
0
  0
BLOCK_RECORD
  5
A71
330
1
100
AcDbSymbolTableRecord
100
AcDbBlockTableRecord
  2
*D49
340
0
  0
BLOCK_RECORD
  5
AC9
330
1
100
AcDbSymbolTableRecord
100
AcDbBlockTableRecord
  2
*D50
340
0
  0
BLOCK_RECORD
  5
AE1
330
1
100
AcDbSymbolTableRecord
100
AcDbBlockTableRecord
  2
*D51
340
0
  0
BLOCK_RECORD
  5
B21
330
1
100
AcDbSymbolTableRecord
100
AcDbBlockTableRecord
  2
*D52
340
0
  0
BLOCK_RECORD
  5
BB6
330
1
100
AcDbSymbolTableRecord
100
AcDbBlockTableRecord
  2
*D54
340
0
  0
BLOCK_RECORD
  5
C3C
330
1
100
AcDbSymbolTableRecord
100
AcDbBlockTableRecord
  2
*D55
340
0
  0
BLOCK_RECORD
  5
D69
330
1
100
AcDbSymbolTableRecord
100
AcDbBlockTableRecord
  2
*D59
340
0
  0
BLOCK_RECORD
  5
D85
330
1
100
AcDbSymbolTableRecord
100
AcDbBlockTableRecord
  2
*D60
340
0
  0
BLOCK_RECORD
  5
DF4
330
1
100
AcDbSymbolTableRecord
100
AcDbBlockTableRecord
  2
*D61
340
0
  0
BLOCK_RECORD
  5
E1B
330
1
100
AcDbSymbolTableRecord
100
AcDbBlockTableRecord
  2
*D62
340
0
  0
BLOCK_RECORD
  5
E37
330
1
100
AcDbSymbolTableRecord
100
AcDbBlockTableRecord
  2
*D63
340
0
  0
ENDTAB
  0
ENDSEC
  0
SECTION
  2
BLOCKS
  0
BLOCK
  5
20
330
1F
100
AcDbEntity
  8
0
100
AcDbBlockBegin
  2
*Model_Space
 70
     0
 10
0.0
 20
0.0
 30
0.0
  3
*Model_Space
  1

  0
ENDBLK
  5
21
330
1F
100
AcDbEntity
  8
0
100
AcDbBlockEnd
  0
BLOCK
  5
52
330
50
100
AcDbEntity
 67
     1
  8
0
100
AcDbBlockBegin
  2
*Paper_Space
 70
     0
 10
0.0
 20
0.0
 30
0.0
  3
*Paper_Space
  1

  0
ENDBLK
  5
53
330
50
100
AcDbEntity
 67
     1
  8
0
100
AcDbBlockEnd
  0
BLOCK
  5
57
330
55
100
AcDbEntity
  8
0
100
AcDbBlockBegin
  2
*Paper_Space0
 70
     0
 10
0.0
 20
0.0
 30
0.0
  3
*Paper_Space0
  1

  0
ENDBLK
  5
58
330
55
100
AcDbEntity
  8
0
100
AcDbBlockEnd
  0
BLOCK
  5
B4
330
AA
100
AcDbEntity
  8
0
100
AcDbBlockBegin
  2
*D2
 70
     1
 10
0.0
 20
0.0
 30
0.0
  3
*D2
  1

  0
LINE
  5
B16
330
AA
100
AcDbEntity
  8
0
 62
     0
370
    -2
100
AcDbLine
 10
522.2615535753139
 20
666.2504374863986
 30
0.0
 11
493.2153839298317
 21
666.2504374863986
 31
0.0
  0
LINE
  5
B17
330
AA
100
AcDbEntity
  8
0
 62
     0
370
    -2
100
AcDbLine
 10
522.2615535753139
 20
626.2504374863986
 30
0.0
 11
493.2153839298317
 21
626.2504374863986
 31
0.0
  0
LINE
  5
B18
330
AA
100
AcDbEntity
  8
0
 62
     0
370
    -2
100
AcDbLine
 10
494.4653839298317
 20
663.7504374863985
 30
0.0
 11
494.4653839298317
 21
628.7504374863987
 31
0.0
  0
SOLID
  5
B19
330
AA
100
AcDbEntity
  8
0
 62
     0
100
AcDbTrace
 10
494.0487172631651
 20
663.7504374863985
 30
0.0
 11
494.8820505964985
 21
663.7504374863985
 31
0.0
 12
494.4653839298317
 22
666.2504374863986
 32
0.0
 13
494.4653839298317
 23
666.2504374863986
 33
0.0
  0
SOLID
  5
B1A
330
AA
100
AcDbEntity
  8
0
 62
     0
100
AcDbTrace
 10
494.048717263165
 20
628.7504374863987
 30
0.0
 11
494.8820505964984
 21
628.7504374863987
 31
0.0
 12
494.4653839298317
 22
626.2504374863986
 32
0.0
 13
494.4653839298317
 23
626.2504374863986
 33
0.0
  0
MTEXT
  5
B1B
330
AA
100
AcDbEntity
  8
0
 62
     0
100
AcDbMText
 10
492.5903839298316
 20
646.2504374863988
 30
0.0
 40
2.5
 41
0.0
 71
     5
 72
     1
  1
40
 11
0.0000000000000001
 21
1.0
 31
0.0
 73
     1
 44
1.0
  0
POINT
  5
B1C
330
AA
100
AcDbEntity
  8
Defpoints
 62
     0
100
AcDbPoint
 10
522.886553575314
 20
666.2504374863986
 30
0.0
  0
POINT
  5
B1D
330
AA
100
AcDbEntity
  8
Defpoints
 62
     0
100
AcDbPoint
 10
522.886553575314
 20
626.2504374863986
 30
0.0
  0
POINT
  5
B1E
330
AA
100
AcDbEntity
  8
Defpoints
 62
     0
100
AcDbPoint
 10
494.4653839298317
 20
626.2504374863986
 30
0.0
  0
ENDBLK
  5
B5
330
AA
100
AcDbEntity
  8
0
100
AcDbBlockEnd
  0
BLOCK
  5
CC
330
C2
100
AcDbEntity
  8
0
100
AcDbBlockBegin
  2
*D3
 70
     1
 10
0.0
 20
0.0
 30
0.0
  3
*D3
  1

  0
LINE
  5
CF
330
C2
100
AcDbEntity
  8
0
 62
     0
370
    -2
100
AcDbLine
 10
601.6017913327195
 20
661.994102784459
 30
0.0
 11
601.6017913327195
 21
675.9773748720619
 31
0.0
  0
LINE
  5
D0
330
C2
100
AcDbEntity
  8
0
 62
     0
370
    -2
100
AcDbLine
 10
661.6017913327196
 20
661.994102784459
 30
0.0
 11
661.6017913327196
 21
675.9773748720619
 31
0.0
  0
LINE
  5
D1
330
C2
100
AcDbEntity
  8
0
 62
     0
370
    -2
100
AcDbLine
 10
604.1017913327196
 20
674.727374872062
 30
0.0
 11
659.1017913327195
 21
674.727374872062
 31
0.0
  0
SOLID
  5
D2
330
C2
100
AcDbEntity
  8
0
 62
     0
100
AcDbTrace
 10
604.1017913327196
 20
675.1440415387286
 30
0.0
 11
604.1017913327196
 21
674.3107082053954
 31
0.0
 12
601.6017913327195
 22
674.727374872062
 32
0.0
 13
601.6017913327195
 23
674.727374872062
 33
0.0
  0
SOLID
  5
D3
330
C2
100
AcDbEntity
  8
0
 62
     0
100
AcDbTrace
 10
659.1017913327195
 20
675.1440415387286
 30
0.0
 11
659.1017913327195
 21
674.3107082053954
 31
0.0
 12
661.6017913327196
 22
674.727374872062
 32
0.0
 13
661.6017913327196
 23
674.727374872062
 33
0.0
  0
MTEXT
  5
D4
330
C2
100
AcDbEntity
  8
0
 62
     0
100
AcDbMText
 10
631.6017913327195
 20
676.602374872062
 30
0.0
 40
2.5
 41
0.0
 71
     5
 72
     1
  1
60
 73
     1
 44
1.0
  0
POINT
  5
D5
330
C2
100
AcDbEntity
  8
Defpoints
 62
     0
100
AcDbPoint
 10
601.6017913327195
 20
661.369102784459
 30
0.0
  0
POINT
  5
D6
330
C2
100
AcDbEntity
  8
Defpoints
 62
     0
100
AcDbPoint
 10
661.6017913327196
 20
661.369102784459
 30
0.0
  0
POINT
  5
D7
330
C2
100
AcDbEntity
  8
Defpoints
 62
     0
100
AcDbPoint
 10
661.6017913327196
 20
674.727374872062
 30
0.0
  0
ENDBLK
  5
CD
330
C2
100
AcDbEntity
  8
0
100
AcDbBlockEnd
  0
BLOCK
  5
E4
330
DA
100
AcDbEntity
  8
0
100
AcDbBlockBegin
  2
*D4
 70
     1
 10
0.0
 20
0.0
 30
0.0
  3
*D4
  1

  0
LINE
  5
E7
330
DA
100
AcDbEntity
  8
0
 62
     0
370
    -2
100
AcDbLine
 10
556.6017913327195
 20
660.8969909350951
 30
0.0
 11
556.6017913327195
 21
675.9773748720619
 31
0.0
  0
LINE
  5
E8
330
DA
100
AcDbEntity
  8
0
 62
     0
370
    -2
100
AcDbLine
 10
601.6017913327195
 20
660.8969909350951
 30
0.0
 11
601.6017913327195
 21
675.9773748720619
 31
0.0
  0
LINE
  5
E9
330
DA
100
AcDbEntity
  8
0
 62
     0
370
    -2
100
AcDbLine
 10
559.1017913327195
 20
674.727374872062
 30
0.0
 11
599.1017913327196
 21
674.727374872062
 31
0.0
  0
SOLID
  5
EA
330
DA
100
AcDbEntity
  8
0
 62
     0
100
AcDbTrace
 10
559.1017913327195
 20
675.1440415387286
 30
0.0
 11
559.1017913327195
 21
674.3107082053954
 31
0.0
 12
556.6017913327195
 22
674.727374872062
 32
0.0
 13
556.6017913327195
 23
674.727374872062
 33
0.0
  0
SOLID
  5
EB
330
DA
100
AcDbEntity
  8
0
 62
     0
100
AcDbTrace
 10
599.1017913327196
 20
675.1440415387286
 30
0.0
 11
599.1017913327196
 21
674.3107082053954
 31
0.0
 12
601.6017913327195
 22
674.727374872062
 32
0.0
 13
601.6017913327195
 23
674.727374872062
 33
0.0
  0
MTEXT
  5
EC
330
DA
100
AcDbEntity
  8
0
 62
     0
100
AcDbMText
 10
579.1017913327196
 20
676.602374872062
 30
0.0
 40
2.5
 41
0.0
 71
     5
 72
     1
  1
45
 73
     1
 44
1.0
  0
POINT
  5
ED
330
DA
100
AcDbEntity
  8
Defpoints
 62
     0
100
AcDbPoint
 10
556.6017913327195
 20
660.2719909350951
 30
0.0
  0
POINT
  5
EE
330
DA
100
AcDbEntity
  8
Defpoints
 62
     0
100
AcDbPoint
 10
601.6017913327195
 20
660.2719909350951
 30
0.0
  0
POINT
  5
EF
330
DA
100
AcDbEntity
  8
Defpoints
 62
     0
100
AcDbPoint
 10
601.6017913327195
 20
674.727374872062
 30
0.0
  0
ENDBLK
  5
E5
330
DA
100
AcDbEntity
  8
0
100
AcDbBlockEnd
  0
BLOCK
  5
FC
330
F2
100
AcDbEntity
  8
0
100
AcDbBlockBegin
  2
*D5
 70
     1
 10
0.0
 20
0.0
 30
0.0
  3
*D5
  1

  0
LINE
  5
230
330
F2
100
AcDbEntity
  8
0
 62
     0
370
    -2
100
AcDbLine
 10
511.6017913327196
 20
662.069607008779
 30
0.0
 11
511.6017913327196
 21
675.9676723389259
 31
0.0
  0
LINE
  5
231
330
F2
100
AcDbEntity
  8
0
 62
     0
370
    -2
100
AcDbLine
 10
556.6017913327195
 20
662.069607008779
 30
0.0
 11
556.6017913327195
 21
675.9676723389259
 31
0.0
  0
LINE
  5
232
330
F2
100
AcDbEntity
  8
0
 62
     0
370
    -2
100
AcDbLine
 10
514.1017913327195
 20
674.7176723389259
 30
0.0
 11
554.1017913327196
 21
674.7176723389259
 31
0.0
  0
SOLID
  5
233
330
F2
100
AcDbEntity
  8
0
 62
     0
100
AcDbTrace
 10
514.1017913327195
 20
675.1343390055925
 30
0.0
 11
514.1017913327195
 21
674.3010056722592
 31
0.0
 12
511.6017913327196
 22
674.7176723389259
 32
0.0
 13
511.6017913327196
 23
674.7176723389259
 33
0.0
  0
SOLID
  5
234
330
F2
100
AcDbEntity
  8
0
 62
     0
100
AcDbTrace
 10
554.1017913327196
 20
675.1343390055925
 30
0.0
 11
554.1017913327196
 21
674.3010056722592
 31
0.0
 12
556.6017913327195
 22
674.7176723389259
 32
0.0
 13
556.6017913327195
 23
674.7176723389259
 33
0.0
  0
MTEXT
  5
235
330
F2
100
AcDbEntity
  8
0
 62
     0
100
AcDbMText
 10
534.1017913327195
 20
676.5926723389259
 30
0.0
 40
2.5
 41
0.0
 71
     5
 72
     1
  1
45
 73
     1
 44
1.0
  0
POINT
  5
236
330
F2
100
AcDbEntity
  8
Defpoints
 62
     0
100
AcDbPoint
 10
511.6017913327196
 20
661.444607008779
 30
0.0
  0
POINT
  5
237
330
F2
100
AcDbEntity
  8
Defpoints
 62
     0
100
AcDbPoint
 10
556.6017913327195
 20
661.444607008779
 30
0.0
  0
POINT
  5
238
330
F2
100
AcDbEntity
  8
Defpoints
 62
     0
100
AcDbPoint
 10
556.6017913327195
 20
674.7176723389259
 30
0.0
  0
ENDBLK
  5
FD
330
F2
100
AcDbEntity
  8
0
100
AcDbBlockEnd
  0
BLOCK
  5
157
330
14D
100
AcDbEntity
  8
0
100
AcDbBlockBegin
  2
*D7
 70
     1
 10
0.0
 20
0.0
 30
0.0
  3
*D7
  1

  0
LINE
  5
A27
330
14D
100
AcDbEntity
  8
0
 62
     0
370
    -2
100
AcDbLine
 10
524.1004079200997
 20
633.2488373199423
 30
0.0
 11
524.1004079200997
 21
636.6003741959286
 31
0.0
  0
LINE
  5
A28
330
14D
100
AcDbEntity
  8
0
 62
     0
370
    -2
100
AcDbLine
 10
536.1004079200998
 20
633.2488373199423
 30
0.0
 11
536.1004079200998
 21
636.6003741959286
 31
0.0
  0
LINE
  5
A29
330
14D
100
AcDbEntity
  8
0
 62
     0
370
    -2
100
AcDbLine
 10
526.6004079200997
 20
635.3503741959286
 30
0.0
 11
533.6004079200997
 21
635.3503741959286
 31
0.0
  0
SOLID
  5
A2A
330
14D
100
AcDbEntity
  8
0
 62
     0
100
AcDbTrace
 10
526.6004079200997
 20
635.7670408625953
 30
0.0
 11
526.6004079200997
 21
634.933707529262
 31
0.0
 12
524.1004079200997
 22
635.3503741959286
 32
0.0
 13
524.1004079200997
 23
635.3503741959286
 33
0.0
  0
SOLID
  5
A2B
330
14D
100
AcDbEntity
  8
0
 62
     0
100
AcDbTrace
 10
533.6004079200997
 20
635.7670408625953
 30
0.0
 11
533.6004079200997
 21
634.933707529262
 31
0.0
 12
536.1004079200998
 22
635.3503741959286
 32
0.0
 13
536.1004079200998
 23
635.3503741959286
 33
0.0
  0
MTEXT
  5
A2C
330
14D
100
AcDbEntity
  8
0
 62
     0
100
AcDbMText
 10
529.3180345503282
 20
637.2253741959286
 30
0.0
 40
2.5
 41
0.0
 71
     5
 72
     1
  1
12
 73
     1
 44
1.0
  0
POINT
  5
A2D
330
14D
100
AcDbEntity
  8
Defpoints
 62
     0
100
AcDbPoint
 10
524.1004079200997
 20
632.6238373199423
 30
0.0
  0
POINT
  5
A2E
330
14D
100
AcDbEntity
  8
Defpoints
 62
     0
100
AcDbPoint
 10
536.1004079200998
 20
632.6238373199423
 30
0.0
  0
POINT
  5
A2F
330
14D
100
AcDbEntity
  8
Defpoints
 62
     0
100
AcDbPoint
 10
536.1004079200998
 20
635.3503741959286
 30
0.0
  0
ENDBLK
  5
158
330
14D
100
AcDbEntity
  8
0
100
AcDbBlockEnd
  0
BLOCK
  5
4DA
330
4D0
100
AcDbEntity
  8
0
100
AcDbBlockBegin
  2
*D23
 70
     1
 10
0.0
 20
0.0
 30
0.0
  3
*D23
  1

  0
LINE
  5
5E9
330
4D0
100
AcDbEntity
  8
0
 62
     0
370
    -2
100
AcDbLine
 10
611.7850691337516
 20
652.2496515674582
 30
0.0
 11
607.2538836726985
 21
652.2496515674582
 31
0.0
  0
LINE
  5
5EA
330
4D0
100
AcDbEntity
  8
0
 62
     0
370
    -2
100
AcDbLine
 10
612.5860039945592
 20
661.2496515674583
 30
0.0
 11
607.2538836726985
 21
661.2496515674583
 31
0.0
  0
LINE
  5
5EB
330
4D0
100
AcDbEntity
  8
0
 62
     0
370
    -2
100
AcDbLine
 10
608.5038836726985
 20
654.7496515674582
 30
0.0
 11
608.5038836726985
 21
658.7496515674582
 31
0.0
  0
SOLID
  5
5EC
330
4D0
100
AcDbEntity
  8
0
 62
     0
100
AcDbTrace
 10
608.0872170060318
 20
654.7496515674582
 30
0.0
 11
608.9205503393651
 21
654.7496515674582
 31
0.0
 12
608.5038836726985
 22
652.2496515674582
 32
0.0
 13
608.5038836726985
 23
652.2496515674582
 33
0.0
  0
SOLID
  5
5ED
330
4D0
100
AcDbEntity
  8
0
 62
     0
100
AcDbTrace
 10
608.0872170060318
 20
658.7496515674582
 30
0.0
 11
608.9205503393651
 21
658.7496515674582
 31
0.0
 12
608.5038836726985
 22
661.2496515674583
 32
0.0
 13
608.5038836726985
 23
661.2496515674583
 33
0.0
  0
MTEXT
  5
5EE
330
4D0
100
AcDbEntity
  8
0
 62
     0
100
AcDbMText
 10
606.6288836726983
 20
656.7496515674584
 30
0.0
 40
2.5
 41
0.0
 71
     5
 72
     1
  1
9
 11
0.0000000000000001
 21
1.0
 31
0.0
 73
     1
 44
1.0
  0
POINT
  5
5EF
330
4D0
100
AcDbEntity
  8
Defpoints
 62
     0
100
AcDbPoint
 10
612.4100691337517
 20
652.2496515674582
 30
0.0
  0
POINT
  5
5F0
330
4D0
100
AcDbEntity
  8
Defpoints
 62
     0
100
AcDbPoint
 10
613.2110039945591
 20
661.2496515674583
 30
0.0
  0
POINT
  5
5F1
330
4D0
100
AcDbEntity
  8
Defpoints
 62
     0
100
AcDbPoint
 10
608.5038836726985
 20
661.2496515674583
 30
0.0
  0
ENDBLK
  5
4DB
330
4D0
100
AcDbEntity
  8
0
100
AcDbBlockEnd
  0
BLOCK
  5
565
330
559
100
AcDbEntity
  8
0
100
AcDbBlockBegin
  2
*D29
 70
     1
 10
0.0
 20
0.0
 30
0.0
  3
*D29
  1

  0
LINE
  5
BF7
330
559
100
AcDbEntity
  8
0
 62
     0
370
    -2
100
AcDbLine
 10
524.0796616792526
 20
629.2806808809753
 30
0.0
 11
521.7803911538152
 21
629.2806808809753
 31
0.0
  0
LINE
  5
BF8
330
559
100
AcDbEntity
  8
0
 62
     0
370
    -2
100
AcDbLine
 10
524.0796616792526
 20
633.2806808809753
 30
0.0
 11
521.7803911538152
 21
633.2806808809753
 31
0.0
  0
LINE
  5
BF9
330
559
100
AcDbEntity
  8
0
 62
     0
370
    -2
100
AcDbLine
 10
523.0303911538152
 20
635.7806808809753
 30
0.0
 11
523.0303911538152
 21
638.2806808809752
 31
0.0
  0
LINE
  5
BFA
330
559
100
AcDbEntity
  8
0
 62
     0
370
    -2
100
AcDbLine
 10
523.0303911538152
 20
626.7806808809752
 30
0.0
 11
523.0303911538152
 21
621.3640142143086
 31
0.0
  0
LINE
  5
BFB
330
559
100
AcDbEntity
  8
0
 62
     0
370
    -2
100
AcDbLine
 10
523.0303911538152
 20
633.2806808809753
 30
0.0
 11
523.0303911538152
 21
629.2806808809753
 31
0.0
  0
SOLID
  5
BFC
330
559
100
AcDbEntity
  8
0
 62
     0
100
AcDbTrace
 10
522.6137244871486
 20
635.7806808809753
 30
0.0
 11
523.4470578204819
 21
635.7806808809753
 31
0.0
 12
523.0303911538152
 22
633.2806808809753
 32
0.0
 13
523.0303911538152
 23
633.2806808809753
 33
0.0
  0
SOLID
  5
BFD
330
559
100
AcDbEntity
  8
0
 62
     0
100
AcDbTrace
 10
522.6137244871486
 20
626.7806808809752
 30
0.0
 11
523.4470578204819
 21
626.7806808809752
 31
0.0
 12
523.0303911538152
 22
629.2806808809753
 32
0.0
 13
523.0303911538152
 23
629.2806808809753
 33
0.0
  0
MTEXT
  5
BFE
330
559
100
AcDbEntity
  8
0
 62
     0
100
AcDbMText
 10
521.1553911538151
 20
622.822347547642
 30
0.0
 40
2.5
 41
0.0
 71
     5
 72
     1
  1
4
 11
0.0000000000000001
 21
1.0
 31
0.0
 73
     1
 44
1.0
  0
POINT
  5
BFF
330
559
100
AcDbEntity
  8
Defpoints
 62
     0
100
AcDbPoint
 10
524.7046616792527
 20
629.2806808809753
 30
0.0
  0
POINT
  5
C00
330
559
100
AcDbEntity
  8
Defpoints
 62
     0
100
AcDbPoint
 10
524.7046616792527
 20
633.2806808809753
 30
0.0
  0
POINT
  5
C01
330
559
100
AcDbEntity
  8
Defpoints
 62
     0
100
AcDbPoint
 10
523.0303911538152
 20
633.2806808809753
 30
0.0
  0
ENDBLK
  5
566
330
559
100
AcDbEntity
  8
0
100
AcDbBlockEnd
  0
BLOCK
  5
608
330
5FE
100
AcDbEntity
  8
0
100
AcDbBlockBegin
  2
*D34
 70
     1
 10
0.0
 20
0.0
 30
0.0
  3
*D34
  1

  0
LINE
  5
60B
330
5FE
100
AcDbEntity
  8
0
 62
     0
370
    -2
100
AcDbLine
 10
611.0056807025574
 20
660.3970309687645
 30
0.0
 11
611.0056807025574
 21
663.7791280331614
 31
0.0
  0
LINE
  5
60C
330
5FE
100
AcDbEntity
  8
0
 62
     0
370
    -2
100
AcDbLine
 10
651.0056807025573
 20
660.3970309687645
 30
0.0
 11
651.0056807025573
 21
663.7791280331614
 31
0.0
  0
LINE
  5
60D
330
5FE
100
AcDbEntity
  8
0
 62
     0
370
    -2
100
AcDbLine
 10
613.5056807025574
 20
662.5291280331614
 30
0.0
 11
648.5056807025573
 21
662.5291280331614
 31
0.0
  0
SOLID
  5
60E
330
5FE
100
AcDbEntity
  8
0
 62
     0
100
AcDbTrace
 10
613.5056807025574
 20
662.9457946998281
 30
0.0
 11
613.5056807025574
 21
662.1124613664948
 31
0.0
 12
611.0056807025574
 22
662.5291280331614
 32
0.0
 13
611.0056807025574
 23
662.5291280331614
 33
0.0
  0
SOLID
  5
60F
330
5FE
100
AcDbEntity
  8
0
 62
     0
100
AcDbTrace
 10
648.5056807025573
 20
662.9457946998281
 30
0.0
 11
648.5056807025573
 21
662.1124613664948
 31
0.0
 12
651.0056807025573
 22
662.5291280331614
 32
0.0
 13
651.0056807025573
 23
662.5291280331614
 33
0.0
  0
MTEXT
  5
610
330
5FE
100
AcDbEntity
  8
0
 62
     0
100
AcDbMText
 10
631.0056807025573
 20
664.4041280331614
 30
0.0
 40
2.5
 41
0.0
 71
     5
 72
     1
  1
40
 73
     1
 44
1.0
  0
POINT
  5
611
330
5FE
100
AcDbEntity
  8
Defpoints
 62
     0
100
AcDbPoint
 10
611.0056807025574
 20
659.7720309687645
 30
0.0
  0
POINT
  5
612
330
5FE
100
AcDbEntity
  8
Defpoints
 62
     0
100
AcDbPoint
 10
651.0056807025573
 20
659.7720309687645
 30
0.0
  0
POINT
  5
613
330
5FE
100
AcDbEntity
  8
Defpoints
 62
     0
100
AcDbPoint
 10
651.0056807025573
 20
662.5291280331614
 30
0.0
  0
ENDBLK
  5
609
330
5FE
100
AcDbEntity
  8
0
100
AcDbBlockEnd
  0
BLOCK
  5
654
330
648
100
AcDbEntity
  8
0
100
AcDbBlockBegin
  2
*D36
 70
     1
 10
0.0
 20
0.0
 30
0.0
  3
*D36
  1

  0
LINE
  5
69C
330
648
100
AcDbEntity
  8
0
 62
     0
370
    -2
100
AcDbLine
 10
624.9280444208226
 20
643.7551335861992
 30
0.0
 11
618.3346165460943
 21
643.7551335861992
 31
0.0
  0
LINE
  5
69D
330
648
100
AcDbEntity
  8
0
 62
     0
370
    -2
100
AcDbLine
 10
625.5356909837883
 20
648.7551335861991
 30
0.0
 11
618.3346165460943
 21
648.7551335861991
 31
0.0
  0
LINE
  5
69E
330
648
100
AcDbEntity
  8
0
 62
     0
370
    -2
100
AcDbLine
 10
619.5846165460944
 20
641.2551335861992
 30
0.0
 11
619.5846165460944
 21
638.7551335861992
 31
0.0
  0
LINE
  5
69F
330
648
100
AcDbEntity
  8
0
 62
     0
370
    -2
100
AcDbLine
 10
619.5846165460944
 20
651.2551335861991
 30
0.0
 11
619.5846165460944
 21
653.7551335861991
 31
0.0
  0
LINE
  5
6A0
330
648
100
AcDbEntity
  8
0
 62
     0
370
    -2
100
AcDbLine
 10
619.5846165460944
 20
643.7551335861992
 30
0.0
 11
619.5846165460944
 21
648.7551335861991
 31
0.0
  0
SOLID
  5
6A1
330
648
100
AcDbEntity
  8
0
 62
     0
100
AcDbTrace
 10
619.1679498794277
 20
641.2551335861992
 30
0.0
 11
620.001283212761
 21
641.2551335861992
 31
0.0
 12
619.5846165460944
 22
643.7551335861992
 32
0.0
 13
619.5846165460944
 23
643.7551335861992
 33
0.0
  0
SOLID
  5
6A2
330
648
100
AcDbEntity
  8
0
 62
     0
100
AcDbTrace
 10
619.1679498794277
 20
651.2551335861991
 30
0.0
 11
620.001283212761
 21
651.2551335861991
 31
0.0
 12
619.5846165460944
 22
648.7551335861991
 32
0.0
 13
619.5846165460944
 23
648.7551335861991
 33
0.0
  0
MTEXT
  5
6A3
330
648
100
AcDbEntity
  8
0
 62
     0
100
AcDbMText
 10
617.7096165460942
 20
646.2551335861992
 30
0.0
 40
2.5
 41
0.0
 71
     5
 72
     1
  1
5
 11
0.0000000000000001
 21
1.0
 31
0.0
 73
     1
 44
1.0
  0
POINT
  5
6A4
330
648
100
AcDbEntity
  8
Defpoints
 62
     0
100
AcDbPoint
 10
625.5530444208226
 20
643.7551335861992
 30
0.0
  0
POINT
  5
6A5
330
648
100
AcDbEntity
  8
Defpoints
 62
     0
100
AcDbPoint
 10
626.1606909837882
 20
648.7551335861991
 30
0.0
  0
POINT
  5
6A6
330
648
100
AcDbEntity
  8
Defpoints
 62
     0
100
AcDbPoint
 10
619.5846165460944
 20
648.7551335861991
 30
0.0
  0
ENDBLK
  5
655
330
648
100
AcDbEntity
  8
0
100
AcDbBlockEnd
  0
BLOCK
  5
6D0
330
6C6
100
AcDbEntity
  8
0
100
AcDbBlockBegin
  2
*D39
 70
     1
 10
0.0
 20
0.0
 30
0.0
  3
*D39
  1

  0
LINE
  5
A63
330
6C6
100
AcDbEntity
  8
0
 62
     0
370
    -2
100
AcDbLine
 10
660.835837782266
 20
641.7504374863986
 30
0.0
 11
670.6939030041723
 21
641.7504374863986
 31
0.0
  0
LINE
  5
A64
330
6C6
100
AcDbEntity
  8
0
 62
     0
370
    -2
100
AcDbLine
 10
661.3057919993297
 20
650.7504374863986
 30
0.0
 11
670.6939030041723
 21
650.7504374863986
 31
0.0
  0
LINE
  5
A65
330
6C6
100
AcDbEntity
  8
0
 62
     0
370
    -2
100
AcDbLine
 10
669.4439030041722
 20
644.2504374863986
 30
0.0
 11
669.4439030041722
 21
648.2504374863985
 31
0.0
  0
SOLID
  5
A66
330
6C6
100
AcDbEntity
  8
0
 62
     0
100
AcDbTrace
 10
669.0272363375056
 20
644.2504374863986
 30
0.0
 11
669.8605696708389
 21
644.2504374863986
 31
0.0
 12
669.4439030041722
 22
641.7504374863986
 32
0.0
 13
669.4439030041722
 23
641.7504374863986
 33
0.0
  0
SOLID
  5
A67
330
6C6
100
AcDbEntity
  8
0
 62
     0
100
AcDbTrace
 10
669.0272363375056
 20
648.2504374863985
 30
0.0
 11
669.8605696708389
 21
648.2504374863985
 31
0.0
 12
669.4439030041722
 22
650.7504374863986
 32
0.0
 13
669.4439030041722
 23
650.7504374863986
 33
0.0
  0
MTEXT
  5
A68
330
6C6
100
AcDbEntity
  8
0
 62
     0
100
AcDbMText
 10
667.5689030041722
 20
646.2456387875739
 30
0.0
 40
2.5
 41
0.0
 71
     5
 72
     1
  1
9
 11
0.0000000000000001
 21
1.0
 31
0.0
 73
     1
 44
1.0
  0
POINT
  5
A69
330
6C6
100
AcDbEntity
  8
Defpoints
 62
     0
100
AcDbPoint
 10
660.210837782266
 20
641.7504374863986
 30
0.0
  0
POINT
  5
A6A
330
6C6
100
AcDbEntity
  8
Defpoints
 62
     0
100
AcDbPoint
 10
660.6807919993298
 20
650.7504374863986
 30
0.0
  0
POINT
  5
A6B
330
6C6
100
AcDbEntity
  8
Defpoints
 62
     0
100
AcDbPoint
 10
669.4439030041722
 20
650.7504374863986
 30
0.0
  0
ENDBLK
  5
6D1
330
6C6
100
AcDbEntity
  8
0
100
AcDbBlockEnd
  0
BLOCK
  5
848
330
83E
100
AcDbEntity
  8
0
100
AcDbBlockBegin
  2
*D42
 70
     1
 10
0.0
 20
0.0
 30
0.0
  3
*D42
  1

  0
LINE
  5
A30
330
83E
100
AcDbEntity
  8
0
 62
     0
370
    -2
100
AcDbLine
 10
538.0990872136091
 20
632.9665070286035
 30
0.0
 11
538.0990872136091
 21
636.6003741959286
 31
0.0
  0
LINE
  5
A31
330
83E
100
AcDbEntity
  8
0
 62
     0
370
    -2
100
AcDbLine
 10
552.0990872136092
 20
633.2942296745648
 30
0.0
 11
552.0990872136092
 21
636.6003741959286
 31
0.0
  0
LINE
  5
A32
330
83E
100
AcDbEntity
  8
0
 62
     0
370
    -2
100
AcDbLine
 10
540.5990872136092
 20
635.3503741959286
 30
0.0
 11
549.5990872136092
 21
635.3503741959286
 31
0.0
  0
SOLID
  5
A33
330
83E
100
AcDbEntity
  8
0
 62
     0
100
AcDbTrace
 10
540.5990872136092
 20
635.7670408625953
 30
0.0
 11
540.5990872136092
 21
634.933707529262
 31
0.0
 12
538.0990872136091
 22
635.3503741959286
 32
0.0
 13
538.0990872136091
 23
635.3503741959286
 33
0.0
  0
SOLID
  5
A34
330
83E
100
AcDbEntity
  8
0
 62
     0
100
AcDbTrace
 10
549.5990872136092
 20
635.7670408625953
 30
0.0
 11
549.5990872136092
 21
634.933707529262
 31
0.0
 12
552.0990872136092
 22
635.3503741959286
 32
0.0
 13
552.0990872136092
 23
635.3503741959286
 33
0.0
  0
MTEXT
  5
A35
330
83E
100
AcDbEntity
  8
0
 62
     0
100
AcDbMText
 10
545.0990872136092
 20
637.2253741959286
 30
0.0
 40
2.5
 41
0.0
 71
     5
 72
     1
  1
14
 73
     1
 44
1.0
  0
POINT
  5
A36
330
83E
100
AcDbEntity
  8
Defpoints
 62
     0
100
AcDbPoint
 10
538.0990872136091
 20
632.3415070286034
 30
0.0
  0
POINT
  5
A37
330
83E
100
AcDbEntity
  8
Defpoints
 62
     0
100
AcDbPoint
 10
552.0990872136092
 20
632.6692296745648
 30
0.0
  0
POINT
  5
A38
330
83E
100
AcDbEntity
  8
Defpoints
 62
     0
100
AcDbPoint
 10
552.0990872136092
 20
635.3503741959286
 30
0.0
  0
ENDBLK
  5
849
330
83E
100
AcDbEntity
  8
0
100
AcDbBlockEnd
  0
BLOCK
  5
862
330
856
100
AcDbEntity
  8
0
100
AcDbBlockBegin
  2
*D43
 70
     1
 10
0.0
 20
0.0
 30
0.0
  3
*D43
  1

  0
LINE
  5
A39
330
856
100
AcDbEntity
  8
0
 62
     0
370
    -2
100
AcDbLine
 10
536.1004079200998
 20
629.401348285791
 30
0.0
 11
536.1004079200998
 21
621.4434687464825
 31
0.0
  0
LINE
  5
A3A
330
856
100
AcDbEntity
  8
0
 62
     0
370
    -2
100
AcDbLine
 10
538.0990872136091
 20
629.401348285791
 30
0.0
 11
538.0990872136091
 21
621.4434687464825
 31
0.0
  0
LINE
  5
A3B
330
856
100
AcDbEntity
  8
0
 62
     0
370
    -2
100
AcDbLine
 10
533.6004079200997
 20
622.6934687464825
 30
0.0
 11
531.1004079200997
 21
622.6934687464825
 31
0.0
  0
LINE
  5
A3C
330
856
100
AcDbEntity
  8
0
 62
     0
370
    -2
100
AcDbLine
 10
540.5990872136092
 20
622.6934687464825
 30
0.0
 11
546.0157538802758
 21
622.6934687464825
 31
0.0
  0
LINE
  5
A3D
330
856
100
AcDbEntity
  8
0
 62
     0
370
    -2
100
AcDbLine
 10
536.1004079200998
 20
622.6934687464825
 30
0.0
 11
538.0990872136091
 21
622.6934687464825
 31
0.0
  0
SOLID
  5
A3E
330
856
100
AcDbEntity
  8
0
 62
     0
100
AcDbTrace
 10
533.6004079200997
 20
623.1101354131491
 30
0.0
 11
533.6004079200997
 21
622.2768020798159
 31
0.0
 12
536.1004079200998
 22
622.6934687464825
 32
0.0
 13
536.1004079200998
 23
622.6934687464825
 33
0.0
  0
SOLID
  5
A3F
330
856
100
AcDbEntity
  8
0
 62
     0
100
AcDbTrace
 10
540.5990872136092
 20
623.1101354131491
 30
0.0
 11
540.5990872136092
 21
622.2768020798159
 31
0.0
 12
538.0990872136091
 22
622.6934687464825
 32
0.0
 13
538.0990872136091
 23
622.6934687464825
 33
0.0
  0
MTEXT
  5
A40
330
856
100
AcDbEntity
  8
0
 62
     0
100
AcDbMText
 10
544.5574205469426
 20
624.5684687464825
 30
0.0
 40
2.5
 41
0.0
 71
     5
 72
     1
  1
2
 73
     1
 44
1.0
  0
POINT
  5
A41
330
856
100
AcDbEntity
  8
Defpoints
 62
     0
100
AcDbPoint
 10
536.1004079200998
 20
630.0263482857911
 30
0.0
  0
POINT
  5
A42
330
856
100
AcDbEntity
  8
Defpoints
 62
     0
100
AcDbPoint
 10
538.0990872136091
 20
630.0263482857911
 30
0.0
  0
POINT
  5
A43
330
856
100
AcDbEntity
  8
Defpoints
 62
     0
100
AcDbPoint
 10
538.0990872136091
 20
622.6934687464825
 30
0.0
  0
ENDBLK
  5
863
330
856
100
AcDbEntity
  8
0
100
AcDbBlockEnd
  0
BLOCK
  5
93C
330
930
100
AcDbEntity
  8
0
100
AcDbBlockBegin
  2
*D45
 70
     1
 10
0.0
 20
0.0
 30
0.0
  3
*D45
  1

  0
LINE
  5
B02
330
930
100
AcDbEntity
  8
0
 62
     0
370
    -2
100
AcDbLine
 10
512.3279132010347
 20
645.2504374863986
 30
0.0
 11
498.9024915355521
 21
645.2504374863986
 31
0.0
  0
LINE
  5
B03
330
930
100
AcDbEntity
  8
0
 62
     0
370
    -2
100
AcDbLine
 10
512.3279132010347
 20
647.2504374863987
 30
0.0
 11
498.9024915355521
 21
647.2504374863987
 31
0.0
  0
LINE
  5
B04
330
930
100
AcDbEntity
  8
0
 62
     0
370
    -2
100
AcDbLine
 10
500.1524915355521
 20
649.7504374863987
 30
0.0
 11
500.1524915355521
 21
652.2504374863987
 31
0.0
  0
LINE
  5
B05
330
930
100
AcDbEntity
  8
0
 62
     0
370
    -2
100
AcDbLine
 10
500.1524915355521
 20
642.7504374863985
 30
0.0
 11
500.1524915355521
 21
637.3337708197319
 31
0.0
  0
LINE
  5
B06
330
930
100
AcDbEntity
  8
0
 62
     0
370
    -2
100
AcDbLine
 10
500.1524915355521
 20
647.2504374863987
 30
0.0
 11
500.1524915355521
 21
645.2504374863986
 31
0.0
  0
SOLID
  5
B07
330
930
100
AcDbEntity
  8
0
 62
     0
100
AcDbTrace
 10
499.7358248688854
 20
649.7504374863987
 30
0.0
 11
500.5691582022188
 21
649.7504374863987
 31
0.0
 12
500.1524915355521
 22
647.2504374863987
 32
0.0
 13
500.1524915355521
 23
647.2504374863987
 33
0.0
  0
SOLID
  5
B08
330
930
100
AcDbEntity
  8
0
 62
     0
100
AcDbTrace
 10
499.7358248688854
 20
642.7504374863985
 30
0.0
 11
500.5691582022188
 21
642.7504374863985
 31
0.0
 12
500.1524915355521
 22
645.2504374863986
 32
0.0
 13
500.1524915355521
 23
645.2504374863986
 33
0.0
  0
MTEXT
  5
B09
330
930
100
AcDbEntity
  8
0
 62
     0
100
AcDbMText
 10
498.277491535552
 20
638.7921041530653
 30
0.0
 40
2.5
 41
0.0
 71
     5
 72
     1
  1
2
 11
0.0000000000000001
 21
1.0
 31
0.0
 73
     1
 44
1.0
  0
POINT
  5
B0A
330
930
100
AcDbEntity
  8
Defpoints
 62
     0
100
AcDbPoint
 10
512.9529132010348
 20
645.2504374863986
 30
0.0
  0
POINT
  5
B0B
330
930
100
AcDbEntity
  8
Defpoints
 62
     0
100
AcDbPoint
 10
512.9529132010348
 20
647.2504374863987
 30
0.0
  0
POINT
  5
B0C
330
930
100
AcDbEntity
  8
Defpoints
 62
     0
100
AcDbPoint
 10
500.1524915355521
 20
647.2504374863987
 30
0.0
  0
ENDBLK
  5
93D
330
930
100
AcDbEntity
  8
0
100
AcDbBlockEnd
  0
BLOCK
  5
96E
330
964
100
AcDbEntity
  8
0
100
AcDbBlockBegin
  2
*D47
 70
     1
 10
0.0
 20
0.0
 30
0.0
  3
*D47
  1

  0
LINE
  5
B0D
330
964
100
AcDbEntity
  8
0
 62
     0
370
    -2
100
AcDbLine
 10
511.4383127438659
 20
647.2504374863985
 30
0.0
 11
498.9024915355521
 21
647.2504374863985
 31
0.0
  0
LINE
  5
B0E
330
964
100
AcDbEntity
  8
0
 62
     0
370
    -2
100
AcDbLine
 10
512.7801818207163
 20
666.2504374863986
 30
0.0
 11
498.9024915355521
 21
666.2504374863986
 31
0.0
  0
LINE
  5
B0F
330
964
100
AcDbEntity
  8
0
 62
     0
370
    -2
100
AcDbLine
 10
500.1524915355521
 20
649.7504374863986
 30
0.0
 11
500.1524915355521
 21
663.7504374863985
 31
0.0
  0
SOLID
  5
B10
330
964
100
AcDbEntity
  8
0
 62
     0
100
AcDbTrace
 10
499.7358248688854
 20
649.7504374863986
 30
0.0
 11
500.5691582022188
 21
649.7504374863986
 31
0.0
 12
500.1524915355521
 22
647.2504374863985
 32
0.0
 13
500.1524915355521
 23
647.2504374863985
 33
0.0
  0
SOLID
  5
B11
330
964
100
AcDbEntity
  8
0
 62
     0
100
AcDbTrace
 10
499.7358248688854
 20
663.7504374863985
 30
0.0
 11
500.5691582022188
 21
663.7504374863985
 31
0.0
 12
500.1524915355521
 22
666.2504374863986
 32
0.0
 13
500.1524915355521
 23
666.2504374863986
 33
0.0
  0
MTEXT
  5
B12
330
964
100
AcDbEntity
  8
0
 62
     0
100
AcDbMText
 10
498.277491535552
 20
656.7504374863987
 30
0.0
 40
2.5
 41
0.0
 71
     5
 72
     1
  1
19
 11
0.0000000000000001
 21
1.0
 31
0.0
 73
     1
 44
1.0
  0
POINT
  5
B13
330
964
100
AcDbEntity
  8
Defpoints
 62
     0
100
AcDbPoint
 10
512.0633127438659
 20
647.2504374863985
 30
0.0
  0
POINT
  5
B14
330
964
100
AcDbEntity
  8
Defpoints
 62
     0
100
AcDbPoint
 10
513.4051818207162
 20
666.2504374863986
 30
0.0
  0
POINT
  5
B15
330
964
100
AcDbEntity
  8
Defpoints
 62
     0
100
AcDbPoint
 10
500.1524915355521
 20
666.2504374863986
 30
0.0
  0
ENDBLK
  5
96F
330
964
100
AcDbEntity
  8
0
100
AcDbBlockEnd
  0
BLOCK
  5
A7B
330
A71
100
AcDbEntity
  8
0
100
AcDbBlockBegin
  2
*D49
 70
     1
 10
0.0
 20
0.0
 30
0.0
  3
*D49
  1

  0
LINE
  5
A91
330
A71
100
AcDbEntity
  8
0
 62
     0
370
    -2
100
AcDbLine
 10
624.605405096972
 20
643.8409324083002
 30
0.0
 11
624.605405096972
 21
639.775647462279
 31
0.0
  0
LINE
  5
A92
330
A71
100
AcDbEntity
  8
0
 62
     0
370
    -2
100
AcDbLine
 10
659.6054050969721
 20
643.6036709870743
 30
0.0
 11
659.6054050969721
 21
639.775647462279
 31
0.0
  0
LINE
  5
A93
330
A71
100
AcDbEntity
  8
0
 62
     0
370
    -2
100
AcDbLine
 10
627.105405096972
 20
641.025647462279
 30
0.0
 11
657.1054050969721
 21
641.025647462279
 31
0.0
  0
SOLID
  5
A94
330
A71
100
AcDbEntity
  8
0
 62
     0
100
AcDbTrace
 10
627.105405096972
 20
641.4423141289456
 30
0.0
 11
627.105405096972
 21
640.6089807956123
 31
0.0
 12
624.605405096972
 22
641.025647462279
 32
0.0
 13
624.605405096972
 23
641.025647462279
 33
0.0
  0
SOLID
  5
A95
330
A71
100
AcDbEntity
  8
0
 62
     0
100
AcDbTrace
 10
657.1054050969721
 20
641.4423141289456
 30
0.0
 11
657.1054050969721
 21
640.6089807956123
 31
0.0
 12
659.6054050969721
 22
641.025647462279
 32
0.0
 13
659.6054050969721
 23
641.025647462279
 33
0.0
  0
MTEXT
  5
A96
330
A71
100
AcDbEntity
  8
0
 62
     0
100
AcDbMText
 10
641.6352206317924
 20
642.900647462279
 30
0.0
 40
2.5
 41
0.0
 71
     5
 72
     1
  1
35
 73
     1
 44
1.0
  0
POINT
  5
A97
330
A71
100
AcDbEntity
  8
Defpoints
 62
     0
100
AcDbPoint
 10
624.605405096972
 20
644.4659324083001
 30
0.0
  0
POINT
  5
A98
330
A71
100
AcDbEntity
  8
Defpoints
 62
     0
100
AcDbPoint
 10
659.6054050969721
 20
644.2286709870743
 30
0.0
  0
POINT
  5
A99
330
A71
100
AcDbEntity
  8
Defpoints
 62
     0
100
AcDbPoint
 10
659.6054050969721
 20
641.025647462279
 30
0.0
  0
ENDBLK
  5
A7C
330
A71
100
AcDbEntity
  8
0
100
AcDbBlockEnd
  0
BLOCK
  5
AD3
330
AC9
100
AcDbEntity
  8
0
100
AcDbBlockBegin
  2
*D50
 70
     1
 10
0.0
 20
0.0
 30
0.0
  3
*D50
  1

  0
LINE
  5
B38
330
AC9
100
AcDbEntity
  8
0
 62
     0
370
    -2
100
AcDbLine
 10
511.2209886196551
 20
641.7504374863986
 30
0.0
 11
504.7998555491432
 21
641.7504374863986
 31
0.0
  0
LINE
  5
B39
330
AC9
100
AcDbEntity
  8
0
 62
     0
370
    -2
100
AcDbLine
 10
511.2209886196551
 20
650.7504374863986
 30
0.0
 11
504.7998555491432
 21
650.7504374863986
 31
0.0
  0
LINE
  5
B3A
330
AC9
100
AcDbEntity
  8
0
 62
     0
370
    -2
100
AcDbLine
 10
506.0498555491432
 20
644.2504374863986
 30
0.0
 11
506.0498555491432
 21
648.2504374863985
 31
0.0
  0
LINE
  5
B3B
330
AC9
100
AcDbEntity
  8
0
 62
     0
370
    -2
100
AcDbLine
 10
506.0498555491432
 20
650.7504374863986
 30
0.0
 11
506.0498555491432
 21
656.1671041530652
 31
0.0
  0
SOLID
  5
B3C
330
AC9
100
AcDbEntity
  8
0
 62
     0
100
AcDbTrace
 10
505.6331888824765
 20
644.2504374863986
 30
0.0
 11
506.4665222158098
 21
644.2504374863986
 31
0.0
 12
506.0498555491432
 22
641.7504374863986
 32
0.0
 13
506.0498555491432
 23
641.7504374863986
 33
0.0
  0
SOLID
  5
B3D
330
AC9
100
AcDbEntity
  8
0
 62
     0
100
AcDbTrace
 10
505.6331888824765
 20
648.2504374863985
 30
0.0
 11
506.4665222158098
 21
648.2504374863985
 31
0.0
 12
506.0498555491432
 22
650.7504374863986
 32
0.0
 13
506.0498555491432
 23
650.7504374863986
 33
0.0
  0
MTEXT
  5
B3E
330
AC9
100
AcDbEntity
  8
0
 62
     0
100
AcDbMText
 10
504.174855549143
 20
654.708770819732
 30
0.0
 40
2.5
 41
0.0
 71
     5
 72
     1
  1
9
 11
0.0000000000000001
 21
1.0
 31
0.0
 73
     1
 44
1.0
  0
POINT
  5
B3F
330
AC9
100
AcDbEntity
  8
Defpoints
 62
     0
100
AcDbPoint
 10
511.8459886196551
 20
641.7504374863986
 30
0.0
  0
POINT
  5
B40
330
AC9
100
AcDbEntity
  8
Defpoints
 62
     0
100
AcDbPoint
 10
511.8459886196551
 20
650.7504374863986
 30
0.0
  0
POINT
  5
B41
330
AC9
100
AcDbEntity
  8
Defpoints
 62
     0
100
AcDbPoint
 10
506.0498555491432
 20
650.7504374863986
 30
0.0
  0
ENDBLK
  5
AD4
330
AC9
100
AcDbEntity
  8
0
100
AcDbBlockEnd
  0
BLOCK
  5
AEB
330
AE1
100
AcDbEntity
  8
0
100
AcDbBlockBegin
  2
*D51
 70
     1
 10
0.0
 20
0.0
 30
0.0
  3
*D51
  1

  0
LINE
  5
B71
330
AE1
100
AcDbEntity
  8
0
 62
     0
370
    -2
100
AcDbLine
 10
519.2749025644079
 20
637.2504374863986
 30
0.0
 11
524.1573374135441
 21
637.2504374863986
 31
0.0
  0
LINE
  5
B72
330
AE1
100
AcDbEntity
  8
0
 62
     0
370
    -2
100
AcDbLine
 10
519.2749025644079
 20
645.2504374863987
 30
0.0
 11
524.1573374135441
 21
645.2504374863987
 31
0.0
  0
LINE
  5
B73
330
AE1
100
AcDbEntity
  8
0
 62
     0
370
    -2
100
AcDbLine
 10
522.9073374135441
 20
639.7504374863985
 30
0.0
 11
522.9073374135441
 21
642.7504374863986
 31
0.0
  0
SOLID
  5
B74
330
AE1
100
AcDbEntity
  8
0
 62
     0
100
AcDbTrace
 10
522.4906707468774
 20
639.7504374863985
 30
0.0
 11
523.3240040802107
 21
639.7504374863985
 31
0.0
 12
522.9073374135441
 22
637.2504374863986
 32
0.0
 13
522.9073374135441
 23
637.2504374863986
 33
0.0
  0
SOLID
  5
B75
330
AE1
100
AcDbEntity
  8
0
 62
     0
100
AcDbTrace
 10
522.4906707468774
 20
642.7504374863986
 30
0.0
 11
523.3240040802107
 21
642.7504374863986
 31
0.0
 12
522.9073374135441
 22
645.2504374863987
 32
0.0
 13
522.9073374135441
 23
645.2504374863987
 33
0.0
  0
MTEXT
  5
B76
330
AE1
100
AcDbEntity
  8
0
 62
     0
100
AcDbMText
 10
521.032337413544
 20
641.2504374863988
 30
0.0
 40
2.5
 41
0.0
 71
     5
 72
     1
  1
8
 11
0.0000000000000001
 21
1.0
 31
0.0
 73
     1
 44
1.0
  0
POINT
  5
B77
330
AE1
100
AcDbEntity
  8
Defpoints
 62
     0
100
AcDbPoint
 10
518.649902564408
 20
637.2504374863986
 30
0.0
  0
POINT
  5
B78
330
AE1
100
AcDbEntity
  8
Defpoints
 62
     0
100
AcDbPoint
 10
518.649902564408
 20
645.2504374863987
 30
0.0
  0
POINT
  5
B79
330
AE1
100
AcDbEntity
  8
Defpoints
 62
     0
100
AcDbPoint
 10
522.9073374135441
 20
645.2504374863987
 30
0.0
  0
ENDBLK
  5
AEC
330
AE1
100
AcDbEntity
  8
0
100
AcDbBlockEnd
  0
BLOCK
  5
B2B
330
B21
100
AcDbEntity
  8
0
100
AcDbBlockBegin
  2
*D52
 70
     1
 10
0.0
 20
0.0
 30
0.0
  3
*D52
  1

  0
LINE
  5
B2E
330
B21
100
AcDbEntity
  8
0
 62
     0
370
    -2
100
AcDbLine
 10
511.6017913327196
 20
627.8922701763388
 30
0.0
 11
511.6017913327196
 21
613.0161600229173
 31
0.0
  0
LINE
  5
B2F
330
B21
100
AcDbEntity
  8
0
 62
     0
370
    -2
100
AcDbLine
 10
661.6017913327196
 20
627.8922701763388
 30
0.0
 11
661.6017913327196
 21
613.0161600229173
 31
0.0
  0
LINE
  5
B30
330
B21
100
AcDbEntity
  8
0
 62
     0
370
    -2
100
AcDbLine
 10
514.1017913327195
 20
614.2661600229173
 30
0.0
 11
659.1017913327195
 21
614.2661600229173
 31
0.0
  0
SOLID
  5
B31
330
B21
100
AcDbEntity
  8
0
 62
     0
100
AcDbTrace
 10
514.1017913327195
 20
614.6828266895839
 30
0.0
 11
514.1017913327195
 21
613.8494933562506
 31
0.0
 12
511.6017913327196
 22
614.2661600229173
 32
0.0
 13
511.6017913327196
 23
614.2661600229173
 33
0.0
  0
SOLID
  5
B32
330
B21
100
AcDbEntity
  8
0
 62
     0
100
AcDbTrace
 10
659.1017913327195
 20
614.6828266895839
 30
0.0
 11
659.1017913327195
 21
613.8494933562506
 31
0.0
 12
661.6017913327196
 22
614.2661600229173
 32
0.0
 13
661.6017913327196
 23
614.2661600229173
 33
0.0
  0
MTEXT
  5
B33
330
B21
100
AcDbEntity
  8
0
 62
     0
100
AcDbMText
 10
586.6017913327196
 20
616.1411600229173
 30
0.0
 40
2.5
 41
0.0
 71
     5
 72
     1
  1
150
 73
     1
 44
1.0
  0
POINT
  5
B34
330
B21
100
AcDbEntity
  8
Defpoints
 62
     0
100
AcDbPoint
 10
511.6017913327196
 20
628.5172701763388
 30
0.0
  0
POINT
  5
B35
330
B21
100
AcDbEntity
  8
Defpoints
 62
     0
100
AcDbPoint
 10
661.6017913327196
 20
628.5172701763388
 30
0.0
  0
POINT
  5
B36
330
B21
100
AcDbEntity
  8
Defpoints
 62
     0
100
AcDbPoint
 10
661.6017913327196
 20
614.2661600229173
 30
0.0
  0
ENDBLK
  5
B2C
330
B21
100
AcDbEntity
  8
0
100
AcDbBlockEnd
  0
BLOCK
  5
BC0
330
BB6
100
AcDbEntity
  8
0
100
AcDbBlockBegin
  2
*D54
 70
     1
 10
0.0
 20
0.0
 30
0.0
  3
*D54
  1

  0
LINE
  5
BD7
330
BB6
100
AcDbEntity
  8
0
 62
     0
370
    -2
100
AcDbLine
 10
511.6017913327196
 20
637.2649353865524
 30
0.0
 11
511.6017913327196
 21
634.4005331635842
 31
0.0
  0
LINE
  5
BD8
330
BB6
100
AcDbEntity
  8
0
 62
     0
370
    -2
100
AcDbLine
 10
519.6017913327195
 20
637.2649353865524
 30
0.0
 11
519.6017913327195
 21
634.4005331635842
 31
0.0
  0
LINE
  5
BD9
330
BB6
100
AcDbEntity
  8
0
 62
     0
370
    -2
100
AcDbLine
 10
517.1017913327196
 20
635.6505331635842
 30
0.0
 11
514.1017913327195
 21
635.6505331635842
 31
0.0
  0
LINE
  5
BDA
330
BB6
100
AcDbEntity
  8
0
 62
     0
370
    -2
100
AcDbLine
 10
511.6017913327196
 20
635.6505331635842
 30
0.0
 11
506.185124666053
 21
635.6505331635842
 31
0.0
  0
SOLID
  5
BDB
330
BB6
100
AcDbEntity
  8
0
 62
     0
100
AcDbTrace
 10
517.1017913327196
 20
636.0671998302508
 30
0.0
 11
517.1017913327196
 21
635.2338664969176
 31
0.0
 12
519.6017913327195
 22
635.6505331635842
 32
0.0
 13
519.6017913327195
 23
635.6505331635842
 33
0.0
  0
SOLID
  5
BDC
330
BB6
100
AcDbEntity
  8
0
 62
     0
100
AcDbTrace
 10
514.1017913327195
 20
636.0671998302508
 30
0.0
 11
514.1017913327195
 21
635.2338664969176
 31
0.0
 12
511.6017913327196
 22
635.6505331635842
 32
0.0
 13
511.6017913327196
 23
635.6505331635842
 33
0.0
  0
MTEXT
  5
BDD
330
BB6
100
AcDbEntity
  8
0
 62
     0
100
AcDbMText
 10
507.6434579993863
 20
637.5255331635842
 30
0.0
 40
2.5
 41
0.0
 71
     5
 72
     1
  1
8
 73
     1
 44
1.0
  0
POINT
  5
BDE
330
BB6
100
AcDbEntity
  8
Defpoints
 62
     0
100
AcDbPoint
 10
511.6017913327196
 20
637.8899353865524
 30
0.0
  0
POINT
  5
BDF
330
BB6
100
AcDbEntity
  8
Defpoints
 62
     0
100
AcDbPoint
 10
519.6017913327195
 20
637.8899353865524
 30
0.0
  0
POINT
  5
BE0
330
BB6
100
AcDbEntity
  8
Defpoints
 62
     0
100
AcDbPoint
 10
519.6017913327195
 20
635.6505331635842
 30
0.0
  0
ENDBLK
  5
BC1
330
BB6
100
AcDbEntity
  8
0
100
AcDbBlockEnd
  0
BLOCK
  5
C48
330
C3C
100
AcDbEntity
  8
0
100
AcDbBlockBegin
  2
*D55
 70
     1
 10
0.0
 20
0.0
 30
0.0
  3
*D55
  1

  0
LINE
  5
DCA
330
C3C
100
AcDbEntity
  8
0
 62
     0
370
    -2
100
AcDbLine
 10
598.3703152276838
 20
652.25074270564
 30
0.0
 11
595.7410559611185
 21
652.25074270564
 31
0.0
  0
LINE
  5
DCB
330
C3C
100
AcDbEntity
  8
0
 62
     0
370
    -2
100
AcDbLine
 10
598.9147576773486
 20
657.2504374863986
 30
0.0
 11
595.7410559611185
 21
657.2504374863986
 31
0.0
  0
LINE
  5
DCC
330
C3C
100
AcDbEntity
  8
0
 62
     0
370
    -2
100
AcDbLine
 10
596.9910559611185
 20
649.75074270564
 30
0.0
 11
596.9910559611185
 21
647.25074270564
 31
0.0
  0
LINE
  5
DCD
330
C3C
100
AcDbEntity
  8
0
 62
     0
370
    -2
100
AcDbLine
 10
596.9910559611185
 20
659.7504374863985
 30
0.0
 11
596.9910559611185
 21
662.2504374863986
 31
0.0
  0
LINE
  5
DCE
330
C3C
100
AcDbEntity
  8
0
 62
     0
370
    -2
100
AcDbLine
 10
596.9910559611185
 20
652.25074270564
 30
0.0
 11
596.9910559611185
 21
657.2504374863986
 31
0.0
  0
SOLID
  5
DCF
330
C3C
100
AcDbEntity
  8
0
 62
     0
100
AcDbTrace
 10
596.5743892944519
 20
649.75074270564
 30
0.0
 11
597.407722627785
 21
649.75074270564
 31
0.0
 12
596.9910559611185
 22
652.25074270564
 32
0.0
 13
596.9910559611185
 23
652.25074270564
 33
0.0
  0
SOLID
  5
DD0
330
C3C
100
AcDbEntity
  8
0
 62
     0
100
AcDbTrace
 10
596.5743892944519
 20
659.7504374863985
 30
0.0
 11
597.407722627785
 21
659.7504374863985
 31
0.0
 12
596.9910559611185
 22
657.2504374863986
 32
0.0
 13
596.9910559611185
 23
657.2504374863986
 33
0.0
  0
MTEXT
  5
DD1
330
C3C
100
AcDbEntity
  8
0
 62
     0
100
AcDbMText
 10
595.1160559611183
 20
654.7505900960194
 30
0.0
 40
2.5
 41
0.0
 71
     5
 72
     1
  1
5
 11
0.0000000000000001
 21
1.0
 31
0.0
 73
     1
 44
1.0
  0
POINT
  5
DD2
330
C3C
100
AcDbEntity
  8
Defpoints
 62
     0
100
AcDbPoint
 10
598.9953152276838
 20
652.25074270564
 30
0.0
  0
POINT
  5
DD3
330
C3C
100
AcDbEntity
  8
Defpoints
 62
     0
100
AcDbPoint
 10
599.5397576773487
 20
657.2504374863986
 30
0.0
  0
POINT
  5
DD4
330
C3C
100
AcDbEntity
  8
Defpoints
 62
     0
100
AcDbPoint
 10
596.9910559611185
 20
657.2504374863986
 30
0.0
  0
ENDBLK
  5
C49
330
C3C
100
AcDbEntity
  8
0
100
AcDbBlockEnd
  0
BLOCK
  5
D75
330
D69
100
AcDbEntity
  8
0
100
AcDbBlockBegin
  2
*D59
 70
     1
 10
0.0
 20
0.0
 30
0.0
  3
*D59
  1

  0
LINE
  5
DD5
330
D69
100
AcDbEntity
  8
0
 62
     0
370
    -2
100
AcDbLine
 10
598.6017913327195
 20
657.0190992380889
 30
0.0
 11
598.6017913327195
 21
662.7876840742954
 31
0.0
  0
LINE
  5
DD6
330
D69
100
AcDbEntity
  8
0
 62
     0
370
    -2
100
AcDbLine
 10
601.6017913327195
 20
657.0190992380889
 30
0.0
 11
601.6017913327195
 21
662.7876840742954
 31
0.0
  0
LINE
  5
DD7
330
D69
100
AcDbEntity
  8
0
 62
     0
370
    -2
100
AcDbLine
 10
596.1017913327196
 20
661.5376840742953
 30
0.0
 11
593.6017913327195
 21
661.5376840742953
 31
0.0
  0
LINE
  5
DD8
330
D69
100
AcDbEntity
  8
0
 62
     0
370
    -2
100
AcDbLine
 10
604.1017913327196
 20
661.5376840742953
 30
0.0
 11
606.6017913327195
 21
661.5376840742953
 31
0.0
  0
LINE
  5
DD9
330
D69
100
AcDbEntity
  8
0
 62
     0
370
    -2
100
AcDbLine
 10
598.6017913327195
 20
661.5376840742953
 30
0.0
 11
601.6017913327195
 21
661.5376840742953
 31
0.0
  0
SOLID
  5
DDA
330
D69
100
AcDbEntity
  8
0
 62
     0
100
AcDbTrace
 10
596.1017913327196
 20
661.954350740962
 30
0.0
 11
596.1017913327196
 21
661.1210174076287
 31
0.0
 12
598.6017913327195
 22
661.5376840742953
 32
0.0
 13
598.6017913327195
 23
661.5376840742953
 33
0.0
  0
SOLID
  5
DDB
330
D69
100
AcDbEntity
  8
0
 62
     0
100
AcDbTrace
 10
604.1017913327196
 20
661.954350740962
 30
0.0
 11
604.1017913327196
 21
661.1210174076287
 31
0.0
 12
601.6017913327195
 22
661.5376840742953
 32
0.0
 13
601.6017913327195
 23
661.5376840742953
 33
0.0
  0
MTEXT
  5
DDC
330
D69
100
AcDbEntity
  8
0
 62
     0
100
AcDbMText
 10
600.1017913327196
 20
663.4126840742953
 30
0.0
 40
2.5
 41
0.0
 71
     5
 72
     1
  1
3
 73
     1
 44
1.0
  0
POINT
  5
DDD
330
D69
100
AcDbEntity
  8
Defpoints
 62
     0
100
AcDbPoint
 10
598.6017913327195
 20
656.394099238089
 30
0.0
  0
POINT
  5
DDE
330
D69
100
AcDbEntity
  8
Defpoints
 62
     0
100
AcDbPoint
 10
601.6017913327195
 20
656.394099238089
 30
0.0
  0
POINT
  5
DDF
330
D69
100
AcDbEntity
  8
Defpoints
 62
     0
100
AcDbPoint
 10
601.6017913327195
 20
661.5376840742953
 30
0.0
  0
ENDBLK
  5
D76
330
D69
100
AcDbEntity
  8
0
100
AcDbBlockEnd
  0
BLOCK
  5
D8F
330
D85
100
AcDbEntity
  8
0
100
AcDbBlockBegin
  2
*D60
 70
     1
 10
0.0
 20
0.0
 30
0.0
  3
*D60
  1

  0
LINE
  5
DC1
330
D85
100
AcDbEntity
  8
0
 62
     0
370
    -2
100
AcDbLine
 10
556.930041199407
 20
657.2538970432476
 30
0.0
 11
553.8152091542524
 21
657.2538970432476
 31
0.0
  0
LINE
  5
DC2
330
D85
100
AcDbEntity
  8
0
 62
     0
370
    -2
100
AcDbLine
 10
556.4823645249298
 20
666.2504374863986
 30
0.0
 11
553.8152091542524
 21
666.2504374863986
 31
0.0
  0
LINE
  5
DC3
330
D85
100
AcDbEntity
  8
0
 62
     0
370
    -2
100
AcDbLine
 10
555.0652091542524
 20
659.7538970432476
 30
0.0
 11
555.0652091542524
 21
663.7504374863985
 31
0.0
  0
SOLID
  5
DC4
330
D85
100
AcDbEntity
  8
0
 62
     0
100
AcDbTrace
 10
554.6485424875858
 20
659.7538970432476
 30
0.0
 11
555.481875820919
 21
659.7538970432476
 31
0.0
 12
555.0652091542524
 22
657.2538970432476
 32
0.0
 13
555.0652091542524
 23
657.2538970432476
 33
0.0
  0
SOLID
  5
DC5
330
D85
100
AcDbEntity
  8
0
 62
     0
100
AcDbTrace
 10
554.6485424875858
 20
663.7504374863985
 30
0.0
 11
555.481875820919
 21
663.7504374863985
 31
0.0
 12
555.0652091542524
 22
666.2504374863986
 32
0.0
 13
555.0652091542524
 23
666.2504374863986
 33
0.0
  0
MTEXT
  5
DC6
330
D85
100
AcDbEntity
  8
0
 62
     0
100
AcDbMText
 10
553.1902091542523
 20
661.7521672648232
 30
0.0
 40
2.5
 41
0.0
 71
     5
 72
     1
  1
9
 11
0.0000000000000001
 21
1.0
 31
0.0
 73
     1
 44
1.0
  0
POINT
  5
DC7
330
D85
100
AcDbEntity
  8
Defpoints
 62
     0
100
AcDbPoint
 10
557.5550411994071
 20
657.2538970432476
 30
0.0
  0
POINT
  5
DC8
330
D85
100
AcDbEntity
  8
Defpoints
 62
     0
100
AcDbPoint
 10
557.1073645249298
 20
666.2504374863986
 30
0.0
  0
POINT
  5
DC9
330
D85
100
AcDbEntity
  8
Defpoints
 62
     0
100
AcDbPoint
 10
555.0652091542524
 20
666.2504374863986
 30
0.0
  0
ENDBLK
  5
D90
330
D85
100
AcDbEntity
  8
0
100
AcDbBlockEnd
  0
BLOCK
  5
E00
330
DF4
100
AcDbEntity
  8
0
100
AcDbBlockBegin
  2
*D61
 70
     1
 10
0.0
 20
0.0
 30
0.0
  3
*D61
  1

  0
LINE
  5
E0F
330
DF4
100
AcDbEntity
  8
0
 62
     0
370
    -2
100
AcDbLine
 10
518.8586027017318
 20
654.4096646660968
 30
0.0
 11
518.8586027017318
 21
658.6677763562692
 31
0.0
  0
LINE
  5
E10
330
DF4
100
AcDbEntity
  8
0
 62
     0
370
    -2
100
AcDbLine
 10
520.8630688844875
 20
654.4096646660968
 30
0.0
 11
520.8630688844875
 21
658.6677763562692
 31
0.0
  0
LINE
  5
E11
330
DF4
100
AcDbEntity
  8
0
 62
     0
370
    -2
100
AcDbLine
 10
516.3586027017319
 20
657.4177763562691
 30
0.0
 11
513.8586027017319
 21
657.4177763562691
 31
0.0
  0
LINE
  5
E12
330
DF4
100
AcDbEntity
  8
0
 62
     0
370
    -2
100
AcDbLine
 10
523.3630688844876
 20
657.4177763562691
 30
0.0
 11
528.7797355511542
 21
657.4177763562691
 31
0.0
  0
LINE
  5
E13
330
DF4
100
AcDbEntity
  8
0
 62
     0
370
    -2
100
AcDbLine
 10
518.8586027017318
 20
657.4177763562691
 30
0.0
 11
520.8630688844875
 21
657.4177763562691
 31
0.0
  0
SOLID
  5
E14
330
DF4
100
AcDbEntity
  8
0
 62
     0
100
AcDbTrace
 10
516.3586027017319
 20
657.8344430229358
 30
0.0
 11
516.3586027017319
 21
657.0011096896025
 31
0.0
 12
518.8586027017318
 22
657.4177763562691
 32
0.0
 13
518.8586027017318
 23
657.4177763562691
 33
0.0
  0
SOLID
  5
E15
330
DF4
100
AcDbEntity
  8
0
 62
     0
100
AcDbTrace
 10
523.3630688844876
 20
657.8344430229358
 30
0.0
 11
523.3630688844876
 21
657.0011096896025
 31
0.0
 12
520.8630688844875
 22
657.4177763562691
 32
0.0
 13
520.8630688844875
 23
657.4177763562691
 33
0.0
  0
MTEXT
  5
E16
330
DF4
100
AcDbEntity
  8
0
 62
     0
100
AcDbMText
 10
527.3214022178209
 20
659.2927763562691
 30
0.0
 40
2.5
 41
0.0
 71
     5
 72
     1
  1
2
 73
     1
 44
1.0
  0
POINT
  5
E17
330
DF4
100
AcDbEntity
  8
Defpoints
 62
     0
100
AcDbPoint
 10
518.8586027017318
 20
653.7846646660969
 30
0.0
  0
POINT
  5
E18
330
DF4
100
AcDbEntity
  8
Defpoints
 62
     0
100
AcDbPoint
 10
520.8630688844875
 20
653.7846646660969
 30
0.0
  0
POINT
  5
E19
330
DF4
100
AcDbEntity
  8
Defpoints
 62
     0
100
AcDbPoint
 10
520.8630688844875
 20
657.4177763562691
 30
0.0
  0
ENDBLK
  5
E01
330
DF4
100
AcDbEntity
  8
0
100
AcDbBlockEnd
  0
BLOCK
  5
E27
330
E1B
100
AcDbEntity
  8
0
100
AcDbBlockBegin
  2
*D62
 70
     1
 10
0.0
 20
0.0
 30
0.0
  3
*D62
  1

  0
LINE
  5
E52
330
E1B
100
AcDbEntity
  8
0
 62
     0
370
    -2
100
AcDbLine
 10
546.2673600627668
 20
654.3651198845102
 30
0.0
 11
546.2673600627668
 21
658.7479518293332
 31
0.0
  0
LINE
  5
E53
330
E1B
100
AcDbEntity
  8
0
 62
     0
370
    -2
100
AcDbLine
 10
547.2663278542693
 20
653.7112666532429
 30
0.0
 11
547.2663278542693
 21
658.7479518293332
 31
0.0
  0
LINE
  5
E54
330
E1B
100
AcDbEntity
  8
0
 62
     0
370
    -2
100
AcDbLine
 10
543.7673600627667
 20
657.4979518293332
 30
0.0
 11
541.2673600627668
 21
657.4979518293332
 31
0.0
  0
LINE
  5
E55
330
E1B
100
AcDbEntity
  8
0
 62
     0
370
    -2
100
AcDbLine
 10
549.7663278542693
 20
657.4979518293332
 30
0.0
 11
554.3496611876027
 21
657.4979518293332
 31
0.0
  0
LINE
  5
E56
330
E1B
100
AcDbEntity
  8
0
 62
     0
370
    -2
100
AcDbLine
 10
546.2673600627668
 20
657.4979518293332
 30
0.0
 11
547.2663278542693
 21
657.4979518293332
 31
0.0
  0
SOLID
  5
E57
330
E1B
100
AcDbEntity
  8
0
 62
     0
100
AcDbTrace
 10
543.7673600627667
 20
657.9146184959999
 30
0.0
 11
543.7673600627667
 21
657.0812851626666
 31
0.0
 12
546.2673600627668
 22
657.4979518293332
 32
0.0
 13
546.2673600627668
 23
657.4979518293332
 33
0.0
  0
SOLID
  5
E58
330
E1B
100
AcDbEntity
  8
0
 62
     0
100
AcDbTrace
 10
549.7663278542693
 20
657.9146184959999
 30
0.0
 11
549.7663278542693
 21
657.0812851626666
 31
0.0
 12
547.2663278542693
 22
657.4979518293332
 32
0.0
 13
547.2663278542693
 23
657.4979518293332
 33
0.0
  0
MTEXT
  5
E59
330
E1B
100
AcDbEntity
  8
0
 62
     0
100
AcDbMText
 10
553.3079945209359
 20
659.3729518293332
 30
0.0
 40
2.5
 41
0.0
 71
     5
 72
     1
  1
1
 73
     1
 44
1.0
  0
POINT
  5
E5A
330
E1B
100
AcDbEntity
  8
Defpoints
 62
     0
100
AcDbPoint
 10
546.2673600627668
 20
653.7401198845103
 30
0.0
  0
POINT
  5
E5B
330
E1B
100
AcDbEntity
  8
Defpoints
 62
     0
100
AcDbPoint
 10
547.2663278542693
 20
653.086266653243
 30
0.0
  0
POINT
  5
E5C
330
E1B
100
AcDbEntity
  8
Defpoints
 62
     0
100
AcDbPoint
 10
547.2663278542693
 20
657.4979518293332
 30
0.0
  0
ENDBLK
  5
E28
330
E1B
100
AcDbEntity
  8
0
100
AcDbBlockEnd
  0
BLOCK
  5
E43
330
E37
100
AcDbEntity
  8
0
100
AcDbBlockBegin
  2
*D63
 70
     1
 10
0.0
 20
0.0
 30
0.0
  3
*D63
  1

  0
LINE
  5
E5D
330
E37
100
AcDbEntity
  8
0
 62
     0
370
    -2
100
AcDbLine
 10
517.2663278542692
 20
653.8844518629887
 30
0.0
 11
517.2663278542692
 21
669.2149926855899
 31
0.0
  0
LINE
  5
E5E
330
E37
100
AcDbEntity
  8
0
 62
     0
370
    -2
100
AcDbLine
 10
518.2586368836847
 20
653.8844518629887
 30
0.0
 11
518.2586368836847
 21
669.2149926855899
 31
0.0
  0
LINE
  5
E5F
330
E37
100
AcDbEntity
  8
0
 62
     0
370
    -2
100
AcDbLine
 10
514.7663278542693
 20
667.9649926855899
 30
0.0
 11
512.2663278542693
 21
667.9649926855899
 31
0.0
  0
LINE
  5
E60
330
E37
100
AcDbEntity
  8
0
 62
     0
370
    -2
100
AcDbLine
 10
520.7586368836847
 20
667.9649926855899
 30
0.0
 11
532.0086368836847
 21
667.9649926855899
 31
0.0
  0
LINE
  5
E61
330
E37
100
AcDbEntity
  8
0
 62
     0
370
    -2
100
AcDbLine
 10
517.2663278542692
 20
667.9649926855899
 30
0.0
 11
518.2586368836847
 21
667.9649926855899
 31
0.0
  0
SOLID
  5
E62
330
E37
100
AcDbEntity
  8
0
 62
     0
100
AcDbTrace
 10
514.7663278542693
 20
668.3816593522565
 30
0.0
 11
514.7663278542693
 21
667.5483260189232
 31
0.0
 12
517.2663278542692
 22
667.9649926855899
 32
0.0
 13
517.2663278542692
 23
667.9649926855899
 33
0.0
  0
SOLID
  5
E63
330
E37
100
AcDbEntity
  8
0
 62
     0
100
AcDbTrace
 10
520.7586368836847
 20
668.3816593522565
 30
0.0
 11
520.7586368836847
 21
667.5483260189232
 31
0.0
 12
518.2586368836847
 22
667.9649926855899
 32
0.0
 13
518.2586368836847
 23
667.9649926855899
 33
0.0
  0
MTEXT
  5
E64
330
E37
100
AcDbEntity
  8
0
 62
     0
100
AcDbMText
 10
527.6336368836847
 20
670.0483260189233
 30
0.0
 40
2.5
 41
0.0
 71
     5
 72
     1
  1
0,99
 73
     1
 44
1.0
  0
POINT
  5
E65
330
E37
100
AcDbEntity
  8
Defpoints
 62
     0
100
AcDbPoint
 10
517.2663278542692
 20
653.2594518629887
 30
0.0
  0
POINT
  5
E66
330
E37
100
AcDbEntity
  8
Defpoints
 62
     0
100
AcDbPoint
 10
518.2586368836847
 20
653.2594518629887
 30
0.0
  0
POINT
  5
E67
330
E37
100
AcDbEntity
  8
Defpoints
 62
     0
100
AcDbPoint
 10
518.2586368836847
 20
667.9649926855899
 30
0.0
  0
ENDBLK
  5
E44
330
E37
100
AcDbEntity
  8
0
100
AcDbBlockEnd
  0
ENDSEC
  0
SECTION
  2
ENTITIES
  0
LINE
  5
87
102
{ACAD_REACTORS
330
C0
330
D9B
102
}
330
1F
100
AcDbEntity
  8
0
100
AcDbLine
 10
511.6017913327196
 20
666.2504374863986
 30
0.0
 11
661.6017913327196
 21
666.2504374863986
 31
0.0
  0
LINE
  5
88
102
{ACAD_REACTORS
330
B37
102
}
330
1F
100
AcDbEntity
  8
0
100
AcDbLine
 10
661.6017913327196
 20
666.2504374863986
 30
0.0
 11
661.6017913327196
 21
626.2504374863985
 31
0.0
  0
LINE
  5
89
102
{ACAD_REACTORS
330
C0
102
}
330
1F
100
AcDbEntity
  8
0
100
AcDbLine
 10
661.6017913327196
 20
626.2504374863985
 30
0.0
 11
511.6017913327196
 21
626.2504374863985
 31
0.0
  0
LINE
  5
8A
102
{ACAD_REACTORS
330
B37
330
BCC
102
}
330
1F
100
AcDbEntity
  8
0
100
AcDbLine
 10
511.6017913327196
 20
626.2504374863985
 30
0.0
 11
511.6017913327196
 21
666.2504374863987
 31
0.0
  0
LINE
  5
8B
102
{ACAD_REACTORS
330
D8
330
D83
102
}
330
1F
100
AcDbEntity
  8
0
100
AcDbLine
 10
601.6017913327195
 20
666.2504374863986
 30
0.0
 11
601.6017913327195
 21
626.2504374863985
 31
0.0
  0
LINE
  5
8C
102
{ACAD_REACTORS
330
F0
102
}
330
1F
100
AcDbEntity
  8
0
100
AcDbLine
 10
556.6017913327195
 20
666.2504374863986
 30
0.0
 11
556.6017913327195
 21
626.2504374863985
 31
0.0
  0
LINE
  5
8D
330
1F
100
AcDbEntity
  8
0
  6
CENTER2
 62
     3
100
AcDbLine
 10
661.6017913327196
 20
646.2504374863986
 30
0.0
 11
511.6017913327196
 21
646.2504374863986
 31
0.0
  0
LINE
  5
8E
102
{ACAD_REACTORS
330
94A
330
97A
102
}
330
1F
100
AcDbEntity
  8
0
 62
     3
100
AcDbLine
 10
661.6017913327196
 20
647.2504374863985
 30
0.0
 11
511.6017913327196
 21
647.2504374863985
 31
0.0
  0
LINE
  5
8F
102
{ACAD_REACTORS
330
94A
330
AF7
102
}
330
1F
100
AcDbEntity
  8
0
 62
     3
100
AcDbLine
 10
661.6017913327196
 20
645.2504374863986
 30
0.0
 11
511.6017913327196
 21
645.2504374863986
 31
0.0
  0
DIMENSION
  5
A9
102
{ACAD_XDICTIONARY
360
B6
102
}
102
{ACAD_REACTORS
330
C0
102
}
330
1F
100
AcDbEntity
  8
0
100
AcDbDimension
  2
*D2
 10
494.4653839298317
 20
626.2504374863986
 30
0.0
 11
494.4653839298316
 21
646.2504374863988
 31
0.0
 70
   160
 71
     5
 42
39.99999999999989
  3
ISO-25
100
AcDbAlignedDimension
 13
522.886553575314
 23
666.2504374863986
 33
0.0
 14
522.886553575314
 24
626.2504374863986
 34
0.0
 50
90.0
100
AcDbRotatedDimension
  0
DIMENSION
  5
C1
102
{ACAD_XDICTIONARY
360
CE
102
}
102
{ACAD_REACTORS
330
D8
102
}
330
1F
100
AcDbEntity
  8
0
100
AcDbDimension
  2
*D3
 10
661.6017913327196
 20
674.727374872062
 30
0.0
 11
631.6017913327195
 21
676.602374872062
 31
0.0
 70
    32
 71
     5
 42
60.0
  3
ISO-25
100
AcDbAlignedDimension
 13
601.6017913327195
 23
661.369102784459
 33
0.0
 14
661.6017913327196
 24
661.369102784459
 34
0.0
100
AcDbRotatedDimension
  0
DIMENSION
  5
D9
102
{ACAD_XDICTIONARY
360
E6
102
}
102
{ACAD_REACTORS
330
F0
102
}
330
1F
100
AcDbEntity
  8
0
100
AcDbDimension
  2
*D4
 10
601.6017913327195
 20
674.727374872062
 30
0.0
 11
579.1017913327196
 21
676.602374872062
 31
0.0
 70
    32
 71
     5
 42
45.0
  3
ISO-25
100
AcDbAlignedDimension
 13
556.6017913327195
 23
660.2719909350951
 33
0.0
 14
601.6017913327195
 24
660.2719909350951
 34
0.0
100
AcDbRotatedDimension
  0
DIMENSION
  5
F1
330
1F
100
AcDbEntity
  8
0
100
AcDbDimension
  2
*D5
 10
556.6017913327195
 20
674.7176723389259
 30
0.0
 11
534.1017913327195
 21
676.5926723389259
 31
0.0
 70
    32
 71
     5
 42
45.0
  3
ISO-25
100
AcDbAlignedDimension
 13
511.6017913327196
 23
661.444607008779
 33
0.0
 14
556.6017913327195
 24
661.444607008779
 34
0.0
100
AcDbRotatedDimension
  0
LINE
  5
129
330
1F
100
AcDbEntity
  8
0
100
AcDbLine
 10
552.0990872136092
 20
633.2806808809753
 30
0.0
 11
538.0990872136091
 21
633.2806808809753
 31
0.0
  0
LINE
  5
12A
330
1F
100
AcDbEntity
  8
0
100
AcDbLine
 10
538.0990872136091
 20
629.2806808809753
 30
0.0
 11
552.0990872136092
 21
629.2806808809753
 31
0.0
  0
MTEXT
  5
12B
330
1F
100
AcDbEntity
  8
0
100
AcDbMText
 10
544.6483787564322
 20
632.2246708386139
 30
0.0
 40
1.0
 41
3.073568313838327
 71
     1
 72
     5
  1
{\fSimSun|b0|i0|c134|p54;}
 73
     1
 44
1.0
  0
LINE
  5
12C
102
{ACAD_REACTORS
330
573
102
}
330
1F
100
AcDbEntity
  8
0
100
AcDbLine
 10
536.1004079200998
 20
633.2806808809753
 30
0.0
 11
524.1004079200997
 21
633.2806808809753
 31
0.0
  0
LINE
  5
12D
102
{ACAD_REACTORS
330
573
102
}
330
1F
100
AcDbEntity
  8
0
100
AcDbLine
 10
524.1004079200997
 20
629.2806808809753
 30
0.0
 11
536.1004079200998
 21
629.2806808809753
 31
0.0
  0
MTEXT
  5
12E
330
1F
100
AcDbEntity
  8
0
100
AcDbMText
 10
528.0246816153704
 20
632.2519829017992
 30
0.0
 40
1.0
 41
9.491666666666665
 71
     1
 72
     5
  1
{\fSimSun|b0|i0|c134|p54;}
 73
     1
 44
1.0
  0
LINE
  5
12F
102
{ACAD_REACTORS
330
854
330
870
102
}
330
1F
100
AcDbEntity
  8
0
100
AcDbLine
 10
538.0990872136091
 20
633.2806808809753
 30
0.0
 11
538.0990872136091
 21
629.2806808809753
 31
0.0
  0
LINE
  5
130
102
{ACAD_REACTORS
330
163
330
870
102
}
330
1F
100
AcDbEntity
  8
0
100
AcDbLine
 10
536.1004079200998
 20
629.2806808809753
 30
0.0
 11
536.1004079200998
 21
633.2806808809753
 31
0.0
  0
LINE
  5
131
102
{ACAD_REACTORS
330
854
102
}
330
1F
100
AcDbEntity
  8
0
100
AcDbLine
 10
552.0990872136092
 20
629.2806808809753
 30
0.0
 11
552.0990872136092
 21
633.2806808809753
 31
0.0
  0
LINE
  5
133
102
{ACAD_REACTORS
330
163
102
}
330
1F
100
AcDbEntity
  8
0
100
AcDbLine
 10
524.1004079200997
 20
629.2806808809753
 30
0.0
 11
524.1004079200997
 21
633.2806808809753
 31
0.0
  0
DIMENSION
  5
14C
102
{ACAD_XDICTIONARY
360
159
102
}
102
{ACAD_REACTORS
330
163
102
}
330
1F
100
AcDbEntity
  8
0
100
AcDbDimension
  2
*D7
 10
536.1004079200998
 20
635.3503741959286
 30
0.0
 11
529.3180345503282
 21
635.3503741959286
 31
0.0
 70
   160
 71
     5
 42
12.0
  3
ISO-25
100
AcDbAlignedDimension
 13
524.1004079200997
 23
632.6238373199423
 33
0.0
 14
536.1004079200998
 24
632.6238373199423
 34
0.0
100
AcDbRotatedDimension
  0
LWPOLYLINE
  5
244
330
1F
100
AcDbEntity
  8
0
100
AcDbPolyline
 90
        4
 70
     1
 43
0.0
 10
517.2663278542692
 20
653.3862666532429
 10
547.2663278542693
 20
653.3862666532429
 10
547.2663278542693
 20
652.7862666532429
 10
517.2663278542692
 20
652.7862666532429
  0
LWPOLYLINE
  5
245
330
1F
100
AcDbEntity
  8
0
100
AcDbPolyline
 90
        4
 70
     1
 43
0.0
 10
516.9899119130453
 20
662.3137795925083
 10
546.9899119130452
 20
662.3137795925083
 10
546.9899119130452
 20
661.7137795925083
 10
516.9899119130453
 20
661.7137795925083
  0
LWPOLYLINE
  5
246
330
1F
100
AcDbEntity
  8
0
100
AcDbPolyline
 90
        4
 70
     1
 43
0.0
 10
524.2631030664404
 20
654.0368615306727
 10
528.2631030664403
 20
654.0368615306727
 10
528.2631030664403
 20
652.0368615306726
 10
524.2631030664404
 20
652.0368615306726
  0
LWPOLYLINE
  5
247
330
1F
100
AcDbEntity
  8
0
100
AcDbPolyline
 90
        4
 70
     1
 43
0.0
 10
530.2645220652157
 20
654.0198952950227
 10
534.2645220652157
 20
654.0198952950227
 10
534.2645220652157
 20
652.0198952950226
 10
530.2645220652157
 20
652.0198952950226
  0
MTEXT
  5
24A
330
1F
100
AcDbEntity
  8
0
100
AcDbMText
 10
514.5420674651088
 20
643.6197840748194
 30
0.0
 40
1.0
 41
3.695555555555555
 71
     1
 72
     5
  1
{\fSimSun|b0|i0|c134|p54;}
 73
     1
 44
1.0
  0
LWPOLYLINE
  5
290
330
1F
100
AcDbEntity
  8
0
100
AcDbPolyline
 90
        4
 70
     1
 43
0.0
 10
542.2673600627668
 20
653.9859628237227
 10
546.2673600627668
 20
653.9859628237227
 10
546.2673600627668
 20
651.9859628237227
 10
542.2673600627668
 20
651.9859628237227
  0
LWPOLYLINE
  5
291
330
1F
100
AcDbEntity
  8
0
100
AcDbPolyline
 90
        4
 70
     1
 43
0.0
 10
536.2659410639913
 20
654.0029290593727
 10
540.2659410639912
 20
654.0029290593727
 10
540.2659410639912
 20
652.0029290593726
 10
536.2659410639913
 20
652.0029290593726
  0
LINE
  5
311
102
{ACAD_REACTORS
330
AF7
102
}
330
1F
100
AcDbEntity
  8
0
100
AcDbLine
 10
511.6017913327196
 20
637.2504374863986
 30
0.0
 11
556.6017913327195
 21
637.2504374863986
 31
0.0
  0
MTEXT
  5
471
330
1F
100
AcDbEntity
  8
0
100
AcDbMText
 10
525.4957046346873
 20
659.0647016838196
 30
0.0
 40
2.0
 41
18.58666666666666
 71
     1
 72
     5
  1
{\fSimSun|b0|i0|c134|p54;}
 73
     1
 44
1.0
  0
MTEXT
  5
472
330
1F
100
AcDbEntity
  8
0
100
AcDbMText
 10
571.1011297033731
 20
654.7983436706636
 30
0.0
 40
2.0
 41
14.49702869445874
 71
     1
 72
     5
  1
{\fSimSun|b0|i0|c134|p54;}
 73
     1
 44
1.0
  0
MTEXT
  5
480
330
1F
100
AcDbEntity
  8
0
100
AcDbMText
 10
569.6076519516591
 20
665.4017641204979
 30
0.0
 40
2.0
 41
23.11666666666667
 71
     1
 72
     5
  1
{\fSimSun|b0|i0|c134|p6;\fSimSun|b0|i0|c134|p54;}
 73
     1
 44
1.0
  0
LWPOLYLINE
  5
485
330
1F
100
AcDbEntity
  8
0
100
AcDbPolyline
 90
        4
 70
     1
 43
0.0
 10
563.4444950424175
 20
659.7255774259488
 10
593.4444950424175
 20
659.7255774259488
 10
593.4444950424175
 20
659.1255774259487
 10
563.4444950424175
 20
659.1255774259487
  0
LWPOLYLINE
  5
486
330
1F
100
AcDbEntity
  8
0
100
AcDbPolyline
 90
        4
 70
     1
 43
0.0
 10
563.4446146097387
 20
661.5728124562252
 10
593.4446146097386
 20
661.5728124562252
 10
593.4446146097386
 20
660.9728124562252
 10
563.4446146097387
 20
660.9728124562252
  0
LWPOLYLINE
  5
4B5
102
{ACAD_REACTORS
330
4E6
330
614
102
}
330
1F
100
AcDbEntity
  8
0
100
AcDbPolyline
 90
        4
 70
     1
 43
0.0
 10
651.0056807025573
 20
652.2496515674582
 10
611.0056807025574
 20
652.2496515674582
 10
611.0056807025574
 20
661.2496515674583
 10
651.0056807025573
 20
661.2496515674583
  0
MTEXT
  5
4B6
330
1F
100
AcDbEntity
  8
0
100
AcDbMText
 10
623.8931746109687
 20
658.6188245990411
 30
0.0
 40
2.0
 41
23.11666666666667
 71
     1
 72
     5
  1
{\fSimSun|b0|i0|c134|p6;\fSimSun|b0|i0|c134|p54;1}
 73
     1
 44
1.0
  0
DIMENSION
  5
4CF
102
{ACAD_XDICTIONARY
360
4DC
102
}
102
{ACAD_REACTORS
330
4E6
102
}
330
1F
100
AcDbEntity
  8
0
100
AcDbDimension
  2
*D23
 10
608.5038836726985
 20
661.2496515674583
 30
0.0
 11
606.6288836726983
 21
656.7496515674584
 31
0.0
 70
    32
 71
     5
 42
9.0
  3
ISO-25
100
AcDbAlignedDimension
 13
612.4100691337517
 23
652.2496515674582
 33
0.0
 14
613.2110039945591
 24
661.2496515674583
 34
0.0
 50
90.0
100
AcDbRotatedDimension
  0
MTEXT
  5
50F
330
1F
100
AcDbEntity
  8
0
100
AcDbMText
 10
599.7975457833754
 20
656.9823956260797
 30
0.0
 40
0.5
 41
0.7565217391304348
 71
     1
 72
     5
  1
{\fSimSun|b0|i0|c134|p54;}
 73
     1
 44
1.0
  0
LINE
  5
53E
102
{ACAD_REACTORS
330
C56
102
}
330
1F
100
AcDbEntity
  8
0
100
AcDbLine
 10
601.6017913327195
 20
652.25074270564
 30
0.0
 11
598.6017913327195
 21
652.25074270564
 31
0.0
  0
LINE
  5
53F
102
{ACAD_REACTORS
330
D83
102
}
330
1F
100
AcDbEntity
  8
0
100
AcDbLine
 10
598.6017913327195
 20
652.25074270564
 30
0.0
 11
598.6017913327195
 21
657.25074270564
 31
0.0
  0
DIMENSION
  5
558
102
{ACAD_XDICTIONARY
360
567
102
}
102
{ACAD_REACTORS
330
573
102
}
330
1F
100
AcDbEntity
  8
0
100
AcDbDimension
  2
*D29
 10
523.0303911538152
 20
633.2806808809753
 30
0.0
 11
523.030391153815
 21
622.822347547642
 31
0.0
 70
   160
 71
     5
 42
4.0
  3
ISO-25
100
AcDbAlignedDimension
 13
524.7046616792527
 23
629.2806808809753
 33
0.0
 14
524.7046616792527
 24
633.2806808809753
 34
0.0
 50
90.0
100
AcDbRotatedDimension
  0
DIMENSION
  5
5FD
102
{ACAD_XDICTIONARY
360
60A
102
}
102
{ACAD_REACTORS
330
614
102
}
330
1F
100
AcDbEntity
  8
0
100
AcDbDimension
  2
*D34
 10
651.0056807025573
 20
662.5291280331614
 30
0.0
 11
631.0056807025573
 21
664.4041280331614
 31
0.0
 70
    32
 71
     5
 42
39.99999999999989
  3
ISO-25
100
AcDbAlignedDimension
 13
611.0056807025574
 23
659.7720309687645
 33
0.0
 14
651.0056807025573
 24
659.7720309687645
 34
0.0
100
AcDbRotatedDimension
  0
LINE
  5
61E
102
{ACAD_REACTORS
330
662
102
}
330
1F
100
AcDbEntity
  8
0
 62
     6
100
AcDbLine
 10
659.605405096972
 20
643.7551335861992
 30
0.0
 11
624.605405096972
 21
643.7551335861992
 31
0.0
  0
LINE
  5
620
102
{ACAD_REACTORS
330
A87
102
}
330
1F
100
AcDbEntity
  8
0
 62
     6
100
AcDbLine
 10
624.605405096972
 20
643.7551335861992
 30
0.0
 11
624.605405096972
 21
648.7551335861992
 31
0.0
  0
LINE
  5
621
102
{ACAD_REACTORS
330
662
102
}
330
1F
100
AcDbEntity
  8
0
 62
     6
100
AcDbLine
 10
624.605405096972
 20
648.7551335861992
 30
0.0
 11
659.605405096972
 21
648.7551335861992
 31
0.0
  0
LINE
  5
622
102
{ACAD_REACTORS
330
A87
102
}
330
1F
100
AcDbEntity
  8
0
 62
     6
100
AcDbLine
 10
659.605405096972
 20
648.7551335861992
 30
0.0
 11
659.605405096972
 21
643.7551335861992
 31
0.0
  0
MTEXT
  5
623
330
1F
100
AcDbEntity
  8
0
100
AcDbMText
 10
634.1461620840332
 20
647.7074760994733
 30
0.0
 40
2.0
 41
23.11666666666667
 71
     1
 72
     5
  1
{\fSimSun|b0|i0|c134|p54;}
 73
     1
 44
1.0
  0
DIMENSION
  5
647
102
{ACAD_XDICTIONARY
360
656
102
}
102
{ACAD_REACTORS
330
662
102
}
330
1F
100
AcDbEntity
  8
0
100
AcDbDimension
  2
*D36
 10
619.5846165460944
 20
648.7551335861991
 30
0.0
 11
617.7096165460942
 21
646.2551335861992
 31
0.0
 70
    32
 71
     5
 42
4.999999999999886
  3
ISO-25
100
AcDbAlignedDimension
 13
625.5530444208226
 23
643.7551335861992
 33
0.0
 14
626.1606909837882
 24
648.7551335861991
 34
0.0
 50
90.0
100
AcDbRotatedDimension
  0
MTEXT
  5
6C2
330
1F
100
AcDbEntity
  8
0
100
AcDbMText
 10
623.8931746109687
 20
633.8820503737561
 30
0.0
 40
2.0
 41
23.11666666666667
 71
     7
 72
     5
  1
{\fSimSun|b0|i0|c134|p6;\fSimSun|b0|i0|c134|p54;2}
 73
     1
 44
1.0
  0
LWPOLYLINE
  5
6C3
330
1F
100
AcDbEntity
  8
0
100
AcDbPolyline
 90
        4
 70
     1
 43
0.0
 10
651.0056807025573
 20
640.2512234053389
 10
611.0056807025574
 20
640.2512234053389
 10
611.0056807025574
 20
631.2512234053389
 10
651.0056807025573
 20
631.2512234053389
  0
DIMENSION
  5
6C5
330
1F
100
AcDbEntity
  8
0
100
AcDbDimension
  2
*D39
 10
669.4439030041722
 20
650.7504374863986
 30
0.0
 11
669.4439030041722
 21
646.2456387875739
 31
0.0
 70
   160
 71
     5
 42
9.0
  3
ISO-25
100
AcDbAlignedDimension
 13
660.210837782266
 23
641.7504374863986
 33
0.0
 14
660.6807919993298
 24
650.7504374863986
 34
0.0
 50
90.0
100
AcDbRotatedDimension
  0
MTEXT
  5
6E6
330
1F
100
AcDbEntity
  8
0
100
AcDbMText
 10
662.7086534432678
 20
649.5337107649024
 30
0.0
 40
2.0
 41
2.711111111111111
 71
     1
 72
     5
  1
{\fSimSun|b0|i0|c134|p54;}
 73
     1
 44
1.0
  0
LINE
  5
710
330
1F
100
AcDbEntity
  8
0
 62
     5
100
AcDbLine
 10
550.9182757043943
 20
626.2504374863986
 30
0.0
 11
546.9182757043943
 21
666.2504374863987
 31
0.0
  0
LINE
  5
711
330
1F
100
AcDbEntity
  8
0
 62
     5
100
AcDbLine
 10
550.9182757043943
 20
666.2504374863987
 30
0.0
 11
546.9182757043943
 21
626.2504374863986
 31
0.0
  0
LINE
  5
712
330
1F
100
AcDbEntity
  8
0
 62
     5
100
AcDbLine
 10
550.9182757043943
 20
666.2504374863987
 30
0.0
 11
550.9182757043943
 21
626.2504374863986
 31
0.0
  0
LINE
  5
713
330
1F
100
AcDbEntity
  8
0
 62
     5
100
AcDbLine
 10
546.9182757043943
 20
666.2504374863987
 30
0.0
 11
546.9182757043943
 21
626.2504374863986
 31
0.0
  0
LINE
  5
714
330
1F
100
AcDbEntity
  8
0
 62
     5
100
AcDbLine
 10
546.9182757043943
 20
626.2504374863986
 30
0.0
 11
550.9182757043943
 21
626.2504374863986
 31
0.0
  0
MTEXT
  5
715
330
1F
100
AcDbEntity
  8
0
 62
     1
100
AcDbMText
 10
548.016480236594
 20
650.7615229346535
 30
0.0
 40
1.0
 41
2.360745498999952
 71
     1
 72
     5
  1
{\fTimes New Roman|b0|i0|c0|p18;10T}
 73
     1
 44
1.0
  0
LINE
  5
716
330
1F
100
AcDbEntity
  8
0
 62
     5
100
AcDbLine
 10
546.9182757043943
 20
666.2504374863987
 30
0.0
 11
550.9182757043943
 21
666.2504374863987
 31
0.0
  0
LINE
  5
722
330
1F
100
AcDbEntity
  8
0
 62
     5
100
AcDbLine
 10
517.2858864077386
 20
626.2504374863986
 30
0.0
 11
513.2858864077386
 21
666.2504374863987
 31
0.0
  0
LINE
  5
723
330
1F
100
AcDbEntity
  8
0
 62
     5
100
AcDbLine
 10
517.2858864077386
 20
666.2504374863987
 30
0.0
 11
513.2858864077386
 21
626.2504374863986
 31
0.0
  0
LINE
  5
724
330
1F
100
AcDbEntity
  8
0
 62
     5
100
AcDbLine
 10
517.2858864077386
 20
666.2504374863987
 30
0.0
 11
517.2858864077386
 21
626.2504374863986
 31
0.0
  0
LINE
  5
725
330
1F
100
AcDbEntity
  8
0
 62
     5
100
AcDbLine
 10
513.2858864077386
 20
666.2504374863987
 30
0.0
 11
513.2858864077386
 21
626.2504374863986
 31
0.0
  0
LINE
  5
726
330
1F
100
AcDbEntity
  8
0
 62
     5
100
AcDbLine
 10
513.2858864077386
 20
626.2504374863986
 30
0.0
 11
517.2858864077386
 21
626.2504374863986
 31
0.0
  0
MTEXT
  5
727
330
1F
100
AcDbEntity
  8
0
 62
     1
100
AcDbMText
 10
514.3840909399385
 20
650.7349402424011
 30
0.0
 40
1.0
 41
2.360745498999952
 71
     1
 72
     5
  1
{\fTimes New Roman|b0|i0|c0|p18;10T}
 73
     1
 44
1.0
  0
LINE
  5
728
330
1F
100
AcDbEntity
  8
0
 62
     5
100
AcDbLine
 10
513.2858864077386
 20
666.2504374863987
 30
0.0
 11
517.2858864077386
 21
666.2504374863987
 31
0.0
  0
LINE
  5
734
330
1F
100
AcDbEntity
  8
0
 62
     5
100
AcDbLine
 10
608.2717777355148
 20
626.2504374863985
 30
0.0
 11
604.2717777355148
 21
666.2504374863986
 31
0.0
  0
LINE
  5
735
330
1F
100
AcDbEntity
  8
0
 62
     5
100
AcDbLine
 10
608.2717777355148
 20
666.2504374863986
 30
0.0
 11
604.2717777355148
 21
626.2504374863985
 31
0.0
  0
LINE
  5
736
330
1F
100
AcDbEntity
  8
0
 62
     5
100
AcDbLine
 10
608.2717777355148
 20
666.2504374863986
 30
0.0
 11
608.2717777355148
 21
626.2504374863985
 31
0.0
  0
LINE
  5
737
330
1F
100
AcDbEntity
  8
0
 62
     5
100
AcDbLine
 10
604.2717777355148
 20
666.2504374863986
 30
0.0
 11
604.2717777355148
 21
626.2504374863985
 31
0.0
  0
LINE
  5
738
330
1F
100
AcDbEntity
  8
0
 62
     5
100
AcDbLine
 10
604.2717777355148
 20
626.2504374863985
 30
0.0
 11
608.2717777355148
 21
626.2504374863985
 31
0.0
  0
MTEXT
  5
739
330
1F
100
AcDbEntity
  8
0
 62
     1
100
AcDbMText
 10
605.3699822677146
 20
650.7349402424011
 30
0.0
 40
1.0
 41
2.360745498999952
 71
     1
 72
     5
  1
{\fTimes New Roman|b0|i0|c0|p18;30T}
 73
     1
 44
1.0
  0
LINE
  5
73A
330
1F
100
AcDbEntity
  8
0
 62
     5
100
AcDbLine
 10
604.2717777355148
 20
666.2504374863986
 30
0.0
 11
608.2717777355148
 21
666.2504374863986
 31
0.0
  0
LINE
  5
746
330
1F
100
AcDbEntity
  8
0
 62
     5
100
AcDbLine
 10
564.1184545109747
 20
626.2504374863986
 30
0.0
 11
560.1184545109747
 21
666.2504374863987
 31
0.0
  0
LINE
  5
747
330
1F
100
AcDbEntity
  8
0
 62
     5
100
AcDbLine
 10
564.1184545109747
 20
666.2504374863987
 30
0.0
 11
560.1184545109747
 21
626.2504374863986
 31
0.0
  0
LINE
  5
748
330
1F
100
AcDbEntity
  8
0
 62
     5
100
AcDbLine
 10
564.1184545109747
 20
666.2504374863987
 30
0.0
 11
564.1184545109747
 21
626.2504374863986
 31
0.0
  0
LINE
  5
749
330
1F
100
AcDbEntity
  8
0
 62
     5
100
AcDbLine
 10
560.1184545109747
 20
666.2504374863987
 30
0.0
 11
560.1184545109747
 21
626.2504374863986
 31
0.0
  0
LINE
  5
74A
330
1F
100
AcDbEntity
  8
0
 62
     5
100
AcDbLine
 10
560.1184545109747
 20
626.2504374863986
 30
0.0
 11
564.1184545109747
 21
626.2504374863986
 31
0.0
  0
MTEXT
  5
74B
330
1F
100
AcDbEntity
  8
0
 62
     1
100
AcDbMText
 10
561.2166590431745
 20
650.7349402424011
 30
0.0
 40
1.0
 41
2.360745498999952
 71
     1
 72
     5
  1
{\fTimes New Roman|b0|i0|c0|p18;30T}
 73
     1
 44
1.0
  0
LINE
  5
74C
330
1F
100
AcDbEntity
  8
0
 62
     5
100
AcDbLine
 10
560.1184545109747
 20
666.2504374863987
 30
0.0
 11
564.1184545109747
 21
666.2504374863987
 31
0.0
  0
LINE
  5
752
102
{ACAD_REACTORS
330
BCC
102
}
330
1F
100
AcDbEntity
  8
0
100
AcDbLine
 10
519.6017913327195
 20
645.2504374863986
 30
0.0
 11
519.6017913327195
 21
637.2504374863986
 31
0.0
  0
MTEXT
  5
76B
330
1F
100
AcDbEntity
  8
0
100
AcDbMText
 10
530.7230565935936
 20
642.7459423226667
 30
0.0
 40
2.0
 41
12.8540758332972
 71
     1
 72
     5
  1
{\fSimSun|b0|i0|c134|p54;}
 73
     1
 44
1.0
  0
DIMENSION
  5
83D
102
{ACAD_XDICTIONARY
360
84A
102
}
102
{ACAD_REACTORS
330
854
102
}
330
1F
100
AcDbEntity
  8
0
100
AcDbDimension
  2
*D42
 10
552.0990872136092
 20
635.3503741959286
 30
0.0
 11
545.0990872136092
 21
637.2253741959286
 31
0.0
 70
    32
 71
     5
 42
14.0
  3
ISO-25
100
AcDbAlignedDimension
 13
538.0990872136091
 23
632.3415070286034
 33
0.0
 14
552.0990872136092
 24
632.6692296745648
 34
0.0
100
AcDbRotatedDimension
  0
DIMENSION
  5
855
102
{ACAD_XDICTIONARY
360
864
102
}
102
{ACAD_REACTORS
330
870
102
}
330
1F
100
AcDbEntity
  8
0
100
AcDbDimension
  2
*D43
 10
538.0990872136091
 20
622.6934687464825
 30
0.0
 11
544.5574205469426
 21
624.5684687464825
 31
0.0
 70
    32
 71
     5
 42
1.998679293509439
  3
ISO-25
100
AcDbAlignedDimension
 13
536.1004079200998
 23
630.0263482857911
 33
0.0
 14
538.0990872136091
 24
630.0263482857911
 34
0.0
100
AcDbRotatedDimension
  0
DIMENSION
  5
92F
102
{ACAD_XDICTIONARY
360
93E
102
}
102
{ACAD_REACTORS
330
94A
102
}
330
1F
100
AcDbEntity
  8
0
100
AcDbDimension
  2
*D45
 10
500.1524915355521
 20
647.2504374863987
 30
0.0
 11
500.152491535552
 21
638.7921041530653
 31
0.0
 70
   160
 71
     5
 42
2.000000000000113
  3
ISO-25
100
AcDbAlignedDimension
 13
512.9529132010348
 23
645.2504374863986
 33
0.0
 14
512.9529132010348
 24
647.2504374863987
 34
0.0
 50
90.0
100
AcDbRotatedDimension
  0
DIMENSION
  5
963
102
{ACAD_XDICTIONARY
360
970
102
}
102
{ACAD_REACTORS
330
97A
102
}
330
1F
100
AcDbEntity
  8
0
100
AcDbDimension
  2
*D47
 10
500.1524915355521
 20
666.2504374863986
 30
0.0
 11
498.277491535552
 21
656.7504374863987
 31
0.0
 70
    32
 71
     5
 42
19.0
  3
ISO-25
100
AcDbAlignedDimension
 13
512.0633127438659
 23
647.2504374863985
 33
0.0
 14
513.4051818207162
 24
666.2504374863986
 34
0.0
 50
90.0
100
AcDbRotatedDimension
  0
DIMENSION
  5
A70
102
{ACAD_XDICTIONARY
360
A7D
102
}
102
{ACAD_REACTORS
330
A87
102
}
330
1F
100
AcDbEntity
  8
0
100
AcDbDimension
  2
*D49
 10
659.6054050969721
 20
641.025647462279
 30
0.0
 11
641.6352206317924
 21
641.025647462279
 31
0.0
 70
   160
 71
     5
 42
35.00000000000011
  3
ISO-25
100
AcDbAlignedDimension
 13
624.605405096972
 23
644.4659324083001
 33
0.0
 14
659.6054050969721
 24
644.2286709870743
 34
0.0
100
AcDbRotatedDimension
  0
LINE
  5
A9C
330
1F
100
AcDbEntity
  8
0
100
AcDbLine
 10
661.6017913327196
 20
641.7504374863986
 30
0.0
 11
660.6017913327195
 21
641.7504374863986
 31
0.0
  0
LINE
  5
A9D
330
1F
100
AcDbEntity
  8
0
100
AcDbLine
 10
660.6017913327195
 20
641.7504374863986
 30
0.0
 11
660.6017913327195
 21
650.7504374863986
 31
0.0
  0
LINE
  5
A9E
330
1F
100
AcDbEntity
  8
0
100
AcDbLine
 10
660.6017913327195
 20
650.7504374863986
 30
0.0
 11
661.6017913327196
 21
650.7504374863986
 31
0.0
  0
LINE
  5
A9F
330
1F
100
AcDbEntity
  8
0
100
AcDbLine
 10
512.6017913327196
 20
641.7504374863986
 30
0.0
 11
512.6017913327196
 21
650.7504374863986
 31
0.0
  0
LINE
  5
AA0
102
{ACAD_REACTORS
330
ADF
102
}
330
1F
100
AcDbEntity
  8
0
100
AcDbLine
 10
512.6017913327196
 20
641.7504374863986
 30
0.0
 11
511.6017913327196
 21
641.7504374863986
 31
0.0
  0
LINE
  5
AA1
102
{ACAD_REACTORS
330
ADF
102
}
330
1F
100
AcDbEntity
  8
0
100
AcDbLine
 10
512.6017913327196
 20
650.7504374863986
 30
0.0
 11
511.6017913327196
 21
650.7504374863986
 31
0.0
  0
DIMENSION
  5
AC8
102
{ACAD_XDICTIONARY
360
AD5
102
}
102
{ACAD_REACTORS
330
ADF
102
}
330
1F
100
AcDbEntity
  8
0
100
AcDbDimension
  2
*D50
 10
506.0498555491432
 20
650.7504374863986
 30
0.0
 11
506.0498555491431
 21
654.708770819732
 31
0.0
 70
   160
 71
     5
 42
9.0
  3
ISO-25
100
AcDbAlignedDimension
 13
511.8459886196551
 23
641.7504374863986
 33
0.0
 14
511.8459886196551
 24
650.7504374863986
 34
0.0
 50
90.0
100
AcDbRotatedDimension
  0
DIMENSION
  5
AE0
102
{ACAD_XDICTIONARY
360
AED
102
}
102
{ACAD_REACTORS
330
AF7
102
}
330
1F
100
AcDbEntity
  8
0
100
AcDbDimension
  2
*D51
 10
522.9073374135441
 20
645.2504374863987
 30
0.0
 11
521.032337413544
 21
641.2504374863988
 31
0.0
 70
    32
 71
     5
 42
8.000000000000113
  3
ISO-25
100
AcDbAlignedDimension
 13
518.649902564408
 23
637.2504374863986
 33
0.0
 14
518.649902564408
 24
645.2504374863987
 34
0.0
 50
90.0
100
AcDbRotatedDimension
  0
MTEXT
  5
AF8
330
1F
100
AcDbEntity
  8
0
100
AcDbMText
 10
507.7843392093141
 20
649.5337107649024
 30
0.0
 40
2.0
 41
2.711111111111111
 71
     1
 72
     5
  1
{\fSimSun|b0|i0|c134|p54;}
 73
     1
 44
1.0
  0
DIMENSION
  5
B20
102
{ACAD_XDICTIONARY
360
B2D
102
}
102
{ACAD_REACTORS
330
B37
102
}
330
1F
100
AcDbEntity
  8
0
100
AcDbDimension
  2
*D52
 10
661.6017913327196
 20
614.2661600229173
 30
0.0
 11
586.6017913327196
 21
616.1411600229173
 31
0.0
 70
    32
 71
     5
 42
150.0
  3
ISO-25
100
AcDbAlignedDimension
 13
511.6017913327196
 23
628.5172701763388
 33
0.0
 14
661.6017913327196
 24
628.5172701763388
 34
0.0
100
AcDbRotatedDimension
  0
MTEXT
  5
B92
330
1F
100
AcDbEntity
  8
0
100
AcDbMText
 10
513.209707425208
 20
633.3219182186379
 30
0.0
 40
2.0
 41
12.8540758332972
 71
     1
 72
     5
  1
{\fSimSun|b0|i0|c134|p54;}
 73
     1
 44
1.0
  0
DIMENSION
  5
BB5
102
{ACAD_XDICTIONARY
360
BC2
102
}
102
{ACAD_REACTORS
330
BCC
102
}
330
1F
100
AcDbEntity
  8
0
100
AcDbDimension
  2
*D54
 10
519.6017913327195
 20
635.6505331635842
 30
0.0
 11
507.6434579993863
 21
635.6505331635842
 31
0.0
 70
   160
 71
     5
 42
7.999999999999943
  3
ISO-25
100
AcDbAlignedDimension
 13
511.6017913327196
 23
637.8899353865524
 33
0.0
 14
519.6017913327195
 24
637.8899353865524
 34
0.0
100
AcDbRotatedDimension
  0
DIMENSION
  5
C3B
102
{ACAD_XDICTIONARY
360
C4A
102
}
102
{ACAD_REACTORS
330
C56
102
}
330
1F
100
AcDbEntity
  8
0
100
AcDbDimension
  2
*D55
 10
596.9910559611185
 20
657.2504374863986
 30
0.0
 11
595.1160559611183
 21
654.7505900960194
 31
0.0
 70
    32
 71
     5
 42
4.999694780758545
  3
ISO-25
100
AcDbAlignedDimension
 13
598.9953152276838
 23
652.25074270564
 33
0.0
 14
599.5397576773487
 24
657.2504374863986
 34
0.0
 50
90.0
100
AcDbRotatedDimension
  0
LWPOLYLINE
  5
C62
330
1F
100
AcDbEntity
  8
0
100
AcDbPolyline
 90
        4
 70
     1
 43
0.0
 10
599.1023783221618
 20
640.2512234053389
 10
559.1023783221619
 20
640.2512234053389
 10
559.1023783221619
 20
631.2512234053389
 10
599.1023783221618
 20
631.2512234053389
  0
MTEXT
  5
C63
330
1F
100
AcDbEntity
  8
0
100
AcDbMText
 10
571.9898722305733
 20
633.8820503737561
 30
0.0
 40
2.0
 41
23.11666666666667
 71
     7
 72
     5
  1
{\fSimSun|b0|i0|c134|p6;\fSimSun|b0|i0|c134|p54;3}
 73
     1
 44
1.0
  0
LINE
  5
CDF
102
{ACAD_REACTORS
330
D9B
102
}
330
1F
100
AcDbEntity
  8
0
100
AcDbLine
 10
556.6849005690563
 20
657.2538970432476
 30
0.0
 11
601.6849005690562
 21
657.2538970432476
 31
0.0
  0
DIMENSION
  5
D68
102
{ACAD_XDICTIONARY
360
D77
102
}
102
{ACAD_REACTORS
330
D83
102
}
330
1F
100
AcDbEntity
  8
0
100
AcDbDimension
  2
*D59
 10
601.6017913327195
 20
661.5376840742953
 30
0.0
 11
600.1017913327196
 21
663.4126840742953
 31
0.0
 70
    32
 71
     5
 42
3.0
  3
ISO-25
100
AcDbAlignedDimension
 13
598.6017913327195
 23
656.394099238089
 33
0.0
 14
601.6017913327195
 24
656.394099238089
 34
0.0
100
AcDbRotatedDimension
  0
DIMENSION
  5
D84
102
{ACAD_XDICTIONARY
360
D91
102
}
102
{ACAD_REACTORS
330
D9B
102
}
330
1F
100
AcDbEntity
  8
0
100
AcDbDimension
  2
*D60
 10
555.0652091542524
 20
666.2504374863986
 30
0.0
 11
553.1902091542523
 21
661.7521672648232
 31
0.0
 70
    32
 71
     5
 42
8.996540443150934
  3
ISO-25
100
AcDbAlignedDimension
 13
557.5550411994071
 23
657.2538970432476
 33
0.0
 14
557.1073645249298
 24
666.2504374863986
 34
0.0
 50
90.0
100
AcDbRotatedDimension
  0
LWPOLYLINE
  5
DF2
330
1F
100
AcDbEntity
  8
0
100
AcDbPolyline
 90
        4
 70
     1
 43
0.0
 10
518.2586368836847
 20
654.0368615306727
 10
522.2586368836847
 20
654.0368615306727
 10
522.2586368836847
 20
652.0368615306726
 10
518.2586368836847
 20
652.0368615306726
  0
LWPOLYLINE
  5
E68
330
1F
100
AcDbEntity
  8
0
100
AcDbPolyline
 90
        4
 70
     1
 43
0.0
 10
517.9822209424607
 20
662.9643744699381
 10
521.9822209424607
 20
662.9643744699381
 10
521.9822209424607
 20
660.9643744699381
 10
517.9822209424607
 20
660.9643744699381
  0
LWPOLYLINE
  5
E69
330
1F
100
AcDbEntity
  8
0
100
AcDbPolyline
 90
        4
 70
     1
 43
0.0
 10
523.9866871252163
 20
662.9643744699381
 10
527.9866871252163
 20
662.9643744699381
 10
527.9866871252163
 20
660.9643744699381
 10
523.9866871252163
 20
660.9643744699381
  0
LWPOLYLINE
  5
E6A
330
1F
100
AcDbEntity
  8
0
100
AcDbPolyline
 90
        4
 70
     1
 43
0.0
 10
529.9881061239916
 20
662.9474082342881
 10
533.9881061239916
 20
662.9474082342881
 10
533.9881061239916
 20
660.9474082342881
 10
529.9881061239916
 20
660.9474082342881
  0
LWPOLYLINE
  5
E6B
330
1F
100
AcDbEntity
  8
0
100
AcDbPolyline
 90
        4
 70
     1
 43
0.0
 10
535.9895251227672
 20
662.9304419986381
 10
539.9895251227672
 20
662.9304419986381
 10
539.9895251227672
 20
660.9304419986381
 10
535.9895251227672
 20
660.9304419986381
  0
LWPOLYLINE
  5
E6C
330
1F
100
AcDbEntity
  8
0
100
AcDbPolyline
 90
        4
 70
     1
 43
0.0
 10
541.9909441215427
 20
662.9134757629881
 10
545.9909441215427
 20
662.9134757629881
 10
545.9909441215427
 20
660.9134757629881
 10
541.9909441215427
 20
660.9134757629881
  0
ENDSEC
  0
SECTION
  2
OBJECTS
  0
DICTIONARY
  5
C
330
0
100
AcDbDictionary
281
     1
  3
ACAD_COLOR
350
6B
  3
ACAD_GROUP
350
D
  3
ACAD_LAYOUT
350
1A
  3
ACAD_MATERIAL
350
6A
  3
ACAD_MLINESTYLE
350
17
  3
ACAD_PLOTSETTINGS
350
19
  3
ACAD_PLOTSTYLENAME
350
E
  3
AcDbVariableDictionary
350
5E
  0
DICTIONARY
  5
B6
330
A9
100
AcDbDictionary
280
     1
281
     1
  3
ACAD_DIMASSOC
360
C0
  0
DICTIONARY
  5
CE
330
C1
100
AcDbDictionary
280
     1
281
     1
  3
ACAD_DIMASSOC
360
D8
  0
DICTIONARY
  5
E6
330
D9
100
AcDbDictionary
280
     1
281
     1
  3
ACAD_DIMASSOC
360
F0
  0
DICTIONARY
  5
159
330
14C
100
AcDbDictionary
280
     1
281
     1
  3
ACAD_DIMASSOC
360
163
  0
DICTIONARY
  5
4DC
330
4CF
100
AcDbDictionary
280
     1
281
     1
  3
ACAD_DIMASSOC
360
4E6
  0
DICTIONARY
  5
567
330
558
100
AcDbDictionary
280
     1
281
     1
  3
ACAD_DIMASSOC
360
573
  0
DICTIONARY
  5
60A
330
5FD
100
AcDbDictionary
280
     1
281
     1
  3
ACAD_DIMASSOC
360
614
  0
DICTIONARY
  5
656
330
647
100
AcDbDictionary
280
     1
281
     1
  3
ACAD_DIMASSOC
360
662
  0
DICTIONARY
  5
84A
330
83D
100
AcDbDictionary
280
     1
281
     1
  3
ACAD_DIMASSOC
360
854
  0
DICTIONARY
  5
864
330
855
100
AcDbDictionary
280
     1
281
     1
  3
ACAD_DIMASSOC
360
870
  0
DICTIONARY
  5
93E
330
92F
100
AcDbDictionary
280
     1
281
     1
  3
ACAD_DIMASSOC
360
94A
  0
DICTIONARY
  5
970
330
963
100
AcDbDictionary
280
     1
281
     1
  3
ACAD_DIMASSOC
360
97A
  0
DICTIONARY
  5
A7D
330
A70
100
AcDbDictionary
280
     1
281
     1
  3
ACAD_DIMASSOC
360
A87
  0
DICTIONARY
  5
AD5
330
AC8
100
AcDbDictionary
280
     1
281
     1
  3
ACAD_DIMASSOC
360
ADF
  0
DICTIONARY
  5
AED
330
AE0
100
AcDbDictionary
280
     1
281
     1
  3
ACAD_DIMASSOC
360
AF7
  0
DICTIONARY
  5
B2D
330
B20
100
AcDbDictionary
280
     1
281
     1
  3
ACAD_DIMASSOC
360
B37
  0
DICTIONARY
  5
BC2
330
BB5
100
AcDbDictionary
280
     1
281
     1
  3
ACAD_DIMASSOC
360
BCC
  0
DICTIONARY
  5
C4A
330
C3B
100
AcDbDictionary
280
     1
281
     1
  3
ACAD_DIMASSOC
360
C56
  0
DICTIONARY
  5
D77
330
D68
100
AcDbDictionary
280
     1
281
     1
  3
ACAD_DIMASSOC
360
D83
  0
DICTIONARY
  5
D91
330
D84
100
AcDbDictionary
280
     1
281
     1
  3
ACAD_DIMASSOC
360
D9B
  0
DICTIONARY
  5
6B
102
{ACAD_REACTORS
330
C
102
}
330
C
100
AcDbDictionary
281
     1
  0
DICTIONARY
  5
D
102
{ACAD_REACTORS
330
C
102
}
330
C
100
AcDbDictionary
281
     1
  0
DICTIONARY
  5
1A
102
{ACAD_REACTORS
330
C
102
}
330
C
100
AcDbDictionary
281
     1
  3
Model
350
22
  3
1
350
51
  3
2
350
56
  0
DICTIONARY
  5
6A
102
{ACAD_REACTORS
330
C
102
}
330
C
100
AcDbDictionary
281
     1
  0
DICTIONARY
  5
17
102
{ACAD_REACTORS
330
C
102
}
330
C
100
AcDbDictionary
281
     1
  3
Standard
350
18
  0
DICTIONARY
  5
19
102
{ACAD_REACTORS
330
C
102
}
330
C
100
AcDbDictionary
281
     1
  0
ACDBDICTIONARYWDFLT
  5
E
102
{ACAD_REACTORS
330
C
102
}
330
C
100
AcDbDictionary
281
     1
  3
Normal
350
F
100
AcDbDictionaryWithDefault
340
F
  0
DICTIONARY
  5
5E
102
{ACAD_REACTORS
330
C
102
}
330
C
100
AcDbDictionary
281
     1
  3
DIMASSOC
350
5F
  3
HIDETEXT
350
63
  0
DIMASSOC
  5
C0
102
{ACAD_REACTORS
330
B6
102
}
330
B6
100
AcDbDimAssoc
330
A9
 90
        3
 70
     0
 71
     0
  1
AcDbOsnapPointRef
 72
    10
331
87
 73
     2
 91
        0
 40
0.0752317482839628
 10
0.0
 20
0.0
 30
0.0
 75
     0
  1
AcDbOsnapPointRef
 72
     8
331
89
 73
     2
 91
        0
 40
0.9247682517160372
 10
0.0
 20
0.0
 30
0.0
 75
     1
  1
AcDbOsnapPointRef
 72
    10
331
87
 73
     2
 91
        0
 40
0.0752317482839628
 10
0.0
 20
0.0
 30
0.0
 75
     0
  0
DIMASSOC
  5
D8
102
{ACAD_REACTORS
330
CE
102
}
330
CE
100
AcDbDimAssoc
330
C1
 90
        1
 70
     0
 71
     0
  1
AcDbOsnapPointRef
 72
    10
331
8B
 73
     2
 91
        0
 40
0.1220333675484881
 10
0.0
 20
0.0
 30
0.0
 75
     0
  0
DIMASSOC
  5
F0
102
{ACAD_REACTORS
330
E6
102
}
330
E6
100
AcDbDimAssoc
330
D9
 90
        1
 70
     0
 71
     0
  1
AcDbOsnapPointRef
 72
    10
331
8C
 73
     2
 91
        0
 40
0.1494611637825869
 10
0.0
 20
0.0
 30
0.0
 75
     0
  0
DIMASSOC
  5
163
102
{ACAD_REACTORS
330
159
102
}
330
159
100
AcDbDimAssoc
330
14C
 90
        3
 70
     0
 71
     0
  1
AcDbOsnapPointRef
 72
    10
331
133
 73
     2
 91
        0
 40
0.8357891097417677
 10
0.0
 20
0.0
 30
0.0
 75
     0
  1
AcDbOsnapPointRef
 72
     8
331
130
 73
     2
 91
        0
 40
0.8357891097417677
 10
0.0
 20
0.0
 30
0.0
 75
     1
  1
AcDbOsnapPointRef
 72
    10
331
133
 73
     2
 91
        0
 40
0.8357891097417677
 10
0.0
 20
0.0
 30
0.0
 75
     0
  0
DIMASSOC
  5
4E6
102
{ACAD_REACTORS
330
4DC
102
}
330
4DC
100
AcDbDimAssoc
330
4CF
 90
        3
 70
     0
 71
     0
  1
AcDbOsnapPointRef
 72
    10
331
4B5
 73
     2
 91
        1
 40
0.9648902892201448
 10
0.0
 20
0.0
 30
0.0
 75
     0
  1
AcDbOsnapPointRef
 72
    10
331
4B5
 73
     2
 91
        3
 40
0.0551330823000429
 10
0.0
 20
0.0
 30
0.0
 75
     0
  0
DIMASSOC
  5
573
102
{ACAD_REACTORS
330
567
102
}
330
567
100
AcDbDimAssoc
330
558
 90
        3
 70
     0
 71
     0
  1
AcDbOsnapPointRef
 72
    10
331
12D
 73
     2
 91
        0
 40
0.0503544799294105
 10
0.0
 20
0.0
 30
0.0
 75
     0
  1
AcDbOsnapPointRef
 72
     8
331
12C
 73
     2
 91
        0
 40
0.9496455200705895
 10
0.0
 20
0.0
 30
0.0
 75
     1
  1
AcDbOsnapPointRef
 72
    10
331
12D
 73
     2
 91
        0
 40
0.0503544799294105
 10
0.0
 20
0.0
 30
0.0
 75
     0
  0
DIMASSOC
  5
614
102
{ACAD_REACTORS
330
60A
102
}
330
60A
100
AcDbDimAssoc
330
5FD
 90
        3
 70
     0
 71
     0
  1
AcDbOsnapPointRef
 72
    10
331
4B5
 73
     2
 91
        2
 40
0.8358199334784709
 10
0.0
 20
0.0
 30
0.0
 75
     0
  1
AcDbOsnapPointRef
 72
     8
331
4B5
 73
     2
 91
        4
 40
0.164180066521529
 10
0.0
 20
0.0
 30
0.0
 75
     1
  1
AcDbOsnapPointRef
 72
    10
331
4B5
 73
     2
 91
        2
 40
0.8358199334784709
 10
0.0
 20
0.0
 30
0.0
 75
     0
  0
DIMASSOC
  5
662
102
{ACAD_REACTORS
330
656
102
}
330
656
100
AcDbDimAssoc
330
647
 90
        3
 70
     0
 71
     0
  1
AcDbOsnapPointRef
 72
    10
331
61E
 73
     2
 91
        0
 40
0.9729245907471263
 10
0.0
 20
0.0
 30
0.0
 75
     0
  1
AcDbOsnapPointRef
 72
    10
331
621
 73
     2
 91
        0
 40
0.0444367396233214
 10
0.0
 20
0.0
 30
0.0
 75
     0
  0
DIMASSOC
  5
854
102
{ACAD_REACTORS
330
84A
102
}
330
84A
100
AcDbDimAssoc
330
83D
 90
        3
 70
     0
 71
     0
  1
AcDbOsnapPointRef
 72
    10
331
12F
 73
     2
 91
        0
 40
0.2347934630929558
 10
0.0
 20
0.0
 30
0.0
 75
     0
  1
AcDbOsnapPointRef
 72
    10
331
131
 73
     2
 91
        0
 40
0.8471371983973767
 10
0.0
 20
0.0
 30
0.0
 75
     0
  0
DIMASSOC
  5
870
102
{ACAD_REACTORS
330
864
102
}
330
864
100
AcDbDimAssoc
330
855
 90
        3
 70
     0
 71
     0
  1
AcDbOsnapPointRef
 72
    10
331
130
 73
     2
 91
        0
 40
0.1864168512039441
 10
0.0
 20
0.0
 30
0.0
 75
     0
  1
AcDbOsnapPointRef
 72
     8
331
12F
 73
     2
 91
        0
 40
0.8135831487960558
 10
0.0
 20
0.0
 30
0.0
 75
     1
  1
AcDbOsnapPointRef
 72
    10
331
130
 73
     2
 91
        0
 40
0.1864168512039441
 10
0.0
 20
0.0
 30
0.0
 75
     0
  0
DIMASSOC
  5
94A
102
{ACAD_REACTORS
330
93E
102
}
330
93E
100
AcDbDimAssoc
330
92F
 90
        3
 70
     0
 71
     0
  1
AcDbOsnapPointRef
 72
    10
331
8F
 73
     2
 91
        0
 40
0.9909925208778988
 10
0.0
 20
0.0
 30
0.0
 75
     0
  1
AcDbOsnapPointRef
 72
     8
331
8E
 73
     2
 91
        0
 40
0.9909925208778988
 10
0.0
 20
0.0
 30
0.0
 75
     1
  1
AcDbOsnapPointRef
 72
    10
331
8F
 73
     2
 91
        0
 40
0.9909925208778988
 10
0.0
 20
0.0
 30
0.0
 75
     0
  0
DIMASSOC
  5
97A
102
{ACAD_REACTORS
330
970
102
}
330
970
100
AcDbDimAssoc
330
963
 90
        1
 70
     0
 71
     0
  1
AcDbOsnapPointRef
 72
    10
331
8E
 73
     2
 91
        0
 40
0.9969231905923578
 10
0.0
 20
0.0
 30
0.0
 75
     0
  0
DIMASSOC
  5
A87
102
{ACAD_REACTORS
330
A7D
102
}
330
A7D
100
AcDbDimAssoc
330
A70
 90
        3
 70
     0
 71
     0
  1
AcDbOsnapPointRef
 72
    10
331
620
 73
     2
 91
        0
 40
0.1421597644201938
 10
0.0
 20
0.0
 30
0.0
 75
     0
  1
AcDbOsnapPointRef
 72
    10
331
622
 73
     2
 91
        0
 40
0.9052925198249795
 10
0.0
 20
0.0
 30
0.0
 75
     0
  0
DIMASSOC
  5
ADF
102
{ACAD_REACTORS
330
AD5
102
}
330
AD5
100
AcDbDimAssoc
330
AC8
 90
        3
 70
     0
 71
     0
  1
AcDbOsnapPointRef
 72
    10
331
AA0
 73
     2
 91
        0
 40
0.7558027130644405
 10
0.0
 20
0.0
 30
0.0
 75
     0
  1
AcDbOsnapPointRef
 72
     8
331
AA1
 73
     2
 91
        0
 40
0.7558027130644405
 10
0.0
 20
0.0
 30
0.0
 75
     1
  1
AcDbOsnapPointRef
 72
    10
331
AA0
 73
     2
 91
        0
 40
0.7558027130644405
 10
0.0
 20
0.0
 30
0.0
 75
     0
  0
DIMASSOC
  5
AF7
102
{ACAD_REACTORS
330
AED
102
}
330
AED
100
AcDbDimAssoc
330
AE0
 90
        3
 70
     0
 71
     0
  1
AcDbOsnapPointRef
 72
    10
331
311
 73
     2
 91
        0
 40
0.1566246940375196
 10
0.0
 20
0.0
 30
0.0
 75
     0
  1
AcDbOsnapPointRef
 72
     8
331
8F
 73
     2
 91
        0
 40
0.953012591788744
 10
0.0
 20
0.0
 30
0.0
 75
     1
  1
AcDbOsnapPointRef
 72
    10
331
311
 73
     2
 91
        0
 40
0.1566246940375196
 10
0.0
 20
0.0
 30
0.0
 75
     0
  0
DIMASSOC
  5
B37
102
{ACAD_REACTORS
330
B2D
102
}
330
B2D
100
AcDbDimAssoc
330
B20
 90
        3
 70
     0
 71
     0
  1
AcDbOsnapPointRef
 72
    10
331
8A
 73
     2
 91
        0
 40
0.0566708172485049
 10
0.0
 20
0.0
 30
0.0
 75
     0
  1
AcDbOsnapPointRef
 72
     8
331
88
 73
     2
 91
        0
 40
0.9433291827514949
 10
0.0
 20
0.0
 30
0.0
 75
     1
  1
AcDbOsnapPointRef
 72
    10
331
8A
 73
     2
 91
        0
 40
0.0566708172485049
 10
0.0
 20
0.0
 30
0.0
 75
     0
  0
DIMASSOC
  5
BCC
102
{ACAD_REACTORS
330
BC2
102
}
330
BC2
100
AcDbDimAssoc
330
BB5
 90
        3
 70
     0
 71
     0
  1
AcDbOsnapPointRef
 72
    10
331
8A
 73
     2
 91
        0
 40
0.2909874475038456
 10
0.0
 20
0.0
 30
0.0
 75
     0
  1
AcDbOsnapPointRef
 72
     8
331
752
 73
     2
 91
        0
 40
0.920062762480768
 10
0.0
 20
0.0
 30
0.0
 75
     1
  1
AcDbOsnapPointRef
 72
    10
331
8A
 73
     2
 91
        0
 40
0.2909874475038456
 10
0.0
 20
0.0
 30
0.0
 75
     0
  0
DIMASSOC
  5
C56
102
{ACAD_REACTORS
330
C4A
102
}
330
C4A
100
AcDbDimAssoc
330
C3B
 90
        1
 70
     0
 71
     0
  1
AcDbOsnapPointRef
 72
    10
331
53E
 73
     2
 91
        0
 40
0.8688253683452558
 10
0.0
 20
0.0
 30
0.0
 75
     0
  0
DIMASSOC
  5
D83
102
{ACAD_REACTORS
330
D77
102
}
330
D77
100
AcDbDimAssoc
330
D68
 90
        3
 70
     0
 71
     0
  1
AcDbOsnapPointRef
 72
    10
331
53F
 73
     2
 91
        0
 40
0.8286713064897867
 10
0.0
 20
0.0
 30
0.0
 75
     0
  1
AcDbOsnapPointRef
 72
     8
331
8B
 73
     2
 91
        0
 40
0.2214084562077403
 10
0.0
 20
0.0
 30
0.0
 75
     1
  1
AcDbOsnapPointRef
 72
    10
331
53F
 73
     2
 91
        0
 40
0.8286713064897867
 10
0.0
 20
0.0
 30
0.0
 75
     0
  0
DIMASSOC
  5
D9B
102
{ACAD_REACTORS
330
D91
102
}
330
D91
100
AcDbDimAssoc
330
D84
 90
        3
 70
     0
 71
     0
  1
AcDbOsnapPointRef
 72
    10
331
CDF
 73
     2
 91
        0
 40
0.0193364584522417
 10
0.0
 20
0.0
 30
0.0
 75
     0
  1
AcDbOsnapPointRef
 72
    10
331
87
 73
     2
 91
        0
 40
0.3033704879480683
 10
0.0
 20
0.0
 30
0.0
 75
     0
  0
LAYOUT
  5
22
102
{ACAD_REACTORS
330
1A
102
}
330
1A
100
AcDbPlotSettings
  1

  2
none_device
  4
ANSI_A_(8.50_x_11.00_Inches)
  6

 40
6.349999904632568
 41
19.04999923706055
 42
6.350006103515625
 43
19.04998779296875
 44
215.8999938964844
 45
279.3999938964844
 46
0.0
 47
0.0
 48
0.0
 49
0.0
140
0.0
141
0.0
142
1.0
143
78.436453180766
 70
 11952
 72
     0
 73
     1
 74
     0
  7

 75
     0
147
0.0127491741332998
 76
     0
 77
     2
 78
   300
148
0.0
149
0.0
100
AcDbLayout
  1
Model
 70
     1
 71
     0
 10
0.0
 20
0.0
 11
12.0
 21
9.0
 12
0.0
 22
0.0
 32
0.0
 14
0.0
 24
0.0
 34
0.0
 15
0.0
 25
0.0
 35
0.0
146
0.0
 13
0.0
 23
0.0
 33
0.0
 16
1.0
 26
0.0
 36
0.0
 17
0.0
 27
1.0
 37
0.0
 76
     0
330
1F
  0
LAYOUT
  5
51
102
{ACAD_REACTORS
330
1A
102
}
330
1A
100
AcDbPlotSettings
  1

  2
None
  4

  6

 40
0.0
 41
0.0
 42
0.0
 43
0.0
 44
0.0
 45
0.0
 46
0.0
 47
0.0
 48
0.0
 49
0.0
140
0.0
141
0.0
142
1.0
143
1.0
 70
   688
 72
     0
 73
     0
 74
     5
  7

 75
    16
147
1.0
 76
     0
 77
     2
 78
   300
148
0.0
149
0.0
100
AcDbLayout
  1
1
 70
     1
 71
     1
 10
0.0
 20
0.0
 11
12.0
 21
9.0
 12
0.0
 22
0.0
 32
0.0
 14
0.0
 24
0.0
 34
0.0
 15
0.0
 25
0.0
 35
0.0
146
0.0
 13
0.0
 23
0.0
 33
0.0
 16
1.0
 26
0.0
 36
0.0
 17
0.0
 27
1.0
 37
0.0
 76
     0
330
50
  0
LAYOUT
  5
56
102
{ACAD_REACTORS
330
1A
102
}
330
1A
100
AcDbPlotSettings
  1

  2
None
  4

  6

 40
0.0
 41
0.0
 42
0.0
 43
0.0
 44
0.0
 45
0.0
 46
0.0
 47
0.0
 48
0.0
 49
0.0
140
0.0
141
0.0
142
1.0
143
1.0
 70
   688
 72
     0
 73
     0
 74
     5
  7

 75
    16
147
1.0
 76
     0
 77
     2
 78
   300
148
0.0
149
0.0
100
AcDbLayout
  1
2
 70
     1
 71
     2
 10
0.0
 20
0.0
 11
12.0
 21
9.0
 12
0.0
 22
0.0
 32
0.0
 14
0.0
 24
0.0
 34
0.0
 15
0.0
 25
0.0
 35
0.0
146
0.0
 13
0.0
 23
0.0
 33
0.0
 16
1.0
 26
0.0
 36
0.0
 17
0.0
 27
1.0
 37
0.0
 76
     0
330
55
  0
MLINESTYLE
  5
18
102
{ACAD_REACTORS
330
17
102
}
330
17
100
AcDbMlineStyle
  2
STANDARD
 70
     0
  3

 62
   256
 51
90.0
 52
90.0
 71
     2
 49
0.5
 62
   256
  6
BYLAYER
 49
-0.5
 62
   256
  6
BYLAYER
  0
ACDBPLACEHOLDER
  5
F
102
{ACAD_REACTORS
330
E
102
}
330
E
  0
DICTIONARYVAR
  5
5F
102
{ACAD_REACTORS
330
5E
102
}
330
5E
100
DictionaryVariables
280
     0
  1
2
  0
DICTIONARYVAR
  5
63
102
{ACAD_REACTORS
330
5E
102
}
330
5E
100
DictionaryVariables
280
     0
  1
1
  0
ENDSEC
  0
EOF
