  0
SECTION
  2
HEADER
  9
$ACADVER
  1
AC1015
  9
$ACADMAINTVER
 70
    20
  9
$DWGCODEPAGE
  3
ANSI_936
  9
$INSBASE
 10
0.0
 20
0.0
 30
0.0
  9
$EXTMIN
 10
385.0117397888124
 20
691.3636137936529
 30
0.0
  9
$EXTMAX
 10
568.1469064158285
 20
763.905279457348
 30
0.0
  9
$LIMMIN
 10
0.0
 20
0.0
  9
$LIMMAX
 10
420.0
 20
297.0
  9
$ORTHOMODE
 70
     0
  9
$REGENMODE
 70
     1
  9
$FILLMODE
 70
     1
  9
$QTEXTMODE
 70
     0
  9
$MIRRTEXT
 70
     0
  9
$LTSCALE
 40
1.0
  9
$ATTMODE
 70
     1
  9
$TEXTSIZE
 40
2.5
  9
$TRACEWID
 40
1.0
  9
$TEXTSTYLE
  7
Standard
  9
$CLAYER
  8
0
  9
$CELTYPE
  6
ByLayer
  9
$CECOLOR
 62
   256
  9
$CELTSCALE
 40
1.0
  9
$DISPSILH
 70
     0
  9
$DIMSCALE
 40
1.0
  9
$DIMASZ
 40
2.5
  9
$DIMEXO
 40
0.625
  9
$DIMDLI
 40
3.75
  9
$DIMRND
 40
0.0
  9
$DIMDLE
 40
0.0
  9
$DIMEXE
 40
1.25
  9
$DIMTP
 40
0.0
  9
$DIMTM
 40
0.0
  9
$DIMTXT
 40
2.5
  9
$DIMCEN
 40
2.5
  9
$DIMTSZ
 40
0.0
  9
$DIMTOL
 70
     0
  9
$DIMLIM
 70
     0
  9
$DIMTIH
 70
     0
  9
$DIMTOH
 70
     0
  9
$DIMSE1
 70
     0
  9
$DIMSE2
 70
     0
  9
$DIMTAD
 70
     1
  9
$DIMZIN
 70
     8
  9
$DIMBLK
  1

  9
$DIMASO
 70
     1
  9
$DIMSHO
 70
     1
  9
$DIMPOST
  1

  9
$DIMAPOST
  1

  9
$DIMALT
 70
     0
  9
$DIMALTD
 70
     3
  9
$DIMALTF
 40
0.03937007874016
  9
$DIMLFAC
 40
1.0
  9
$DIMTOFL
 70
     1
  9
$DIMTVP
 40
0.0
  9
$DIMTIX
 70
     0
  9
$DIMSOXD
 70
     0
  9
$DIMSAH
 70
     0
  9
$DIMBLK1
  1

  9
$DIMBLK2
  1

  9
$DIMSTYLE
  2
ISO-25
  9
$DIMCLRD
 70
     0
  9
$DIMCLRE
 70
     0
  9
$DIMCLRT
 70
     0
  9
$DIMTFAC
 40
1.0
  9
$DIMGAP
 40
0.625
  9
$DIMJUST
 70
     0
  9
$DIMSD1
 70
     0
  9
$DIMSD2
 70
     0
  9
$DIMTOLJ
 70
     0
  9
$DIMTZIN
 70
     8
  9
$DIMALTZ
 70
     0
  9
$DIMALTTZ
 70
     0
  9
$DIMUPT
 70
     0
  9
$DIMDEC
 70
     2
  9
$DIMTDEC
 70
     2
  9
$DIMALTU
 70
     2
  9
$DIMALTTD
 70
     3
  9
$DIMTXSTY
  7
Standard
  9
$DIMAUNIT
 70
     0
  9
$DIMADEC
 70
     0
  9
$DIMALTRND
 40
0.0
  9
$DIMAZIN
 70
     0
  9
$DIMDSEP
 70
    44
  9
$DIMATFIT
 70
     3
  9
$DIMFRAC
 70
     0
  9
$DIMLDRBLK
  1

  9
$DIMLUNIT
 70
     2
  9
$DIMLWD
 70
    -2
  9
$DIMLWE
 70
    -2
  9
$DIMTMOVE
 70
     0
  9
$LUNITS
 70
     2
  9
$LUPREC
 70
     4
  9
$SKETCHINC
 40
1.0
  9
$FILLETRAD
 40
0.0
  9
$AUNITS
 70
     0
  9
$AUPREC
 70
     0
  9
$MENU
  1
.
  9
$ELEVATION
 40
0.0
  9
$PELEVATION
 40
0.0
  9
$THICKNESS
 40
0.0
  9
$LIMCHECK
 70
     0
  9
$CHAMFERA
 40
0.0
  9
$CHAMFERB
 40
0.0
  9
$CHAMFERC
 40
0.0
  9
$CHAMFERD
 40
0.0
  9
$SKPOLY
 70
     0
  9
$TDCREATE
 40
2455882.706944398
  9
$TDUCREATE
 40
2455882.373611065
  9
$TDUPDATE
 40
2455894.430083183
  9
$TDUUPDATE
 40
2455894.096749850
  9
$TDINDWG
 40
0.3382045602
  9
$TDUSRTIMER
 40
0.3382040162
  9
$USRTIMER
 70
     1
  9
$ANGBASE
 50
0.0
  9
$ANGDIR
 70
     0
  9
$PDMODE
 70
     0
  9
$PDSIZE
 40
0.0
  9
$PLINEWID
 40
0.0
  9
$SPLFRAME
 70
     0
  9
$SPLINETYPE
 70
     6
  9
$SPLINESEGS
 70
     8
  9
$HANDSEED
  5
C11
  9
$SURFTAB1
 70
     6
  9
$SURFTAB2
 70
     6
  9
$SURFTYPE
 70
     6
  9
$SURFU
 70
     6
  9
$SURFV
 70
     6
  9
$UCSBASE
  2

  9
$UCSNAME
  2

  9
$UCSORG
 10
0.0
 20
0.0
 30
0.0
  9
$UCSXDIR
 10
1.0
 20
0.0
 30
0.0
  9
$UCSYDIR
 10
0.0
 20
1.0
 30
0.0
  9
$UCSORTHOREF
  2

  9
$UCSORTHOVIEW
 70
     0
  9
$UCSORGTOP
 10
0.0
 20
0.0
 30
0.0
  9
$UCSORGBOTTOM
 10
0.0
 20
0.0
 30
0.0
  9
$UCSORGLEFT
 10
0.0
 20
0.0
 30
0.0
  9
$UCSORGRIGHT
 10
0.0
 20
0.0
 30
0.0
  9
$UCSORGFRONT
 10
0.0
 20
0.0
 30
0.0
  9
$UCSORGBACK
 10
0.0
 20
0.0
 30
0.0
  9
$PUCSBASE
  2

  9
$PUCSNAME
  2

  9
$PUCSORG
 10
0.0
 20
0.0
 30
0.0
  9
$PUCSXDIR
 10
1.0
 20
0.0
 30
0.0
  9
$PUCSYDIR
 10
0.0
 20
1.0
 30
0.0
  9
$PUCSORTHOREF
  2

  9
$PUCSORTHOVIEW
 70
     0
  9
$PUCSORGTOP
 10
0.0
 20
0.0
 30
0.0
  9
$PUCSORGBOTTOM
 10
0.0
 20
0.0
 30
0.0
  9
$PUCSORGLEFT
 10
0.0
 20
0.0
 30
0.0
  9
$PUCSORGRIGHT
 10
0.0
 20
0.0
 30
0.0
  9
$PUCSORGFRONT
 10
0.0
 20
0.0
 30
0.0
  9
$PUCSORGBACK
 10
0.0
 20
0.0
 30
0.0
  9
$USERI1
 70
     0
  9
$USERI2
 70
     0
  9
$USERI3
 70
     0
  9
$USERI4
 70
     0
  9
$USERI5
 70
     0
  9
$USERR1
 40
0.0
  9
$USERR2
 40
0.0
  9
$USERR3
 40
0.0
  9
$USERR4
 40
0.0
  9
$USERR5
 40
0.0
  9
$WORLDVIEW
 70
     1
  9
$SHADEDGE
 70
     3
  9
$SHADEDIF
 70
    70
  9
$TILEMODE
 70
     1
  9
$MAXACTVP
 70
    64
  9
$PINSBASE
 10
0.0
 20
0.0
 30
0.0
  9
$PLIMCHECK
 70
     0
  9
$PEXTMIN
 10
0.0
 20
0.0
 30
0.0
  9
$PEXTMAX
 10
0.0
 20
0.0
 30
0.0
  9
$PLIMMIN
 10
0.0
 20
0.0
  9
$PLIMMAX
 10
12.0
 20
9.0
  9
$UNITMODE
 70
     0
  9
$VISRETAIN
 70
     1
  9
$PLINEGEN
 70
     0
  9
$PSLTSCALE
 70
     1
  9
$TREEDEPTH
 70
  3020
  9
$CMLSTYLE
  2
Standard
  9
$CMLJUST
 70
     0
  9
$CMLSCALE
 40
20.0
  9
$PROXYGRAPHICS
 70
     1
  9
$MEASUREMENT
 70
     1
  9
$CELWEIGHT
370
    -1
  9
$ENDCAPS
280
     0
  9
$JOINSTYLE
280
     0
  9
$LWDISPLAY
290
     0
  9
$INSUNITS
 70
     4
  9
$HYPERLINKBASE
  1

  9
$STYLESHEET
  1

  9
$XEDIT
290
     1
  9
$CEPSNTYPE
380
     0
  9
$PSTYLEMODE
290
     1
  9
$FINGERPRINTGUID
  2
{FDEAD578-A652-11D2-9A35-0060089B3A3F}
  9
$VERSIONGUID
  2
{BBEE8E6A-963C-433D-9A1A-D272BB4FB061}
  9
$EXTNAMES
290
     1
  9
$PSVPSCALE
 40
0.0
  9
$OLESTARTUP
290
     0
  0
ENDSEC
  0
SECTION
  2
CLASSES
  0
CLASS
  1
ACDBDICTIONARYWDFLT
  2
AcDbDictionaryWithDefault
  3
ObjectDBX Classes
 90
        0
280
     0
281
     0
  0
CLASS
  1
ACDBPLACEHOLDER
  2
AcDbPlaceHolder
  3
ObjectDBX Classes
 90
        0
280
     0
281
     0
  0
CLASS
  1
LAYOUT
  2
AcDbLayout
  3
ObjectDBX Classes
 90
        0
280
     0
281
     0
  0
CLASS
  1
DICTIONARYVAR
  2
AcDbDictionaryVar
  3
ObjectDBX Classes
 90
        0
280
     0
281
     0
  0
CLASS
  1
DIMASSOC
  2
AcDbDimAssoc
  3
"AcDbDimAssoc|Product Desc:     AcDim ARX App For Dimension|Company:          Autodesk, Inc.|WEB Address:      www.autodesk.com"
 90
        0
280
     0
281
     0
  0
ENDSEC
  0
SECTION
  2
TABLES
  0
TABLE
  2
VPORT
  5
8
330
0
100
AcDbSymbolTable
 70
     2
  0
VPORT
  5
C07
330
8
100
AcDbSymbolTableRecord
100
AcDbViewportTableRecord
  2
*Active
 70
     0
 10
0.0
 20
0.0
 11
1.0
 21
1.0
 12
497.1565633031357
 22
722.442045436051
 13
0.0
 23
0.0
 14
10.0
 24
10.0
 15
10.0
 25
10.0
 16
0.0
 26
0.0
 36
1.0
 17
0.0
 27
0.0
 37
0.0
 40
98.52085038628707
 41
2.394444444444444
 42
50.0
 43
0.0
 44
0.0
 50
0.0
 51
0.0
 71
     0
 72
  1000
 73
     1
 74
     3
 75
     0
 76
     0
 77
     0
 78
     0
281
     0
 65
     1
110
0.0
120
0.0
130
0.0
111
1.0
121
0.0
131
0.0
112
0.0
122
1.0
132
0.0
 79
     0
146
0.0
  0
ENDTAB
  0
TABLE
  2
LTYPE
  5
5
330
0
100
AcDbSymbolTable
 70
     2
  0
LTYPE
  5
14
330
5
100
AcDbSymbolTableRecord
100
AcDbLinetypeTableRecord
  2
ByBlock
 70
     0
  3

 72
    65
 73
     0
 40
0.0
  0
LTYPE
  5
15
330
5
100
AcDbSymbolTableRecord
100
AcDbLinetypeTableRecord
  2
ByLayer
 70
     0
  3

 72
    65
 73
     0
 40
0.0
  0
LTYPE
  5
16
330
5
100
AcDbSymbolTableRecord
100
AcDbLinetypeTableRecord
  2
Continuous
 70
     0
  3
Solid line
 72
    65
 73
     0
 40
0.0
  0
LTYPE
  5
DF
330
5
100
AcDbSymbolTableRecord
100
AcDbLinetypeTableRecord
  2
CENTER2
 70
     0
  3
Center (.5x) ___ _ ___ _ ___ _ ___ _ ___ _ ___
 72
    65
 73
     4
 40
28.575
 49
19.05
 74
     0
 49
-3.174999999999999
 74
     0
 49
3.174999999999999
 74
     0
 49
-3.174999999999999
 74
     0
  0
ENDTAB
  0
TABLE
  2
LAYER
  5
2
330
0
100
AcDbSymbolTable
 70
     2
  0
LAYER
  5
10
330
2
100
AcDbSymbolTableRecord
100
AcDbLayerTableRecord
  2
0
 70
     0
 62
     7
  6
Continuous
370
    -3
390
F
  0
LAYER
  5
93
330
2
100
AcDbSymbolTableRecord
100
AcDbLayerTableRecord
  2
Defpoints
 70
     0
 62
     7
  6
Continuous
290
     0
370
    -3
390
F
  0
ENDTAB
  0
TABLE
  2
STYLE
  5
3
330
0
100
AcDbSymbolTable
 70
     2
  0
STYLE
  5
11
330
3
100
AcDbSymbolTableRecord
100
AcDbTextStyleTableRecord
  2
Standard
 70
     0
 40
0.0
 41
1.0
 50
0.0
 71
     0
 42
2.5
  3
txt
  4

  0
STYLE
  5
DE
330
3
100
AcDbSymbolTableRecord
100
AcDbTextStyleTableRecord
  2

 70
     1
 40
0.0
 41
1.0
 50
0.0
 71
     0
 42
2.5
  3
ltypeshp.shx
  4

  0
ENDTAB
  0
TABLE
  2
VIEW
  5
6
330
0
100
AcDbSymbolTable
 70
     0
  0
ENDTAB
  0
TABLE
  2
UCS
  5
7
330
0
100
AcDbSymbolTable
 70
     0
  0
ENDTAB
  0
TABLE
  2
APPID
  5
9
330
0
100
AcDbSymbolTable
 70
     1
  0
APPID
  5
12
330
9
100
AcDbSymbolTableRecord
100
AcDbRegAppTableRecord
  2
ACAD
 70
     0
  0
ENDTAB
  0
TABLE
  2
DIMSTYLE
  5
A
330
0
100
AcDbSymbolTable
 70
     1
100
AcDbDimStyleTable
 71
     1
340
27
  0
DIMSTYLE
105
27
102
{ACAD_REACTORS
330
92
330
AB
330
C3
330
E0
330
FB
330
1CB
330
1EF
330
31A
330
332
330
4F4
330
628
330
65A
330
67B
330
693
330
6C1
330
76D
330
785
330
7A7
330
80B
330
827
330
A0D
330
A9F
102
}
330
A
100
AcDbSymbolTableRecord
100
AcDbDimStyleTableRecord
  2
ISO-25
 70
     0
 41
2.5
 42
0.625
 43
3.75
 44
1.25
 73
     0
 74
     0
 77
     1
 78
     8
140
2.5
141
2.5
143
0.03937007874016
147
0.625
171
     3
172
     1
271
     2
272
     2
274
     3
278
    44
283
     0
284
     8
340
11
  0
ENDTAB
  0
TABLE
  2
BLOCK_RECORD
  5
1
330
0
100
AcDbSymbolTable
 70
    25
  0
BLOCK_RECORD
  5
1F
330
1
100
AcDbSymbolTableRecord
100
AcDbBlockTableRecord
  2
*Model_Space
340
22
  0
BLOCK_RECORD
  5
50
330
1
100
AcDbSymbolTableRecord
100
AcDbBlockTableRecord
  2
*Paper_Space
340
51
  0
BLOCK_RECORD
  5
55
330
1
100
AcDbSymbolTableRecord
100
AcDbBlockTableRecord
  2
*Paper_Space0
340
56
  0
BLOCK_RECORD
  5
94
330
1
100
AcDbSymbolTableRecord
100
AcDbBlockTableRecord
  2
*D1
340
0
  0
BLOCK_RECORD
  5
AC
330
1
100
AcDbSymbolTableRecord
100
AcDbBlockTableRecord
  2
*D2
340
0
  0
BLOCK_RECORD
  5
C4
330
1
100
AcDbSymbolTableRecord
100
AcDbBlockTableRecord
  2
*D3
340
0
  0
BLOCK_RECORD
  5
E1
330
1
100
AcDbSymbolTableRecord
100
AcDbBlockTableRecord
  2
*D4
340
0
  0
BLOCK_RECORD
  5
FC
330
1
100
AcDbSymbolTableRecord
100
AcDbBlockTableRecord
  2
*D5
340
0
  0
BLOCK_RECORD
  5
1CC
330
1
100
AcDbSymbolTableRecord
100
AcDbBlockTableRecord
  2
*D6
340
0
  0
BLOCK_RECORD
  5
1F0
330
1
100
AcDbSymbolTableRecord
100
AcDbBlockTableRecord
  2
*D7
340
0
  0
BLOCK_RECORD
  5
28F
330
1
100
AcDbSymbolTableRecord
100
AcDbBlockTableRecord
  2
A$C51E70FC0
340
0
  0
BLOCK_RECORD
  5
2C2
330
1
100
AcDbSymbolTableRecord
100
AcDbBlockTableRecord
  2
A$C3ACD6636
340
0
  0
BLOCK_RECORD
  5
31B
330
1
100
AcDbSymbolTableRecord
100
AcDbBlockTableRecord
  2
*D10
340
0
  0
BLOCK_RECORD
  5
333
330
1
100
AcDbSymbolTableRecord
100
AcDbBlockTableRecord
  2
*D11
340
0
  0
BLOCK_RECORD
  5
4F5
330
1
100
AcDbSymbolTableRecord
100
AcDbBlockTableRecord
  2
*D12
340
0
  0
BLOCK_RECORD
  5
629
330
1
100
AcDbSymbolTableRecord
100
AcDbBlockTableRecord
  2
*D13
340
0
  0
BLOCK_RECORD
  5
65B
330
1
100
AcDbSymbolTableRecord
100
AcDbBlockTableRecord
  2
*D14
340
0
  0
BLOCK_RECORD
  5
67C
330
1
100
AcDbSymbolTableRecord
100
AcDbBlockTableRecord
  2
*D15
340
0
  0
BLOCK_RECORD
  5
694
330
1
100
AcDbSymbolTableRecord
100
AcDbBlockTableRecord
  2
*D16
340
0
  0
BLOCK_RECORD
  5
6C2
330
1
100
AcDbSymbolTableRecord
100
AcDbBlockTableRecord
  2
*D17
340
0
  0
BLOCK_RECORD
  5
76E
330
1
100
AcDbSymbolTableRecord
100
AcDbBlockTableRecord
  2
*D18
340
0
  0
BLOCK_RECORD
  5
786
330
1
100
AcDbSymbolTableRecord
100
AcDbBlockTableRecord
  2
*D19
340
0
  0
BLOCK_RECORD
  5
7A8
330
1
100
AcDbSymbolTableRecord
100
AcDbBlockTableRecord
  2
*D20
340
0
  0
BLOCK_RECORD
  5
80C
330
1
100
AcDbSymbolTableRecord
100
AcDbBlockTableRecord
  2
*D21
340
0
  0
BLOCK_RECORD
  5
828
330
1
100
AcDbSymbolTableRecord
100
AcDbBlockTableRecord
  2
*D22
340
0
  0
BLOCK_RECORD
  5
A0E
330
1
100
AcDbSymbolTableRecord
100
AcDbBlockTableRecord
  2
*D23
340
0
  0
BLOCK_RECORD
  5
AA0
330
1
100
AcDbSymbolTableRecord
100
AcDbBlockTableRecord
  2
*D24
340
0
  0
ENDTAB
  0
ENDSEC
  0
SECTION
  2
BLOCKS
  0
BLOCK
  5
20
330
1F
100
AcDbEntity
  8
0
100
AcDbBlockBegin
  2
*Model_Space
 70
     0
 10
0.0
 20
0.0
 30
0.0
  3
*Model_Space
  1

  0
ENDBLK
  5
21
330
1F
100
AcDbEntity
  8
0
100
AcDbBlockEnd
  0
BLOCK
  5
52
330
50
100
AcDbEntity
 67
     1
  8
0
100
AcDbBlockBegin
  2
*Paper_Space
 70
     0
 10
0.0
 20
0.0
 30
0.0
  3
*Paper_Space
  1

  0
ENDBLK
  5
53
330
50
100
AcDbEntity
 67
     1
  8
0
100
AcDbBlockEnd
  0
BLOCK
  5
57
330
55
100
AcDbEntity
  8
0
100
AcDbBlockBegin
  2
*Paper_Space0
 70
     0
 10
0.0
 20
0.0
 30
0.0
  3
*Paper_Space0
  1

  0
ENDBLK
  5
58
330
55
100
AcDbEntity
  8
0
100
AcDbBlockEnd
  0
BLOCK
  5
9E
330
94
100
AcDbEntity
  8
0
100
AcDbBlockBegin
  2
*D1
 70
     1
 10
0.0
 20
0.0
 30
0.0
  3
*D1
  1

  0
LINE
  5
A1
330
94
100
AcDbEntity
  8
0
 62
     0
370
    -2
100
AcDbLine
 10
404.5885570985001
 20
746.1408944282882
 30
0.0
 11
404.5885570985001
 21
762.0302794573478
 31
0.0
  0
LINE
  5
A2
330
94
100
AcDbEntity
  8
0
 62
     0
370
    -2
100
AcDbLine
 10
444.5885570985002
 20
746.1408944282882
 30
0.0
 11
444.5885570985002
 21
762.0302794573478
 31
0.0
  0
LINE
  5
A3
330
94
100
AcDbEntity
  8
0
 62
     0
370
    -2
100
AcDbLine
 10
407.0885570985001
 20
760.7802794573479
 30
0.0
 11
442.0885570985001
 21
760.7802794573479
 31
0.0
  0
SOLID
  5
A4
330
94
100
AcDbEntity
  8
0
 62
     0
100
AcDbTrace
 10
407.0885570985001
 20
761.1969461240144
 30
0.0
 11
407.0885570985001
 21
760.3636127906812
 31
0.0
 12
404.5885570985001
 22
760.7802794573479
 32
0.0
 13
404.5885570985001
 23
760.7802794573479
 33
0.0
  0
SOLID
  5
A5
330
94
100
AcDbEntity
  8
0
 62
     0
100
AcDbTrace
 10
442.0885570985001
 20
761.1969461240144
 30
0.0
 11
442.0885570985001
 21
760.3636127906812
 31
0.0
 12
444.5885570985002
 22
760.7802794573479
 32
0.0
 13
444.5885570985002
 23
760.7802794573479
 33
0.0
  0
MTEXT
  5
A6
330
94
100
AcDbEntity
  8
0
 62
     0
100
AcDbMText
 10
424.5885570985
 20
762.6552794573479
 30
0.0
 40
2.5
 41
0.0
 71
     5
 72
     1
  1
40
 73
     1
 44
1.0
1001
ACAD
1000
MTEXTBEGIN
1070
    73
1070
     1
1070
    44
1040
1.0
1070
    74
1070
     0
1000
MTEXTEND
  0
POINT
  5
A7
330
94
100
AcDbEntity
  8
Defpoints
 62
     0
100
AcDbPoint
 10
404.5885570985001
 20
745.5158944282882
 30
0.0
  0
POINT
  5
A8
330
94
100
AcDbEntity
  8
Defpoints
 62
     0
100
AcDbPoint
 10
444.5885570985002
 20
745.5158944282882
 30
0.0
  0
POINT
  5
A9
330
94
100
AcDbEntity
  8
Defpoints
 62
     0
100
AcDbPoint
 10
444.5885570985002
 20
760.7802794573479
 30
0.0
  0
ENDBLK
  5
9F
330
94
100
AcDbEntity
  8
0
100
AcDbBlockEnd
  0
BLOCK
  5
B6
330
AC
100
AcDbEntity
  8
0
100
AcDbBlockBegin
  2
*D2
 70
     1
 10
0.0
 20
0.0
 30
0.0
  3
*D2
  1

  0
LINE
  5
B9
330
AC
100
AcDbEntity
  8
0
 62
     0
370
    -2
100
AcDbLine
 10
444.5885570985001
 20
746.1408944282882
 30
0.0
 11
444.5885570985001
 21
762.0302794573478
 31
0.0
  0
LINE
  5
BA
330
AC
100
AcDbEntity
  8
0
 62
     0
370
    -2
100
AcDbLine
 10
494.5885570985001
 20
746.1408944282882
 30
0.0
 11
494.5885570985001
 21
762.0302794573478
 31
0.0
  0
LINE
  5
BB
330
AC
100
AcDbEntity
  8
0
 62
     0
370
    -2
100
AcDbLine
 10
447.0885570985001
 20
760.7802794573479
 30
0.0
 11
492.0885570985001
 21
760.7802794573479
 31
0.0
  0
SOLID
  5
BC
330
AC
100
AcDbEntity
  8
0
 62
     0
100
AcDbTrace
 10
447.0885570985001
 20
761.1969461240144
 30
0.0
 11
447.0885570985001
 21
760.3636127906812
 31
0.0
 12
444.5885570985001
 22
760.7802794573479
 32
0.0
 13
444.5885570985001
 23
760.7802794573479
 33
0.0
  0
SOLID
  5
BD
330
AC
100
AcDbEntity
  8
0
 62
     0
100
AcDbTrace
 10
492.0885570985001
 20
761.1969461240144
 30
0.0
 11
492.0885570985001
 21
760.3636127906812
 31
0.0
 12
494.5885570985001
 22
760.7802794573479
 32
0.0
 13
494.5885570985001
 23
760.7802794573479
 33
0.0
  0
MTEXT
  5
BE
330
AC
100
AcDbEntity
  8
0
 62
     0
100
AcDbMText
 10
469.5885570985001
 20
762.6552794573479
 30
0.0
 40
2.5
 41
0.0
 71
     5
 72
     1
  1
50
 73
     1
 44
1.0
1001
ACAD
1000
MTEXTBEGIN
1070
    73
1070
     1
1070
    44
1040
1.0
1070
    74
1070
     0
1000
MTEXTEND
  0
POINT
  5
BF
330
AC
100
AcDbEntity
  8
Defpoints
 62
     0
100
AcDbPoint
 10
444.5885570985001
 20
745.5158944282882
 30
0.0
  0
POINT
  5
C0
330
AC
100
AcDbEntity
  8
Defpoints
 62
     0
100
AcDbPoint
 10
494.5885570985001
 20
745.5158944282882
 30
0.0
  0
POINT
  5
C1
330
AC
100
AcDbEntity
  8
Defpoints
 62
     0
100
AcDbPoint
 10
494.5885570985001
 20
760.7802794573479
 30
0.0
  0
ENDBLK
  5
B7
330
AC
100
AcDbEntity
  8
0
100
AcDbBlockEnd
  0
BLOCK
  5
CE
330
C4
100
AcDbEntity
  8
0
100
AcDbBlockBegin
  2
*D3
 70
     1
 10
0.0
 20
0.0
 30
0.0
  3
*D3
  1

  0
LINE
  5
D1
330
C4
100
AcDbEntity
  8
0
 62
     0
370
    -2
100
AcDbLine
 10
494.5885570985001
 20
746.7658944282882
 30
0.0
 11
494.5885570985001
 21
762.0302794573478
 31
0.0
  0
LINE
  5
D2
330
C4
100
AcDbEntity
  8
0
 62
     0
370
    -2
100
AcDbLine
 10
554.5885570985001
 20
746.1408944282882
 30
0.0
 11
554.5885570985001
 21
762.0302794573478
 31
0.0
  0
LINE
  5
D3
330
C4
100
AcDbEntity
  8
0
 62
     0
370
    -2
100
AcDbLine
 10
497.0885570985001
 20
760.7802794573479
 30
0.0
 11
552.0885570985001
 21
760.7802794573479
 31
0.0
  0
SOLID
  5
D4
330
C4
100
AcDbEntity
  8
0
 62
     0
100
AcDbTrace
 10
497.0885570985001
 20
761.1969461240144
 30
0.0
 11
497.0885570985001
 21
760.3636127906812
 31
0.0
 12
494.5885570985001
 22
760.7802794573479
 32
0.0
 13
494.5885570985001
 23
760.7802794573479
 33
0.0
  0
SOLID
  5
D5
330
C4
100
AcDbEntity
  8
0
 62
     0
100
AcDbTrace
 10
552.0885570985001
 20
761.1969461240144
 30
0.0
 11
552.0885570985001
 21
760.3636127906812
 31
0.0
 12
554.5885570985001
 22
760.7802794573479
 32
0.0
 13
554.5885570985001
 23
760.7802794573479
 33
0.0
  0
MTEXT
  5
D6
330
C4
100
AcDbEntity
  8
0
 62
     0
100
AcDbMText
 10
524.5885570985001
 20
762.6552794573479
 30
0.0
 40
2.5
 41
0.0
 71
     5
 72
     1
  1
60
 73
     1
 44
1.0
1001
ACAD
1000
MTEXTBEGIN
1070
    73
1070
     1
1070
    44
1040
1.0
1070
    74
1070
     0
1000
MTEXTEND
  0
POINT
  5
D7
330
C4
100
AcDbEntity
  8
Defpoints
 62
     0
100
AcDbPoint
 10
494.5885570985001
 20
746.1408944282882
 30
0.0
  0
POINT
  5
D8
330
C4
100
AcDbEntity
  8
Defpoints
 62
     0
100
AcDbPoint
 10
554.5885570985001
 20
745.5158944282882
 30
0.0
  0
POINT
  5
D9
330
C4
100
AcDbEntity
  8
Defpoints
 62
     0
100
AcDbPoint
 10
554.5885570985001
 20
760.7802794573479
 30
0.0
  0
ENDBLK
  5
CF
330
C4
100
AcDbEntity
  8
0
100
AcDbBlockEnd
  0
BLOCK
  5
EB
330
E1
100
AcDbEntity
  8
0
100
AcDbBlockBegin
  2
*D4
 70
     1
 10
0.0
 20
0.0
 30
0.0
  3
*D4
  1

  0
LINE
  5
EE
330
E1
100
AcDbEntity
  8
0
 62
     0
370
    -2
100
AcDbLine
 10
408.5857830181994
 20
705.5158944282882
 30
0.0
 11
386.8867397888125
 21
705.5158944282882
 31
0.0
  0
LINE
  5
EF
330
E1
100
AcDbEntity
  8
0
 62
     0
370
    -2
100
AcDbLine
 10
415.3031372385658
 20
745.5158944282882
 30
0.0
 11
386.8867397888125
 21
745.5158944282882
 31
0.0
  0
LINE
  5
F0
330
E1
100
AcDbEntity
  8
0
 62
     0
370
    -2
100
AcDbLine
 10
388.1367397888125
 20
708.0158944282882
 30
0.0
 11
388.1367397888125
 21
743.0158944282882
 31
0.0
  0
SOLID
  5
F1
330
E1
100
AcDbEntity
  8
0
 62
     0
100
AcDbTrace
 10
387.7200731221458
 20
708.0158944282882
 30
0.0
 11
388.5534064554792
 21
708.0158944282882
 31
0.0
 12
388.1367397888125
 22
705.5158944282882
 32
0.0
 13
388.1367397888125
 23
705.5158944282882
 33
0.0
  0
SOLID
  5
F2
330
E1
100
AcDbEntity
  8
0
 62
     0
100
AcDbTrace
 10
387.7200731221458
 20
743.0158944282882
 30
0.0
 11
388.5534064554792
 21
743.0158944282882
 31
0.0
 12
388.1367397888125
 22
745.5158944282882
 32
0.0
 13
388.1367397888125
 23
745.5158944282882
 33
0.0
  0
MTEXT
  5
F3
330
E1
100
AcDbEntity
  8
0
 62
     0
100
AcDbMText
 10
386.2617397888124
 20
725.5158944282883
 30
0.0
 40
2.5
 41
0.0
 71
     5
 72
     1
  1
40
 11
0.0000000000000001
 21
1.0
 31
0.0
 73
     1
 44
1.0
1001
ACAD
1000
MTEXTBEGIN
1070
    73
1070
     1
1070
    44
1040
1.0
1070
    74
1070
     0
1000
MTEXTEND
  0
POINT
  5
F4
330
E1
100
AcDbEntity
  8
Defpoints
 62
     0
100
AcDbPoint
 10
409.2107830181994
 20
705.5158944282882
 30
0.0
  0
POINT
  5
F5
330
E1
100
AcDbEntity
  8
Defpoints
 62
     0
100
AcDbPoint
 10
415.9281372385658
 20
745.5158944282882
 30
0.0
  0
POINT
  5
F6
330
E1
100
AcDbEntity
  8
Defpoints
 62
     0
100
AcDbPoint
 10
388.1367397888125
 20
745.5158944282882
 30
0.0
  0
ENDBLK
  5
EC
330
E1
100
AcDbEntity
  8
0
100
AcDbBlockEnd
  0
BLOCK
  5
106
330
FC
100
AcDbEntity
  8
0
100
AcDbBlockBegin
  2
*D5
 70
     1
 10
0.0
 20
0.0
 30
0.0
  3
*D5
  1

  0
LINE
  5
9B6
330
FC
100
AcDbEntity
  8
0
 62
     0
370
    -2
100
AcDbLine
 10
554.9684215348397
 20
721.0158944282881
 30
0.0
 11
560.5129320176502
 21
721.0158944282881
 31
0.0
  0
LINE
  5
9B7
330
FC
100
AcDbEntity
  8
0
 62
     0
370
    -2
100
AcDbLine
 10
554.9684215348397
 20
730.015894428288
 30
0.0
 11
560.5129320176502
 21
730.015894428288
 31
0.0
  0
LINE
  5
9B8
330
FC
100
AcDbEntity
  8
0
 62
     0
370
    -2
100
AcDbLine
 10
559.2629320176503
 20
723.5158944282881
 30
0.0
 11
559.2629320176503
 21
727.5158944282881
 31
0.0
  0
SOLID
  5
9B9
330
FC
100
AcDbEntity
  8
0
 62
     0
100
AcDbTrace
 10
558.8462653509837
 20
723.5158944282881
 30
0.0
 11
559.6795986843169
 21
723.5158944282881
 31
0.0
 12
559.2629320176503
 22
721.0158944282881
 32
0.0
 13
559.2629320176503
 23
721.0158944282881
 33
0.0
  0
SOLID
  5
9BA
330
FC
100
AcDbEntity
  8
0
 62
     0
100
AcDbTrace
 10
558.8462653509837
 20
727.5158944282881
 30
0.0
 11
559.6795986843169
 21
727.5158944282881
 31
0.0
 12
559.2629320176503
 22
730.015894428288
 32
0.0
 13
559.2629320176503
 23
730.015894428288
 33
0.0
  0
MTEXT
  5
9BB
330
FC
100
AcDbEntity
  8
0
 62
     0
100
AcDbMText
 10
557.3879320176502
 20
725.5205905280886
 30
0.0
 40
2.5
 41
0.0
 71
     5
 72
     1
  1
9
 11
0.0000000000000001
 21
1.0
 31
0.0
 73
     1
 44
1.0
1001
ACAD
1000
MTEXTBEGIN
1070
    73
1070
     1
1070
    44
1040
1.0
1070
    74
1070
     0
1000
MTEXTEND
  0
POINT
  5
9BC
330
FC
100
AcDbEntity
  8
Defpoints
 62
     0
100
AcDbPoint
 10
554.3434215348397
 20
721.0158944282881
 30
0.0
  0
POINT
  5
9BD
330
FC
100
AcDbEntity
  8
Defpoints
 62
     0
100
AcDbPoint
 10
554.3434215348397
 20
730.015894428288
 30
0.0
  0
POINT
  5
9BE
330
FC
100
AcDbEntity
  8
Defpoints
 62
     0
100
AcDbPoint
 10
559.2629320176503
 20
730.015894428288
 30
0.0
  0
ENDBLK
  5
107
330
FC
100
AcDbEntity
  8
0
100
AcDbBlockEnd
  0
BLOCK
  5
1D8
330
1CC
100
AcDbEntity
  8
0
100
AcDbBlockBegin
  2
*D6
 70
     1
 10
0.0
 20
0.0
 30
0.0
  3
*D6
  1

  0
LINE
  5
1DB
330
1CC
100
AcDbEntity
  8
0
 62
     0
370
    -2
100
AcDbLine
 10
405.4647549580913
 20
724.5158944282883
 30
0.0
 11
397.3659361158579
 21
724.5158944282883
 31
0.0
  0
LINE
  5
1DC
330
1CC
100
AcDbEntity
  8
0
 62
     0
370
    -2
100
AcDbLine
 10
405.4647549580913
 20
726.5158944282882
 30
0.0
 11
397.3659361158579
 21
726.5158944282882
 31
0.0
  0
LINE
  5
1DD
330
1CC
100
AcDbEntity
  8
0
 62
     0
370
    -2
100
AcDbLine
 10
398.615936115858
 20
722.0158944282883
 30
0.0
 11
398.615936115858
 21
719.5158944282883
 31
0.0
  0
LINE
  5
1DE
330
1CC
100
AcDbEntity
  8
0
 62
     0
370
    -2
100
AcDbLine
 10
398.615936115858
 20
729.0158944282882
 30
0.0
 11
398.615936115858
 21
734.4325610949548
 31
0.0
  0
LINE
  5
1DF
330
1CC
100
AcDbEntity
  8
0
 62
     0
370
    -2
100
AcDbLine
 10
398.615936115858
 20
724.5158944282883
 30
0.0
 11
398.615936115858
 21
726.5158944282882
 31
0.0
  0
SOLID
  5
1E0
330
1CC
100
AcDbEntity
  8
0
 62
     0
100
AcDbTrace
 10
398.1992694491913
 20
722.0158944282883
 30
0.0
 11
399.0326027825247
 21
722.0158944282883
 31
0.0
 12
398.615936115858
 22
724.5158944282883
 32
0.0
 13
398.615936115858
 23
724.5158944282883
 33
0.0
  0
SOLID
  5
1E1
330
1CC
100
AcDbEntity
  8
0
 62
     0
100
AcDbTrace
 10
398.1992694491913
 20
729.0158944282882
 30
0.0
 11
399.0326027825247
 21
729.0158944282882
 31
0.0
 12
398.615936115858
 22
726.5158944282882
 32
0.0
 13
398.615936115858
 23
726.5158944282882
 33
0.0
  0
MTEXT
  5
1E2
330
1CC
100
AcDbEntity
  8
0
 62
     0
100
AcDbMText
 10
396.7409361158578
 20
732.9742277616217
 30
0.0
 40
2.5
 41
0.0
 71
     5
 72
     1
  1
2
 11
0.0000000000000001
 21
1.0
 31
0.0
 73
     1
 44
1.0
1001
ACAD
1000
MTEXTBEGIN
1070
    73
1070
     1
1070
    44
1040
1.0
1070
    74
1070
     0
1000
MTEXTEND
  0
POINT
  5
1E3
330
1CC
100
AcDbEntity
  8
Defpoints
 62
     0
100
AcDbPoint
 10
406.0897549580913
 20
724.5158944282883
 30
0.0
  0
POINT
  5
1E4
330
1CC
100
AcDbEntity
  8
Defpoints
 62
     0
100
AcDbPoint
 10
406.0897549580913
 20
726.5158944282882
 30
0.0
  0
POINT
  5
1E5
330
1CC
100
AcDbEntity
  8
Defpoints
 62
     0
100
AcDbPoint
 10
398.615936115858
 20
726.5158944282882
 30
0.0
  0
ENDBLK
  5
1D9
330
1CC
100
AcDbEntity
  8
0
100
AcDbBlockEnd
  0
BLOCK
  5
1FA
330
1F0
100
AcDbEntity
  8
0
100
AcDbBlockBegin
  2
*D7
 70
     1
 10
0.0
 20
0.0
 30
0.0
  3
*D7
  1

  0
LINE
  5
241
330
1F0
100
AcDbEntity
  8
0
 62
     0
370
    -2
100
AcDbLine
 10
404.5885570985001
 20
709.4387636080589
 30
0.0
 11
404.5885570985001
 21
691.3636137936529
 31
0.0
  0
LINE
  5
242
330
1F0
100
AcDbEntity
  8
0
 62
     0
370
    -2
100
AcDbLine
 10
554.5885570985001
 20
709.4387636080589
 30
0.0
 11
554.5885570985001
 21
691.3636137936529
 31
0.0
  0
LINE
  5
243
330
1F0
100
AcDbEntity
  8
0
 62
     0
370
    -2
100
AcDbLine
 10
407.0885570985002
 20
692.6136137936529
 30
0.0
 11
552.0885570985001
 21
692.6136137936529
 31
0.0
  0
SOLID
  5
244
330
1F0
100
AcDbEntity
  8
0
 62
     0
100
AcDbTrace
 10
407.0885570985002
 20
693.0302804603195
 30
0.0
 11
407.0885570985002
 21
692.1969471269862
 31
0.0
 12
404.5885570985001
 22
692.6136137936529
 32
0.0
 13
404.5885570985001
 23
692.6136137936529
 33
0.0
  0
SOLID
  5
245
330
1F0
100
AcDbEntity
  8
0
 62
     0
100
AcDbTrace
 10
552.0885570985001
 20
693.0302804603195
 30
0.0
 11
552.0885570985001
 21
692.1969471269862
 31
0.0
 12
554.5885570985001
 22
692.6136137936529
 32
0.0
 13
554.5885570985001
 23
692.6136137936529
 33
0.0
  0
MTEXT
  5
246
330
1F0
100
AcDbEntity
  8
0
 62
     0
100
AcDbMText
 10
479.2385513614553
 20
694.4886137936529
 30
0.0
 40
2.5
 41
0.0
 71
     5
 72
     1
  1
150
 73
     1
 44
1.0
1001
ACAD
1000
MTEXTBEGIN
1070
    73
1070
     1
1070
    44
1040
1.0
1070
    74
1070
     0
1000
MTEXTEND
  0
POINT
  5
247
330
1F0
100
AcDbEntity
  8
Defpoints
 62
     0
100
AcDbPoint
 10
404.5885570985001
 20
710.0637636080589
 30
0.0
  0
POINT
  5
248
330
1F0
100
AcDbEntity
  8
Defpoints
 62
     0
100
AcDbPoint
 10
554.5885570985001
 20
710.0637636080589
 30
0.0
  0
POINT
  5
249
330
1F0
100
AcDbEntity
  8
Defpoints
 62
     0
100
AcDbPoint
 10
554.5885570985001
 20
692.6136137936529
 30
0.0
  0
ENDBLK
  5
1FB
330
1F0
100
AcDbEntity
  8
0
100
AcDbBlockEnd
  0
BLOCK
  5
292
330
28F
100
AcDbEntity
  8
0
100
AcDbBlockBegin
  2
A$C51E70FC0
 70
     0
 10
0.0
 20
0.0
 30
0.0
  3
A$C51E70FC0
  1

  0
MTEXT
  5
290
330
28F
100
AcDbEntity
  8
0
100
AcDbMText
 10
5.599908525114074
 20
3.535460190283629
 30
0.0
 40
2.5
 41
23.11666666666667
 71
     1
 72
     5
  1
{\fSimSun|b0|i0|c134|p54;成品单管}
 73
     1
 44
1.0
1001
ACAD
1000
MTEXTBEGIN
1070
    73
1070
     1
1070
    44
1040
1.0
1070
    74
1070
     0
1000
MTEXTEND
  0
LWPOLYLINE
  5
291
330
28F
100
AcDbEntity
  8
0
100
AcDbPolyline
 90
        4
 70
     1
 43
0.0
 10
39.99999994908547
 20
7.613785780955254
 10
-0.0000000509145366
 20
7.613785780955254
 10
-0.0000000509145366
 20
16.61378578095525
 10
39.99999994908547
 20
16.61378578095525
  0
ENDBLK
  5
293
330
28F
100
AcDbEntity
  8
0
100
AcDbBlockEnd
  0
BLOCK
  5
2C4
330
2C2
100
AcDbEntity
  8
0
100
AcDbBlockBegin
  2
A$C3ACD6636
 70
     0
 10
0.0
 20
0.0
 30
0.0
  3
A$C3ACD6636
  1

  0
LWPOLYLINE
  5
2C3
330
2C2
100
AcDbEntity
  8
0
100
AcDbPolyline
 90
        4
 70
     1
 43
0.0
 10
0.0
 20
0.6000000666174401
 10
30.0
 20
0.6000000666174401
 10
30.0
 20
0.0000000666174174
 10
0.0
 20
0.0000000666174174
  0
ENDBLK
  5
2C5
330
2C2
100
AcDbEntity
  8
0
100
AcDbBlockEnd
  0
BLOCK
  5
325
330
31B
100
AcDbEntity
  8
0
100
AcDbBlockBegin
  2
*D10
 70
     1
 10
0.0
 20
0.0
 30
0.0
  3
*D10
  1

  0
LINE
  5
B58
330
31B
100
AcDbEntity
  8
0
 62
     0
370
    -2
100
AcDbLine
 10
517.5921708627526
 20
722.3955905280887
 30
0.0
 11
517.5921708627526
 21
717.1946265436491
 31
0.0
  0
LINE
  5
B59
330
31B
100
AcDbEntity
  8
0
 62
     0
370
    -2
100
AcDbLine
 10
552.5921708627525
 20
722.3955905280887
 30
0.0
 11
552.5921708627525
 21
717.1946265436491
 31
0.0
  0
LINE
  5
B5A
330
31B
100
AcDbEntity
  8
0
 62
     0
370
    -2
100
AcDbLine
 10
520.0921708627525
 20
718.4446265436491
 30
0.0
 11
550.0921708627526
 21
718.4446265436491
 31
0.0
  0
LINE
  5
B5B
330
31B
100
AcDbEntity
  8
0
 62
     0
370
    -2
100
AcDbLine
 10
552.5921708627525
 20
718.4446265436491
 30
0.0
 11
568.1469064158285
 21
718.4446265436491
 31
0.0
  0
SOLID
  5
B5C
330
31B
100
AcDbEntity
  8
0
 62
     0
100
AcDbTrace
 10
520.0921708627525
 20
718.8612932103158
 30
0.0
 11
520.0921708627525
 21
718.0279598769825
 31
0.0
 12
517.5921708627526
 22
718.4446265436491
 32
0.0
 13
517.5921708627526
 23
718.4446265436491
 33
0.0
  0
SOLID
  5
B5D
330
31B
100
AcDbEntity
  8
0
 62
     0
100
AcDbTrace
 10
550.0921708627526
 20
718.8612932103158
 30
0.0
 11
550.0921708627526
 21
718.0279598769825
 31
0.0
 12
552.5921708627525
 22
718.4446265436491
 32
0.0
 13
552.5921708627525
 23
718.4446265436491
 33
0.0
  0
MTEXT
  5
B5E
330
31B
100
AcDbEntity
  8
0
 62
     0
100
AcDbMText
 10
565.4385730824952
 20
720.3196265436491
 30
0.0
 40
2.5
 41
0.0
 71
     5
 72
     1
  1
35
 73
     1
 44
1.0
1001
ACAD
1000
MTEXTBEGIN
1070
    73
1070
     1
1070
    44
1040
1.0
1070
    74
1070
     0
1000
MTEXTEND
  0
POINT
  5
B5F
330
31B
100
AcDbEntity
  8
Defpoints
 62
     0
100
AcDbPoint
 10
517.5921708627526
 20
723.0205905280887
 30
0.0
  0
POINT
  5
B60
330
31B
100
AcDbEntity
  8
Defpoints
 62
     0
100
AcDbPoint
 10
552.5921708627525
 20
723.0205905280887
 30
0.0
  0
POINT
  5
B61
330
31B
100
AcDbEntity
  8
Defpoints
 62
     0
100
AcDbPoint
 10
552.5921708627525
 20
718.4446265436491
 30
0.0
  0
ENDBLK
  5
326
330
31B
100
AcDbEntity
  8
0
100
AcDbBlockEnd
  0
BLOCK
  5
33F
330
333
100
AcDbEntity
  8
0
100
AcDbBlockBegin
  2
*D11
 70
     1
 10
0.0
 20
0.0
 30
0.0
  3
*D11
  1

  0
LINE
  5
B62
330
333
100
AcDbEntity
  8
0
 62
     0
370
    -2
100
AcDbLine
 10
516.9671708627525
 20
723.0205905280887
 30
0.0
 11
509.7771568351662
 21
723.0205905280887
 31
0.0
  0
LINE
  5
B63
330
333
100
AcDbEntity
  8
0
 62
     0
370
    -2
100
AcDbLine
 10
516.9671708627525
 20
728.0205905280887
 30
0.0
 11
509.7771568351662
 21
728.0205905280887
 31
0.0
  0
LINE
  5
B64
330
333
100
AcDbEntity
  8
0
 62
     0
370
    -2
100
AcDbLine
 10
511.0271568351662
 20
730.5205905280887
 30
0.0
 11
511.0271568351662
 21
733.0205905280887
 31
0.0
  0
LINE
  5
B65
330
333
100
AcDbEntity
  8
0
 62
     0
370
    -2
100
AcDbLine
 10
511.0271568351662
 20
720.5205905280887
 30
0.0
 11
511.0271568351662
 21
715.1039238614221
 31
0.0
  0
LINE
  5
B66
330
333
100
AcDbEntity
  8
0
 62
     0
370
    -2
100
AcDbLine
 10
511.0271568351662
 20
728.0205905280887
 30
0.0
 11
511.0271568351662
 21
723.0205905280887
 31
0.0
  0
SOLID
  5
B67
330
333
100
AcDbEntity
  8
0
 62
     0
100
AcDbTrace
 10
510.6104901684995
 20
730.5205905280887
 30
0.0
 11
511.4438235018329
 21
730.5205905280887
 31
0.0
 12
511.0271568351662
 22
728.0205905280887
 32
0.0
 13
511.0271568351662
 23
728.0205905280887
 33
0.0
  0
SOLID
  5
B68
330
333
100
AcDbEntity
  8
0
 62
     0
100
AcDbTrace
 10
510.6104901684995
 20
720.5205905280887
 30
0.0
 11
511.4438235018329
 21
720.5205905280887
 31
0.0
 12
511.0271568351662
 22
723.0205905280887
 32
0.0
 13
511.0271568351662
 23
723.0205905280887
 33
0.0
  0
MTEXT
  5
B69
330
333
100
AcDbEntity
  8
0
 62
     0
100
AcDbMText
 10
509.1521568351661
 20
716.5622571947555
 30
0.0
 40
2.5
 41
0.0
 71
     5
 72
     1
  1
5
 11
0.0000000000000001
 21
1.0
 31
0.0
 73
     1
 44
1.0
1001
ACAD
1000
MTEXTBEGIN
1070
    73
1070
     1
1070
    44
1040
1.0
1070
    74
1070
     0
1000
MTEXTEND
  0
POINT
  5
B6A
330
333
100
AcDbEntity
  8
Defpoints
 62
     0
100
AcDbPoint
 10
517.5921708627526
 20
723.0205905280887
 30
0.0
  0
POINT
  5
B6B
330
333
100
AcDbEntity
  8
Defpoints
 62
     0
100
AcDbPoint
 10
517.5921708627526
 20
728.0205905280887
 30
0.0
  0
POINT
  5
B6C
330
333
100
AcDbEntity
  8
Defpoints
 62
     0
100
AcDbPoint
 10
511.0271568351662
 20
728.0205905280887
 30
0.0
  0
ENDBLK
  5
340
330
333
100
AcDbEntity
  8
0
100
AcDbBlockEnd
  0
BLOCK
  5
501
330
4F5
100
AcDbEntity
  8
0
100
AcDbBlockBegin
  2
*D12
 70
     1
 10
0.0
 20
0.0
 30
0.0
  3
*D12
  1

  0
LINE
  5
A34
330
4F5
100
AcDbEntity
  8
0
 62
     0
370
    -2
100
AcDbLine
 10
494.5885570985002
 20
744.926664394532
 30
0.0
 11
494.5885570985002
 21
752.9688702809474
 31
0.0
  0
LINE
  5
A35
330
4F5
100
AcDbEntity
  8
0
 62
     0
370
    -2
100
AcDbLine
 10
497.5885570985001
 20
744.926664394532
 30
0.0
 11
497.5885570985001
 21
752.9688702809474
 31
0.0
  0
LINE
  5
A36
330
4F5
100
AcDbEntity
  8
0
 62
     0
370
    -2
100
AcDbLine
 10
492.0885570985001
 20
751.7188702809475
 30
0.0
 11
489.5885570985002
 21
751.7188702809475
 31
0.0
  0
LINE
  5
A37
330
4F5
100
AcDbEntity
  8
0
 62
     0
370
    -2
100
AcDbLine
 10
500.0885570985001
 20
751.7188702809475
 30
0.0
 11
502.5885570985001
 21
751.7188702809475
 31
0.0
  0
LINE
  5
A38
330
4F5
100
AcDbEntity
  8
0
 62
     0
370
    -2
100
AcDbLine
 10
494.5885570985002
 20
751.7188702809475
 30
0.0
 11
497.5885570985001
 21
751.7188702809475
 31
0.0
  0
SOLID
  5
A39
330
4F5
100
AcDbEntity
  8
0
 62
     0
100
AcDbTrace
 10
492.0885570985001
 20
752.1355369476141
 30
0.0
 11
492.0885570985001
 21
751.3022036142809
 31
0.0
 12
494.5885570985002
 22
751.7188702809475
 32
0.0
 13
494.5885570985002
 23
751.7188702809475
 33
0.0
  0
SOLID
  5
A3A
330
4F5
100
AcDbEntity
  8
0
 62
     0
100
AcDbTrace
 10
500.0885570985001
 20
752.1355369476141
 30
0.0
 11
500.0885570985001
 21
751.3022036142809
 31
0.0
 12
497.5885570985001
 22
751.7188702809475
 32
0.0
 13
497.5885570985001
 23
751.7188702809475
 33
0.0
  0
MTEXT
  5
A3B
330
4F5
100
AcDbEntity
  8
0
 62
     0
100
AcDbMText
 10
496.0885570985001
 20
753.5938702809475
 30
0.0
 40
2.5
 41
0.0
 71
     5
 72
     1
  1
3
 73
     1
 44
1.0
1001
ACAD
1000
MTEXTBEGIN
1070
    73
1070
     1
1070
    44
1040
1.0
1070
    74
1070
     0
1000
MTEXTEND
  0
POINT
  5
A3C
330
4F5
100
AcDbEntity
  8
Defpoints
 62
     0
100
AcDbPoint
 10
494.5885570985002
 20
744.301664394532
 30
0.0
  0
POINT
  5
A3D
330
4F5
100
AcDbEntity
  8
Defpoints
 62
     0
100
AcDbPoint
 10
497.5885570985001
 20
744.301664394532
 30
0.0
  0
POINT
  5
A3E
330
4F5
100
AcDbEntity
  8
Defpoints
 62
     0
100
AcDbPoint
 10
497.5885570985001
 20
751.7188702809475
 30
0.0
  0
ENDBLK
  5
502
330
4F5
100
AcDbEntity
  8
0
100
AcDbBlockEnd
  0
BLOCK
  5
635
330
629
100
AcDbEntity
  8
0
100
AcDbBlockBegin
  2
*D13
 70
     1
 10
0.0
 20
0.0
 30
0.0
  3
*D13
  1

  0
LINE
  5
866
330
629
100
AcDbEntity
  8
0
 62
     0
370
    -2
100
AcDbLine
 10
422.5897868976331
 20
714.0056396613509
 30
0.0
 11
422.5897868976331
 21
718.328399339262
 31
0.0
  0
LINE
  5
867
330
629
100
AcDbEntity
  8
0
 62
     0
370
    -2
100
AcDbLine
 10
424.5884661911425
 20
714.0056396613509
 30
0.0
 11
424.5884661911425
 21
718.328399339262
 31
0.0
  0
LINE
  5
868
330
629
100
AcDbEntity
  8
0
 62
     0
370
    -2
100
AcDbLine
 10
420.0897868976332
 20
717.078399339262
 30
0.0
 11
417.5897868976331
 21
717.078399339262
 31
0.0
  0
LINE
  5
869
330
629
100
AcDbEntity
  8
0
 62
     0
370
    -2
100
AcDbLine
 10
427.0884661911425
 20
717.078399339262
 30
0.0
 11
432.5051328578092
 21
717.078399339262
 31
0.0
  0
LINE
  5
86A
330
629
100
AcDbEntity
  8
0
 62
     0
370
    -2
100
AcDbLine
 10
422.5897868976331
 20
717.078399339262
 30
0.0
 11
424.5884661911425
 21
717.078399339262
 31
0.0
  0
SOLID
  5
86B
330
629
100
AcDbEntity
  8
0
 62
     0
100
AcDbTrace
 10
420.0897868976332
 20
717.4950660059287
 30
0.0
 11
420.0897868976332
 21
716.6617326725955
 31
0.0
 12
422.5897868976331
 22
717.078399339262
 32
0.0
 13
422.5897868976331
 23
717.078399339262
 33
0.0
  0
SOLID
  5
86C
330
629
100
AcDbEntity
  8
0
 62
     0
100
AcDbTrace
 10
427.0884661911425
 20
717.4950660059287
 30
0.0
 11
427.0884661911425
 21
716.6617326725955
 31
0.0
 12
424.5884661911425
 22
717.078399339262
 32
0.0
 13
424.5884661911425
 23
717.078399339262
 33
0.0
  0
MTEXT
  5
86D
330
629
100
AcDbEntity
  8
0
 62
     0
100
AcDbMText
 10
431.0467995244758
 20
718.9533993392621
 30
0.0
 40
2.5
 41
0.0
 71
     5
 72
     1
  1
2
 73
     1
 44
1.0
1001
ACAD
1000
MTEXTBEGIN
1070
    73
1070
     1
1070
    44
1040
1.0
1070
    74
1070
     0
1000
MTEXTEND
  0
POINT
  5
86E
330
629
100
AcDbEntity
  8
Defpoints
 62
     0
100
AcDbPoint
 10
422.5897868976331
 20
713.3806396613509
 30
0.0
  0
POINT
  5
86F
330
629
100
AcDbEntity
  8
Defpoints
 62
     0
100
AcDbPoint
 10
424.5884661911425
 20
713.3806396613509
 30
0.0
  0
POINT
  5
870
330
629
100
AcDbEntity
  8
Defpoints
 62
     0
100
AcDbPoint
 10
424.5884661911425
 20
717.078399339262
 30
0.0
  0
ENDBLK
  5
636
330
629
100
AcDbEntity
  8
0
100
AcDbBlockEnd
  0
BLOCK
  5
665
330
65B
100
AcDbEntity
  8
0
100
AcDbBlockBegin
  2
*D14
 70
     1
 10
0.0
 20
0.0
 30
0.0
  3
*D14
  1

  0
LINE
  5
ADC
330
65B
100
AcDbEntity
  8
0
 62
     0
370
    -2
100
AcDbLine
 10
533.584937578374
 20
707.2122388749249
 30
0.0
 11
533.584937578374
 21
695.9289493217157
 31
0.0
  0
LINE
  5
ADD
330
65B
100
AcDbEntity
  8
0
 62
     0
370
    -2
100
AcDbLine
 10
554.5885570985001
 20
707.2122388749249
 30
0.0
 11
554.5885570985001
 21
695.9289493217157
 31
0.0
  0
LINE
  5
ADE
330
65B
100
AcDbEntity
  8
0
 62
     0
370
    -2
100
AcDbLine
 10
536.084937578374
 20
697.1789493217158
 30
0.0
 11
552.0885570985001
 21
697.1789493217158
 31
0.0
  0
SOLID
  5
ADF
330
65B
100
AcDbEntity
  8
0
 62
     0
100
AcDbTrace
 10
536.084937578374
 20
697.5956159883824
 30
0.0
 11
536.084937578374
 21
696.7622826550491
 31
0.0
 12
533.584937578374
 22
697.1789493217158
 32
0.0
 13
533.584937578374
 23
697.1789493217158
 33
0.0
  0
SOLID
  5
AE0
330
65B
100
AcDbEntity
  8
0
 62
     0
100
AcDbTrace
 10
552.0885570985001
 20
697.5956159883824
 30
0.0
 11
552.0885570985001
 21
696.7622826550491
 31
0.0
 12
554.5885570985001
 22
697.1789493217158
 32
0.0
 13
554.5885570985001
 23
697.1789493217158
 33
0.0
  0
MTEXT
  5
AE1
330
65B
100
AcDbEntity
  8
0
 62
     0
100
AcDbMText
 10
544.0867473384371
 20
699.0539493217157
 30
0.0
 40
2.5
 41
0.0
 71
     5
 72
     1
  1
21
 73
     1
 44
1.0
1001
ACAD
1000
MTEXTBEGIN
1070
    73
1070
     1
1070
    44
1040
1.0
1070
    74
1070
     0
1000
MTEXTEND
  0
POINT
  5
AE2
330
65B
100
AcDbEntity
  8
Defpoints
 62
     0
100
AcDbPoint
 10
533.584937578374
 20
707.8372388749248
 30
0.0
  0
POINT
  5
AE3
330
65B
100
AcDbEntity
  8
Defpoints
 62
     0
100
AcDbPoint
 10
554.5885570985001
 20
707.837238874925
 30
0.0
  0
POINT
  5
AE4
330
65B
100
AcDbEntity
  8
Defpoints
 62
     0
100
AcDbPoint
 10
554.5885570985001
 20
697.1789493217158
 30
0.0
  0
ENDBLK
  5
666
330
65B
100
AcDbEntity
  8
0
100
AcDbBlockEnd
  0
BLOCK
  5
686
330
67C
100
AcDbEntity
  8
0
100
AcDbBlockBegin
  2
*D15
 70
     1
 10
0.0
 20
0.0
 30
0.0
  3
*D15
  1

  0
LINE
  5
BBD
330
67C
100
AcDbEntity
  8
0
 62
     0
370
    -2
100
AcDbLine
 10
538.250430362245
 20
710.7869745421278
 30
0.0
 11
538.250430362245
 21
700.741394419446
 31
0.0
  0
LINE
  5
BBE
330
67C
100
AcDbEntity
  8
0
 62
     0
370
    -2
100
AcDbLine
 10
548.2504303622451
 20
710.7869745421278
 30
0.0
 11
548.2504303622451
 21
700.741394419446
 31
0.0
  0
LINE
  5
BBF
330
67C
100
AcDbEntity
  8
0
 62
     0
370
    -2
100
AcDbLine
 10
540.7504303622451
 20
701.9913944194461
 30
0.0
 11
545.750430362245
 21
701.9913944194461
 31
0.0
  0
SOLID
  5
BC0
330
67C
100
AcDbEntity
  8
0
 62
     0
100
AcDbTrace
 10
540.7504303622451
 20
702.4080610861127
 30
0.0
 11
540.7504303622451
 21
701.5747277527794
 31
0.0
 12
538.250430362245
 22
701.9913944194461
 32
0.0
 13
538.250430362245
 23
701.9913944194461
 33
0.0
  0
SOLID
  5
BC1
330
67C
100
AcDbEntity
  8
0
 62
     0
100
AcDbTrace
 10
545.750430362245
 20
702.4080610861127
 30
0.0
 11
545.750430362245
 21
701.5747277527794
 31
0.0
 12
548.2504303622451
 22
701.9913944194461
 32
0.0
 13
548.2504303622451
 23
701.9913944194461
 33
0.0
  0
MTEXT
  5
BC2
330
67C
100
AcDbEntity
  8
0
 62
     0
100
AcDbMText
 10
543.2351754048994
 20
703.866394419446
 30
0.0
 40
2.5
 41
0.0
 71
     5
 72
     1
  1
10
 73
     1
 44
1.0
1001
ACAD
1000
MTEXTBEGIN
1070
    73
1070
     1
1070
    44
1040
1.0
1070
    74
1070
     0
1000
MTEXTEND
  0
POINT
  5
BC3
330
67C
100
AcDbEntity
  8
Defpoints
 62
     0
100
AcDbPoint
 10
538.250430362245
 20
711.4119745421278
 30
0.0
  0
POINT
  5
BC4
330
67C
100
AcDbEntity
  8
Defpoints
 62
     0
100
AcDbPoint
 10
548.2504303622451
 20
711.4119745421278
 30
0.0
  0
POINT
  5
BC5
330
67C
100
AcDbEntity
  8
Defpoints
 62
     0
100
AcDbPoint
 10
548.2504303622451
 20
701.9913944194461
 30
0.0
  0
ENDBLK
  5
687
330
67C
100
AcDbEntity
  8
0
100
AcDbBlockEnd
  0
BLOCK
  5
6A0
330
694
100
AcDbEntity
  8
0
100
AcDbBlockBegin
  2
*D16
 70
     1
 10
0.0
 20
0.0
 30
0.0
  3
*D16
  1

  0
LINE
  5
BD1
330
694
100
AcDbEntity
  8
0
 62
     0
370
    -2
100
AcDbLine
 10
546.8431044801163
 20
710.7794080303241
 30
0.0
 11
535.4068435048313
 21
710.7794080303241
 31
0.0
  0
LINE
  5
BD2
330
694
100
AcDbEntity
  8
0
 62
     0
370
    -2
100
AcDbLine
 10
546.8431044801163
 20
714.7794080303241
 30
0.0
 11
535.4068435048313
 21
714.7794080303241
 31
0.0
  0
LINE
  5
BD3
330
694
100
AcDbEntity
  8
0
 62
     0
370
    -2
100
AcDbLine
 10
536.6568435048313
 20
717.2794080303241
 30
0.0
 11
536.6568435048313
 21
719.7794080303241
 31
0.0
  0
LINE
  5
BD4
330
694
100
AcDbEntity
  8
0
 62
     0
370
    -2
100
AcDbLine
 10
536.6568435048313
 20
708.2794080303241
 30
0.0
 11
536.6568435048313
 21
699.4050381564949
 31
0.0
  0
LINE
  5
BD5
330
694
100
AcDbEntity
  8
0
 62
     0
370
    -2
100
AcDbLine
 10
536.6568435048313
 20
714.7794080303241
 30
0.0
 11
536.6568435048313
 21
710.7794080303241
 31
0.0
  0
SOLID
  5
BD6
330
694
100
AcDbEntity
  8
0
 62
     0
100
AcDbTrace
 10
536.2401768381647
 20
717.2794080303241
 30
0.0
 11
537.073510171498
 21
717.2794080303241
 31
0.0
 12
536.6568435048313
 22
714.7794080303241
 32
0.0
 13
536.6568435048313
 23
714.7794080303241
 33
0.0
  0
SOLID
  5
BD7
330
694
100
AcDbEntity
  8
0
 62
     0
100
AcDbTrace
 10
536.2401768381647
 20
708.2794080303241
 30
0.0
 11
537.073510171498
 21
708.2794080303241
 31
0.0
 12
536.6568435048313
 22
710.7794080303241
 32
0.0
 13
536.6568435048313
 23
710.7794080303241
 33
0.0
  0
MTEXT
  5
BD8
330
694
100
AcDbEntity
  8
0
 62
     0
100
AcDbMText
 10
534.7818435048313
 20
700.8633714898283
 30
0.0
 40
2.5
 41
0.0
 71
     5
 72
     1
  1
4
 11
0.0000000000000001
 21
1.0
 31
0.0
 73
     1
 44
1.0
1001
ACAD
1000
MTEXTBEGIN
1070
    73
1070
     1
1070
    44
1040
1.0
1070
    74
1070
     0
1000
MTEXTEND
  0
POINT
  5
BD9
330
694
100
AcDbEntity
  8
Defpoints
 62
     0
100
AcDbPoint
 10
547.4681044801164
 20
710.7794080303241
 30
0.0
  0
POINT
  5
BDA
330
694
100
AcDbEntity
  8
Defpoints
 62
     0
100
AcDbPoint
 10
547.4681044801164
 20
714.7794080303241
 30
0.0
  0
POINT
  5
BDB
330
694
100
AcDbEntity
  8
Defpoints
 62
     0
100
AcDbPoint
 10
536.6568435048313
 20
714.7794080303241
 30
0.0
  0
ENDBLK
  5
6A1
330
694
100
AcDbEntity
  8
0
100
AcDbBlockEnd
  0
BLOCK
  5
6CE
330
6C2
100
AcDbEntity
  8
0
100
AcDbBlockBegin
  2
*D17
 70
     1
 10
0.0
 20
0.0
 30
0.0
  3
*D17
  1

  0
LINE
  5
886
330
6C2
100
AcDbEntity
  8
0
 62
     0
370
    -2
100
AcDbLine
 10
438.461166904578
 20
710.5179127786198
 30
0.0
 11
443.5679187096119
 21
710.5179127786198
 31
0.0
  0
LINE
  5
887
330
6C2
100
AcDbEntity
  8
0
 62
     0
370
    -2
100
AcDbLine
 10
438.4611669045779
 20
714.5179127786197
 30
0.0
 11
443.5679187096119
 21
714.5179127786197
 31
0.0
  0
LINE
  5
888
330
6C2
100
AcDbEntity
  8
0
 62
     0
370
    -2
100
AcDbLine
 10
442.3179187096119
 20
708.0179127786197
 30
0.0
 11
442.3179187096119
 21
705.5179127786198
 31
0.0
  0
LINE
  5
889
330
6C2
100
AcDbEntity
  8
0
 62
     0
370
    -2
100
AcDbLine
 10
442.3179187096119
 20
717.0179127786196
 30
0.0
 11
442.3179187096119
 21
719.5179127786197
 31
0.0
  0
LINE
  5
88A
330
6C2
100
AcDbEntity
  8
0
 62
     0
370
    -2
100
AcDbLine
 10
442.3179187096119
 20
710.5179127786198
 30
0.0
 11
442.3179187096119
 21
714.5179127786197
 31
0.0
  0
SOLID
  5
88B
330
6C2
100
AcDbEntity
  8
0
 62
     0
100
AcDbTrace
 10
441.9012520429452
 20
708.0179127786197
 30
0.0
 11
442.7345853762786
 21
708.0179127786197
 31
0.0
 12
442.3179187096119
 22
710.5179127786198
 32
0.0
 13
442.3179187096119
 23
710.5179127786198
 33
0.0
  0
SOLID
  5
88C
330
6C2
100
AcDbEntity
  8
0
 62
     0
100
AcDbTrace
 10
441.9012520429452
 20
717.0179127786196
 30
0.0
 11
442.7345853762786
 21
717.0179127786196
 31
0.0
 12
442.3179187096119
 22
714.5179127786197
 32
0.0
 13
442.3179187096119
 23
714.5179127786197
 33
0.0
  0
MTEXT
  5
88D
330
6C2
100
AcDbEntity
  8
0
 62
     0
100
AcDbMText
 10
440.4429187096118
 20
712.5179127786197
 30
0.0
 40
2.5
 41
0.0
 71
     5
 72
     1
  1
4
 11
0.0000000000000001
 21
1.0
 31
0.0
 73
     1
 44
1.0
1001
ACAD
1000
MTEXTBEGIN
1070
    73
1070
     1
1070
    44
1040
1.0
1070
    74
1070
     0
1000
MTEXTEND
  0
POINT
  5
88E
330
6C2
100
AcDbEntity
  8
Defpoints
 62
     0
100
AcDbPoint
 10
437.8361669045779
 20
710.5179127786198
 30
0.0
  0
POINT
  5
88F
330
6C2
100
AcDbEntity
  8
Defpoints
 62
     0
100
AcDbPoint
 10
437.8361669045779
 20
714.5179127786197
 30
0.0
  0
POINT
  5
890
330
6C2
100
AcDbEntity
  8
Defpoints
 62
     0
100
AcDbPoint
 10
442.3179187096119
 20
714.5179127786197
 30
0.0
  0
ENDBLK
  5
6CF
330
6C2
100
AcDbEntity
  8
0
100
AcDbBlockEnd
  0
BLOCK
  5
778
330
76E
100
AcDbEntity
  8
0
100
AcDbBlockBegin
  2
*D18
 70
     1
 10
0.0
 20
0.0
 30
0.0
  3
*D18
  1

  0
LINE
  5
8E7
330
76E
100
AcDbEntity
  8
0
 62
     0
370
    -2
100
AcDbLine
 10
422.5897868976331
 20
709.8929127786198
 30
0.0
 11
422.5897868976331
 21
698.6127004581639
 31
0.0
  0
LINE
  5
8E8
330
76E
100
AcDbEntity
  8
0
 62
     0
370
    -2
100
AcDbLine
 10
410.5897868976332
 20
709.8929127786198
 30
0.0
 11
410.5897868976332
 21
698.6127004581639
 31
0.0
  0
LINE
  5
8E9
330
76E
100
AcDbEntity
  8
0
 62
     0
370
    -2
100
AcDbLine
 10
420.0897868976332
 20
699.8627004581639
 30
0.0
 11
413.0897868976331
 21
699.8627004581639
 31
0.0
  0
SOLID
  5
8EA
330
76E
100
AcDbEntity
  8
0
 62
     0
100
AcDbTrace
 10
420.0897868976332
 20
700.2793671248306
 30
0.0
 11
420.0897868976332
 21
699.4460337914973
 31
0.0
 12
422.5897868976331
 22
699.8627004581639
 32
0.0
 13
422.5897868976331
 23
699.8627004581639
 33
0.0
  0
SOLID
  5
8EB
330
76E
100
AcDbEntity
  8
0
 62
     0
100
AcDbTrace
 10
413.0897868976331
 20
700.2793671248306
 30
0.0
 11
413.0897868976331
 21
699.4460337914973
 31
0.0
 12
410.5897868976332
 22
699.8627004581639
 32
0.0
 13
410.5897868976332
 23
699.8627004581639
 33
0.0
  0
MTEXT
  5
8EC
330
76E
100
AcDbEntity
  8
0
 62
     0
100
AcDbMText
 10
416.5897868976331
 20
701.7377004581639
 30
0.0
 40
2.5
 41
0.0
 71
     5
 72
     1
  1
12
 73
     1
 44
1.0
1001
ACAD
1000
MTEXTBEGIN
1070
    73
1070
     1
1070
    44
1040
1.0
1070
    74
1070
     0
1000
MTEXTEND
  0
POINT
  5
8ED
330
76E
100
AcDbEntity
  8
Defpoints
 62
     0
100
AcDbPoint
 10
422.5897868976331
 20
710.5179127786198
 30
0.0
  0
POINT
  5
8EE
330
76E
100
AcDbEntity
  8
Defpoints
 62
     0
100
AcDbPoint
 10
410.5897868976332
 20
710.5179127786198
 30
0.0
  0
POINT
  5
8EF
330
76E
100
AcDbEntity
  8
Defpoints
 62
     0
100
AcDbPoint
 10
410.5897868976332
 20
699.8627004581639
 30
0.0
  0
ENDBLK
  5
779
330
76E
100
AcDbEntity
  8
0
100
AcDbBlockEnd
  0
BLOCK
  5
790
330
786
100
AcDbEntity
  8
0
100
AcDbBlockBegin
  2
*D19
 70
     1
 10
0.0
 20
0.0
 30
0.0
  3
*D19
  1

  0
LINE
  5
8F0
330
786
100
AcDbEntity
  8
0
 62
     0
370
    -2
100
AcDbLine
 10
424.5884661911425
 20
709.8929127786198
 30
0.0
 11
424.5884661911425
 21
698.6127004581639
 31
0.0
  0
LINE
  5
8F1
330
786
100
AcDbEntity
  8
0
 62
     0
370
    -2
100
AcDbLine
 10
438.5884661911426
 20
709.8929127786198
 30
0.0
 11
438.5884661911426
 21
698.6127004581639
 31
0.0
  0
LINE
  5
8F2
330
786
100
AcDbEntity
  8
0
 62
     0
370
    -2
100
AcDbLine
 10
427.0884661911425
 20
699.8627004581639
 30
0.0
 11
436.0884661911425
 21
699.8627004581639
 31
0.0
  0
SOLID
  5
8F3
330
786
100
AcDbEntity
  8
0
 62
     0
100
AcDbTrace
 10
427.0884661911425
 20
700.2793671248306
 30
0.0
 11
427.0884661911425
 21
699.4460337914973
 31
0.0
 12
424.5884661911425
 22
699.8627004581639
 32
0.0
 13
424.5884661911425
 23
699.8627004581639
 33
0.0
  0
SOLID
  5
8F4
330
786
100
AcDbEntity
  8
0
 62
     0
100
AcDbTrace
 10
436.0884661911425
 20
700.2793671248306
 30
0.0
 11
436.0884661911425
 21
699.4460337914973
 31
0.0
 12
438.5884661911426
 22
699.8627004581639
 32
0.0
 13
438.5884661911426
 23
699.8627004581639
 33
0.0
  0
MTEXT
  5
8F5
330
786
100
AcDbEntity
  8
0
 62
     0
100
AcDbMText
 10
431.5884661911425
 20
701.7377004581639
 30
0.0
 40
2.5
 41
0.0
 71
     5
 72
     1
  1
14
 73
     1
 44
1.0
1001
ACAD
1000
MTEXTBEGIN
1070
    73
1070
     1
1070
    44
1040
1.0
1070
    74
1070
     0
1000
MTEXTEND
  0
POINT
  5
8F6
330
786
100
AcDbEntity
  8
Defpoints
 62
     0
100
AcDbPoint
 10
424.5884661911425
 20
710.5179127786198
 30
0.0
  0
POINT
  5
8F7
330
786
100
AcDbEntity
  8
Defpoints
 62
     0
100
AcDbPoint
 10
438.5884661911426
 20
710.5179127786198
 30
0.0
  0
POINT
  5
8F8
330
786
100
AcDbEntity
  8
Defpoints
 62
     0
100
AcDbPoint
 10
438.5884661911426
 20
699.8627004581639
 30
0.0
  0
ENDBLK
  5
791
330
786
100
AcDbEntity
  8
0
100
AcDbBlockEnd
  0
BLOCK
  5
7B4
330
7A8
100
AcDbEntity
  8
0
100
AcDbBlockBegin
  2
*D20
 70
     1
 10
0.0
 20
0.0
 30
0.0
  3
*D20
  1

  0
LINE
  5
A62
330
7A8
100
AcDbEntity
  8
0
 62
     0
370
    -2
100
AcDbLine
 10
552.5921708627525
 20
727.8243524493948
 30
0.0
 11
552.5921708627525
 21
732.6164286891827
 31
0.0
  0
LINE
  5
A63
330
7A8
100
AcDbEntity
  8
0
 62
     0
370
    -2
100
AcDbLine
 10
554.5885570985001
 20
727.8243524493948
 30
0.0
 11
554.5885570985001
 21
732.6164286891827
 31
0.0
  0
LINE
  5
A64
330
7A8
100
AcDbEntity
  8
0
 62
     0
370
    -2
100
AcDbLine
 10
550.0921708627526
 20
731.3664286891827
 30
0.0
 11
547.5921708627526
 21
731.3664286891827
 31
0.0
  0
LINE
  5
A65
330
7A8
100
AcDbEntity
  8
0
 62
     0
370
    -2
100
AcDbLine
 10
557.0885570985001
 20
731.3664286891827
 30
0.0
 11
562.5052237651667
 21
731.3664286891827
 31
0.0
  0
LINE
  5
A66
330
7A8
100
AcDbEntity
  8
0
 62
     0
370
    -2
100
AcDbLine
 10
552.5921708627525
 20
731.3664286891827
 30
0.0
 11
554.5885570985001
 21
731.3664286891827
 31
0.0
  0
SOLID
  5
A67
330
7A8
100
AcDbEntity
  8
0
 62
     0
100
AcDbTrace
 10
550.0921708627526
 20
731.7830953558493
 30
0.0
 11
550.0921708627526
 21
730.9497620225161
 31
0.0
 12
552.5921708627525
 22
731.3664286891827
 32
0.0
 13
552.5921708627525
 23
731.3664286891827
 33
0.0
  0
SOLID
  5
A68
330
7A8
100
AcDbEntity
  8
0
 62
     0
100
AcDbTrace
 10
557.0885570985001
 20
731.7830953558493
 30
0.0
 11
557.0885570985001
 21
730.9497620225161
 31
0.0
 12
554.5885570985001
 22
731.3664286891827
 32
0.0
 13
554.5885570985001
 23
731.3664286891827
 33
0.0
  0
MTEXT
  5
A69
330
7A8
100
AcDbEntity
  8
0
 62
     0
100
AcDbMText
 10
561.0468904318334
 20
733.2414286891827
 30
0.0
 40
2.5
 41
0.0
 71
     5
 72
     1
  1
2
 73
     1
 44
1.0
1001
ACAD
1000
MTEXTBEGIN
1070
    73
1070
     1
1070
    44
1040
1.0
1070
    74
1070
     0
1000
MTEXTEND
  0
POINT
  5
A6A
330
7A8
100
AcDbEntity
  8
Defpoints
 62
     0
100
AcDbPoint
 10
552.5921708627525
 20
727.1993524493948
 30
0.0
  0
POINT
  5
A6B
330
7A8
100
AcDbEntity
  8
Defpoints
 62
     0
100
AcDbPoint
 10
554.5885570985001
 20
727.1993524493948
 30
0.0
  0
POINT
  5
A6C
330
7A8
100
AcDbEntity
  8
Defpoints
 62
     0
100
AcDbPoint
 10
554.5885570985001
 20
731.3664286891827
 30
0.0
  0
ENDBLK
  5
7B5
330
7A8
100
AcDbEntity
  8
0
100
AcDbBlockEnd
  0
BLOCK
  5
818
330
80C
100
AcDbEntity
  8
0
100
AcDbBlockBegin
  2
*D21
 70
     1
 10
0.0
 20
0.0
 30
0.0
  3
*D21
  1

  0
LINE
  5
8D1
330
80C
100
AcDbEntity
  8
0
 62
     0
370
    -2
100
AcDbLine
 10
409.7956624261062
 20
705.5158944282882
 30
0.0
 11
400.1074040222572
 21
705.5158944282882
 31
0.0
  0
LINE
  5
8D2
330
80C
100
AcDbEntity
  8
0
 62
     0
370
    -2
100
AcDbLine
 10
411.6196968032458
 20
710.5179127786198
 30
0.0
 11
400.1074040222572
 21
710.5179127786198
 31
0.0
  0
LINE
  5
8D3
330
80C
100
AcDbEntity
  8
0
 62
     0
370
    -2
100
AcDbLine
 10
401.3574040222572
 20
703.0158944282882
 30
0.0
 11
401.3574040222572
 21
700.5158944282882
 31
0.0
  0
LINE
  5
8D4
330
80C
100
AcDbEntity
  8
0
 62
     0
370
    -2
100
AcDbLine
 10
401.3574040222572
 20
713.0179127786198
 30
0.0
 11
401.3574040222572
 21
715.5179127786198
 31
0.0
  0
LINE
  5
8D5
330
80C
100
AcDbEntity
  8
0
 62
     0
370
    -2
100
AcDbLine
 10
401.3574040222572
 20
705.5158944282882
 30
0.0
 11
401.3574040222572
 21
710.5179127786198
 31
0.0
  0
SOLID
  5
8D6
330
80C
100
AcDbEntity
  8
0
 62
     0
100
AcDbTrace
 10
400.9407373555905
 20
703.0158944282882
 30
0.0
 11
401.7740706889239
 21
703.0158944282882
 31
0.0
 12
401.3574040222572
 22
705.5158944282882
 32
0.0
 13
401.3574040222572
 23
705.5158944282882
 33
0.0
  0
SOLID
  5
8D7
330
80C
100
AcDbEntity
  8
0
 62
     0
100
AcDbTrace
 10
400.9407373555905
 20
713.0179127786198
 30
0.0
 11
401.7740706889239
 21
713.0179127786198
 31
0.0
 12
401.3574040222572
 22
710.5179127786198
 32
0.0
 13
401.3574040222572
 23
710.5179127786198
 33
0.0
  0
MTEXT
  5
8D8
330
80C
100
AcDbEntity
  8
0
 62
     0
100
AcDbMText
 10
399.4824040222571
 20
708.0169036034541
 30
0.0
 40
2.5
 41
0.0
 71
     5
 72
     1
  1
5
 11
0.0000000000000001
 21
1.0
 31
0.0
 73
     1
 44
1.0
1001
ACAD
1000
MTEXTBEGIN
1070
    73
1070
     1
1070
    44
1040
1.0
1070
    74
1070
     0
1000
MTEXTEND
  0
POINT
  5
8D9
330
80C
100
AcDbEntity
  8
Defpoints
 62
     0
100
AcDbPoint
 10
410.4206624261061
 20
705.5158944282882
 30
0.0
  0
POINT
  5
8DA
330
80C
100
AcDbEntity
  8
Defpoints
 62
     0
100
AcDbPoint
 10
412.2446968032457
 20
710.5179127786198
 30
0.0
  0
POINT
  5
8DB
330
80C
100
AcDbEntity
  8
Defpoints
 62
     0
100
AcDbPoint
 10
401.3574040222572
 20
710.5179127786198
 30
0.0
  0
ENDBLK
  5
819
330
80C
100
AcDbEntity
  8
0
100
AcDbBlockEnd
  0
BLOCK
  5
833
330
828
100
AcDbEntity
  8
0
100
AcDbBlockBegin
  2
*D22
 70
     1
 10
0.0
 20
0.0
 30
0.0
  3
*D22
  1

  0
LINE
  5
8DC
330
828
100
AcDbEntity
  8
0
 62
     0
370
    -2
100
AcDbLine
 10
410.5897868976332
 20
713.256265246719
 30
0.0
 11
410.5897868976332
 21
698.6127004581639
 31
0.0
  0
LINE
  5
8DD
330
828
100
AcDbEntity
  8
0
 62
     0
370
    -2
100
AcDbLine
 10
404.5885570985001
 20
716.5097834411088
 30
0.0
 11
404.5885570985001
 21
698.6127004581639
 31
0.0
  0
LINE
  5
8DE
330
828
100
AcDbEntity
  8
0
 62
     0
370
    -2
100
AcDbLine
 10
413.0897868976331
 20
699.8627004581639
 30
0.0
 11
415.5897868976332
 21
699.8627004581639
 31
0.0
  0
LINE
  5
8DF
330
828
100
AcDbEntity
  8
0
 62
     0
370
    -2
100
AcDbLine
 10
402.0885570985001
 20
699.8627004581639
 30
0.0
 11
399.5885570985001
 21
699.8627004581639
 31
0.0
  0
LINE
  5
8E0
330
828
100
AcDbEntity
  8
0
 62
     0
370
    -2
100
AcDbLine
 10
410.5897868976332
 20
699.8627004581639
 30
0.0
 11
404.5885570985001
 21
699.8627004581639
 31
0.0
  0
SOLID
  5
8E1
330
828
100
AcDbEntity
  8
0
 62
     0
100
AcDbTrace
 10
413.0897868976331
 20
700.2793671248306
 30
0.0
 11
413.0897868976331
 21
699.4460337914973
 31
0.0
 12
410.5897868976332
 22
699.8627004581639
 32
0.0
 13
410.5897868976332
 23
699.8627004581639
 33
0.0
  0
SOLID
  5
8E2
330
828
100
AcDbEntity
  8
0
 62
     0
100
AcDbTrace
 10
402.0885570985001
 20
700.2793671248306
 30
0.0
 11
402.0885570985001
 21
699.4460337914973
 31
0.0
 12
404.5885570985001
 22
699.8627004581639
 32
0.0
 13
404.5885570985001
 23
699.8627004581639
 33
0.0
  0
MTEXT
  5
8E3
330
828
100
AcDbEntity
  8
0
 62
     0
100
AcDbMText
 10
407.5891719980666
 20
701.7377004581639
 30
0.0
 40
2.5
 41
0.0
 71
     5
 72
     1
  1
6
 73
     1
 44
1.0
1001
ACAD
1000
MTEXTBEGIN
1070
    73
1070
     1
1070
    44
1040
1.0
1070
    74
1070
     0
1000
MTEXTEND
  0
POINT
  5
8E4
330
828
100
AcDbEntity
  8
Defpoints
 62
     0
100
AcDbPoint
 10
410.5897868976332
 20
713.8812652467191
 30
0.0
  0
POINT
  5
8E5
330
828
100
AcDbEntity
  8
Defpoints
 62
     0
100
AcDbPoint
 10
404.5885570985001
 20
717.1347834411088
 30
0.0
  0
POINT
  5
8E6
330
828
100
AcDbEntity
  8
Defpoints
 62
     0
100
AcDbPoint
 10
404.5885570985001
 20
699.8627004581639
 30
0.0
  0
ENDBLK
  5
834
330
828
100
AcDbEntity
  8
0
100
AcDbBlockEnd
  0
BLOCK
  5
A1A
330
A0E
100
AcDbEntity
  8
0
100
AcDbBlockBegin
  2
*D23
 70
     1
 10
0.0
 20
0.0
 30
0.0
  3
*D23
  1

  0
LINE
  5
AEE
330
A0E
100
AcDbEntity
  8
0
 62
     0
370
    -2
100
AcDbLine
 10
494.5160185550338
 20
740.5158944282882
 30
0.0
 11
492.4903345348262
 21
740.5158944282882
 31
0.0
  0
LINE
  5
AEF
330
A0E
100
AcDbEntity
  8
0
 62
     0
370
    -2
100
AcDbLine
 10
495.0242839350759
 20
745.5158944282882
 30
0.0
 11
492.4903345348262
 21
745.5158944282882
 31
0.0
  0
LINE
  5
AF0
330
A0E
100
AcDbEntity
  8
0
 62
     0
370
    -2
100
AcDbLine
 10
493.7403345348262
 20
738.0158944282882
 30
0.0
 11
493.7403345348262
 21
735.5158944282882
 31
0.0
  0
LINE
  5
AF1
330
A0E
100
AcDbEntity
  8
0
 62
     0
370
    -2
100
AcDbLine
 10
493.7403345348262
 20
748.0158944282882
 30
0.0
 11
493.7403345348262
 21
750.5158944282882
 31
0.0
  0
LINE
  5
AF2
330
A0E
100
AcDbEntity
  8
0
 62
     0
370
    -2
100
AcDbLine
 10
493.7403345348262
 20
740.5158944282882
 30
0.0
 11
493.7403345348262
 21
745.5158944282882
 31
0.0
  0
SOLID
  5
AF3
330
A0E
100
AcDbEntity
  8
0
 62
     0
100
AcDbTrace
 10
493.3236678681595
 20
738.0158944282882
 30
0.0
 11
494.1570012014929
 21
738.0158944282882
 31
0.0
 12
493.7403345348262
 22
740.5158944282882
 32
0.0
 13
493.7403345348262
 23
740.5158944282882
 33
0.0
  0
SOLID
  5
AF4
330
A0E
100
AcDbEntity
  8
0
 62
     0
100
AcDbTrace
 10
493.3236678681595
 20
748.0158944282882
 30
0.0
 11
494.1570012014929
 21
748.0158944282882
 31
0.0
 12
493.7403345348262
 22
745.5158944282882
 32
0.0
 13
493.7403345348262
 23
745.5158944282882
 33
0.0
  0
MTEXT
  5
AF5
330
A0E
100
AcDbEntity
  8
0
 62
     0
100
AcDbMText
 10
491.8653345348261
 20
743.0158944282883
 30
0.0
 40
2.5
 41
0.0
 71
     5
 72
     1
  1
5
 11
0.0000000000000001
 21
1.0
 31
0.0
 73
     1
 44
1.0
1001
ACAD
1000
MTEXTBEGIN
1070
    73
1070
     1
1070
    44
1040
1.0
1070
    74
1070
     0
1000
MTEXTEND
  0
POINT
  5
AF6
330
A0E
100
AcDbEntity
  8
Defpoints
 62
     0
100
AcDbPoint
 10
495.1410185550337
 20
740.5158944282882
 30
0.0
  0
POINT
  5
AF7
330
A0E
100
AcDbEntity
  8
Defpoints
 62
     0
100
AcDbPoint
 10
495.6492839350759
 20
745.5158944282882
 30
0.0
  0
POINT
  5
AF8
330
A0E
100
AcDbEntity
  8
Defpoints
 62
     0
100
AcDbPoint
 10
493.7403345348262
 20
745.5158944282882
 30
0.0
  0
ENDBLK
  5
A1B
330
A0E
100
AcDbEntity
  8
0
100
AcDbBlockEnd
  0
BLOCK
  5
AAC
330
AA0
100
AcDbEntity
  8
0
100
AcDbBlockBegin
  2
*D24
 70
     1
 10
0.0
 20
0.0
 30
0.0
  3
*D24
  1

  0
LINE
  5
AC6
330
AA0
100
AcDbEntity
  8
0
 62
     0
370
    -2
100
AcDbLine
 10
518.045422859243
 20
728.0205905280887
 30
0.0
 11
513.3385570985001
 21
728.0205905280887
 31
0.0
  0
LINE
  5
AC7
330
AA0
100
AcDbEntity
  8
0
 62
     0
370
    -2
100
AcDbLine
 10
518.3349796166818
 20
730.015894428288
 30
0.0
 11
513.3385570985001
 21
730.015894428288
 31
0.0
  0
LINE
  5
AC8
330
AA0
100
AcDbEntity
  8
0
 62
     0
370
    -2
100
AcDbLine
 10
514.5885570985001
 20
725.5205905280887
 30
0.0
 11
514.5885570985001
 21
723.0205905280887
 31
0.0
  0
LINE
  5
AC9
330
AA0
100
AcDbEntity
  8
0
 62
     0
370
    -2
100
AcDbLine
 10
514.5885570985001
 20
732.5158944282881
 30
0.0
 11
514.5885570985001
 21
737.9325610949547
 31
0.0
  0
LINE
  5
ACA
330
AA0
100
AcDbEntity
  8
0
 62
     0
370
    -2
100
AcDbLine
 10
514.5885570985001
 20
728.0205905280887
 30
0.0
 11
514.5885570985001
 21
730.015894428288
 31
0.0
  0
SOLID
  5
ACB
330
AA0
100
AcDbEntity
  8
0
 62
     0
100
AcDbTrace
 10
514.1718904318334
 20
725.5205905280887
 30
0.0
 11
515.0052237651667
 21
725.5205905280887
 31
0.0
 12
514.5885570985001
 22
728.0205905280887
 32
0.0
 13
514.5885570985001
 23
728.0205905280887
 33
0.0
  0
SOLID
  5
ACC
330
AA0
100
AcDbEntity
  8
0
 62
     0
100
AcDbTrace
 10
514.1718904318334
 20
732.5158944282881
 30
0.0
 11
515.0052237651667
 21
732.5158944282881
 31
0.0
 12
514.5885570985001
 22
730.015894428288
 32
0.0
 13
514.5885570985001
 23
730.015894428288
 33
0.0
  0
MTEXT
  5
ACD
330
AA0
100
AcDbEntity
  8
0
 62
     0
100
AcDbMText
 10
512.7135570985
 20
736.4742277616215
 30
0.0
 40
2.5
 41
0.0
 71
     5
 72
     1
  1
2
 11
0.0000000000000001
 21
1.0
 31
0.0
 73
     1
 44
1.0
1001
ACAD
1000
MTEXTBEGIN
1070
    73
1070
     1
1070
    44
1040
1.0
1070
    74
1070
     0
1000
MTEXTEND
  0
POINT
  5
ACE
330
AA0
100
AcDbEntity
  8
Defpoints
 62
     0
100
AcDbPoint
 10
518.670422859243
 20
728.0205905280887
 30
0.0
  0
POINT
  5
ACF
330
AA0
100
AcDbEntity
  8
Defpoints
 62
     0
100
AcDbPoint
 10
518.9599796166818
 20
730.015894428288
 30
0.0
  0
POINT
  5
AD0
330
AA0
100
AcDbEntity
  8
Defpoints
 62
     0
100
AcDbPoint
 10
514.5885570985001
 20
730.015894428288
 30
0.0
  0
ENDBLK
  5
AAD
330
AA0
100
AcDbEntity
  8
0
100
AcDbBlockEnd
  0
ENDSEC
  0
SECTION
  2
ENTITIES
  0
LINE
  5
8B
102
{ACAD_REACTORS
330
F7
330
A28
102
}
330
1F
100
AcDbEntity
  8
0
100
AcDbLine
 10
404.5885570985001
 20
745.5158944282882
 30
0.0
 11
554.5885570985001
 21
745.5158944282882
 31
0.0
  0
LINE
  5
8C
102
{ACAD_REACTORS
330
DA
330
206
330
671
102
}
330
1F
100
AcDbEntity
  8
0
100
AcDbLine
 10
554.5885570985001
 20
745.5158944282882
 30
0.0
 11
554.5885570985001
 21
705.5158944282882
 31
0.0
  0
LINE
  5
8D
102
{ACAD_REACTORS
330
F7
330
826
102
}
330
1F
100
AcDbEntity
  8
0
100
AcDbLine
 10
554.5885570985001
 20
705.5158944282882
 30
0.0
 11
404.5885570985001
 21
705.5158944282882
 31
0.0
  0
LINE
  5
8E
102
{ACAD_REACTORS
330
AA
330
206
330
840
102
}
330
1F
100
AcDbEntity
  8
0
100
AcDbLine
 10
404.5885570985001
 20
705.5158944282882
 30
0.0
 11
404.5885570985001
 21
745.5158944282882
 31
0.0
  0
LINE
  5
8F
330
1F
100
AcDbEntity
  8
0
  6
CENTER2
 62
     4
100
AcDbLine
 10
404.5885570985001
 20
725.5158944282882
 30
0.0
 11
554.5885570985001
 21
725.5158944282882
 31
0.0
  0
LINE
  5
90
102
{ACAD_REACTORS
330
C2
102
}
330
1F
100
AcDbEntity
  8
0
100
AcDbLine
 10
494.5885570985001
 20
745.5158944282882
 30
0.0
 11
494.5885570985001
 21
705.5158944282882
 31
0.0
  0
LINE
  5
91
102
{ACAD_REACTORS
330
AA
330
C2
102
}
330
1F
100
AcDbEntity
  8
0
100
AcDbLine
 10
444.5885570985001
 20
745.5158944282882
 30
0.0
 11
444.5885570985001
 21
705.5158944282882
 31
0.0
  0
DIMENSION
  5
92
102
{ACAD_XDICTIONARY
360
A0
102
}
102
{ACAD_REACTORS
330
AA
102
}
330
1F
100
AcDbEntity
  8
0
100
AcDbDimension
  2
*D1
 10
444.5885570985002
 20
760.7802794573479
 30
0.0
 11
424.5885570985
 21
762.6552794573479
 31
0.0
 70
    32
 71
     5
 42
40.00000000000006
  3
ISO-25
100
AcDbAlignedDimension
 13
404.5885570985001
 23
745.5158944282882
 33
0.0
 14
444.5885570985002
 24
745.5158944282882
 34
0.0
100
AcDbRotatedDimension
  0
DIMENSION
  5
AB
102
{ACAD_XDICTIONARY
360
B8
102
}
102
{ACAD_REACTORS
330
C2
102
}
330
1F
100
AcDbEntity
  8
0
100
AcDbDimension
  2
*D2
 10
494.5885570985001
 20
760.7802794573479
 30
0.0
 11
469.5885570985001
 21
762.6552794573479
 31
0.0
 70
    32
 71
     5
 42
50.0
  3
ISO-25
100
AcDbAlignedDimension
 13
444.5885570985001
 23
745.5158944282882
 33
0.0
 14
494.5885570985001
 24
745.5158944282882
 34
0.0
100
AcDbRotatedDimension
  0
DIMENSION
  5
C3
102
{ACAD_XDICTIONARY
360
D0
102
}
102
{ACAD_REACTORS
330
DA
102
}
330
1F
100
AcDbEntity
  8
0
100
AcDbDimension
  2
*D3
 10
554.5885570985001
 20
760.7802794573479
 30
0.0
 11
524.5885570985001
 21
762.6552794573479
 31
0.0
 70
    32
 71
     5
 42
60.0
  3
ISO-25
100
AcDbAlignedDimension
 13
494.5885570985001
 23
746.1408944282882
 33
0.0
 14
554.5885570985001
 24
745.5158944282882
 34
0.0
100
AcDbRotatedDimension
  0
LINE
  5
DB
102
{ACAD_REACTORS
330
1E6
102
}
330
1F
100
AcDbEntity
  8
0
 62
     4
100
AcDbLine
 10
404.5885570985001
 20
726.5158944282882
 30
0.0
 11
554.5885570985001
 21
726.5158944282882
 31
0.0
  0
LINE
  5
DC
102
{ACAD_REACTORS
330
1E6
102
}
330
1F
100
AcDbEntity
  8
0
 62
     4
100
AcDbLine
 10
404.5885570985001
 20
724.5158944282882
 30
0.0
 11
554.5885570985001
 21
724.5158944282882
 31
0.0
  0
DIMENSION
  5
E0
102
{ACAD_XDICTIONARY
360
ED
102
}
102
{ACAD_REACTORS
330
F7
102
}
330
1F
100
AcDbEntity
  8
0
100
AcDbDimension
  2
*D4
 10
388.1367397888125
 20
745.5158944282882
 30
0.0
 11
386.2617397888124
 21
725.5158944282883
 31
0.0
 70
    32
 71
     5
 42
40.0
  3
ISO-25
100
AcDbAlignedDimension
 13
409.2107830181994
 23
705.5158944282882
 33
0.0
 14
415.9281372385658
 24
745.5158944282882
 34
0.0
 50
90.0
100
AcDbRotatedDimension
  0
DIMENSION
  5
FB
330
1F
100
AcDbEntity
  8
0
100
AcDbDimension
  2
*D5
 10
559.2629320176503
 20
730.015894428288
 30
0.0
 11
559.2629320176501
 21
725.5205905280886
 31
0.0
 70
   160
 71
     5
 42
9.0
  3
ISO-25
100
AcDbAlignedDimension
 13
554.3434215348397
 23
721.0158944282881
 33
0.0
 14
554.3434215348397
 24
730.015894428288
 34
0.0
 50
90.0
100
AcDbRotatedDimension
  0
LINE
  5
113
330
1F
100
AcDbEntity
  8
0
100
AcDbLine
 10
494.5885570985001
 20
745.5158944282882
 30
0.0
 11
499.5885570985001
 21
745.5158944282882
 31
0.0
  0
LINE
  5
114
330
1F
100
AcDbEntity
  8
0
100
AcDbLine
 10
497.5885570985001
 20
745.5158944282882
 30
0.0
 11
497.5885570985001
 21
740.5158944282882
 31
0.0
  0
MTEXT
  5
115
330
1F
100
AcDbEntity
  8
0
100
AcDbMText
 10
495.597616504074
 20
745.1987372992014
 30
0.0
 40
0.5
 41
0.7565217391304348
 71
     1
 72
     5
  1
{\fSimSun|b0|i0|c134|p54;工装存放区}
 73
     1
 44
1.0
1001
ACAD
1000
MTEXTBEGIN
1070
    73
1070
     1
1070
    44
1040
1.0
1070
    74
1070
     0
1000
MTEXTEND
  0
MTEXT
  5
117
330
1F
100
AcDbEntity
  8
0
100
AcDbMText
 10
407.9233451410918
 20
736.881408574239
 30
0.0
 40
2.5
 41
40.00000000000005
 71
     1
 72
     5
  1
{\fSimSun|b0|i0|c134|p54;原材料存放区（管材）}
 73
     1
 44
1.0
1001
ACAD
1000
MTEXTBEGIN
1070
    73
1070
     1
1070
    44
1040
1.0
1070
    74
1070
     0
1000
MTEXTEND
  0
MTEXT
  5
118
330
1F
100
AcDbEntity
  8
0
100
AcDbMText
 10
504.4555584916786
 20
713.7866721789371
 30
0.0
 40
2.5
 41
27.36090720289837
 71
     1
 72
     5
  1
{\fSimSun|b0|i0|c134|p54;零件存放（型材）}
 73
     1
 44
1.0
1001
ACAD
1000
MTEXTBEGIN
1070
    73
1070
     1
1070
    44
1040
1.0
1070
    74
1070
     0
1000
MTEXTEND
  0
MTEXT
  5
119
330
1F
100
AcDbEntity
  8
0
100
AcDbMText
 10
419.5083591077279
 20
722.9027346824267
 30
0.0
 40
2.5
 41
23.11666666666667
 71
     1
 72
     5
  1
{\fSimSun|b0|i0|c134|p54;加工区}
 73
     1
 44
1.0
1001
ACAD
1000
MTEXTBEGIN
1070
    73
1070
     1
1070
    44
1040
1.0
1070
    74
1070
     0
1000
MTEXTEND
  0
LINE
  5
17C
102
{ACAD_REACTORS
330
692
102
}
330
1F
100
AcDbEntity
  8
0
100
AcDbLine
 10
538.250430362245
 20
710.7794080303241
 30
0.0
 11
538.250430362245
 21
714.7794080303241
 31
0.0
  0
LINE
  5
17D
102
{ACAD_REACTORS
330
6AE
102
}
330
1F
100
AcDbEntity
  8
0
100
AcDbLine
 10
548.2504303622451
 20
710.7794080303241
 30
0.0
 11
538.250430362245
 21
710.7794080303241
 31
0.0
  0
LINE
  5
17E
102
{ACAD_REACTORS
330
6AE
102
}
330
1F
100
AcDbEntity
  8
0
100
AcDbLine
 10
538.250430362245
 20
714.7794080303241
 30
0.0
 11
548.2504303622451
 21
714.7794080303241
 31
0.0
  0
MTEXT
  5
1C8
330
1F
100
AcDbEntity
  8
0
100
AcDbMText
 10
467.9435099402503
 20
717.1081679548982
 30
0.0
 40
2.5
 41
13.7428513555817
 71
     1
 72
     5
  1
{\fSimSun|b0|i0|c134|p54;装配区}
 73
     1
 44
1.0
1001
ACAD
1000
MTEXTBEGIN
1070
    73
1070
     1
1070
    44
1040
1.0
1070
    74
1070
     0
1000
MTEXTEND
  0
MTEXT
  5
1C9
330
1F
100
AcDbEntity
  8
0
100
AcDbMText
 10
460.9314835269535
 20
742.4468950290941
 30
0.0
 40
2.5
 41
23.11666666666667
 71
     1
 72
     5
  1
{\fSimSun|b0|i0|c134|p54;成品单管}
 73
     1
 44
1.0
1001
ACAD
1000
MTEXTBEGIN
1070
    73
1070
     1
1070
    44
1040
1.0
1070
    74
1070
     0
1000
MTEXTEND
  0
MTEXT
  5
1CA
330
1F
100
AcDbEntity
  8
0
100
AcDbMText
 10
518.4566049485483
 20
738.2719215228774
 30
0.0
 40
2.5
 41
23.11666666666667
 71
     1
 72
     5
  1
{\fSimSun|b0|i0|c134|p54;总装泵塔区}
 73
     1
 44
1.0
1001
ACAD
1000
MTEXTBEGIN
1070
    73
1070
     1
1070
    44
1040
1.0
1070
    74
1070
     0
1000
MTEXTEND
  0
DIMENSION
  5
1CB
102
{ACAD_XDICTIONARY
360
1DA
102
}
102
{ACAD_REACTORS
330
1E6
102
}
330
1F
100
AcDbEntity
  8
0
100
AcDbDimension
  2
*D6
 10
398.615936115858
 20
726.5158944282882
 30
0.0
 11
396.7409361158578
 21
732.9742277616217
 31
0.0
 70
    32
 71
     5
 42
1.999999999999886
  3
ISO-25
100
AcDbAlignedDimension
 13
406.0897549580913
 23
724.5158944282883
 33
0.0
 14
406.0897549580913
 24
726.5158944282882
 34
0.0
 50
90.0
100
AcDbRotatedDimension
  0
MTEXT
  5
1E8
330
1F
100
AcDbEntity
  8
0
100
AcDbMText
 10
410.5303671331514
 20
713.5269621328243
 30
0.0
 40
2.0
 41
12.86019527688727
 71
     1
 72
     5
  1
{\fSimSun|b0|i0|c134|p54;下料设备}
 73
     1
 44
1.0
1001
ACAD
1000
MTEXTBEGIN
1070
    73
1070
     1
1070
    44
1040
1.0
1070
    74
1070
     0
1000
MTEXTEND
  0
MTEXT
  5
1E9
330
1F
100
AcDbEntity
  8
0
100
AcDbMText
 10
427.9518868129238
 20
713.8209017229732
 30
0.0
 40
2.0
 41
8.520219175357842
 71
     1
 72
     5
  1
{\fSimSun|b0|i0|c134|p54;镗床}
 73
     1
 44
1.0
1001
ACAD
1000
MTEXTBEGIN
1070
    73
1070
     1
1070
    44
1040
1.0
1070
    74
1070
     0
1000
MTEXTEND
  0
MTEXT
  5
1EA
330
1F
100
AcDbEntity
  8
0
100
AcDbMText
 10
542.1533678571377
 20
714.079170924257
 30
0.0
 40
1.0
 41
11.95171947369419
 71
     1
 72
     5
  1
{\fSimSun|b0|i0|c134|p54;\H2x;型材加工}
 73
     1
 44
1.0
1001
ACAD
1000
MTEXTBEGIN
1070
    73
1070
     1
1070
    44
1040
1.0
1070
    74
1070
     0
1000
MTEXTEND
  0
MTEXT
  5
1EC
330
1F
100
AcDbEntity
  8
0
100
AcDbMText
 10
560.6664544275638
 20
726.868520890662
 30
0.0
 40
1.0
 41
2.149722565716729
 71
     1
 72
     5
  1
{\fSimSun|b0|i0|c134|p54;大门}
 73
     1
 44
1.0
1001
ACAD
1000
MTEXTBEGIN
1070
    73
1070
     1
1070
    44
1040
1.0
1070
    74
1070
     0
1000
MTEXTEND
  0
DIMENSION
  5
1EF
102
{ACAD_XDICTIONARY
360
1FC
102
}
102
{ACAD_REACTORS
330
206
102
}
330
1F
100
AcDbEntity
  8
0
100
AcDbDimension
  2
*D7
 10
554.5885570985001
 20
692.6136137936529
 30
0.0
 11
479.2385513614553
 21
692.6136137936529
 31
0.0
 70
   160
 71
     5
 42
149.9999999999999
  3
ISO-25
100
AcDbAlignedDimension
 13
404.5885570985001
 23
710.0637636080589
 33
0.0
 14
554.5885570985001
 24
710.0637636080589
 34
0.0
100
AcDbRotatedDimension
  0
LINE
  5
20F
330
1F
100
AcDbEntity
  8
0
 62
     2
100
AcDbLine
 10
411.9639176638795
 20
745.5158944282882
 30
0.0
 11
411.9639176638795
 21
705.5158944282882
 31
0.0
  0
LINE
  5
210
330
1F
100
AcDbEntity
  8
0
 62
     2
100
AcDbLine
 10
415.9044978993978
 20
746.5249437824927
 30
0.0
 11
415.9044978993978
 21
706.5249437824927
 31
0.0
  0
LINE
  5
211
330
1F
100
AcDbEntity
  8
0
 62
     2
100
AcDbLine
 10
415.9639176638795
 20
745.5158944282882
 30
0.0
 11
411.9639176638795
 21
705.5158944282882
 31
0.0
  0
LINE
  5
212
330
1F
100
AcDbEntity
  8
0
 62
     2
100
AcDbLine
 10
415.9044978993978
 20
706.5249437824927
 30
0.0
 11
411.9044978993978
 21
746.5249437824927
 31
0.0
  0
LINE
  5
213
330
1F
100
AcDbEntity
  8
0
 62
     2
100
AcDbLine
 10
411.9639176638795
 20
745.5158944282882
 30
0.0
 11
415.9639176638795
 21
745.5158944282882
 31
0.0
  0
LINE
  5
215
330
1F
100
AcDbEntity
  8
0
 62
     2
100
AcDbLine
 10
411.9639176638795
 20
705.5158944282882
 30
0.0
 11
415.9639176638795
 21
705.5158944282882
 31
0.0
  0
LINE
  5
216
330
1F
100
AcDbEntity
  8
0
 62
     2
100
AcDbLine
 10
449.6332910808396
 20
705.5158944282882
 30
0.0
 11
445.6332910808396
 21
745.5158944282882
 31
0.0
  0
LINE
  5
217
330
1F
100
AcDbEntity
  8
0
 62
     2
100
AcDbLine
 10
449.6332910808396
 20
745.5158944282882
 30
0.0
 11
445.6332910808396
 21
705.5158944282882
 31
0.0
  0
LINE
  5
218
330
1F
100
AcDbEntity
  8
0
 62
     2
100
AcDbLine
 10
449.6332910808396
 20
745.5158944282882
 30
0.0
 11
449.6332910808396
 21
705.5158944282882
 31
0.0
  0
LINE
  5
219
330
1F
100
AcDbEntity
  8
0
 62
     2
100
AcDbLine
 10
445.6332910808396
 20
745.5158944282882
 30
0.0
 11
445.6332910808396
 21
705.5158944282882
 31
0.0
  0
LINE
  5
21A
330
1F
100
AcDbEntity
  8
0
 62
     2
100
AcDbLine
 10
445.6332910808396
 20
705.5158944282882
 30
0.0
 11
449.6332910808396
 21
705.5158944282882
 31
0.0
  0
LINE
  5
21B
330
1F
100
AcDbEntity
  8
0
 62
     2
100
AcDbLine
 10
445.6332910808396
 20
745.5158944282882
 30
0.0
 11
449.6332910808396
 21
745.5158944282882
 31
0.0
  0
LINE
  5
21C
330
1F
100
AcDbEntity
  8
0
 62
     2
100
AcDbLine
 10
485.8609317356832
 20
745.4619483927513
 30
0.0
 11
485.8609317356832
 21
705.4619483927512
 31
0.0
  0
LINE
  5
21D
330
1F
100
AcDbEntity
  8
0
 62
     2
100
AcDbLine
 10
489.8609317356832
 20
745.4619483927513
 30
0.0
 11
489.8609317356832
 21
705.4619483927512
 31
0.0
  0
LINE
  5
21E
330
1F
100
AcDbEntity
  8
0
 62
     2
100
AcDbLine
 10
489.8609317356832
 20
745.4619483927513
 30
0.0
 11
485.8609317356832
 21
705.4619483927512
 31
0.0
  0
LINE
  5
21F
330
1F
100
AcDbEntity
  8
0
 62
     2
100
AcDbLine
 10
489.8609317356832
 20
705.4619483927512
 30
0.0
 11
485.8609317356832
 21
745.4619483927513
 31
0.0
  0
LINE
  5
220
330
1F
100
AcDbEntity
  8
0
 62
     2
100
AcDbLine
 10
485.8609317356832
 20
705.4619483927512
 30
0.0
 11
489.8609317356832
 21
705.4619483927512
 31
0.0
  0
LINE
  5
221
330
1F
100
AcDbEntity
  8
0
 62
     2
100
AcDbLine
 10
485.8609317356832
 20
745.4619483927513
 30
0.0
 11
489.8609317356832
 21
745.4619483927513
 31
0.0
  0
LINE
  5
222
330
1F
100
AcDbEntity
  8
0
 62
     2
100
AcDbLine
 10
503.8646858716923
 20
705.5158944282882
 30
0.0
 11
499.8646858716923
 21
745.5158944282882
 31
0.0
  0
LINE
  5
223
330
1F
100
AcDbEntity
  8
0
 62
     2
100
AcDbLine
 10
503.8646858716923
 20
745.5158944282882
 30
0.0
 11
499.8646858716923
 21
705.5158944282882
 31
0.0
  0
LINE
  5
224
330
1F
100
AcDbEntity
  8
0
 62
     2
100
AcDbLine
 10
503.8646858716923
 20
745.5158944282882
 30
0.0
 11
503.8646858716923
 21
705.5158944282882
 31
0.0
  0
LINE
  5
225
330
1F
100
AcDbEntity
  8
0
 62
     2
100
AcDbLine
 10
499.8646858716923
 20
745.5158944282882
 30
0.0
 11
499.8646858716923
 21
705.5158944282882
 31
0.0
  0
LINE
  5
226
330
1F
100
AcDbEntity
  8
0
 62
     2
100
AcDbLine
 10
499.8646858716923
 20
705.5158944282882
 30
0.0
 11
503.8646858716923
 21
705.5158944282882
 31
0.0
  0
LINE
  5
227
330
1F
100
AcDbEntity
  8
0
 62
     2
100
AcDbLine
 10
499.8646858716923
 20
745.5158944282882
 30
0.0
 11
503.8646858716923
 21
745.5158944282882
 31
0.0
  0
LINE
  5
228
330
1F
100
AcDbEntity
  8
0
 62
     2
100
AcDbLine
 10
540.8339056162279
 20
745.5158944282882
 30
0.0
 11
540.8339056162279
 21
705.5158944282882
 31
0.0
  0
LINE
  5
229
330
1F
100
AcDbEntity
  8
0
 62
     2
100
AcDbLine
 10
544.8339056162279
 20
745.5158944282882
 30
0.0
 11
544.8339056162279
 21
705.5158944282882
 31
0.0
  0
LINE
  5
22A
330
1F
100
AcDbEntity
  8
0
 62
     2
100
AcDbLine
 10
544.8339056162279
 20
745.5158944282882
 30
0.0
 11
540.8339056162279
 21
705.5158944282882
 31
0.0
  0
LINE
  5
22B
330
1F
100
AcDbEntity
  8
0
 62
     2
100
AcDbLine
 10
544.8339056162279
 20
705.5158944282882
 30
0.0
 11
540.8339056162279
 21
745.5158944282882
 31
0.0
  0
LINE
  5
22C
330
1F
100
AcDbEntity
  8
0
 62
     2
100
AcDbLine
 10
540.8339056162279
 20
705.5158944282882
 30
0.0
 11
544.8339056162279
 21
705.5158944282882
 31
0.0
  0
LINE
  5
22D
330
1F
100
AcDbEntity
  8
0
 62
     2
100
AcDbLine
 10
540.8339056162279
 20
745.5158944282882
 30
0.0
 11
544.8339056162279
 21
745.5158944282882
 31
0.0
  0
MTEXT
  5
22F
330
1F
100
AcDbEntity
  8
0
 62
     1
100
AcDbMText
 10
413.0621221960792
 20
730.0003971842906
 30
0.0
 40
1.0
 41
2.360745498999952
 71
     1
 72
     5
  1
{\fTimes New Roman|b0|i0|c0|p18;10T}
 73
     1
 44
1.0
1001
ACAD
1000
MTEXTBEGIN
1070
    73
1070
     1
1070
    44
1040
1.0
1070
    74
1070
     0
1000
MTEXTEND
  0
MTEXT
  5
231
330
1F
100
AcDbEntity
  8
0
 62
     1
100
AcDbMText
 10
446.5119404011265
 20
730.1226049541557
 30
0.0
 40
1.0
 41
2.360745498999952
 71
     1
 72
     5
  1
{\fTimes New Roman|b0|i0|c0|p18;10T}
 73
     1
 44
1.0
1001
ACAD
1000
MTEXTBEGIN
1070
    73
1070
     1
1070
    44
1040
1.0
1070
    74
1070
     0
1000
MTEXTEND
  0
MTEXT
  5
232
330
1F
100
AcDbEntity
  8
0
 62
     1
100
AcDbMText
 10
486.8896051031957
 20
729.5142286652867
 30
0.0
 40
1.0
 41
2.360745498999952
 71
     1
 72
     5
  1
{\fTimes New Roman|b0|i0|c0|p18;10T}
 73
     1
 44
1.0
1001
ACAD
1000
MTEXTBEGIN
1070
    73
1070
     1
1070
    44
1040
1.0
1070
    74
1070
     0
1000
MTEXTEND
  0
MTEXT
  5
233
330
1F
100
AcDbEntity
  8
0
 62
     1
100
AcDbMText
 10
500.5956125966123
 20
729.4857207496082
 30
0.0
 40
1.0
 41
2.360745498999952
 71
     1
 72
     5
  1
{\fTimes New Roman|b0|i0|c0|p18;30T}
 73
     1
 44
1.0
1001
ACAD
1000
MTEXTBEGIN
1070
    73
1070
     1
1070
    44
1040
1.0
1070
    74
1070
     0
1000
MTEXTEND
  0
MTEXT
  5
234
330
1F
100
AcDbEntity
  8
0
 62
     1
100
AcDbMText
 10
541.7788965322064
 20
729.3479036873734
 30
0.0
 40
1.0
 41
2.360745498999952
 71
     1
 72
     5
  1
{\fTimes New Roman|b0|i0|c0|p18;30T}
 73
     1
 44
1.0
1001
ACAD
1000
MTEXTBEGIN
1070
    73
1070
     1
1070
    44
1040
1.0
1070
    74
1070
     0
1000
MTEXTEND
  0
LWPOLYLINE
  5
255
330
1F
100
AcDbEntity
  8
0
100
AcDbPolyline
 90
        4
 70
     1
 43
0.0
 10
457.0956142451037
 20
720.6120658114839
 10
461.0956142451037
 20
720.6120658114839
 10
461.0956142451037
 20
718.6120658114839
 10
457.0956142451037
 20
718.6120658114839
  0
LWPOLYLINE
  5
25C
330
1F
100
AcDbEntity
  8
0
100
AcDbPolyline
 90
        4
 70
     1
 43
0.0
 10
463.0370332438793
 20
720.5950995758339
 10
467.0370332438792
 20
720.5950995758339
 10
467.0370332438792
 20
718.5950995758339
 10
463.0370332438793
 20
718.5950995758339
  0
LWPOLYLINE
  5
264
330
1F
100
AcDbEntity
  8
0
100
AcDbPolyline
 90
        4
 70
     1
 43
0.0
 10
462.9137933514081
 20
711.646851309591
 10
466.9137933514081
 20
711.646851309591
 10
466.9137933514081
 20
709.646851309591
 10
462.9137933514081
 20
709.646851309591
  0
LWPOLYLINE
  5
265
330
1F
100
AcDbEntity
  8
0
100
AcDbPolyline
 90
        4
 70
     1
 43
0.0
 10
456.9723743526326
 20
711.663817545241
 10
460.9723743526326
 20
711.663817545241
 10
460.9723743526326
 20
709.663817545241
 10
456.9723743526326
 20
709.663817545241
  0
LWPOLYLINE
  5
28D
102
{ACAD_REACTORS
330
7C2
330
ABA
102
}
330
1F
100
AcDbEntity
  8
0
100
AcDbPolyline
 90
        4
 70
     1
 43
0.0
 10
554.5885570985001
 20
721.0158944282881
 10
514.5885570985001
 20
721.0158944282881
 10
514.5885570985001
 20
730.015894428288
 10
554.5885570985001
 20
730.015894428288
  0
LWPOLYLINE
  5
29A
330
1F
100
AcDbEntity
  8
0
100
AcDbPolyline
 90
        4
 70
     1
 43
0.0
 10
545.569111040137
 20
732.8627484912946
 10
505.5691110401371
 20
732.8627484912946
 10
505.5691110401371
 20
741.8627484912946
 10
545.569111040137
 20
741.8627484912946
  0
LWPOLYLINE
  5
29E
330
1F
100
AcDbEntity
  8
0
100
AcDbPolyline
 90
        4
 70
     1
 43
0.0
 10
454.7992173811904
 20
719.9407356070767
 10
484.7992173811904
 20
719.9407356070767
 10
484.7992173811904
 20
719.3407356070767
 10
454.7992173811904
 20
719.3407356070767
  0
LWPOLYLINE
  5
2A8
330
1F
100
AcDbEntity
  8
0
100
AcDbPolyline
 90
        4
 70
     1
 43
0.0
 10
455.0756333224144
 20
711.0132226678112
 10
485.0756333224144
 20
711.0132226678112
 10
485.0756333224144
 20
710.4132226678112
 10
455.0756333224144
 20
710.4132226678112
  0
LWPOLYLINE
  5
2AF
330
1F
100
AcDbEntity
  8
0
100
AcDbPolyline
 90
        4
 70
     1
 43
0.0
 10
454.6791829084114
 20
732.1051829142875
 10
484.6791829084115
 20
732.1051829142875
 10
484.6791829084115
 20
731.5051829142874
 10
454.6791829084114
 20
731.5051829142874
  0
LWPOLYLINE
  5
2C1
330
1F
100
AcDbEntity
  8
0
100
AcDbPolyline
 90
        4
 70
     1
 43
0.0
 10
454.682066636796
 20
733.6758020497109
 10
484.682066636796
 20
733.6758020497109
 10
484.682066636796
 20
733.0758020497109
 10
454.682066636796
 20
733.0758020497109
  0
LWPOLYLINE
  5
2C7
330
1F
100
AcDbEntity
  8
0
100
AcDbPolyline
 90
        4
 70
     1
 43
0.0
 10
454.682066636796
 20
735.2464209253939
 10
484.682066636796
 20
735.2464209253939
 10
484.682066636796
 20
734.6464209253939
 10
454.682066636796
 20
734.6464209253939
  0
LWPOLYLINE
  5
2C9
330
1F
100
AcDbEntity
  8
0
100
AcDbPolyline
 90
        4
 70
     1
 43
0.0
 10
454.682186204117
 20
737.0936559556704
 10
484.682186204117
 20
737.0936559556704
 10
484.682186204117
 20
736.4936559556704
 10
454.682186204117
 20
736.4936559556704
  0
LINE
  5
316
102
{ACAD_REACTORS
330
ABA
102
}
330
1F
100
AcDbEntity
  8
0
 62
     6
100
AcDbLine
 10
517.5921708627526
 20
728.0205905280887
 30
0.0
 11
552.5921708627525
 21
728.0205905280887
 31
0.0
  0
LINE
  5
317
330
1F
100
AcDbEntity
  8
0
 62
     6
100
AcDbLine
 10
552.5921708627525
 20
728.0205905280887
 30
0.0
 11
552.5921708627525
 21
723.0205905280887
 31
0.0
  0
LINE
  5
318
330
1F
100
AcDbEntity
  8
0
 62
     6
100
AcDbLine
 10
552.5921708627525
 20
723.0205905280887
 30
0.0
 11
517.5921708627526
 21
723.0205905280887
 31
0.0
  0
LINE
  5
319
102
{ACAD_REACTORS
330
34D
102
}
330
1F
100
AcDbEntity
  8
0
 62
     6
100
AcDbLine
 10
517.5921708627526
 20
723.0205905280887
 30
0.0
 11
517.5921708627526
 21
728.0205905280887
 31
0.0
  0
DIMENSION
  5
31A
330
1F
100
AcDbEntity
  8
0
100
AcDbDimension
  2
*D10
 10
552.5921708627525
 20
718.4446265436491
 30
0.0
 11
565.4385730824952
 21
718.4446265436491
 31
0.0
 70
   160
 71
     5
 42
35.0
  3
ISO-25
100
AcDbAlignedDimension
 13
517.5921708627526
 23
723.0205905280887
 33
0.0
 14
552.5921708627525
 24
723.0205905280887
 34
0.0
100
AcDbRotatedDimension
  0
DIMENSION
  5
332
102
{ACAD_XDICTIONARY
360
341
102
}
102
{ACAD_REACTORS
330
34D
102
}
330
1F
100
AcDbEntity
  8
0
100
AcDbDimension
  2
*D11
 10
511.0271568351662
 20
728.0205905280887
 30
0.0
 11
511.0271568351661
 21
716.5622571947555
 31
0.0
 70
   160
 71
     5
 42
5.0
  3
ISO-25
100
AcDbAlignedDimension
 13
517.5921708627526
 23
723.0205905280887
 33
0.0
 14
517.5921708627526
 24
728.0205905280887
 34
0.0
 50
90.0
100
AcDbRotatedDimension
  0
LINE
  5
412
330
1F
100
AcDbEntity
  8
0
100
AcDbLine
 10
554.5885570985001
 20
705.5158944282882
 30
0.0
 11
554.5885570985001
 21
725.515894428288
 31
0.0
  0
LINE
  5
468
102
{ACAD_REACTORS
330
692
102
}
330
1F
100
AcDbEntity
  8
0
100
AcDbLine
 10
548.2504303622451
 20
710.7794080303241
 30
0.0
 11
548.2504303622451
 21
714.7794080303241
 31
0.0
  0
LINE
  5
469
330
1F
100
AcDbEntity
  8
0
100
AcDbLine
 10
554.5885570985001
 20
717.4393567133463
 30
0.0
 11
533.5849375783741
 21
717.4393567133462
 31
0.0
  0
LINE
  5
46A
102
{ACAD_REACTORS
330
671
102
}
330
1F
100
AcDbEntity
  8
0
100
AcDbLine
 10
533.5849375783741
 20
717.4393567133463
 30
0.0
 11
533.584937578374
 21
705.5158944282882
 31
0.0
  0
LINE
  5
4CB
102
{ACAD_REACTORS
330
840
102
}
330
1F
100
AcDbEntity
  8
0
100
AcDbLine
 10
410.5897868976332
 20
714.5179127786198
 30
0.0
 11
410.5897868976332
 21
710.5179127786198
 31
0.0
  0
LINE
  5
4CC
102
{ACAD_REACTORS
330
784
330
826
102
}
330
1F
100
AcDbEntity
  8
0
100
AcDbLine
 10
410.5897868976332
 20
710.5179127786198
 30
0.0
 11
422.5897868976331
 21
710.5179127786198
 31
0.0
  0
LINE
  5
4CD
102
{ACAD_REACTORS
330
643
102
}
330
1F
100
AcDbEntity
  8
0
100
AcDbLine
 10
422.5897868976331
 20
710.5179127786198
 30
0.0
 11
422.5897868976331
 21
714.5179127786198
 31
0.0
  0
LINE
  5
4CE
330
1F
100
AcDbEntity
  8
0
100
AcDbLine
 10
422.5897868976331
 20
714.5179127786198
 30
0.0
 11
410.5897868976332
 21
714.5179127786198
 31
0.0
  0
LINE
  5
4D0
102
{ACAD_REACTORS
330
643
102
}
330
1F
100
AcDbEntity
  8
0
100
AcDbLine
 10
424.5884661911425
 20
714.5179127786198
 30
0.0
 11
424.5884661911425
 21
710.5179127786198
 31
0.0
  0
LINE
  5
4D1
102
{ACAD_REACTORS
330
6DC
330
79C
102
}
330
1F
100
AcDbEntity
  8
0
100
AcDbLine
 10
424.5884661911425
 20
710.5179127786198
 30
0.0
 11
438.5884661911426
 21
710.5179127786198
 31
0.0
  0
LINE
  5
4D2
330
1F
100
AcDbEntity
  8
0
100
AcDbLine
 10
438.5884661911426
 20
710.5179127786198
 30
0.0
 11
438.5884661911426
 21
714.5179127786198
 31
0.0
  0
LINE
  5
4D3
102
{ACAD_REACTORS
330
6DC
102
}
330
1F
100
AcDbEntity
  8
0
100
AcDbLine
 10
438.5884661911426
 20
714.5179127786198
 30
0.0
 11
424.5884661911425
 21
714.5179127786198
 31
0.0
  0
DIMENSION
  5
4F4
330
1F
100
AcDbEntity
  8
0
100
AcDbDimension
  2
*D12
 10
497.5885570985001
 20
751.7188702809475
 30
0.0
 11
496.0885570985001
 21
751.7188702809475
 31
0.0
 70
   160
 71
     5
 42
2.999999999999943
  3
ISO-25
100
AcDbAlignedDimension
 13
494.5885570985002
 23
744.301664394532
 33
0.0
 14
497.5885570985001
 24
744.301664394532
 34
0.0
100
AcDbRotatedDimension
  0
LINE
  5
50E
102
{ACAD_REACTORS
330
A28
102
}
330
1F
100
AcDbEntity
  8
0
100
AcDbLine
 10
494.5885570985002
 20
740.5158944282882
 30
0.0
 11
497.5885570985001
 21
740.5158944282882
 31
0.0
  0
DIMENSION
  5
628
102
{ACAD_XDICTIONARY
360
637
102
}
102
{ACAD_REACTORS
330
643
102
}
330
1F
100
AcDbEntity
  8
0
100
AcDbDimension
  2
*D13
 10
424.5884661911425
 20
717.078399339262
 30
0.0
 11
431.0467995244758
 21
718.9533993392621
 31
0.0
 70
    32
 71
     5
 42
1.998679293509383
  3
ISO-25
100
AcDbAlignedDimension
 13
422.5897868976331
 23
713.3806396613509
 33
0.0
 14
424.5884661911425
 24
713.3806396613509
 34
0.0
100
AcDbRotatedDimension
  0
DIMENSION
  5
65A
102
{ACAD_XDICTIONARY
360
667
102
}
102
{ACAD_REACTORS
330
671
102
}
330
1F
100
AcDbEntity
  8
0
100
AcDbDimension
  2
*D14
 10
554.5885570985001
 20
697.1789493217158
 30
0.0
 11
544.0867473384371
 21
697.1789493217158
 31
0.0
 70
   160
 71
     5
 42
21.00361952012611
  3
ISO-25
100
AcDbAlignedDimension
 13
533.584937578374
 23
707.8372388749248
 33
0.0
 14
554.5885570985001
 24
707.837238874925
 34
0.0
100
AcDbRotatedDimension
  0
DIMENSION
  5
67B
102
{ACAD_XDICTIONARY
360
688
102
}
102
{ACAD_REACTORS
330
692
102
}
330
1F
100
AcDbEntity
  8
0
100
AcDbDimension
  2
*D15
 10
548.2504303622451
 20
701.9913944194461
 30
0.0
 11
543.2351754048994
 21
701.9913944194461
 31
0.0
 70
   160
 71
     5
 42
10.0
  3
ISO-25
100
AcDbAlignedDimension
 13
538.250430362245
 23
711.4119745421278
 33
0.0
 14
548.2504303622451
 24
711.4119745421278
 34
0.0
100
AcDbRotatedDimension
  0
DIMENSION
  5
693
102
{ACAD_XDICTIONARY
360
6A2
102
}
102
{ACAD_REACTORS
330
6AE
102
}
330
1F
100
AcDbEntity
  8
0
100
AcDbDimension
  2
*D16
 10
536.6568435048313
 20
714.7794080303241
 30
0.0
 11
536.6568435048312
 21
700.8633714898283
 31
0.0
 70
   160
 71
     5
 42
4.0
  3
ISO-25
100
AcDbAlignedDimension
 13
547.4681044801164
 23
710.7794080303241
 33
0.0
 14
547.4681044801164
 24
714.7794080303241
 34
0.0
 50
90.0
100
AcDbRotatedDimension
  0
DIMENSION
  5
6C1
102
{ACAD_XDICTIONARY
360
6D0
102
}
102
{ACAD_REACTORS
330
6DC
102
}
330
1F
100
AcDbEntity
  8
0
100
AcDbDimension
  2
*D17
 10
442.3179187096119
 20
714.5179127786197
 30
0.0
 11
440.4429187096118
 21
712.5179127786197
 31
0.0
 70
    32
 71
     5
 42
3.999999999999886
  3
ISO-25
100
AcDbAlignedDimension
 13
437.8361669045779
 23
710.5179127786198
 33
0.0
 14
437.8361669045779
 24
714.5179127786197
 34
0.0
 50
90.0
100
AcDbRotatedDimension
  0
MTEXT
  5
769
330
1F
100
AcDbEntity
  8
0
100
AcDbMText
 10
522.7157330309861
 20
730.0533525125007
 30
0.0
 40
2.5
 41
19.44822488490023
 71
     1
 72
     5
  1
{\fSimSun|b0|i0|c134|p54;卡车停放区}
 73
     1
 44
1.0
1001
ACAD
1000
MTEXTBEGIN
1070
    73
1070
     1
1070
    44
1040
1.0
1070
    74
1070
     0
1000
MTEXTEND
  0
DIMENSION
  5
76D
102
{ACAD_XDICTIONARY
360
77A
102
}
102
{ACAD_REACTORS
330
784
102
}
330
1F
100
AcDbEntity
  8
0
100
AcDbDimension
  2
*D18
 10
410.5897868976332
 20
699.8627004581639
 30
0.0
 11
416.5897868976331
 21
701.7377004581639
 31
0.0
 70
    32
 71
     5
 42
12.0
  3
ISO-25
100
AcDbAlignedDimension
 13
422.5897868976331
 23
710.5179127786198
 33
0.0
 14
410.5897868976332
 24
710.5179127786198
 34
0.0
100
AcDbRotatedDimension
  0
DIMENSION
  5
785
102
{ACAD_XDICTIONARY
360
792
102
}
102
{ACAD_REACTORS
330
79C
102
}
330
1F
100
AcDbEntity
  8
0
100
AcDbDimension
  2
*D19
 10
438.5884661911426
 20
699.8627004581639
 30
0.0
 11
431.5884661911425
 21
701.7377004581639
 31
0.0
 70
    32
 71
     5
 42
14.0
  3
ISO-25
100
AcDbAlignedDimension
 13
424.5884661911425
 23
710.5179127786198
 33
0.0
 14
438.5884661911426
 24
710.5179127786198
 34
0.0
100
AcDbRotatedDimension
  0
DIMENSION
  5
7A7
102
{ACAD_XDICTIONARY
360
7B6
102
}
102
{ACAD_REACTORS
330
7C2
102
}
330
1F
100
AcDbEntity
  8
0
100
AcDbDimension
  2
*D20
 10
554.5885570985001
 20
731.3664286891827
 30
0.0
 11
561.0468904318334
 21
733.2414286891827
 31
0.0
 70
    32
 71
     5
 42
1.996386235747536
  3
ISO-25
100
AcDbAlignedDimension
 13
552.5921708627525
 23
727.1993524493948
 33
0.0
 14
554.5885570985001
 24
727.1993524493948
 34
0.0
100
AcDbRotatedDimension
  0
DIMENSION
  5
80B
102
{ACAD_XDICTIONARY
360
81A
102
}
102
{ACAD_REACTORS
330
826
102
}
330
1F
100
AcDbEntity
  8
0
100
AcDbDimension
  2
*D21
 10
401.3574040222572
 20
710.5179127786198
 30
0.0
 11
401.3574040222571
 21
708.0169036034541
 31
0.0
 70
   160
 71
     5
 42
5.002018350331582
  3
ISO-25
100
AcDbAlignedDimension
 13
410.4206624261061
 23
705.5158944282882
 33
0.0
 14
412.2446968032457
 24
710.5179127786198
 34
0.0
 50
90.0
100
AcDbRotatedDimension
  0
DIMENSION
  5
827
102
{ACAD_XDICTIONARY
360
835
102
}
102
{ACAD_REACTORS
330
840
102
}
330
1F
100
AcDbEntity
  8
0
100
AcDbDimension
  2
*D22
 10
404.5885570985001
 20
699.8627004581639
 30
0.0
 11
407.5891719980666
 21
699.8627004581639
 31
0.0
 70
   160
 71
     5
 42
6.001229799133056
  3
ISO-25
100
AcDbAlignedDimension
 13
410.5897868976332
 23
713.8812652467191
 33
0.0
 14
404.5885570985001
 24
717.1347834411088
 34
0.0
100
AcDbRotatedDimension
  0
DIMENSION
  5
A0D
102
{ACAD_XDICTIONARY
360
A1C
102
}
102
{ACAD_REACTORS
330
A28
102
}
330
1F
100
AcDbEntity
  8
0
100
AcDbDimension
  2
*D23
 10
493.7403345348262
 20
745.5158944282882
 30
0.0
 11
491.8653345348261
 21
743.0158944282883
 31
0.0
 70
    32
 71
     5
 42
5.0
  3
ISO-25
100
AcDbAlignedDimension
 13
495.1410185550337
 23
740.5158944282882
 33
0.0
 14
495.6492839350759
 24
745.5158944282882
 34
0.0
 50
90.0
100
AcDbRotatedDimension
  0
DIMENSION
  5
A9F
102
{ACAD_XDICTIONARY
360
AAE
102
}
102
{ACAD_REACTORS
330
ABA
102
}
330
1F
100
AcDbEntity
  8
0
100
AcDbDimension
  2
*D24
 10
514.5885570985001
 20
730.015894428288
 30
0.0
 11
512.7135570985
 21
736.4742277616215
 31
0.0
 70
    32
 71
     5
 42
1.99530390019936
  3
ISO-25
100
AcDbAlignedDimension
 13
518.670422859243
 23
728.0205905280887
 33
0.0
 14
518.9599796166818
 24
730.015894428288
 34
0.0
 50
90.0
100
AcDbRotatedDimension
  0
LWPOLYLINE
  5
B1B
330
1F
100
AcDbEntity
  8
0
100
AcDbPolyline
 90
        4
 70
     1
 43
0.0
 10
468.5554520544179
 20
711.7236994603203
 10
472.5554520544178
 20
711.7236994603203
 10
472.5554520544178
 20
709.7236994603203
 10
468.5554520544179
 20
709.7236994603203
  0
LWPOLYLINE
  5
B21
330
1F
100
AcDbEntity
  8
0
100
AcDbPolyline
 90
        4
 70
     1
 43
0.0
 10
474.7137290768186
 20
711.6919900470056
 10
478.7137290768186
 20
711.6919900470056
 10
478.7137290768186
 20
709.6919900470056
 10
474.7137290768186
 20
709.6919900470056
  0
LWPOLYLINE
  5
B27
330
1F
100
AcDbEntity
  8
0
100
AcDbPolyline
 90
        4
 70
     1
 43
0.0
 10
480.5228251770574
 20
711.7236994603203
 10
484.5228251770574
 20
711.7236994603203
 10
484.5228251770574
 20
709.7236994603203
 10
480.5228251770574
 20
709.7236994603203
  0
LWPOLYLINE
  5
B2D
330
1F
100
AcDbEntity
  8
0
100
AcDbPolyline
 90
        4
 70
     1
 43
0.0
 10
468.3649903202047
 20
720.6340757341155
 10
472.3649903202047
 20
720.6340757341155
 10
472.3649903202047
 20
718.6340757341155
 10
468.3649903202047
 20
718.6340757341155
  0
LWPOLYLINE
  5
B33
330
1F
100
AcDbEntity
  8
0
100
AcDbPolyline
 90
        4
 70
     1
 43
0.0
 10
473.856649218478
 20
720.7292042191964
 10
477.856649218478
 20
720.7292042191964
 10
477.856649218478
 20
718.7292042191963
 10
473.856649218478
 20
718.7292042191963
  0
LWPOLYLINE
  5
B39
330
1F
100
AcDbEntity
  8
0
100
AcDbPolyline
 90
        4
 70
     1
 43
0.0
 10
479.2848212633244
 20
720.7926232909625
 10
483.2848212633244
 20
720.7926232909625
 10
483.2848212633244
 20
718.7926232909624
 10
479.2848212633244
 20
718.7926232909624
  0
ENDSEC
  0
SECTION
  2
OBJECTS
  0
DICTIONARY
  5
C
330
0
100
AcDbDictionary
281
     1
  3
ACAD_COLOR
350
6B
  3
ACAD_GROUP
350
D
  3
ACAD_LAYOUT
350
1A
  3
ACAD_MATERIAL
350
6A
  3
ACAD_MLINESTYLE
350
17
  3
ACAD_PLOTSETTINGS
350
19
  3
ACAD_PLOTSTYLENAME
350
E
  3
ACDBHEADERROUNDTRIPXREC
350
C08
  3
AcDbVariableDictionary
350
5E
  0
DICTIONARY
  5
A0
330
92
100
AcDbDictionary
280
     1
281
     1
  3
ACAD_DIMASSOC
360
AA
  0
DICTIONARY
  5
B8
330
AB
100
AcDbDictionary
280
     1
281
     1
  3
ACAD_DIMASSOC
360
C2
  0
DICTIONARY
  5
D0
330
C3
100
AcDbDictionary
280
     1
281
     1
  3
ACAD_DIMASSOC
360
DA
  0
DICTIONARY
  5
ED
330
E0
100
AcDbDictionary
280
     1
281
     1
  3
ACAD_DIMASSOC
360
F7
  0
DICTIONARY
  5
1DA
330
1CB
100
AcDbDictionary
280
     1
281
     1
  3
ACAD_DIMASSOC
360
1E6
  0
DICTIONARY
  5
1FC
330
1EF
100
AcDbDictionary
280
     1
281
     1
  3
ACAD_DIMASSOC
360
206
  0
DICTIONARY
  5
341
330
332
100
AcDbDictionary
280
     1
281
     1
  3
ACAD_DIMASSOC
360
34D
  0
DICTIONARY
  5
637
330
628
100
AcDbDictionary
280
     1
281
     1
  3
ACAD_DIMASSOC
360
643
  0
DICTIONARY
  5
667
330
65A
100
AcDbDictionary
280
     1
281
     1
  3
ACAD_DIMASSOC
360
671
  0
DICTIONARY
  5
688
330
67B
100
AcDbDictionary
280
     1
281
     1
  3
ACAD_DIMASSOC
360
692
  0
DICTIONARY
  5
6A2
330
693
100
AcDbDictionary
280
     1
281
     1
  3
ACAD_DIMASSOC
360
6AE
  0
DICTIONARY
  5
6D0
330
6C1
100
AcDbDictionary
280
     1
281
     1
  3
ACAD_DIMASSOC
360
6DC
  0
DICTIONARY
  5
77A
330
76D
100
AcDbDictionary
280
     1
281
     1
  3
ACAD_DIMASSOC
360
784
  0
DICTIONARY
  5
792
330
785
100
AcDbDictionary
280
     1
281
     1
  3
ACAD_DIMASSOC
360
79C
  0
DICTIONARY
  5
7B6
330
7A7
100
AcDbDictionary
280
     1
281
     1
  3
ACAD_DIMASSOC
360
7C2
  0
DICTIONARY
  5
81A
330
80B
100
AcDbDictionary
280
     1
281
     1
  3
ACAD_DIMASSOC
360
826
  0
DICTIONARY
  5
835
330
827
100
AcDbDictionary
280
     1
281
     1
  3
ACAD_DIMASSOC
360
840
  0
DICTIONARY
  5
A1C
330
A0D
100
AcDbDictionary
280
     1
281
     1
  3
ACAD_DIMASSOC
360
A28
  0
DICTIONARY
  5
AAE
330
A9F
100
AcDbDictionary
280
     1
281
     1
  3
ACAD_DIMASSOC
360
ABA
  0
DICTIONARY
  5
6B
102
{ACAD_REACTORS
330
C
102
}
330
C
100
AcDbDictionary
281
     1
  0
DICTIONARY
  5
D
102
{ACAD_REACTORS
330
C
102
}
330
C
100
AcDbDictionary
281
     1
  0
DICTIONARY
  5
1A
102
{ACAD_REACTORS
330
C
102
}
330
C
100
AcDbDictionary
281
     1
  3
Model
350
22
  3
布局1
350
51
  3
布局2
350
56
  0
DICTIONARY
  5
6A
102
{ACAD_REACTORS
330
C
102
}
330
C
100
AcDbDictionary
281
     1
  0
DICTIONARY
  5
17
102
{ACAD_REACTORS
330
C
102
}
330
C
100
AcDbDictionary
281
     1
  3
Standard
350
18
  0
DICTIONARY
  5
19
102
{ACAD_REACTORS
330
C
102
}
330
C
100
AcDbDictionary
281
     1
  0
ACDBDICTIONARYWDFLT
  5
E
102
{ACAD_REACTORS
330
C
102
}
330
C
100
AcDbDictionary
281
     1
  3
Normal
350
F
100
AcDbDictionaryWithDefault
340
F
  0
DICTIONARY
  5
C08
102
{ACAD_REACTORS
330
C
102
}
330
C
100
AcDbDictionary
281
     1
  3
COLORDICT
350
C0A
  3
MATERIALDICT
350
C09
  0
DICTIONARY
  5
5E
102
{ACAD_REACTORS
330
C
102
}
330
C
100
AcDbDictionary
281
     1
  3
DIMASSOC
350
5F
  3
HIDETEXT
350
63
  3
PROJECTNAME
350
C06
  0
DIMASSOC
  5
AA
102
{ACAD_REACTORS
330
A0
102
}
330
A0
100
AcDbDimAssoc
330
92
 90
        3
 70
     0
 71
     0
  1
AcDbOsnapPointRef
 72
     1
331
8E
 73
     2
 91
        0
 40
1.0
 10
0.0
 20
0.0
 30
2.000000000000000E+50
 75
     0
  1
AcDbOsnapPointRef
 72
     8
331
91
 73
     2
 91
        0
 40
0.0
 10
0.0
 20
0.0
 30
0.0
 75
     1
  1
AcDbOsnapPointRef
 72
     1
331
8E
 73
     2
 91
        0
 40
1.0
 10
0.0
 20
0.0
 30
2.000000000000000E+50
 75
     0
  0
DIMASSOC
  5
C2
102
{ACAD_REACTORS
330
B8
102
}
330
B8
100
AcDbDimAssoc
330
AB
 90
        3
 70
     0
 71
     0
  1
AcDbOsnapPointRef
 72
    13
331
91
 73
     2
 91
        0
 40
0.0
 10
0.0
 20
0.0
 30
2.000000000000000E+50
 75
     0
  1
AcDbOsnapPointRef
 72
    13
331
90
 73
     2
 91
        0
 40
0.0
 10
0.0
 20
0.0
 30
2.000000000000000E+50
 75
     0
  0
DIMASSOC
  5
DA
102
{ACAD_REACTORS
330
D0
102
}
330
D0
100
AcDbDimAssoc
330
C3
 90
        2
 70
     0
 71
     0
  1
AcDbOsnapPointRef
 72
    13
331
8C
 73
     2
 91
        0
 40
0.0
 10
0.0
 20
0.0
 30
2.000000000000000E+50
 75
     0
  0
DIMASSOC
  5
F7
102
{ACAD_REACTORS
330
ED
102
}
330
ED
100
AcDbDimAssoc
330
E0
 90
        3
 70
     0
 71
     0
  1
AcDbOsnapPointRef
 72
    10
331
8D
 73
     2
 91
        0
 40
0.9691851605353379
 10
0.0
 20
0.0
 30
0.0
 75
     0
  1
AcDbOsnapPointRef
 72
    10
331
8B
 73
     2
 91
        0
 40
0.0755972009337715
 10
0.0
 20
0.0
 30
0.0
 75
     0
  0
DIMASSOC
  5
1E6
102
{ACAD_REACTORS
330
1DA
102
}
330
1DA
100
AcDbDimAssoc
330
1CB
 90
        3
 70
     0
 71
     0
  1
AcDbOsnapPointRef
 72
    10
331
DC
 73
     2
 91
        0
 40
0.0100079857306082
 10
0.0
 20
0.0
 30
0.0
 75
     0
  1
AcDbOsnapPointRef
 72
     8
331
DB
 73
     2
 91
        0
 40
0.0100079857306082
 10
0.0
 20
0.0
 30
0.0
 75
     1
  1
AcDbOsnapPointRef
 72
    10
331
DC
 73
     2
 91
        0
 40
0.0100079857306082
 10
0.0
 20
0.0
 30
0.0
 75
     0
  0
DIMASSOC
  5
206
102
{ACAD_REACTORS
330
1FC
102
}
330
1FC
100
AcDbDimAssoc
330
1EF
 90
        3
 70
     0
 71
     0
  1
AcDbOsnapPointRef
 72
    10
331
8E
 73
     2
 91
        0
 40
0.1136967294942679
 10
0.0
 20
0.0
 30
0.0
 75
     0
  1
AcDbOsnapPointRef
 72
     8
331
8C
 73
     2
 91
        0
 40
0.8863032705057321
 10
0.0
 20
0.0
 30
0.0
 75
     1
  1
AcDbOsnapPointRef
 72
    10
331
8E
 73
     2
 91
        0
 40
0.1136967294942679
 10
0.0
 20
0.0
 30
0.0
 75
     0
  0
DIMASSOC
  5
34D
102
{ACAD_REACTORS
330
341
102
}
330
341
100
AcDbDimAssoc
330
332
 90
        3
 70
     0
 71
     0
  1
AcDbOsnapPointRef
 72
    13
331
319
 73
     2
 91
        0
 40
0.0
 10
0.0
 20
0.0
 30
2.000000000000000E+50
 75
     0
  1
AcDbOsnapPointRef
 72
     1
331
319
 73
     2
 91
        0
 40
1.0
 10
0.0
 20
0.0
 30
2.000000000000000E+50
 75
     0
  0
DIMASSOC
  5
643
102
{ACAD_REACTORS
330
637
102
}
330
637
100
AcDbDimAssoc
330
628
 90
        3
 70
     0
 71
     0
  1
AcDbOsnapPointRef
 72
    10
331
4CD
 73
     2
 91
        0
 40
0.7156817206827953
 10
0.0
 20
0.0
 30
0.0
 75
     0
  1
AcDbOsnapPointRef
 72
     8
331
4D0
 73
     2
 91
        0
 40
0.2843182793172048
 10
0.0
 20
0.0
 30
0.0
 75
     1
  1
AcDbOsnapPointRef
 72
    10
331
4CD
 73
     2
 91
        0
 40
0.7156817206827953
 10
0.0
 20
0.0
 30
0.0
 75
     0
  0
DIMASSOC
  5
671
102
{ACAD_REACTORS
330
667
102
}
330
667
100
AcDbDimAssoc
330
65A
 90
        3
 70
     0
 71
     0
  1
AcDbOsnapPointRef
 72
    10
331
46A
 73
     2
 91
        0
 40
0.8053128872185347
 10
0.0
 20
0.0
 30
0.0
 75
     0
  1
AcDbOsnapPointRef
 72
     8
331
8C
 73
     2
 91
        0
 40
0.9419663888340807
 10
0.0
 20
0.0
 30
0.0
 75
     1
  1
AcDbOsnapPointRef
 72
    10
331
46A
 73
     2
 91
        0
 40
0.8053128872185347
 10
0.0
 20
0.0
 30
0.0
 75
     0
  0
DIMASSOC
  5
692
102
{ACAD_REACTORS
330
688
102
}
330
688
100
AcDbDimAssoc
330
67B
 90
        3
 70
     0
 71
     0
  1
AcDbOsnapPointRef
 72
    10
331
17C
 73
     2
 91
        0
 40
0.1581416279509256
 10
0.0
 20
0.0
 30
0.0
 75
     0
  1
AcDbOsnapPointRef
 72
     8
331
468
 73
     2
 91
        0
 40
0.1581416279509256
 10
0.0
 20
0.0
 30
0.0
 75
     1
  1
AcDbOsnapPointRef
 72
    10
331
17C
 73
     2
 91
        0
 40
0.1581416279509256
 10
0.0
 20
0.0
 30
0.0
 75
     0
  0
DIMASSOC
  5
6AE
102
{ACAD_REACTORS
330
6A2
102
}
330
6A2
100
AcDbDimAssoc
330
693
 90
        3
 70
     0
 71
     0
  1
AcDbOsnapPointRef
 72
     8
331
17D
 73
     2
 91
        0
 40
0.0706757971995785
 10
0.0
 20
0.0
 30
0.0
 75
     1
  1
AcDbOsnapPointRef
 72
     0
 40
0.0
 10
547.4681044801164
 20
706.6299442252401
 30
0.0
 75
     0
  1
AcDbOsnapPointRef
 72
     8
331
17E
 73
     2
 91
        0
 40
0.9293242028004215
 10
0.0
 20
0.0
 30
0.0
 75
     1
  1
AcDbOsnapPointRef
 72
     8
331
17D
 73
     2
 91
        0
 40
0.0706757971995785
 10
0.0
 20
0.0
 30
0.0
 75
     1
  1
AcDbOsnapPointRef
 72
     0
 40
0.0
 10
547.4681044801164
 20
706.6299442252401
 30
0.0
 75
     0
  0
DIMASSOC
  5
6DC
102
{ACAD_REACTORS
330
6D0
102
}
330
6D0
100
AcDbDimAssoc
330
6C1
 90
        3
 70
     0
 71
     0
  1
AcDbOsnapPointRef
 72
    10
331
4D1
 73
     2
 91
        0
 40
0.9462643366739566
 10
0.0
 20
0.0
 30
0.0
 75
     0
  1
AcDbOsnapPointRef
 72
     8
331
4D3
 73
     2
 91
        0
 40
0.0537356633260475
 10
0.0
 20
0.0
 30
0.0
 75
     1
  1
AcDbOsnapPointRef
 72
    10
331
4D1
 73
     2
 91
        0
 40
0.9462643366739566
 10
0.0
 20
0.0
 30
0.0
 75
     0
  0
DIMASSOC
  5
784
102
{ACAD_REACTORS
330
77A
102
}
330
77A
100
AcDbDimAssoc
330
76D
 90
        3
 70
     0
 71
     0
  1
AcDbOsnapPointRef
 72
     1
331
4CC
 73
     2
 91
        0
 40
1.0
 10
0.0
 20
0.0
 30
2.000000000000000E+50
 75
     0
  1
AcDbOsnapPointRef
 72
    13
331
4CC
 73
     2
 91
        0
 40
0.0
 10
0.0
 20
0.0
 30
2.000000000000000E+50
 75
     0
  0
DIMASSOC
  5
79C
102
{ACAD_REACTORS
330
792
102
}
330
792
100
AcDbDimAssoc
330
785
 90
        3
 70
     0
 71
     0
  1
AcDbOsnapPointRef
 72
    13
331
4D1
 73
     2
 91
        0
 40
0.0
 10
0.0
 20
0.0
 30
2.000000000000000E+50
 75
     0
  1
AcDbOsnapPointRef
 72
     1
331
4D1
 73
     2
 91
        0
 40
1.0
 10
0.0
 20
0.0
 30
2.000000000000000E+50
 75
     0
  0
DIMASSOC
  5
7C2
102
{ACAD_REACTORS
330
7B6
102
}
330
7B6
100
AcDbDimAssoc
330
7A7
 90
        2
 70
     0
 71
     0
  1
AcDbOsnapPointRef
 72
     8
331
28D
 73
     2
 91
        4
 40
0.3129491087659189
 10
0.0
 20
0.0
 30
0.0
 75
     1
  1
AcDbOsnapPointRef
 72
     0
 40
0.0
 10
552.5921708627525
 20
727.1993524493948
 30
0.0
 75
     0
  0
DIMASSOC
  5
826
102
{ACAD_REACTORS
330
81A
102
}
330
81A
100
AcDbDimAssoc
330
80B
 90
        3
 70
     0
 71
     0
  1
AcDbOsnapPointRef
 72
    10
331
8D
 73
     2
 91
        0
 40
0.9611192978159593
 10
0.0
 20
0.0
 30
0.0
 75
     0
  1
AcDbOsnapPointRef
 72
    10
331
4CC
 73
     2
 91
        0
 40
0.137909158801051
 10
0.0
 20
0.0
 30
0.0
 75
     0
  0
DIMASSOC
  5
840
102
{ACAD_REACTORS
330
835
102
}
330
835
100
AcDbDimAssoc
330
827
 90
        3
 70
     0
 71
     0
  1
AcDbOsnapPointRef
 72
    10
331
4CB
 73
     2
 91
        0
 40
0.1591618829751837
 10
0.0
 20
0.0
 30
0.0
 75
     0
  1
AcDbOsnapPointRef
 72
    10
331
8E
 73
     2
 91
        0
 40
0.2904722253205165
 10
0.0
 20
0.0
 30
0.0
 75
     0
  0
DIMASSOC
  5
A28
102
{ACAD_REACTORS
330
A1C
102
}
330
A1C
100
AcDbDimAssoc
330
A0D
 90
        3
 70
     0
 71
     0
  1
AcDbOsnapPointRef
 72
    10
331
50E
 73
     2
 91
        0
 40
0.1841538188445343
 10
0.0
 20
0.0
 30
0.0
 75
     0
  1
AcDbOsnapPointRef
 72
    10
331
8B
 73
     2
 91
        0
 40
0.6070715122438389
 10
0.0
 20
0.0
 30
0.0
 75
     0
  0
DIMASSOC
  5
ABA
102
{ACAD_REACTORS
330
AAE
102
}
330
AAE
100
AcDbDimAssoc
330
A9F
 90
        3
 70
     0
 71
     0
  1
AcDbOsnapPointRef
 72
     8
331
316
 73
     2
 91
        0
 40
0.0308071998997256
 10
0.0
 20
0.0
 30
0.0
 75
     1
  1
AcDbOsnapPointRef
 72
     0
 40
0.0
 10
518.670422859243
 20
727.9747842619894
 30
0.0
 75
     0
  1
AcDbOsnapPointRef
 72
    10
331
28D
 73
     2
 91
        3
 40
0.1092855629545426
 10
0.0
 20
0.0
 30
0.0
 75
     0
  0
LAYOUT
  5
22
102
{ACAD_XDICTIONARY
360
C0B
102
}
102
{ACAD_REACTORS
330
1A
102
}
330
1A
100
AcDbPlotSettings
  1

  2
none_device
  4
ANSI_A_(8.50_x_11.00_Inches)
  6

 40
6.349999904632568
 41
19.04999923706055
 42
6.350006103515625
 43
19.04998779296875
 44
215.8999938964844
 45
279.3999938964844
 46
0.0
 47
0.0
 48
0.0
 49
0.0
140
0.0
141
0.0
142
1.0
143
78.436453180766
 70
 11952
 72
     0
 73
     1
 74
     0
  7

 75
     0
147
0.0127491741332998
148
0.0
149
0.0
100
AcDbLayout
  1
Model
 70
     1
 71
     0
 10
0.0
 20
0.0
 11
12.0
 21
9.0
 12
0.0
 22
0.0
 32
0.0
 14
0.0
 24
0.0
 34
0.0
 15
0.0
 25
0.0
 35
0.0
146
0.0
 13
0.0
 23
0.0
 33
0.0
 16
1.0
 26
0.0
 36
0.0
 17
0.0
 27
1.0
 37
0.0
 76
     0
330
1F
  0
LAYOUT
  5
51
102
{ACAD_XDICTIONARY
360
C0D
102
}
102
{ACAD_REACTORS
330
1A
102
}
330
1A
100
AcDbPlotSettings
  1

  2
None
  4

  6

 40
0.0
 41
0.0
 42
0.0
 43
0.0
 44
0.0
 45
0.0
 46
0.0
 47
0.0
 48
0.0
 49
0.0
140
0.0
141
0.0
142
1.0
143
1.0
 70
   688
 72
     0
 73
     0
 74
     5
  7

 75
    16
147
1.0
148
0.0
149
0.0
100
AcDbLayout
  1
布局1
 70
     1
 71
     1
 10
0.0
 20
0.0
 11
12.0
 21
9.0
 12
0.0
 22
0.0
 32
0.0
 14
0.0
 24
0.0
 34
0.0
 15
0.0
 25
0.0
 35
0.0
146
0.0
 13
0.0
 23
0.0
 33
0.0
 16
1.0
 26
0.0
 36
0.0
 17
0.0
 27
1.0
 37
0.0
 76
     0
330
50
  0
LAYOUT
  5
56
102
{ACAD_XDICTIONARY
360
C0F
102
}
102
{ACAD_REACTORS
330
1A
102
}
330
1A
100
AcDbPlotSettings
  1

  2
None
  4

  6

 40
0.0
 41
0.0
 42
0.0
 43
0.0
 44
0.0
 45
0.0
 46
0.0
 47
0.0
 48
0.0
 49
0.0
140
0.0
141
0.0
142
1.0
143
1.0
 70
   688
 72
     0
 73
     0
 74
     5
  7

 75
    16
147
1.0
148
0.0
149
0.0
100
AcDbLayout
  1
布局2
 70
     1
 71
     2
 10
0.0
 20
0.0
 11
12.0
 21
9.0
 12
0.0
 22
0.0
 32
0.0
 14
0.0
 24
0.0
 34
0.0
 15
0.0
 25
0.0
 35
0.0
146
0.0
 13
0.0
 23
0.0
 33
0.0
 16
1.0
 26
0.0
 36
0.0
 17
0.0
 27
1.0
 37
0.0
 76
     0
330
55
  0
MLINESTYLE
  5
18
102
{ACAD_REACTORS
330
17
102
}
330
17
100
AcDbMlineStyle
  2
STANDARD
 70
     0
  3

 62
   256
 51
90.0
 52
90.0
 71
     2
 49
0.5
 62
   256
  6
BYLAYER
 49
-0.5
 62
   256
  6
BYLAYER
  0
ACDBPLACEHOLDER
  5
F
102
{ACAD_REACTORS
330
E
102
}
330
E
  0
XRECORD
  5
C0A
102
{ACAD_REACTORS
330
C08
102
}
330
C08
100
AcDbXrecord
280
     1
340
6B
  0
XRECORD
  5
C09
102
{ACAD_REACTORS
330
C08
102
}
330
C08
100
AcDbXrecord
280
     1
340
6A
  0
DICTIONARYVAR
  5
5F
102
{ACAD_REACTORS
330
5E
102
}
330
5E
100
DictionaryVariables
280
     0
  1
2
  0
DICTIONARYVAR
  5
63
102
{ACAD_REACTORS
330
5E
102
}
330
5E
100
DictionaryVariables
280
     0
  1
1
  0
DICTIONARYVAR
  5
C06
102
{ACAD_REACTORS
330
5E
102
}
330
5E
100
DictionaryVariables
280
     0
  1

  0
DICTIONARY
  5
C0B
330
22
100
AcDbDictionary
280
     1
281
     1
  3
ACAD_XREC_ROUNDTRIP
360
C0C
  0
DICTIONARY
  5
C0D
330
51
100
AcDbDictionary
280
     1
281
     1
  3
ACAD_XREC_ROUNDTRIP
360
C0E
  0
DICTIONARY
  5
C0F
330
56
100
AcDbDictionary
280
     1
281
     1
  3
ACAD_XREC_ROUNDTRIP
360
C10
  0
XRECORD
  5
C0C
102
{ACAD_REACTORS
330
C0B
102
}
330
C0B
100
AcDbXrecord
280
     1
102
SHADEPLOT
 70
     0
102
SHADEPLOTRESLEVEL
 70
     2
102
SHADEPLOTCUSTOMDPI
 70
   300
  0
XRECORD
  5
C0E
102
{ACAD_REACTORS
330
C0D
102
}
330
C0D
100
AcDbXrecord
280
     1
102
SHADEPLOT
 70
     0
102
SHADEPLOTRESLEVEL
 70
     2
102
SHADEPLOTCUSTOMDPI
 70
   300
  0
XRECORD
  5
C10
102
{ACAD_REACTORS
330
C0F
102
}
330
C0F
100
AcDbXrecord
280
     1
102
SHADEPLOT
 70
     0
102
SHADEPLOTRESLEVEL
 70
     2
102
SHADEPLOTCUSTOMDPI
 70
   300
  0
ENDSEC
  0
EOF
