  0
SECTION
  2
HEADER
  9
$ACADVER
  1
AC1018
  9
$ACADMAINTVER
 70
     0
  9
$DWGCODEPAGE
  3
ANSI_936
  9
$INSBASE
 10
0.0
 20
0.0
 30
0.0
  9
$EXTMIN
 10
-93820.95984471607
 20
-26590.29070193353
 30
0.0
  9
$EXTMAX
 10
81161.93422962446
 20
33875.29914721136
 30
0.0
  9
$LIMMIN
 10
0.0
 20
0.0
  9
$LIMMAX
 10
420.0
 20
297.0
  9
$ORTHOMODE
 70
     1
  9
$REGENMODE
 70
     1
  9
$FILLMODE
 70
     1
  9
$QTEXTMODE
 70
     0
  9
$MIRRTEXT
 70
     0
  9
$LTSCALE
 40
1.0
  9
$ATTMODE
 70
     1
  9
$TEXTSIZE
 40
2.5
  9
$TRACEWID
 40
1.0
  9
$TEXTSTYLE
  7
Standard
  9
$CLAYER
  8
0
  9
$CELTYPE
  6
ByLayer
  9
$CECOLOR
 62
   256
  9
$CELTSCALE
 40
1.0
  9
$DISPSILH
 70
     0
  9
$DIMSCALE
 40
1.0
  9
$DIMASZ
 40
2.5
  9
$DIMEXO
 40
0.625
  9
$DIMDLI
 40
3.75
  9
$DIMRND
 40
0.0
  9
$DIMDLE
 40
0.0
  9
$DIMEXE
 40
1.25
  9
$DIMTP
 40
0.0
  9
$DIMTM
 40
0.0
  9
$DIMTXT
 40
2.5
  9
$DIMCEN
 40
2.5
  9
$DIMTSZ
 40
0.0
  9
$DIMTOL
 70
     0
  9
$DIMLIM
 70
     0
  9
$DIMTIH
 70
     0
  9
$DIMTOH
 70
     0
  9
$DIMSE1
 70
     0
  9
$DIMSE2
 70
     0
  9
$DIMTAD
 70
     1
  9
$DIMZIN
 70
     8
  9
$DIMBLK
  1

  9
$DIMASO
 70
     1
  9
$DIMSHO
 70
     1
  9
$DIMPOST
  1

  9
$DIMAPOST
  1

  9
$DIMALT
 70
     0
  9
$DIMALTD
 70
     3
  9
$DIMALTF
 40
0.03937007874016
  9
$DIMLFAC
 40
1.0
  9
$DIMTOFL
 70
     1
  9
$DIMTVP
 40
0.0
  9
$DIMTIX
 70
     0
  9
$DIMSOXD
 70
     0
  9
$DIMSAH
 70
     0
  9
$DIMBLK1
  1

  9
$DIMBLK2
  1

  9
$DIMSTYLE
  2
ISO-25
  9
$DIMCLRD
 70
     0
  9
$DIMCLRE
 70
     0
  9
$DIMCLRT
 70
     0
  9
$DIMTFAC
 40
1.0
  9
$DIMGAP
 40
0.625
  9
$DIMJUST
 70
     0
  9
$DIMSD1
 70
     0
  9
$DIMSD2
 70
     0
  9
$DIMTOLJ
 70
     0
  9
$DIMTZIN
 70
     8
  9
$DIMALTZ
 70
     0
  9
$DIMALTTZ
 70
     0
  9
$DIMUPT
 70
     0
  9
$DIMDEC
 70
     2
  9
$DIMTDEC
 70
     2
  9
$DIMALTU
 70
     2
  9
$DIMALTTD
 70
     3
  9
$DIMTXSTY
  7
Standard
  9
$DIMAUNIT
 70
     0
  9
$DIMADEC
 70
     0
  9
$DIMALTRND
 40
0.0
  9
$DIMAZIN
 70
     0
  9
$DIMDSEP
 70
    44
  9
$DIMATFIT
 70
     3
  9
$DIMFRAC
 70
     0
  9
$DIMLDRBLK
  1

  9
$DIMLUNIT
 70
     2
  9
$DIMLWD
 70
    -2
  9
$DIMLWE
 70
    -2
  9
$DIMTMOVE
 70
     0
  9
$LUNITS
 70
     2
  9
$LUPREC
 70
     4
  9
$SKETCHINC
 40
1.0
  9
$FILLETRAD
 40
1.0
  9
$AUNITS
 70
     0
  9
$AUPREC
 70
     0
  9
$MENU
  1
.
  9
$ELEVATION
 40
0.0
  9
$PELEVATION
 40
0.0
  9
$THICKNESS
 40
0.0
  9
$LIMCHECK
 70
     0
  9
$CHAMFERA
 40
0.0
  9
$CHAMFERB
 40
0.0
  9
$CHAMFERC
 40
0.0
  9
$CHAMFERD
 40
0.0
  9
$SKPOLY
 70
     0
  9
$TDCREATE
 40
2455910.426057396
  9
$TDUCREATE
 40
2455910.092724063
  9
$TDUPDATE
 40
2455918.426295949
  9
$TDUUPDATE
 40
2455918.092962616
  9
$TDINDWG
 40
0.3721579514
  9
$TDUSRTIMER
 40
0.3721566782
  9
$USRTIMER
 70
     1
  9
$ANGBASE
 50
0.0
  9
$ANGDIR
 70
     0
  9
$PDMODE
 70
     0
  9
$PDSIZE
 40
0.0
  9
$PLINEWID
 40
0.0
  9
$SPLFRAME
 70
     0
  9
$SPLINETYPE
 70
     6
  9
$SPLINESEGS
 70
     8
  9
$HANDSEED
  5
1706
  9
$SURFTAB1
 70
     6
  9
$SURFTAB2
 70
     6
  9
$SURFTYPE
 70
     6
  9
$SURFU
 70
     6
  9
$SURFV
 70
     6
  9
$UCSBASE
  2

  9
$UCSNAME
  2

  9
$UCSORG
 10
0.0
 20
0.0
 30
0.0
  9
$UCSXDIR
 10
1.0
 20
0.0
 30
0.0
  9
$UCSYDIR
 10
0.0
 20
1.0
 30
0.0
  9
$UCSORTHOREF
  2

  9
$UCSORTHOVIEW
 70
     0
  9
$UCSORGTOP
 10
0.0
 20
0.0
 30
0.0
  9
$UCSORGBOTTOM
 10
0.0
 20
0.0
 30
0.0
  9
$UCSORGLEFT
 10
0.0
 20
0.0
 30
0.0
  9
$UCSORGRIGHT
 10
0.0
 20
0.0
 30
0.0
  9
$UCSORGFRONT
 10
0.0
 20
0.0
 30
0.0
  9
$UCSORGBACK
 10
0.0
 20
0.0
 30
0.0
  9
$PUCSBASE
  2

  9
$PUCSNAME
  2

  9
$PUCSORG
 10
0.0
 20
0.0
 30
0.0
  9
$PUCSXDIR
 10
1.0
 20
0.0
 30
0.0
  9
$PUCSYDIR
 10
0.0
 20
1.0
 30
0.0
  9
$PUCSORTHOREF
  2

  9
$PUCSORTHOVIEW
 70
     0
  9
$PUCSORGTOP
 10
0.0
 20
0.0
 30
0.0
  9
$PUCSORGBOTTOM
 10
0.0
 20
0.0
 30
0.0
  9
$PUCSORGLEFT
 10
0.0
 20
0.0
 30
0.0
  9
$PUCSORGRIGHT
 10
0.0
 20
0.0
 30
0.0
  9
$PUCSORGFRONT
 10
0.0
 20
0.0
 30
0.0
  9
$PUCSORGBACK
 10
0.0
 20
0.0
 30
0.0
  9
$USERI1
 70
     0
  9
$USERI2
 70
     0
  9
$USERI3
 70
     0
  9
$USERI4
 70
     0
  9
$USERI5
 70
     0
  9
$USERR1
 40
0.0
  9
$USERR2
 40
0.0
  9
$USERR3
 40
0.0
  9
$USERR4
 40
0.0
  9
$USERR5
 40
0.0
  9
$WORLDVIEW
 70
     1
  9
$SHADEDGE
 70
     3
  9
$SHADEDIF
 70
    70
  9
$TILEMODE
 70
     1
  9
$MAXACTVP
 70
    64
  9
$PINSBASE
 10
0.0
 20
0.0
 30
0.0
  9
$PLIMCHECK
 70
     0
  9
$PEXTMIN
 10
0.0
 20
0.0
 30
0.0
  9
$PEXTMAX
 10
0.0
 20
0.0
 30
0.0
  9
$PLIMMIN
 10
0.0
 20
0.0
  9
$PLIMMAX
 10
12.0
 20
9.0
  9
$UNITMODE
 70
     0
  9
$VISRETAIN
 70
     1
  9
$PLINEGEN
 70
     0
  9
$PSLTSCALE
 70
     1
  9
$TREEDEPTH
 70
  3020
  9
$CMLSTYLE
  2
Standard
  9
$CMLJUST
 70
     0
  9
$CMLSCALE
 40
20.0
  9
$PROXYGRAPHICS
 70
     1
  9
$MEASUREMENT
 70
     1
  9
$CELWEIGHT
370
    -1
  9
$ENDCAPS
280
     0
  9
$JOINSTYLE
280
     0
  9
$LWDISPLAY
290
     1
  9
$INSUNITS
 70
     4
  9
$HYPERLINKBASE
  1

  9
$STYLESHEET
  1

  9
$XEDIT
290
     1
  9
$CEPSNTYPE
380
     0
  9
$PSTYLEMODE
290
     1
  9
$FINGERPRINTGUID
  2
{FDEAD578-A652-11D2-9A35-0060089B3A3F}
  9
$VERSIONGUID
  2
{3AC74CD5-BDCB-47F3-96DD-710579B4453B}
  9
$EXTNAMES
290
     1
  9
$PSVPSCALE
 40
0.0
  9
$OLESTARTUP
290
     0
  9
$SORTENTS
280
   127
  9
$INDEXCTL
280
     0
  9
$HIDETEXT
280
     1
  9
$XCLIPFRAME
290
     0
  9
$HALOGAP
280
     0
  9
$OBSCOLOR
 70
   257
  9
$OBSLTYPE
280
     0
  9
$INTERSECTIONDISPLAY
280
     0
  9
$INTERSECTIONCOLOR
 70
   257
  9
$DIMASSOC
280
     2
  9
$PROJECTNAME
  1

  0
ENDSEC
  0
SECTION
  2
CLASSES
  0
CLASS
  1
ACDBDICTIONARYWDFLT
  2
AcDbDictionaryWithDefault
  3
ObjectDBX Classes
 90
        0
 91
        1
280
     0
281
     0
  0
CLASS
  1
DICTIONARYVAR
  2
AcDbDictionaryVar
  3
ObjectDBX Classes
 90
        0
 91
        2
280
     0
281
     0
  0
CLASS
  1
DIMASSOC
  2
AcDbDimAssoc
  3
"AcDbDimAssoc|Product Desc:     AcDim ARX App For Dimension|Company:          Autodesk, Inc.|WEB Address:      www.autodesk.com"
 90
        0
 91
       24
280
     0
281
     0
  0
ENDSEC
  0
SECTION
  2
TABLES
  0
TABLE
  2
VPORT
  5
8
330
0
100
AcDbSymbolTable
 70
     2
  0
VPORT
  5
1705
330
8
100
AcDbSymbolTableRecord
100
AcDbViewportTableRecord
  2
*Active
 70
     0
 10
0.0
 20
0.0
 11
1.0
 21
1.0
 12
-11700.95395916556
 22
542.2206584630621
 13
0.0
 23
0.0
 14
10.0
 24
10.0
 15
10.0
 25
10.0
 16
0.0
 26
0.0
 36
1.0
 17
0.0
 27
0.0
 37
0.0
 40
83528.6615221017
 41
2.05722891566265
 42
50.0
 43
0.0
 44
0.0
 50
0.0
 51
0.0
 71
     0
 72
  1000
 73
     1
 74
     3
 75
     0
 76
     0
 77
     0
 78
     0
281
     0
 65
     1
110
0.0
120
0.0
130
0.0
111
1.0
121
0.0
131
0.0
112
0.0
122
1.0
132
0.0
 79
     0
146
0.0
  0
ENDTAB
  0
TABLE
  2
LTYPE
  5
5
330
0
100
AcDbSymbolTable
 70
     2
  0
LTYPE
  5
14
330
5
100
AcDbSymbolTableRecord
100
AcDbLinetypeTableRecord
  2
ByBlock
 70
     0
  3

 72
    65
 73
     0
 40
0.0
  0
LTYPE
  5
15
330
5
100
AcDbSymbolTableRecord
100
AcDbLinetypeTableRecord
  2
ByLayer
 70
     0
  3

 72
    65
 73
     0
 40
0.0
  0
LTYPE
  5
16
330
5
100
AcDbSymbolTableRecord
100
AcDbLinetypeTableRecord
  2
Continuous
 70
     0
  3
Solid line
 72
    65
 73
     0
 40
0.0
  0
LTYPE
  5
100
330
5
100
AcDbSymbolTableRecord
100
AcDbLinetypeTableRecord
  2
CENTER2
 70
     0
  3
Center (.5x) ___ _ ___ _ ___ _ ___ _ ___ _ ___
 72
    65
 73
     4
 40
28.575
 49
19.05
 74
     0
 49
-3.174999999999998
 74
     0
 49
3.174999999999998
 74
     0
 49
-3.174999999999998
 74
     0
  0
ENDTAB
  0
TABLE
  2
LAYER
  5
2
330
0
100
AcDbSymbolTable
 70
     2
  0
LAYER
  5
10
330
2
100
AcDbSymbolTableRecord
100
AcDbLayerTableRecord
  2
0
 70
     0
 62
     7
  6
Continuous
370
    -3
390
F
  0
LAYER
  5
91
330
2
100
AcDbSymbolTableRecord
100
AcDbLayerTableRecord
  2
Defpoints
 70
     0
 62
     7
  6
Continuous
290
     0
370
    -3
390
F
  0
ENDTAB
  0
TABLE
  2
STYLE
  5
3
330
0
100
AcDbSymbolTable
 70
     2
  0
STYLE
  5
11
330
3
100
AcDbSymbolTableRecord
100
AcDbTextStyleTableRecord
  2
Standard
 70
     0
 40
0.0
 41
1.0
 50
0.0
 71
     0
 42
2.5
  3
txt
  4

  0
STYLE
  5
FF
330
3
100
AcDbSymbolTableRecord
100
AcDbTextStyleTableRecord
  2

 70
     1
 40
0.0
 41
1.0
 50
0.0
 71
     0
 42
2.5
  3
ltypeshp.shx
  4

  0
ENDTAB
  0
TABLE
  2
VIEW
  5
6
330
0
100
AcDbSymbolTable
 70
     0
  0
ENDTAB
  0
TABLE
  2
UCS
  5
7
330
0
100
AcDbSymbolTable
 70
     0
  0
ENDTAB
  0
TABLE
  2
APPID
  5
9
330
0
100
AcDbSymbolTable
 70
     1
  0
APPID
  5
12
330
9
100
AcDbSymbolTableRecord
100
AcDbRegAppTableRecord
  2
ACAD
 70
     0
  0
ENDTAB
  0
TABLE
  2
DIMSTYLE
  5
A
330
0
100
AcDbSymbolTable
 70
     1
100
AcDbDimStyleTable
 71
     1
340
27
  0
DIMSTYLE
105
27
102
{ACAD_REACTORS
330
A9
330
C1
330
D9
330
F1
330
14C
330
4CF
330
5FD
330
647
330
6C5
330
83D
330
855
330
92F
330
963
330
A70
330
AC8
330
B20
330
C3B
330
D68
330
D84
330
F9D
330
FF9
330
1015
330
105D
330
11AA
330
E1D
330
1244
330
128A
330
1354
330
14C8
102
}
330
A
100
AcDbSymbolTableRecord
100
AcDbDimStyleTableRecord
  2
ISO-25
 70
     0
 41
2.5
 42
0.625
 43
3.75
 44
1.25
 73
     0
 74
     0
 77
     1
 78
     8
140
2.5
141
2.5
143
0.03937007874016
147
0.625
171
     3
172
     1
271
     2
272
     2
274
     3
278
    44
283
     0
284
     8
340
11
  0
ENDTAB
  0
TABLE
  2
BLOCK_RECORD
  5
1
330
0
100
AcDbSymbolTable
 70
    31
  0
BLOCK_RECORD
  5
1F
330
1
100
AcDbSymbolTableRecord
100
AcDbBlockTableRecord
  2
*Model_Space
340
22
  0
BLOCK_RECORD
  5
50
330
1
100
AcDbSymbolTableRecord
100
AcDbBlockTableRecord
  2
*Paper_Space
340
51
  0
BLOCK_RECORD
  5
55
330
1
100
AcDbSymbolTableRecord
100
AcDbBlockTableRecord
  2
*Paper_Space0
340
56
  0
BLOCK_RECORD
  5
AA
330
1
100
AcDbSymbolTableRecord
100
AcDbBlockTableRecord
  2
*D1
340
0
  0
BLOCK_RECORD
  5
C2
330
1
100
AcDbSymbolTableRecord
100
AcDbBlockTableRecord
  2
*D2
340
0
  0
BLOCK_RECORD
  5
DA
330
1
100
AcDbSymbolTableRecord
100
AcDbBlockTableRecord
  2
*D3
340
0
  0
BLOCK_RECORD
  5
F2
330
1
100
AcDbSymbolTableRecord
100
AcDbBlockTableRecord
  2
*D4
340
0
  0
BLOCK_RECORD
  5
14D
330
1
100
AcDbSymbolTableRecord
100
AcDbBlockTableRecord
  2
*D5
340
0
  0
BLOCK_RECORD
  5
4D0
330
1
100
AcDbSymbolTableRecord
100
AcDbBlockTableRecord
  2
*D6
340
0
  0
BLOCK_RECORD
  5
5FE
330
1
100
AcDbSymbolTableRecord
100
AcDbBlockTableRecord
  2
*D7
340
0
  0
BLOCK_RECORD
  5
648
330
1
100
AcDbSymbolTableRecord
100
AcDbBlockTableRecord
  2
*D8
340
0
  0
BLOCK_RECORD
  5
6C6
330
1
100
AcDbSymbolTableRecord
100
AcDbBlockTableRecord
  2
*D9
340
0
  0
BLOCK_RECORD
  5
83E
330
1
100
AcDbSymbolTableRecord
100
AcDbBlockTableRecord
  2
*D10
340
0
  0
BLOCK_RECORD
  5
856
330
1
100
AcDbSymbolTableRecord
100
AcDbBlockTableRecord
  2
*D11
340
0
  0
BLOCK_RECORD
  5
930
330
1
100
AcDbSymbolTableRecord
100
AcDbBlockTableRecord
  2
*D12
340
0
  0
BLOCK_RECORD
  5
964
330
1
100
AcDbSymbolTableRecord
100
AcDbBlockTableRecord
  2
*D13
340
0
  0
BLOCK_RECORD
  5
A71
330
1
100
AcDbSymbolTableRecord
100
AcDbBlockTableRecord
  2
*D14
340
0
  0
BLOCK_RECORD
  5
AC9
330
1
100
AcDbSymbolTableRecord
100
AcDbBlockTableRecord
  2
*D15
340
0
  0
BLOCK_RECORD
  5
B21
330
1
100
AcDbSymbolTableRecord
100
AcDbBlockTableRecord
  2
*D16
340
0
  0
BLOCK_RECORD
  5
C3C
330
1
100
AcDbSymbolTableRecord
100
AcDbBlockTableRecord
  2
*D17
340
0
  0
BLOCK_RECORD
  5
D69
330
1
100
AcDbSymbolTableRecord
100
AcDbBlockTableRecord
  2
*D18
340
0
  0
BLOCK_RECORD
  5
D85
330
1
100
AcDbSymbolTableRecord
100
AcDbBlockTableRecord
  2
*D19
340
0
  0
BLOCK_RECORD
  5
E1E
330
1
100
AcDbSymbolTableRecord
100
AcDbBlockTableRecord
  2
*D20
340
0
  0
BLOCK_RECORD
  5
F9E
330
1
100
AcDbSymbolTableRecord
100
AcDbBlockTableRecord
  2
*D21
340
0
  0
BLOCK_RECORD
  5
FFA
330
1
100
AcDbSymbolTableRecord
100
AcDbBlockTableRecord
  2
*D22
340
0
  0
BLOCK_RECORD
  5
1016
330
1
100
AcDbSymbolTableRecord
100
AcDbBlockTableRecord
  2
*D23
340
0
  0
BLOCK_RECORD
  5
105E
330
1
100
AcDbSymbolTableRecord
100
AcDbBlockTableRecord
  2
*D24
340
0
  0
BLOCK_RECORD
  5
11AB
330
1
100
AcDbSymbolTableRecord
100
AcDbBlockTableRecord
  2
*D25
340
0
  0
BLOCK_RECORD
  5
1245
330
1
100
AcDbSymbolTableRecord
100
AcDbBlockTableRecord
  2
*D26
340
0
  0
BLOCK_RECORD
  5
128B
330
1
100
AcDbSymbolTableRecord
100
AcDbBlockTableRecord
  2
*D27
340
0
  0
BLOCK_RECORD
  5
1355
330
1
100
AcDbSymbolTableRecord
100
AcDbBlockTableRecord
  2
*D28
340
0
  0
BLOCK_RECORD
  5
13B3
330
1
100
AcDbSymbolTableRecord
100
AcDbBlockTableRecord
  2
*D29
340
0
  0
BLOCK_RECORD
  5
14C9
330
1
100
AcDbSymbolTableRecord
100
AcDbBlockTableRecord
  2
*D30
340
0
  0
ENDTAB
  0
ENDSEC
  0
SECTION
  2
BLOCKS
  0
BLOCK
  5
20
330
1F
100
AcDbEntity
  8
0
100
AcDbBlockBegin
  2
*Model_Space
 70
     0
 10
0.0
 20
0.0
 30
0.0
  3
*Model_Space
  1

  0
ENDBLK
  5
21
330
1F
100
AcDbEntity
  8
0
100
AcDbBlockEnd
  0
BLOCK
  5
52
330
50
100
AcDbEntity
 67
     1
  8
0
100
AcDbBlockBegin
  2
*Paper_Space
 70
     0
 10
0.0
 20
0.0
 30
0.0
  3
*Paper_Space
  1

  0
ENDBLK
  5
53
330
50
100
AcDbEntity
 67
     1
  8
0
100
AcDbBlockEnd
  0
BLOCK
  5
57
330
55
100
AcDbEntity
  8
0
100
AcDbBlockBegin
  2
*Paper_Space0
 70
     0
 10
0.0
 20
0.0
 30
0.0
  3
*Paper_Space0
  1

  0
ENDBLK
  5
58
330
55
100
AcDbEntity
  8
0
100
AcDbBlockEnd
  0
BLOCK
  5
B4
330
AA
100
AcDbEntity
  8
0
100
AcDbBlockBegin
  2
*D1
 70
     1
 10
0.0
 20
0.0
 30
0.0
  3
*D1
  1

  0
LINE
  5
16F3
330
AA
100
AcDbEntity
  8
0
 62
     0
370
    -2
100
AcDbLine
 10
-65397.29019923369
 20
25395.2367615479
 30
0.0
 11
-93819.08484471605
 21
25395.23676154791
 31
0.0
  0
LINE
  5
16F4
330
AA
100
AcDbEntity
  8
0
 62
     0
370
    -2
100
AcDbLine
 10
-65397.29019923369
 20
-14604.7632384521
 30
0.0
 11
-93819.08484471605
 21
-14604.76323845209
 31
0.0
  0
LINE
  5
16F5
330
AA
100
AcDbEntity
  8
0
 62
     0
370
    -2
100
AcDbLine
 10
-93817.83484471606
 20
25392.7367615479
 30
0.0
 11
-93817.83484471606
 21
-14602.26323845209
 31
0.0
  0
SOLID
  5
16F6
330
AA
100
AcDbEntity
  8
0
 62
     0
100
AcDbTrace
 10
-93818.25151138274
 20
25392.7367615479
 30
0.0
 11
-93817.4181780494
 21
25392.7367615479
 31
0.0
 12
-93817.83484471606
 22
25395.23676154791
 32
0.0
 13
-93817.83484471606
 23
25395.23676154791
 33
0.0
  0
SOLID
  5
16F7
330
AA
100
AcDbEntity
  8
0
 62
     0
100
AcDbTrace
 10
-93818.25151138274
 20
-14602.26323845209
 30
0.0
 11
-93817.4181780494
 21
-14602.26323845209
 31
0.0
 12
-93817.83484471606
 22
-14604.76323845209
 32
0.0
 13
-93817.83484471606
 23
-14604.76323845209
 33
0.0
  0
MTEXT
  5
16F8
330
AA
100
AcDbEntity
  8
0
 62
     0
100
AcDbMText
 10
-93819.70984471607
 20
5395.23676154813
 30
0.0
 40
2.5
 41
0.0
 71
     5
 72
     1
  1
40000
 11
0.0000000000000001
 21
1.0
 31
0.0
 73
     1
 44
1.0
  0
POINT
  5
16F9
330
AA
100
AcDbEntity
  8
Defpoints
 62
     0
100
AcDbPoint
 10
-65396.66519923367
 20
25395.2367615479
 30
0.0
  0
POINT
  5
16FA
330
AA
100
AcDbEntity
  8
Defpoints
 62
     0
100
AcDbPoint
 10
-65396.66519923367
 20
-14604.7632384521
 30
0.0
  0
POINT
  5
16FB
330
AA
100
AcDbEntity
  8
Defpoints
 62
     0
100
AcDbPoint
 10
-93817.83484471606
 20
-14604.76323845209
 30
0.0
  0
ENDBLK
  5
B5
330
AA
100
AcDbEntity
  8
0
100
AcDbBlockEnd
  0
BLOCK
  5
CC
330
C2
100
AcDbEntity
  8
0
100
AcDbBlockBegin
  2
*D2
 70
     1
 10
0.0
 20
0.0
 30
0.0
  3
*D2
  1

  0
LINE
  5
16EA
330
C2
100
AcDbEntity
  8
0
 62
     0
370
    -2
100
AcDbLine
 10
13318.57255817173
 20
20514.52705960836
 30
0.0
 11
13318.57255817173
 21
33873.42414721135
 31
0.0
  0
LINE
  5
16EB
330
C2
100
AcDbEntity
  8
0
 62
     0
370
    -2
100
AcDbLine
 10
73318.57255817193
 20
20514.52705960826
 30
0.0
 11
73318.57255817193
 21
33873.42414721135
 31
0.0
  0
LINE
  5
16EC
330
C2
100
AcDbEntity
  8
0
 62
     0
370
    -2
100
AcDbLine
 10
13321.07255817173
 20
33872.17414721135
 30
0.0
 11
73316.07255817193
 21
33872.17414721135
 31
0.0
  0
SOLID
  5
16ED
330
C2
100
AcDbEntity
  8
0
 62
     0
100
AcDbTrace
 10
13321.07255817173
 20
33872.59081387802
 30
0.0
 11
13321.07255817173
 21
33871.75748054469
 31
0.0
 12
13318.57255817173
 22
33872.17414721135
 32
0.0
 13
13318.57255817173
 23
33872.17414721135
 33
0.0
  0
SOLID
  5
16EE
330
C2
100
AcDbEntity
  8
0
 62
     0
100
AcDbTrace
 10
73316.07255817193
 20
33872.59081387802
 30
0.0
 11
73316.07255817193
 21
33871.75748054469
 31
0.0
 12
73318.57255817193
 22
33872.17414721135
 32
0.0
 13
73318.57255817193
 23
33872.17414721135
 33
0.0
  0
MTEXT
  5
16EF
330
C2
100
AcDbEntity
  8
0
 62
     0
100
AcDbMText
 10
43318.57255817181
 20
33874.04914721135
 30
0.0
 40
2.5
 41
0.0
 71
     5
 72
     1
  1
60000
 73
     1
 44
1.0
  0
POINT
  5
16F0
330
C2
100
AcDbEntity
  8
Defpoints
 62
     0
100
AcDbPoint
 10
13318.57255817173
 20
20513.90205960836
 30
0.0
  0
POINT
  5
16F1
330
C2
100
AcDbEntity
  8
Defpoints
 62
     0
100
AcDbPoint
 10
73318.57255817193
 20
20513.90205960826
 30
0.0
  0
POINT
  5
16F2
330
C2
100
AcDbEntity
  8
Defpoints
 62
     0
100
AcDbPoint
 10
73318.57255817193
 20
33872.17414721135
 30
0.0
  0
ENDBLK
  5
CD
330
C2
100
AcDbEntity
  8
0
100
AcDbBlockEnd
  0
BLOCK
  5
E4
330
DA
100
AcDbEntity
  8
0
100
AcDbBlockBegin
  2
*D3
 70
     1
 10
0.0
 20
0.0
 30
0.0
  3
*D3
  1

  0
LINE
  5
16E1
330
DA
100
AcDbEntity
  8
0
 62
     0
370
    -2
100
AcDbLine
 10
-31681.4274418283
 20
19417.41521024436
 30
0.0
 11
-31681.4274418283
 21
33873.42414721129
 31
0.0
  0
LINE
  5
16E2
330
DA
100
AcDbEntity
  8
0
 62
     0
370
    -2
100
AcDbLine
 10
13318.5725581717
 20
19417.41521024436
 30
0.0
 11
13318.5725581717
 21
33873.42414721129
 31
0.0
  0
LINE
  5
16E3
330
DA
100
AcDbEntity
  8
0
 62
     0
370
    -2
100
AcDbLine
 10
-31678.9274418283
 20
33872.17414721129
 30
0.0
 11
13316.0725581717
 21
33872.17414721129
 31
0.0
  0
SOLID
  5
16E4
330
DA
100
AcDbEntity
  8
0
 62
     0
100
AcDbTrace
 10
-31678.9274418283
 20
33872.59081387796
 30
0.0
 11
-31678.9274418283
 21
33871.75748054463
 31
0.0
 12
-31681.4274418283
 22
33872.17414721129
 32
0.0
 13
-31681.4274418283
 23
33872.17414721129
 33
0.0
  0
SOLID
  5
16E5
330
DA
100
AcDbEntity
  8
0
 62
     0
100
AcDbTrace
 10
13316.0725581717
 20
33872.59081387796
 30
0.0
 11
13316.0725581717
 21
33871.75748054463
 31
0.0
 12
13318.5725581717
 22
33872.17414721129
 32
0.0
 13
13318.5725581717
 23
33872.17414721129
 33
0.0
  0
MTEXT
  5
16E6
330
DA
100
AcDbEntity
  8
0
 62
     0
100
AcDbMText
 10
-9181.427441828303
 20
33874.04914721129
 30
0.0
 40
2.5
 41
0.0
 71
     5
 72
     1
  1
45000
 73
     1
 44
1.0
  0
POINT
  5
16E7
330
DA
100
AcDbEntity
  8
Defpoints
 62
     0
100
AcDbPoint
 10
-31681.4274418283
 20
19416.79021024436
 30
0.0
  0
POINT
  5
16E8
330
DA
100
AcDbEntity
  8
Defpoints
 62
     0
100
AcDbPoint
 10
13318.5725581717
 20
19416.79021024436
 30
0.0
  0
POINT
  5
16E9
330
DA
100
AcDbEntity
  8
Defpoints
 62
     0
100
AcDbPoint
 10
13318.5725581717
 20
33872.17414721129
 30
0.0
  0
ENDBLK
  5
E5
330
DA
100
AcDbEntity
  8
0
100
AcDbBlockEnd
  0
BLOCK
  5
FC
330
F2
100
AcDbEntity
  8
0
100
AcDbBlockBegin
  2
*D4
 70
     1
 10
0.0
 20
0.0
 30
0.0
  3
*D4
  1

  0
LINE
  5
15F9
330
F2
100
AcDbEntity
  8
0
 62
     0
370
    -2
100
AcDbLine
 10
-76681.42744182817
 20
20590.03128392832
 30
0.0
 11
-76681.42744182817
 21
33863.72161407502
 31
0.0
  0
LINE
  5
15FA
330
F2
100
AcDbEntity
  8
0
 62
     0
370
    -2
100
AcDbLine
 10
-31681.4274418283
 20
20590.03128392832
 30
0.0
 11
-31681.4274418283
 21
33863.72161407502
 31
0.0
  0
LINE
  5
15FB
330
F2
100
AcDbEntity
  8
0
 62
     0
370
    -2
100
AcDbLine
 10
-76678.92744182817
 20
33862.47161407502
 30
0.0
 11
-31683.9274418283
 21
33862.47161407502
 31
0.0
  0
SOLID
  5
15FC
330
F2
100
AcDbEntity
  8
0
 62
     0
100
AcDbTrace
 10
-76678.92744182817
 20
33862.88828074167
 30
0.0
 11
-76678.92744182817
 21
33862.05494740835
 31
0.0
 12
-76681.42744182817
 22
33862.47161407502
 32
0.0
 13
-76681.42744182817
 23
33862.47161407502
 33
0.0
  0
SOLID
  5
15FD
330
F2
100
AcDbEntity
  8
0
 62
     0
100
AcDbTrace
 10
-31683.9274418283
 20
33862.88828074167
 30
0.0
 11
-31683.9274418283
 21
33862.05494740835
 31
0.0
 12
-31681.4274418283
 22
33862.47161407502
 32
0.0
 13
-31681.4274418283
 23
33862.47161407502
 33
0.0
  0
MTEXT
  5
15FE
330
F2
100
AcDbEntity
  8
0
 62
     0
100
AcDbMText
 10
-54181.42744182824
 20
33864.34661407502
 30
0.0
 40
2.5
 41
0.0
 71
     5
 72
     1
  1
45000
 73
     1
 44
1.0
  0
POINT
  5
15FF
330
F2
100
AcDbEntity
  8
Defpoints
 62
     0
100
AcDbPoint
 10
-76681.42744182817
 20
20589.40628392831
 30
0.0
  0
POINT
  5
1600
330
F2
100
AcDbEntity
  8
Defpoints
 62
     0
100
AcDbPoint
 10
-31681.4274418283
 20
20589.40628392831
 30
0.0
  0
POINT
  5
1601
330
F2
100
AcDbEntity
  8
Defpoints
 62
     0
100
AcDbPoint
 10
-31681.4274418283
 20
33862.47161407502
 30
0.0
  0
ENDBLK
  5
FD
330
F2
100
AcDbEntity
  8
0
100
AcDbBlockEnd
  0
BLOCK
  5
157
330
14D
100
AcDbEntity
  8
0
100
AcDbBlockBegin
  2
*D5
 70
     1
 10
0.0
 20
0.0
 30
0.0
  3
*D5
  1

  0
LINE
  5
16D8
330
14D
100
AcDbEntity
  8
0
 62
     0
370
    -2
100
AcDbLine
 10
-61682.81085444798
 20
-8260.738404908417
 30
0.0
 11
-61682.81085444798
 21
-2822.864860801227
 31
0.0
  0
LINE
  5
16D9
330
14D
100
AcDbEntity
  8
0
 62
     0
370
    -2
100
AcDbLine
 10
-49682.81085444797
 20
-8260.738404908417
 30
0.0
 11
-49682.81085444797
 21
-2822.864860801227
 31
0.0
  0
LINE
  5
16DA
330
14D
100
AcDbEntity
  8
0
 62
     0
370
    -2
100
AcDbLine
 10
-61680.31085444797
 20
-2824.114860801227
 30
0.0
 11
-49685.31085444797
 21
-2824.114860801227
 31
0.0
  0
SOLID
  5
16DB
330
14D
100
AcDbEntity
  8
0
 62
     0
100
AcDbTrace
 10
-61680.31085444797
 20
-2823.69819413456
 30
0.0
 11
-61680.31085444797
 21
-2824.531527467894
 31
0.0
 12
-61682.81085444798
 22
-2824.114860801227
 32
0.0
 13
-61682.81085444798
 23
-2824.114860801227
 33
0.0
  0
SOLID
  5
16DC
330
14D
100
AcDbEntity
  8
0
 62
     0
100
AcDbTrace
 10
-49685.31085444797
 20
-2823.69819413456
 30
0.0
 11
-49685.31085444797
 21
-2824.531527467894
 31
0.0
 12
-49682.81085444797
 22
-2824.114860801227
 32
0.0
 13
-49682.81085444797
 23
-2824.114860801227
 33
0.0
  0
MTEXT
  5
16DD
330
14D
100
AcDbEntity
  8
0
 62
     0
100
AcDbMText
 10
-55682.81085444832
 20
-2822.239860801226
 30
0.0
 40
2.5
 41
0.0
 71
     5
 72
     1
  1
12000
 73
     1
 44
1.0
  0
POINT
  5
16DE
330
14D
100
AcDbEntity
  8
Defpoints
 62
     0
100
AcDbPoint
 10
-61682.81085444798
 20
-8261.36340490842
 30
0.0
  0
POINT
  5
16DF
330
14D
100
AcDbEntity
  8
Defpoints
 62
     0
100
AcDbPoint
 10
-49682.81085444797
 20
-8261.36340490842
 30
0.0
  0
POINT
  5
16E0
330
14D
100
AcDbEntity
  8
Defpoints
 62
     0
100
AcDbPoint
 10
-49682.81085444797
 20
-2824.114860801227
 30
0.0
  0
ENDBLK
  5
158
330
14D
100
AcDbEntity
  8
0
100
AcDbBlockEnd
  0
BLOCK
  5
4DA
330
4D0
100
AcDbEntity
  8
0
100
AcDbBlockBegin
  2
*D6
 70
     1
 10
0.0
 20
0.0
 30
0.0
  3
*D6
  1

  0
LINE
  5
16CF
330
4D0
100
AcDbEntity
  8
0
 62
     0
370
    -2
100
AcDbLine
 10
29726.22535920385
 20
11394.45084260753
 30
0.0
 11
25819.41489815069
 21
11394.45084260753
 31
0.0
  0
LINE
  5
16D0
330
4D0
100
AcDbEntity
  8
0
 62
     0
370
    -2
100
AcDbLine
 10
30527.16022001122
 20
20394.45084260754
 30
0.0
 11
25819.41489815069
 21
20394.45084260754
 31
0.0
  0
LINE
  5
16D1
330
4D0
100
AcDbEntity
  8
0
 62
     0
370
    -2
100
AcDbLine
 10
25820.66489815069
 20
11396.95084260753
 30
0.0
 11
25820.66489815069
 21
20391.95084260753
 31
0.0
  0
SOLID
  5
16D2
330
4D0
100
AcDbEntity
  8
0
 62
     0
100
AcDbTrace
 10
25820.24823148402
 20
11396.95084260753
 30
0.0
 11
25821.08156481736
 21
11396.95084260753
 31
0.0
 12
25820.66489815069
 22
11394.45084260753
 32
0.0
 13
25820.66489815069
 23
11394.45084260753
 33
0.0
  0
SOLID
  5
16D3
330
4D0
100
AcDbEntity
  8
0
 62
     0
100
AcDbTrace
 10
25820.24823148402
 20
20391.95084260753
 30
0.0
 11
25821.08156481736
 21
20391.95084260753
 31
0.0
 12
25820.66489815069
 22
20394.45084260754
 32
0.0
 13
25820.66489815069
 23
20394.45084260754
 33
0.0
  0
MTEXT
  5
16D4
330
4D0
100
AcDbEntity
  8
0
 62
     0
100
AcDbMText
 10
25818.78989815069
 20
15894.45084260754
 30
0.0
 40
2.5
 41
0.0
 71
     5
 72
     1
  1
9000
 11
0.0000000000000001
 21
1.0
 31
0.0
 73
     1
 44
1.0
  0
POINT
  5
16D5
330
4D0
100
AcDbEntity
  8
Defpoints
 62
     0
100
AcDbPoint
 10
29726.85035920385
 20
11394.45084260753
 30
0.0
  0
POINT
  5
16D6
330
4D0
100
AcDbEntity
  8
Defpoints
 62
     0
100
AcDbPoint
 10
30527.78522001123
 20
20394.45084260754
 30
0.0
  0
POINT
  5
16D7
330
4D0
100
AcDbEntity
  8
Defpoints
 62
     0
100
AcDbPoint
 10
25820.66489815069
 20
20394.45084260754
 30
0.0
  0
ENDBLK
  5
4DB
330
4D0
100
AcDbEntity
  8
0
100
AcDbBlockEnd
  0
BLOCK
  5
608
330
5FE
100
AcDbEntity
  8
0
100
AcDbBlockBegin
  2
*D7
 70
     1
 10
0.0
 20
0.0
 30
0.0
  3
*D7
  1

  0
LINE
  5
16C6
330
5FE
100
AcDbEntity
  8
0
 62
     0
370
    -2
100
AcDbLine
 10
28322.46192800964
 20
18917.45524391377
 30
0.0
 11
28322.46192800964
 21
21675.17730831061
 31
0.0
  0
LINE
  5
16C7
330
5FE
100
AcDbEntity
  8
0
 62
     0
370
    -2
100
AcDbLine
 10
68322.46192800952
 20
18917.45524391377
 30
0.0
 11
68322.46192800952
 21
21675.17730831061
 31
0.0
  0
LINE
  5
16C8
330
5FE
100
AcDbEntity
  8
0
 62
     0
370
    -2
100
AcDbLine
 10
28324.96192800964
 20
21673.9273083106
 30
0.0
 11
68319.96192800952
 21
21673.9273083106
 31
0.0
  0
SOLID
  5
16C9
330
5FE
100
AcDbEntity
  8
0
 62
     0
100
AcDbTrace
 10
28324.96192800964
 20
21674.34397497727
 30
0.0
 11
28324.96192800964
 21
21673.51064164394
 31
0.0
 12
28322.46192800964
 22
21673.9273083106
 32
0.0
 13
28322.46192800964
 23
21673.9273083106
 33
0.0
  0
SOLID
  5
16CA
330
5FE
100
AcDbEntity
  8
0
 62
     0
100
AcDbTrace
 10
68319.96192800952
 20
21674.34397497727
 30
0.0
 11
68319.96192800952
 21
21673.51064164394
 31
0.0
 12
68322.46192800952
 22
21673.9273083106
 32
0.0
 13
68322.46192800952
 23
21673.9273083106
 33
0.0
  0
MTEXT
  5
16CB
330
5FE
100
AcDbEntity
  8
0
 62
     0
100
AcDbMText
 10
48322.46192800957
 20
21675.8023083106
 30
0.0
 40
2.5
 41
0.0
 71
     5
 72
     1
  1
40000
 73
     1
 44
1.0
  0
POINT
  5
16CC
330
5FE
100
AcDbEntity
  8
Defpoints
 62
     0
100
AcDbPoint
 10
28322.46192800964
 20
18916.83024391377
 30
0.0
  0
POINT
  5
16CD
330
5FE
100
AcDbEntity
  8
Defpoints
 62
     0
100
AcDbPoint
 10
68322.46192800952
 20
18916.83024391377
 30
0.0
  0
POINT
  5
16CE
330
5FE
100
AcDbEntity
  8
Defpoints
 62
     0
100
AcDbPoint
 10
68322.46192800952
 20
21673.9273083106
 30
0.0
  0
ENDBLK
  5
609
330
5FE
100
AcDbEntity
  8
0
100
AcDbBlockEnd
  0
BLOCK
  5
654
330
648
100
AcDbEntity
  8
0
100
AcDbBlockBegin
  2
*D8
 70
     1
 10
0.0
 20
0.0
 30
0.0
  3
*D8
  1

  0
LINE
  5
16BD
330
648
100
AcDbEntity
  8
0
 62
     0
370
    -2
100
AcDbLine
 10
37269.20064627477
 20
2899.932861348535
 30
0.0
 11
31300.14777154654
 21
2899.932861348538
 31
0.0
  0
LINE
  5
16BE
330
648
100
AcDbEntity
  8
0
 62
     0
370
    -2
100
AcDbLine
 10
37876.84720924036
 20
7899.932861348419
 30
0.0
 11
31300.14777154654
 21
7899.932861348421
 31
0.0
  0
LINE
  5
16BF
330
648
100
AcDbEntity
  8
0
 62
     0
370
    -2
100
AcDbLine
 10
31301.39777154655
 20
2902.432861348538
 30
0.0
 11
31301.39777154655
 21
7897.43286134842
 31
0.0
  0
SOLID
  5
16C0
330
648
100
AcDbEntity
  8
0
 62
     0
100
AcDbTrace
 10
31300.98110487988
 20
2902.432861348538
 30
0.0
 11
31301.81443821321
 21
2902.432861348538
 31
0.0
 12
31301.39777154655
 22
2899.932861348538
 32
0.0
 13
31301.39777154655
 23
2899.932861348538
 33
0.0
  0
SOLID
  5
16C1
330
648
100
AcDbEntity
  8
0
 62
     0
100
AcDbTrace
 10
31300.98110487988
 20
7897.43286134842
 30
0.0
 11
31301.81443821321
 21
7897.43286134842
 31
0.0
 12
31301.39777154655
 22
7899.932861348421
 32
0.0
 13
31301.39777154655
 23
7899.932861348421
 33
0.0
  0
MTEXT
  5
16C2
330
648
100
AcDbEntity
  8
0
 62
     0
100
AcDbMText
 10
31299.52277154655
 20
5399.932861348484
 30
0.0
 40
2.5
 41
0.0
 71
     5
 72
     1
  1
5000
 11
0.0000000000000001
 21
1.0
 31
0.0
 73
     1
 44
1.0
  0
POINT
  5
16C3
330
648
100
AcDbEntity
  8
Defpoints
 62
     0
100
AcDbPoint
 10
37269.82564627478
 20
2899.932861348535
 30
0.0
  0
POINT
  5
16C4
330
648
100
AcDbEntity
  8
Defpoints
 62
     0
100
AcDbPoint
 10
37877.47220924035
 20
7899.932861348419
 30
0.0
  0
POINT
  5
16C5
330
648
100
AcDbEntity
  8
Defpoints
 62
     0
100
AcDbPoint
 10
31301.39777154655
 20
7899.932861348421
 30
0.0
  0
ENDBLK
  5
655
330
648
100
AcDbEntity
  8
0
100
AcDbBlockEnd
  0
BLOCK
  5
6D0
330
6C6
100
AcDbEntity
  8
0
100
AcDbBlockBegin
  2
*D9
 70
     1
 10
0.0
 20
0.0
 30
0.0
  3
*D9
  1

  0
LINE
  5
15CC
330
6C6
100
AcDbEntity
  8
0
 62
     0
370
    -2
100
AcDbLine
 10
71928.24400771827
 20
895.2367615478577
 30
0.0
 11
81161.93422962446
 21
895.2367615478552
 31
0.0
  0
LINE
  5
15CD
330
6C6
100
AcDbEntity
  8
0
 62
     0
370
    -2
100
AcDbLine
 10
72398.19822478201
 20
9895.236761547858
 30
0.0
 11
81161.93422962446
 21
9895.236761547856
 31
0.0
  0
LINE
  5
15CE
330
6C6
100
AcDbEntity
  8
0
 62
     0
370
    -2
100
AcDbLine
 10
81160.68422962445
 20
897.7367615478552
 30
0.0
 11
81160.68422962445
 21
9892.736761547856
 31
0.0
  0
SOLID
  5
15CF
330
6C6
100
AcDbEntity
  8
0
 62
     0
100
AcDbTrace
 10
81160.26756295779
 20
897.7367615478552
 30
0.0
 11
81161.10089629113
 21
897.7367615478552
 31
0.0
 12
81160.68422962445
 22
895.2367615478552
 32
0.0
 13
81160.68422962445
 23
895.2367615478552
 33
0.0
  0
SOLID
  5
15D0
330
6C6
100
AcDbEntity
  8
0
 62
     0
100
AcDbTrace
 10
81160.26756295779
 20
9892.736761547856
 30
0.0
 11
81161.10089629113
 21
9892.736761547856
 31
0.0
 12
81160.68422962445
 22
9895.236761547856
 32
0.0
 13
81160.68422962445
 23
9895.236761547856
 33
0.0
  0
MTEXT
  5
15D1
330
6C6
100
AcDbEntity
  8
0
 62
     0
100
AcDbMText
 10
81158.80922962446
 20
5390.438062723144
 30
0.0
 40
2.5
 41
0.0
 71
     5
 72
     1
  1
9000
 11
0.0000000000000001
 21
1.0
 31
0.0
 73
     1
 44
1.0
  0
POINT
  5
15D2
330
6C6
100
AcDbEntity
  8
Defpoints
 62
     0
100
AcDbPoint
 10
71927.61900771826
 20
895.2367615478577
 30
0.0
  0
POINT
  5
15D3
330
6C6
100
AcDbEntity
  8
Defpoints
 62
     0
100
AcDbPoint
 10
72397.57322478201
 20
9895.236761547858
 30
0.0
  0
POINT
  5
15D4
330
6C6
100
AcDbEntity
  8
Defpoints
 62
     0
100
AcDbPoint
 10
81160.68422962445
 20
9895.236761547856
 30
0.0
  0
ENDBLK
  5
6D1
330
6C6
100
AcDbEntity
  8
0
100
AcDbBlockEnd
  0
BLOCK
  5
848
330
83E
100
AcDbEntity
  8
0
100
AcDbBlockBegin
  2
*D10
 70
     1
 10
0.0
 20
0.0
 30
0.0
  3
*D10
  1

  0
LINE
  5
15C3
330
83E
100
AcDbEntity
  8
0
 62
     0
370
    -2
100
AcDbLine
 10
-47684.13156093854
 20
-8543.068696247297
 30
0.0
 11
-47684.13156093854
 21
-2822.864860801143
 31
0.0
  0
LINE
  5
15C4
330
83E
100
AcDbEntity
  8
0
 62
     0
370
    -2
100
AcDbLine
 10
-33684.13156093855
 20
-8215.346050286084
 30
0.0
 11
-33684.13156093855
 21
-2822.864860801143
 31
0.0
  0
LINE
  5
15C5
330
83E
100
AcDbEntity
  8
0
 62
     0
370
    -2
100
AcDbLine
 10
-47681.63156093855
 20
-2824.114860801143
 30
0.0
 11
-33686.63156093855
 21
-2824.114860801143
 31
0.0
  0
SOLID
  5
15C6
330
83E
100
AcDbEntity
  8
0
 62
     0
100
AcDbTrace
 10
-47681.63156093855
 20
-2823.698194134476
 30
0.0
 11
-47681.63156093855
 21
-2824.531527467809
 31
0.0
 12
-47684.13156093854
 22
-2824.114860801143
 32
0.0
 13
-47684.13156093854
 23
-2824.114860801143
 33
0.0
  0
SOLID
  5
15C7
330
83E
100
AcDbEntity
  8
0
 62
     0
100
AcDbTrace
 10
-33686.63156093855
 20
-2823.698194134476
 30
0.0
 11
-33686.63156093855
 21
-2824.531527467809
 31
0.0
 12
-33684.13156093855
 22
-2824.114860801143
 32
0.0
 13
-33684.13156093855
 23
-2824.114860801143
 33
0.0
  0
MTEXT
  5
15C8
330
83E
100
AcDbEntity
  8
0
 62
     0
100
AcDbMText
 10
-40684.13156093853
 20
-2822.239860801143
 30
0.0
 40
2.5
 41
0.0
 71
     5
 72
     1
  1
14000
 73
     1
 44
1.0
  0
POINT
  5
15C9
330
83E
100
AcDbEntity
  8
Defpoints
 62
     0
100
AcDbPoint
 10
-47684.13156093854
 20
-8543.693696247297
 30
0.0
  0
POINT
  5
15CA
330
83E
100
AcDbEntity
  8
Defpoints
 62
     0
100
AcDbPoint
 10
-33684.13156093855
 20
-8215.971050286084
 30
0.0
  0
POINT
  5
15CB
330
83E
100
AcDbEntity
  8
Defpoints
 62
     0
100
AcDbPoint
 10
-33684.13156093855
 20
-2824.114860801143
 30
0.0
  0
ENDBLK
  5
849
330
83E
100
AcDbEntity
  8
0
100
AcDbBlockEnd
  0
BLOCK
  5
862
330
856
100
AcDbEntity
  8
0
100
AcDbBlockBegin
  2
*D11
 70
     1
 10
0.0
 20
0.0
 30
0.0
  3
*D11
  1

  0
LINE
  5
15BA
330
856
100
AcDbEntity
  8
0
 62
     0
370
    -2
100
AcDbLine
 10
-49682.81085444799
 20
-10859.47743905976
 30
0.0
 11
-49682.81085444799
 21
-18192.98197836825
 31
0.0
  0
LINE
  5
15BB
330
856
100
AcDbEntity
  8
0
 62
     0
370
    -2
100
AcDbLine
 10
-47684.13156093854
 20
-10859.47743905976
 30
0.0
 11
-47684.13156093854
 21
-18192.98197836825
 31
0.0
  0
LINE
  5
15BC
330
856
100
AcDbEntity
  8
0
 62
     0
370
    -2
100
AcDbLine
 10
-49680.310854448
 20
-18191.73197836825
 30
0.0
 11
-47686.63156093856
 21
-18191.73197836825
 31
0.0
  0
SOLID
  5
15BD
330
856
100
AcDbEntity
  8
0
 62
     0
100
AcDbTrace
 10
-49680.310854448
 20
-18191.31531170158
 30
0.0
 11
-49680.310854448
 21
-18192.14864503491
 31
0.0
 12
-49682.81085444799
 22
-18191.73197836825
 32
0.0
 13
-49682.81085444799
 23
-18191.73197836825
 33
0.0
  0
SOLID
  5
15BE
330
856
100
AcDbEntity
  8
0
 62
     0
100
AcDbTrace
 10
-47686.63156093856
 20
-18191.31531170158
 30
0.0
 11
-47686.63156093856
 21
-18192.14864503491
 31
0.0
 12
-47684.13156093854
 22
-18191.73197836825
 32
0.0
 13
-47684.13156093854
 23
-18191.73197836825
 33
0.0
  0
MTEXT
  5
15BF
330
856
100
AcDbEntity
  8
0
 62
     0
100
AcDbMText
 10
-48683.47120769326
 20
-18189.64864503491
 30
0.0
 40
2.5
 41
0.0
 71
     5
 72
     1
  1
1998,68
 73
     1
 44
1.0
  0
POINT
  5
15C0
330
856
100
AcDbEntity
  8
Defpoints
 62
     0
100
AcDbPoint
 10
-49682.81085444799
 20
-10858.85243905976
 30
0.0
  0
POINT
  5
15C1
330
856
100
AcDbEntity
  8
Defpoints
 62
     0
100
AcDbPoint
 10
-47684.13156093854
 20
-10858.85243905976
 30
0.0
  0
POINT
  5
15C2
330
856
100
AcDbEntity
  8
Defpoints
 62
     0
100
AcDbPoint
 10
-47684.13156093854
 20
-18191.73197836825
 30
0.0
  0
ENDBLK
  5
863
330
856
100
AcDbEntity
  8
0
100
AcDbBlockEnd
  0
BLOCK
  5
93C
330
930
100
AcDbEntity
  8
0
100
AcDbBlockBegin
  2
*D12
 70
     1
 10
0.0
 20
0.0
 30
0.0
  3
*D12
  1

  0
LINE
  5
16B3
330
930
100
AcDbEntity
  8
0
 62
     0
370
    -2
100
AcDbLine
 10
-75330.93057351293
 20
4395.236761547896
 30
0.0
 11
-88131.97723899572
 21
4395.236761547899
 31
0.0
  0
LINE
  5
16B4
330
930
100
AcDbEntity
  8
0
 62
     0
370
    -2
100
AcDbLine
 10
-75330.93057351293
 20
6395.23676154813
 30
0.0
 11
-88131.97723899572
 21
6395.236761548133
 31
0.0
  0
LINE
  5
16B5
330
930
100
AcDbEntity
  8
0
 62
     0
370
    -2
100
AcDbLine
 10
-88130.72723899573
 20
6392.736761548134
 30
0.0
 11
-88130.72723899573
 21
4397.736761547899
 31
0.0
  0
LINE
  5
16B6
330
930
100
AcDbEntity
  8
0
 62
     0
370
    -2
100
AcDbLine
 10
-88130.72723899573
 20
4395.236761547899
 30
0.0
 11
-88130.72723899573
 21
-2067.679905118795
 31
0.0
  0
SOLID
  5
16B7
330
930
100
AcDbEntity
  8
0
 62
     0
100
AcDbTrace
 10
-88131.14390566243
 20
6392.736761548134
 30
0.0
 11
-88130.31057232906
 21
6392.736761548134
 31
0.0
 12
-88130.72723899573
 22
6395.236761548133
 32
0.0
 13
-88130.72723899573
 23
6395.236761548133
 33
0.0
  0
SOLID
  5
16B8
330
930
100
AcDbEntity
  8
0
 62
     0
100
AcDbTrace
 10
-88131.14390566243
 20
4397.736761547899
 30
0.0
 11
-88130.31057232906
 21
4397.736761547899
 31
0.0
 12
-88130.72723899573
 22
4395.236761547899
 32
0.0
 13
-88130.72723899573
 23
4395.236761547899
 33
0.0
  0
MTEXT
  5
16B9
330
930
100
AcDbEntity
  8
0
 62
     0
100
AcDbMText
 10
-88132.60223899574
 20
-2063.096571785476
 30
0.0
 40
2.5
 41
0.0
 71
     5
 72
     1
  1
2000
 11
0.0000000000000001
 21
1.0
 31
0.0
 73
     1
 44
1.0
  0
POINT
  5
16BA
330
930
100
AcDbEntity
  8
Defpoints
 62
     0
100
AcDbPoint
 10
-75330.30557351293
 20
4395.236761547896
 30
0.0
  0
POINT
  5
16BB
330
930
100
AcDbEntity
  8
Defpoints
 62
     0
100
AcDbPoint
 10
-75330.30557351293
 20
6395.23676154813
 30
0.0
  0
POINT
  5
16BC
330
930
100
AcDbEntity
  8
Defpoints
 62
     0
100
AcDbPoint
 10
-88130.72723899573
 20
6395.236761548133
 30
0.0
  0
ENDBLK
  5
93D
330
930
100
AcDbEntity
  8
0
100
AcDbBlockEnd
  0
BLOCK
  5
96E
330
964
100
AcDbEntity
  8
0
100
AcDbBlockBegin
  2
*D13
 70
     1
 10
0.0
 20
0.0
 30
0.0
  3
*D13
  1

  0
LINE
  5
16AA
330
964
100
AcDbEntity
  8
0
 62
     0
370
    -2
100
AcDbLine
 10
-76220.53103068187
 20
6395.236761547741
 30
0.0
 11
-88131.97723899559
 21
6395.236761547745
 31
0.0
  0
LINE
  5
16AB
330
964
100
AcDbEntity
  8
0
 62
     0
370
    -2
100
AcDbLine
 10
-74878.66195383161
 20
25395.23676154786
 30
0.0
 11
-88131.97723899559
 21
25395.23676154786
 31
0.0
  0
LINE
  5
16AC
330
964
100
AcDbEntity
  8
0
 62
     0
370
    -2
100
AcDbLine
 10
-88130.72723899557
 20
6397.736761547745
 30
0.0
 11
-88130.72723899557
 21
25392.73676154786
 31
0.0
  0
SOLID
  5
16AD
330
964
100
AcDbEntity
  8
0
 62
     0
100
AcDbTrace
 10
-88131.14390566227
 20
6397.736761547745
 30
0.0
 11
-88130.31057232892
 21
6397.736761547745
 31
0.0
 12
-88130.72723899557
 22
6395.236761547745
 32
0.0
 13
-88130.72723899557
 23
6395.236761547745
 33
0.0
  0
SOLID
  5
16AE
330
964
100
AcDbEntity
  8
0
 62
     0
100
AcDbTrace
 10
-88131.14390566227
 20
25392.73676154786
 30
0.0
 11
-88130.31057232892
 21
25392.73676154786
 31
0.0
 12
-88130.72723899557
 22
25395.23676154786
 32
0.0
 13
-88130.72723899557
 23
25395.23676154786
 33
0.0
  0
MTEXT
  5
16AF
330
964
100
AcDbEntity
  8
0
 62
     0
100
AcDbMText
 10
-88132.60223899559
 20
15895.23676154779
 30
0.0
 40
2.5
 41
0.0
 71
     5
 72
     1
  1
19000
 11
0.0000000000000001
 21
1.0
 31
0.0
 73
     1
 44
1.0
  0
POINT
  5
16B0
330
964
100
AcDbEntity
  8
Defpoints
 62
     0
100
AcDbPoint
 10
-76219.90603068184
 20
6395.236761547741
 30
0.0
  0
POINT
  5
16B1
330
964
100
AcDbEntity
  8
Defpoints
 62
     0
100
AcDbPoint
 10
-74878.03695383162
 20
25395.23676154786
 30
0.0
  0
POINT
  5
16B2
330
964
100
AcDbEntity
  8
Defpoints
 62
     0
100
AcDbPoint
 10
-88130.72723899557
 20
25395.23676154786
 30
0.0
  0
ENDBLK
  5
96F
330
964
100
AcDbEntity
  8
0
100
AcDbBlockEnd
  0
BLOCK
  5
A7B
330
A71
100
AcDbEntity
  8
0
100
AcDbBlockBegin
  2
*D14
 70
     1
 10
0.0
 20
0.0
 30
0.0
  3
*D14
  1

  0
LINE
  5
16A1
330
A71
100
AcDbEntity
  8
0
 62
     0
370
    -2
100
AcDbLine
 10
36322.18632242419
 20
3610.106683449505
 30
0.0
 11
36322.18632242419
 21
169.1967374283463
 31
0.0
  0
LINE
  5
16A2
330
A71
100
AcDbEntity
  8
0
 62
     0
370
    -2
100
AcDbLine
 10
71322.18632242441
 20
3372.845262223656
 30
0.0
 11
71322.18632242441
 21
169.1967374283463
 31
0.0
  0
LINE
  5
16A3
330
A71
100
AcDbEntity
  8
0
 62
     0
370
    -2
100
AcDbLine
 10
36324.68632242419
 20
170.4467374283463
 30
0.0
 11
71319.68632242442
 21
170.4467374283463
 31
0.0
  0
SOLID
  5
16A4
330
A71
100
AcDbEntity
  8
0
 62
     0
100
AcDbTrace
 10
36324.68632242419
 20
170.8634040950129
 30
0.0
 11
36324.68632242419
 21
170.0300707616795
 31
0.0
 12
36322.18632242419
 22
170.4467374283463
 32
0.0
 13
36322.18632242419
 23
170.4467374283463
 33
0.0
  0
SOLID
  5
16A5
330
A71
100
AcDbEntity
  8
0
 62
     0
100
AcDbTrace
 10
71319.68632242442
 20
170.8634040950129
 30
0.0
 11
71319.68632242442
 21
170.0300707616795
 31
0.0
 12
71322.18632242441
 22
170.4467374283463
 32
0.0
 13
71322.18632242441
 23
170.4467374283463
 33
0.0
  0
MTEXT
  5
16A6
330
A71
100
AcDbEntity
  8
0
 62
     0
100
AcDbMText
 10
53352.00185724461
 20
172.3217374283463
 30
0.0
 40
2.5
 41
0.0
 71
     5
 72
     1
  1
35000
 73
     1
 44
1.0
  0
POINT
  5
16A7
330
A71
100
AcDbEntity
  8
Defpoints
 62
     0
100
AcDbPoint
 10
36322.18632242419
 20
3610.731683449504
 30
0.0
  0
POINT
  5
16A8
330
A71
100
AcDbEntity
  8
Defpoints
 62
     0
100
AcDbPoint
 10
71322.18632242441
 20
3373.470262223656
 30
0.0
  0
POINT
  5
16A9
330
A71
100
AcDbEntity
  8
Defpoints
 62
     0
100
AcDbPoint
 10
71322.18632242441
 20
170.4467374283463
 30
0.0
  0
ENDBLK
  5
A7C
330
A71
100
AcDbEntity
  8
0
100
AcDbBlockEnd
  0
BLOCK
  5
AD3
330
AC9
100
AcDbEntity
  8
0
100
AcDbBlockBegin
  2
*D15
 70
     1
 10
0.0
 20
0.0
 30
0.0
  3
*D15
  1

  0
LINE
  5
1697
330
AC9
100
AcDbEntity
  8
0
 62
     0
370
    -2
100
AcDbLine
 10
-76437.85515489255
 20
895.2367615478959
 30
0.0
 11
-82234.61322540453
 21
895.2367615478973
 31
0.0
  0
LINE
  5
1698
330
AC9
100
AcDbEntity
  8
0
 62
     0
370
    -2
100
AcDbLine
 10
-76437.85515489255
 20
9895.236761547897
 30
0.0
 11
-82234.61322540453
 21
9895.2367615479
 31
0.0
  0
LINE
  5
1699
330
AC9
100
AcDbEntity
  8
0
 62
     0
370
    -2
100
AcDbLine
 10
-82233.36322540452
 20
897.7367615478971
 30
0.0
 11
-82233.36322540452
 21
9892.736761547901
 31
0.0
  0
LINE
  5
169A
330
AC9
100
AcDbEntity
  8
0
 62
     0
370
    -2
100
AcDbLine
 10
-82233.36322540452
 20
9895.2367615479
 30
0.0
 11
-82233.36322540452
 21
13858.15342821461
 31
0.0
  0
SOLID
  5
169B
330
AC9
100
AcDbEntity
  8
0
 62
     0
100
AcDbTrace
 10
-82233.77989207119
 20
897.7367615478971
 30
0.0
 11
-82232.94655873784
 21
897.7367615478971
 31
0.0
 12
-82233.36322540452
 22
895.2367615478973
 32
0.0
 13
-82233.36322540452
 23
895.2367615478973
 33
0.0
  0
SOLID
  5
169C
330
AC9
100
AcDbEntity
  8
0
 62
     0
100
AcDbTrace
 10
-82233.77989207119
 20
9892.736761547901
 30
0.0
 11
-82232.94655873784
 21
9892.736761547901
 31
0.0
 12
-82233.36322540452
 22
9895.2367615479
 32
0.0
 13
-82233.36322540452
 23
9895.2367615479
 33
0.0
  0
MTEXT
  5
169D
330
AC9
100
AcDbEntity
  8
0
 62
     0
100
AcDbMText
 10
-82235.23822540451
 20
13853.57009488127
 30
0.0
 40
2.5
 41
0.0
 71
     5
 72
     1
  1
9000
 11
0.0000000000000001
 21
1.0
 31
0.0
 73
     1
 44
1.0
  0
POINT
  5
169E
330
AC9
100
AcDbEntity
  8
Defpoints
 62
     0
100
AcDbPoint
 10
-76437.23015489254
 20
895.2367615478959
 30
0.0
  0
POINT
  5
169F
330
AC9
100
AcDbEntity
  8
Defpoints
 62
     0
100
AcDbPoint
 10
-76437.23015489254
 20
9895.236761547897
 30
0.0
  0
POINT
  5
16A0
330
AC9
100
AcDbEntity
  8
Defpoints
 62
     0
100
AcDbPoint
 10
-82233.36322540452
 20
9895.2367615479
 30
0.0
  0
ENDBLK
  5
AD4
330
AC9
100
AcDbEntity
  8
0
100
AcDbBlockEnd
  0
BLOCK
  5
B2B
330
B21
100
AcDbEntity
  8
0
100
AcDbBlockBegin
  2
*D16
 70
     1
 10
0.0
 20
0.0
 30
0.0
  3
*D16
  1

  0
LINE
  5
168E
330
B21
100
AcDbEntity
  8
0
 62
     0
370
    -2
100
AcDbLine
 10
-76681.42744182811
 20
-12338.555548512
 30
0.0
 11
-76681.42744182811
 21
-26590.29070193353
 31
0.0
  0
LINE
  5
168F
330
B21
100
AcDbEntity
  8
0
 62
     0
370
    -2
100
AcDbLine
 10
73318.572558172
 20
-12338.555548512
 30
0.0
 11
73318.572558172
 21
-26590.29070193353
 31
0.0
  0
LINE
  5
1690
330
B21
100
AcDbEntity
  8
0
 62
     0
370
    -2
100
AcDbLine
 10
-76678.92744182811
 20
-26589.04070193353
 30
0.0
 11
73316.072558172
 21
-26589.04070193353
 31
0.0
  0
SOLID
  5
1691
330
B21
100
AcDbEntity
  8
0
 62
     0
100
AcDbTrace
 10
-76678.92744182811
 20
-26588.62403526686
 30
0.0
 11
-76678.92744182811
 21
-26589.4573686002
 31
0.0
 12
-76681.42744182811
 22
-26589.04070193353
 32
0.0
 13
-76681.42744182811
 23
-26589.04070193353
 33
0.0
  0
SOLID
  5
1692
330
B21
100
AcDbEntity
  8
0
 62
     0
100
AcDbTrace
 10
73316.072558172
 20
-26588.62403526686
 30
0.0
 11
73316.072558172
 21
-26589.4573686002
 31
0.0
 12
73318.572558172
 22
-26589.04070193353
 32
0.0
 13
73318.572558172
 23
-26589.04070193353
 33
0.0
  0
MTEXT
  5
1693
330
B21
100
AcDbEntity
  8
0
 62
     0
100
AcDbMText
 10
-1681.427441828055
 20
-26587.16570193353
 30
0.0
 40
2.5
 41
0.0
 71
     5
 72
     1
  1
150000
 73
     1
 44
1.0
  0
POINT
  5
1694
330
B21
100
AcDbEntity
  8
Defpoints
 62
     0
100
AcDbPoint
 10
-76681.42744182811
 20
-12337.930548512
 30
0.0
  0
POINT
  5
1695
330
B21
100
AcDbEntity
  8
Defpoints
 62
     0
100
AcDbPoint
 10
73318.572558172
 20
-12337.930548512
 30
0.0
  0
POINT
  5
1696
330
B21
100
AcDbEntity
  8
Defpoints
 62
     0
100
AcDbPoint
 10
73318.572558172
 20
-26589.04070193353
 30
0.0
  0
ENDBLK
  5
B2C
330
B21
100
AcDbEntity
  8
0
100
AcDbBlockEnd
  0
BLOCK
  5
C48
330
C3C
100
AcDbEntity
  8
0
100
AcDbBlockBegin
  2
*D17
 70
     1
 10
0.0
 20
0.0
 30
0.0
  3
*D17
  1

  0
LINE
  5
1685
330
C3C
100
AcDbEntity
  8
0
 62
     0
370
    -2
100
AcDbLine
 10
10711.47145313595
 20
10395.54198078927
 30
0.0
 11
8706.587186570757
 21
10395.54198078927
 31
0.0
  0
LINE
  5
1686
330
C3C
100
AcDbEntity
  8
0
 62
     0
370
    -2
100
AcDbLine
 10
11255.91390280099
 20
15395.23676154774
 30
0.0
 11
8706.587186570759
 21
15395.23676154774
 31
0.0
  0
LINE
  5
1687
330
C3C
100
AcDbEntity
  8
0
 62
     0
370
    -2
100
AcDbLine
 10
8707.837186570758
 20
10398.04198078927
 30
0.0
 11
8707.83718657076
 21
15392.73676154774
 31
0.0
  0
SOLID
  5
1688
330
C3C
100
AcDbEntity
  8
0
 62
     0
100
AcDbTrace
 10
8707.420519904092
 20
10398.04198078927
 30
0.0
 11
8708.253853237424
 21
10398.04198078927
 31
0.0
 12
8707.837186570758
 22
10395.54198078927
 32
0.0
 13
8707.837186570758
 23
10395.54198078927
 33
0.0
  0
SOLID
  5
1689
330
C3C
100
AcDbEntity
  8
0
 62
     0
100
AcDbTrace
 10
8707.420519904093
 20
15392.73676154774
 30
0.0
 11
8708.253853237426
 21
15392.73676154774
 31
0.0
 12
8707.83718657076
 22
15395.23676154774
 32
0.0
 13
8707.83718657076
 23
15395.23676154774
 33
0.0
  0
MTEXT
  5
168A
330
C3C
100
AcDbEntity
  8
0
 62
     0
100
AcDbMText
 10
8705.753853237423
 20
12895.38937116851
 30
0.0
 40
2.5
 41
0.0
 71
     5
 72
     1
  1
4999,69
 11
0.0000000000000001
 21
1.0
 31
0.0
 73
     1
 44
1.0
  0
POINT
  5
168B
330
C3C
100
AcDbEntity
  8
Defpoints
 62
     0
100
AcDbPoint
 10
10712.09645313595
 20
10395.54198078927
 30
0.0
  0
POINT
  5
168C
330
C3C
100
AcDbEntity
  8
Defpoints
 62
     0
100
AcDbPoint
 10
11256.53890280099
 20
15395.23676154774
 30
0.0
  0
POINT
  5
168D
330
C3C
100
AcDbEntity
  8
Defpoints
 62
     0
100
AcDbPoint
 10
8707.83718657076
 20
15395.23676154774
 30
0.0
  0
ENDBLK
  5
C49
330
C3C
100
AcDbEntity
  8
0
100
AcDbBlockEnd
  0
BLOCK
  5
D75
330
D69
100
AcDbEntity
  8
0
100
AcDbBlockBegin
  2
*D18
 70
     1
 10
0.0
 20
0.0
 30
0.0
  3
*D18
  1

  0
LINE
  5
167C
330
D69
100
AcDbEntity
  8
0
 62
     0
370
    -2
100
AcDbLine
 10
10318.57255817173
 20
14539.52351323828
 30
0.0
 11
10318.57255817173
 21
19683.73334944468
 31
0.0
  0
LINE
  5
167D
330
D69
100
AcDbEntity
  8
0
 62
     0
370
    -2
100
AcDbLine
 10
13318.57255817173
 20
14539.52351323828
 30
0.0
 11
13318.57255817173
 21
19683.73334944468
 31
0.0
  0
LINE
  5
167E
330
D69
100
AcDbEntity
  8
0
 62
     0
370
    -2
100
AcDbLine
 10
10321.07255817173
 20
19682.48334944468
 30
0.0
 11
13316.07255817173
 21
19682.48334944468
 31
0.0
  0
SOLID
  5
167F
330
D69
100
AcDbEntity
  8
0
 62
     0
100
AcDbTrace
 10
10321.07255817173
 20
19682.90001611135
 30
0.0
 11
10321.07255817173
 21
19682.06668277801
 31
0.0
 12
10318.57255817173
 22
19682.48334944468
 32
0.0
 13
10318.57255817173
 23
19682.48334944468
 33
0.0
  0
SOLID
  5
1680
330
D69
100
AcDbEntity
  8
0
 62
     0
100
AcDbTrace
 10
13316.07255817173
 20
19682.90001611135
 30
0.0
 11
13316.07255817173
 21
19682.06668277801
 31
0.0
 12
13318.57255817173
 22
19682.48334944468
 32
0.0
 13
13318.57255817173
 23
19682.48334944468
 33
0.0
  0
MTEXT
  5
1681
330
D69
100
AcDbEntity
  8
0
 62
     0
100
AcDbMText
 10
11818.57255817173
 20
19684.35834944468
 30
0.0
 40
2.5
 41
0.0
 71
     5
 72
     1
  1
3000
 73
     1
 44
1.0
  0
POINT
  5
1682
330
D69
100
AcDbEntity
  8
Defpoints
 62
     0
100
AcDbPoint
 10
10318.57255817173
 20
14538.89851323828
 30
0.0
  0
POINT
  5
1683
330
D69
100
AcDbEntity
  8
Defpoints
 62
     0
100
AcDbPoint
 10
13318.57255817173
 20
14538.89851323828
 30
0.0
  0
POINT
  5
1684
330
D69
100
AcDbEntity
  8
Defpoints
 62
     0
100
AcDbPoint
 10
13318.57255817173
 20
19682.48334944468
 30
0.0
  0
ENDBLK
  5
D76
330
D69
100
AcDbEntity
  8
0
100
AcDbBlockEnd
  0
BLOCK
  5
D8F
330
D85
100
AcDbEntity
  8
0
100
AcDbBlockBegin
  2
*D19
 70
     1
 10
0.0
 20
0.0
 30
0.0
  3
*D19
  1

  0
LINE
  5
1673
330
D85
100
AcDbEntity
  8
0
 62
     0
370
    -2
100
AcDbLine
 10
-30728.8025751405
 20
15398.69631839684
 30
0.0
 11
-33219.25962029515
 21
15398.69631839684
 31
0.0
  0
LINE
  5
1674
330
D85
100
AcDbEntity
  8
0
 62
     0
370
    -2
100
AcDbLine
 10
-31176.47924961779
 20
25395.23676154787
 30
0.0
 11
-33219.25962029515
 21
25395.23676154787
 31
0.0
  0
LINE
  5
1675
330
D85
100
AcDbEntity
  8
0
 62
     0
370
    -2
100
AcDbLine
 10
-33218.00962029516
 20
15401.19631839685
 30
0.0
 11
-33218.00962029516
 21
25392.73676154787
 31
0.0
  0
SOLID
  5
1676
330
D85
100
AcDbEntity
  8
0
 62
     0
100
AcDbTrace
 10
-33218.42628696182
 20
15401.19631839685
 30
0.0
 11
-33217.59295362849
 21
15401.19631839685
 31
0.0
 12
-33218.00962029516
 22
15398.69631839684
 32
0.0
 13
-33218.00962029516
 23
15398.69631839684
 33
0.0
  0
SOLID
  5
1677
330
D85
100
AcDbEntity
  8
0
 62
     0
100
AcDbTrace
 10
-33218.42628696181
 20
25392.73676154787
 30
0.0
 11
-33217.59295362848
 21
25392.73676154787
 31
0.0
 12
-33218.00962029516
 22
25395.23676154787
 32
0.0
 13
-33218.00962029516
 23
25395.23676154787
 33
0.0
  0
MTEXT
  5
1678
330
D85
100
AcDbEntity
  8
0
 62
     0
100
AcDbMText
 10
-33220.09295362849
 20
20396.96653997236
 30
0.0
 40
2.5
 41
0.0
 71
     5
 72
     1
  1
9996,54
 11
0.0000000000000001
 21
1.0
 31
0.0
 73
     1
 44
1.0
  0
POINT
  5
1679
330
D85
100
AcDbEntity
  8
Defpoints
 62
     0
100
AcDbPoint
 10
-30728.1775751405
 20
15398.69631839684
 30
0.0
  0
POINT
  5
167A
330
D85
100
AcDbEntity
  8
Defpoints
 62
     0
100
AcDbPoint
 10
-31175.85424961779
 20
25395.23676154787
 30
0.0
  0
POINT
  5
167B
330
D85
100
AcDbEntity
  8
Defpoints
 62
     0
100
AcDbPoint
 10
-33218.00962029516
 20
25395.23676154787
 30
0.0
  0
ENDBLK
  5
D90
330
D85
100
AcDbEntity
  8
0
100
AcDbBlockEnd
  0
BLOCK
  5
E28
330
E1E
100
AcDbEntity
  8
0
100
AcDbBlockBegin
  2
*D20
 70
     1
 10
0.0
 20
0.0
 30
0.0
  3
*D20
  1

  0
LINE
  5
1567
330
E1E
100
AcDbEntity
  8
0
 62
     0
370
    -2
100
AcDbLine
 10
-70113.52685275028
 20
-2603.801692669978
 30
0.0
 11
-80417.9893583859
 21
-2603.801692669976
 31
0.0
  0
LINE
  5
1568
330
E1E
100
AcDbEntity
  8
0
 62
     0
370
    -2
100
AcDbLine
 10
-70113.52685275028
 20
-14603.80169266998
 30
0.0
 11
-80417.9893583859
 21
-14603.80169266997
 31
0.0
  0
LINE
  5
1569
330
E1E
100
AcDbEntity
  8
0
 62
     0
370
    -2
100
AcDbLine
 10
-80416.73935838591
 20
-2606.301692669976
 30
0.0
 11
-80416.73935838591
 21
-14601.30169266997
 31
0.0
  0
SOLID
  5
156A
330
E1E
100
AcDbEntity
  8
0
 62
     0
100
AcDbTrace
 10
-80417.15602505258
 20
-2606.301692669976
 30
0.0
 11
-80416.32269171921
 21
-2606.301692669976
 31
0.0
 12
-80416.73935838591
 22
-2603.801692669976
 32
0.0
 13
-80416.73935838591
 23
-2603.801692669976
 33
0.0
  0
SOLID
  5
156B
330
E1E
100
AcDbEntity
  8
0
 62
     0
100
AcDbTrace
 10
-80417.15602505258
 20
-14601.30169266997
 30
0.0
 11
-80416.32269171921
 21
-14601.30169266997
 31
0.0
 12
-80416.73935838591
 22
-14603.80169266997
 32
0.0
 13
-80416.73935838591
 23
-14603.80169266997
 33
0.0
  0
MTEXT
  5
156C
330
E1E
100
AcDbEntity
  8
0
 62
     0
100
AcDbMText
 10
-80418.61435838589
 20
-8603.801692669746
 30
0.0
 40
2.5
 41
0.0
 71
     5
 72
     1
  1
12000
 11
0.0000000000000001
 21
1.0
 31
0.0
 73
     1
 44
1.0
  0
POINT
  5
156D
330
E1E
100
AcDbEntity
  8
Defpoints
 62
     0
100
AcDbPoint
 10
-70112.90185275028
 20
-2603.801692669978
 30
0.0
  0
POINT
  5
156E
330
E1E
100
AcDbEntity
  8
Defpoints
 62
     0
100
AcDbPoint
 10
-70112.90185275028
 20
-14603.80169266998
 30
0.0
  0
POINT
  5
156F
330
E1E
100
AcDbEntity
  8
Defpoints
 62
     0
100
AcDbPoint
 10
-80416.73935838591
 20
-14603.80169266997
 30
0.0
  0
ENDBLK
  5
E29
330
E1E
100
AcDbEntity
  8
0
100
AcDbBlockEnd
  0
BLOCK
  5
FAA
330
F9E
100
AcDbEntity
  8
0
100
AcDbBlockBegin
  2
*D21
 70
     1
 10
0.0
 20
0.0
 30
0.0
  3
*D21
  1

  0
LINE
  5
1669
330
F9E
100
AcDbEntity
  8
0
 62
     0
370
    -2
100
AcDbLine
 10
9510.061894791311
 20
-11603.97731951182
 30
0.0
 11
7382.808152773292
 21
-11603.97731951182
 31
0.0
  0
LINE
  5
166A
330
F9E
100
AcDbEntity
  8
0
 62
     0
370
    -2
100
AcDbLine
 10
9510.061894791311
 20
-14604.76323845214
 30
0.0
 11
7382.808152773292
 21
-14604.76323845214
 31
0.0
  0
LINE
  5
166B
330
F9E
100
AcDbEntity
  8
0
 62
     0
370
    -2
100
AcDbLine
 10
7384.058152773292
 20
-11606.47731951182
 30
0.0
 11
7384.058152773291
 21
-14602.26323845214
 31
0.0
  0
LINE
  5
166C
330
F9E
100
AcDbEntity
  8
0
 62
     0
370
    -2
100
AcDbLine
 10
7384.058152773291
 20
-14604.76323845214
 30
0.0
 11
7384.058152773291
 21
-21070.80490511874
 31
0.0
  0
SOLID
  5
166D
330
F9E
100
AcDbEntity
  8
0
 62
     0
100
AcDbTrace
 10
7383.641486106625
 20
-11606.47731951182
 30
0.0
 11
7384.474819439958
 21
-11606.47731951182
 31
0.0
 12
7384.058152773292
 22
-11603.97731951182
 32
0.0
 13
7384.058152773292
 23
-11603.97731951182
 33
0.0
  0
SOLID
  5
166E
330
F9E
100
AcDbEntity
  8
0
 62
     0
100
AcDbTrace
 10
7383.641486106625
 20
-14602.26323845214
 30
0.0
 11
7384.474819439958
 21
-14602.26323845214
 31
0.0
 12
7384.058152773291
 22
-14604.76323845214
 32
0.0
 13
7384.058152773291
 23
-14604.76323845214
 33
0.0
  0
MTEXT
  5
166F
330
F9E
100
AcDbEntity
  8
0
 62
     0
100
AcDbMText
 10
7381.974819439959
 20
-21063.0965717854
 30
0.0
 40
2.5
 41
0.0
 71
     5
 72
     1
  1
3000,79
 11
0.0000000000000001
 21
1.0
 31
0.0
 73
     1
 44
1.0
  0
POINT
  5
1670
330
F9E
100
AcDbEntity
  8
Defpoints
 62
     0
100
AcDbPoint
 10
9510.686894791311
 20
-11603.97731951182
 30
0.0
  0
POINT
  5
1671
330
F9E
100
AcDbEntity
  8
Defpoints
 62
     0
100
AcDbPoint
 10
9510.686894791311
 20
-14604.76323845214
 30
0.0
  0
POINT
  5
1672
330
F9E
100
AcDbEntity
  8
Defpoints
 62
     0
100
AcDbPoint
 10
7384.058152773291
 20
-14604.76323845214
 30
0.0
  0
ENDBLK
  5
FAB
330
F9E
100
AcDbEntity
  8
0
100
AcDbBlockEnd
  0
BLOCK
  5
1006
330
FFA
100
AcDbEntity
  8
0
100
AcDbBlockBegin
  2
*D22
 70
     1
 10
0.0
 20
0.0
 30
0.0
  3
*D22
  1

  0
LINE
  5
1660
330
FFA
100
AcDbEntity
  8
0
 62
     0
370
    -2
100
AcDbLine
 10
68322.46192800952
 20
18742.05537583248
 30
0.0
 11
68322.46192800952
 21
21675.17730831064
 31
0.0
  0
LINE
  5
1661
330
FFA
100
AcDbEntity
  8
0
 62
     0
370
    -2
100
AcDbLine
 10
73318.57255817193
 20
18742.05537583248
 30
0.0
 11
73318.57255817193
 21
21675.17730831064
 31
0.0
  0
LINE
  5
1662
330
FFA
100
AcDbEntity
  8
0
 62
     0
370
    -2
100
AcDbLine
 10
68324.96192800952
 20
21673.92730831064
 30
0.0
 11
73316.07255817193
 21
21673.92730831064
 31
0.0
  0
SOLID
  5
1663
330
FFA
100
AcDbEntity
  8
0
 62
     0
100
AcDbTrace
 10
68324.96192800952
 20
21674.34397497731
 30
0.0
 11
68324.96192800952
 21
21673.51064164397
 31
0.0
 12
68322.46192800952
 22
21673.92730831064
 32
0.0
 13
68322.46192800952
 23
21673.92730831064
 33
0.0
  0
SOLID
  5
1664
330
FFA
100
AcDbEntity
  8
0
 62
     0
100
AcDbTrace
 10
73316.07255817193
 20
21674.34397497731
 30
0.0
 11
73316.07255817193
 21
21673.51064164397
 31
0.0
 12
73318.57255817193
 22
21673.92730831064
 32
0.0
 13
73318.57255817193
 23
21673.92730831064
 33
0.0
  0
MTEXT
  5
1665
330
FFA
100
AcDbEntity
  8
0
 62
     0
100
AcDbMText
 10
70820.51724309073
 20
21676.01064164398
 30
0.0
 40
2.5
 41
0.0
 71
     5
 72
     1
  1
4996,11
 73
     1
 44
1.0
  0
POINT
  5
1666
330
FFA
100
AcDbEntity
  8
Defpoints
 62
     0
100
AcDbPoint
 10
68322.46192800952
 20
18741.43037583248
 30
0.0
  0
POINT
  5
1667
330
FFA
100
AcDbEntity
  8
Defpoints
 62
     0
100
AcDbPoint
 10
73318.57255817193
 20
18741.43037583248
 30
0.0
  0
POINT
  5
1668
330
FFA
100
AcDbEntity
  8
Defpoints
 62
     0
100
AcDbPoint
 10
73318.57255817193
 20
21673.92730831064
 30
0.0
  0
ENDBLK
  5
1007
330
FFA
100
AcDbEntity
  8
0
100
AcDbBlockEnd
  0
BLOCK
  5
1022
330
1016
100
AcDbEntity
  8
0
100
AcDbBlockBegin
  2
*D23
 70
     1
 10
0.0
 20
0.0
 30
0.0
  3
*D23
  1

  0
LINE
  5
1656
330
1016
100
AcDbEntity
  8
0
 62
     0
370
    -2
100
AcDbLine
 10
32813.46414185196
 20
-11603.97731951182
 30
0.0
 11
24742.85085748692
 21
-11603.97731951181
 31
0.0
  0
LINE
  5
1657
330
1016
100
AcDbEntity
  8
0
 62
     0
370
    -2
100
AcDbLine
 10
32813.46414185196
 20
-14604.76323845214
 30
0.0
 11
24742.85085748692
 21
-14604.76323845214
 31
0.0
  0
LINE
  5
1658
330
1016
100
AcDbEntity
  8
0
 62
     0
370
    -2
100
AcDbLine
 10
24744.10085748691
 20
-11606.47731951181
 30
0.0
 11
24744.10085748691
 21
-14602.26323845214
 31
0.0
  0
LINE
  5
1659
330
1016
100
AcDbEntity
  8
0
 62
     0
370
    -2
100
AcDbLine
 10
24744.10085748691
 20
-14604.76323845214
 30
0.0
 11
24744.10085748691
 21
-21070.80490511874
 31
0.0
  0
SOLID
  5
165A
330
1016
100
AcDbEntity
  8
0
 62
     0
100
AcDbTrace
 10
24743.68419082025
 20
-11606.47731951181
 30
0.0
 11
24744.51752415359
 21
-11606.47731951181
 31
0.0
 12
24744.10085748691
 22
-11603.97731951181
 32
0.0
 13
24744.10085748691
 23
-11603.97731951181
 33
0.0
  0
SOLID
  5
165B
330
1016
100
AcDbEntity
  8
0
 62
     0
100
AcDbTrace
 10
24743.68419082025
 20
-14602.26323845214
 30
0.0
 11
24744.51752415359
 21
-14602.26323845214
 31
0.0
 12
24744.10085748691
 22
-14604.76323845214
 32
0.0
 13
24744.10085748691
 23
-14604.76323845214
 33
0.0
  0
MTEXT
  5
165C
330
1016
100
AcDbEntity
  8
0
 62
     0
100
AcDbMText
 10
24742.01752415359
 20
-21063.0965717854
 30
0.0
 40
2.5
 41
0.0
 71
     5
 72
     1
  1
3000,79
 11
0.0000000000000001
 21
1.0
 31
0.0
 73
     1
 44
1.0
  0
POINT
  5
165D
330
1016
100
AcDbEntity
  8
Defpoints
 62
     0
100
AcDbPoint
 10
32814.08914185196
 20
-11603.97731951182
 30
0.0
  0
POINT
  5
165E
330
1016
100
AcDbEntity
  8
Defpoints
 62
     0
100
AcDbPoint
 10
32814.08914185196
 20
-14604.76323845214
 30
0.0
  0
POINT
  5
165F
330
1016
100
AcDbEntity
  8
Defpoints
 62
     0
100
AcDbPoint
 10
24744.10085748691
 20
-14604.76323845214
 30
0.0
  0
ENDBLK
  5
1023
330
1016
100
AcDbEntity
  8
0
100
AcDbBlockEnd
  0
BLOCK
  5
1068
330
105E
100
AcDbEntity
  8
0
100
AcDbBlockBegin
  2
*D24
 70
     1
 10
0.0
 20
0.0
 30
0.0
  3
*D24
  1

  0
LINE
  5
164D
330
105E
100
AcDbEntity
  8
0
 62
     0
370
    -2
100
AcDbLine
 10
68322.46192800952
 20
-8411.139748324975
 30
0.0
 11
68322.46192800952
 21
-20056.65133825316
 31
0.0
  0
LINE
  5
164E
330
105E
100
AcDbEntity
  8
0
 62
     0
370
    -2
100
AcDbLine
 10
73318.57255817193
 20
-8411.139748324975
 30
0.0
 11
73318.57255817193
 21
-20056.65133825316
 31
0.0
  0
LINE
  5
164F
330
105E
100
AcDbEntity
  8
0
 62
     0
370
    -2
100
AcDbLine
 10
68324.96192800952
 20
-20055.40133825316
 30
0.0
 11
73316.07255817193
 21
-20055.40133825316
 31
0.0
  0
SOLID
  5
1650
330
105E
100
AcDbEntity
  8
0
 62
     0
100
AcDbTrace
 10
68324.96192800952
 20
-20054.98467158649
 30
0.0
 11
68324.96192800952
 21
-20055.81800491982
 31
0.0
 12
68322.46192800952
 22
-20055.40133825316
 32
0.0
 13
68322.46192800952
 23
-20055.40133825316
 33
0.0
  0
SOLID
  5
1651
330
105E
100
AcDbEntity
  8
0
 62
     0
100
AcDbTrace
 10
73316.07255817193
 20
-20054.98467158649
 30
0.0
 11
73316.07255817193
 21
-20055.81800491982
 31
0.0
 12
73318.57255817193
 22
-20055.40133825316
 32
0.0
 13
73318.57255817193
 23
-20055.40133825316
 33
0.0
  0
MTEXT
  5
1652
330
105E
100
AcDbEntity
  8
0
 62
     0
100
AcDbMText
 10
70820.51724309073
 20
-20053.31800491982
 30
0.0
 40
2.5
 41
0.0
 71
     5
 72
     1
  1
4996,11
 73
     1
 44
1.0
  0
POINT
  5
1653
330
105E
100
AcDbEntity
  8
Defpoints
 62
     0
100
AcDbPoint
 10
68322.46192800952
 20
-8410.514748324976
 30
0.0
  0
POINT
  5
1654
330
105E
100
AcDbEntity
  8
Defpoints
 62
     0
100
AcDbPoint
 10
73318.57255817193
 20
-8410.514748324976
 30
0.0
  0
POINT
  5
1655
330
105E
100
AcDbEntity
  8
Defpoints
 62
     0
100
AcDbPoint
 10
73318.57255817193
 20
-20055.40133825316
 30
0.0
  0
ENDBLK
  5
1069
330
105E
100
AcDbEntity
  8
0
100
AcDbBlockEnd
  0
BLOCK
  5
11B5
330
11AB
100
AcDbEntity
  8
0
100
AcDbBlockBegin
  2
*D25
 70
     1
 10
0.0
 20
0.0
 30
0.0
  3
*D25
  1

  0
LINE
  5
1644
330
11AB
100
AcDbEntity
  8
0
 62
     0
370
    -2
100
AcDbLine
 10
-76681.42744182811
 20
-13882.90765974151
 30
0.0
 11
-76681.42744182811
 21
-18974.93793897405
 31
0.0
  0
LINE
  5
1645
330
11AB
100
AcDbEntity
  8
0
 62
     0
370
    -2
100
AcDbLine
 10
-64681.42744182822
 20
-13647.49185299051
 30
0.0
 11
-64681.42744182822
 21
-18974.93793897405
 31
0.0
  0
LINE
  5
1646
330
11AB
100
AcDbEntity
  8
0
 62
     0
370
    -2
100
AcDbLine
 10
-76678.92744182811
 20
-18973.68793897405
 30
0.0
 11
-64683.92744182822
 21
-18973.68793897405
 31
0.0
  0
SOLID
  5
1647
330
11AB
100
AcDbEntity
  8
0
 62
     0
100
AcDbTrace
 10
-76678.92744182811
 20
-18973.27127230738
 30
0.0
 11
-76678.92744182811
 21
-18974.10460564072
 31
0.0
 12
-76681.42744182811
 22
-18973.68793897405
 32
0.0
 13
-76681.42744182811
 23
-18973.68793897405
 33
0.0
  0
SOLID
  5
1648
330
11AB
100
AcDbEntity
  8
0
 62
     0
100
AcDbTrace
 10
-64683.92744182822
 20
-18973.27127230738
 30
0.0
 11
-64683.92744182822
 21
-18974.10460564072
 31
0.0
 12
-64681.42744182822
 22
-18973.68793897405
 32
0.0
 13
-64681.42744182822
 23
-18973.68793897405
 33
0.0
  0
MTEXT
  5
1649
330
11AB
100
AcDbEntity
  8
0
 62
     0
100
AcDbMText
 10
-70681.42744182817
 20
-18971.81293897405
 30
0.0
 40
2.5
 41
0.0
 71
     5
 72
     1
  1
12000
 73
     1
 44
1.0
  0
POINT
  5
164A
330
11AB
100
AcDbEntity
  8
Defpoints
 62
     0
100
AcDbPoint
 10
-76681.42744182811
 20
-13882.28265974151
 30
0.0
  0
POINT
  5
164B
330
11AB
100
AcDbEntity
  8
Defpoints
 62
     0
100
AcDbPoint
 10
-64681.42744182822
 20
-13646.86685299051
 30
0.0
  0
POINT
  5
164C
330
11AB
100
AcDbEntity
  8
Defpoints
 62
     0
100
AcDbPoint
 10
-64681.42744182822
 20
-18973.68793897405
 30
0.0
  0
ENDBLK
  5
11B6
330
11AB
100
AcDbEntity
  8
0
100
AcDbBlockEnd
  0
BLOCK
  5
1251
330
1245
100
AcDbEntity
  8
0
100
AcDbBlockBegin
  2
*D26
 70
     1
 10
0.0
 20
0.0
 30
0.0
  3
*D26
  1

  0
LINE
  5
163A
330
1245
100
AcDbEntity
  8
0
 62
     0
370
    -2
100
AcDbLine
 10
-34049.67731671979
 20
-7604.519843875491
 30
0.0
 11
-30805.0517357377
 21
-7604.519843875491
 31
0.0
  0
LINE
  5
163B
330
1245
100
AcDbEntity
  8
0
 62
     0
370
    -2
100
AcDbLine
 10
-35218.48263288638
 20
-6604.763238452084
 30
0.0
 11
-30805.0517357377
 21
-6604.763238452085
 31
0.0
  0
LINE
  5
163C
330
1245
100
AcDbEntity
  8
0
 62
     0
370
    -2
100
AcDbLine
 10
-30806.3017357377
 20
-7602.019843875488
 30
0.0
 11
-30806.3017357377
 21
-6607.263238452084
 31
0.0
  0
LINE
  5
163D
330
1245
100
AcDbEntity
  8
0
 62
     0
370
    -2
100
AcDbLine
 10
-30806.3017357377
 20
-6604.763238452085
 30
0.0
 11
-30806.3017357377
 21
-556.0132384520009
 31
0.0
  0
SOLID
  5
163E
330
1245
100
AcDbEntity
  8
0
 62
     0
100
AcDbTrace
 10
-30806.71840240437
 20
-7602.019843875488
 30
0.0
 11
-30805.88506907103
 21
-7602.019843875488
 31
0.0
 12
-30806.3017357377
 22
-7604.519843875491
 32
0.0
 13
-30806.3017357377
 23
-7604.519843875491
 33
0.0
  0
SOLID
  5
163F
330
1245
100
AcDbEntity
  8
0
 62
     0
100
AcDbTrace
 10
-30806.71840240437
 20
-6607.263238452084
 30
0.0
 11
-30805.88506907103
 21
-6607.263238452084
 31
0.0
 12
-30806.3017357377
 22
-6604.763238452085
 32
0.0
 13
-30806.3017357377
 23
-6604.763238452085
 33
0.0
  0
MTEXT
  5
1640
330
1245
100
AcDbEntity
  8
0
 62
     0
100
AcDbMText
 10
-30808.38506907104
 20
-563.0965717853396
 30
0.0
 40
2.5
 41
0.0
 71
     5
 72
     1
  1
999,76
 11
0.0000000000000001
 21
1.0
 31
0.0
 73
     1
 44
1.0
  0
POINT
  5
1641
330
1245
100
AcDbEntity
  8
Defpoints
 62
     0
100
AcDbPoint
 10
-34050.30231671978
 20
-7604.519843875491
 30
0.0
  0
POINT
  5
1642
330
1245
100
AcDbEntity
  8
Defpoints
 62
     0
100
AcDbPoint
 10
-35219.10763288638
 20
-6604.763238452084
 30
0.0
  0
POINT
  5
1643
330
1245
100
AcDbEntity
  8
Defpoints
 62
     0
100
AcDbPoint
 10
-30806.3017357377
 20
-6604.763238452085
 30
0.0
  0
ENDBLK
  5
1252
330
1245
100
AcDbEntity
  8
0
100
AcDbBlockEnd
  0
BLOCK
  5
1297
330
128B
100
AcDbEntity
  8
0
100
AcDbBlockBegin
  2
*D27
 70
     1
 10
0.0
 20
0.0
 30
0.0
  3
*D27
  1

  0
LINE
  5
1630
330
128B
100
AcDbEntity
  8
0
 62
     0
370
    -2
100
AcDbLine
 10
-60733.96351817366
 20
-7604.519843875491
 30
0.0
 11
-62346.68571554927
 21
-7604.519843875491
 31
0.0
  0
LINE
  5
1631
330
128B
100
AcDbEntity
  8
0
 62
     0
370
    -2
100
AcDbLine
 10
-60416.11768526547
 20
-11604.5198438756
 30
0.0
 11
-62346.68571554927
 21
-11604.5198438756
 31
0.0
  0
LINE
  5
1632
330
128B
100
AcDbEntity
  8
0
 62
     0
370
    -2
100
AcDbLine
 10
-62345.43571554928
 20
-7607.019843875488
 30
0.0
 11
-62345.43571554928
 21
-11602.0198438756
 31
0.0
  0
LINE
  5
1633
330
128B
100
AcDbEntity
  8
0
 62
     0
370
    -2
100
AcDbLine
 10
-62345.43571554928
 20
-11604.5198438756
 30
0.0
 11
-62345.43571554928
 21
-20984.10317720893
 31
0.0
  0
SOLID
  5
1634
330
128B
100
AcDbEntity
  8
0
 62
     0
100
AcDbTrace
 10
-62345.85238221592
 20
-7607.019843875488
 30
0.0
 11
-62345.01904888261
 21
-7607.019843875488
 31
0.0
 12
-62345.43571554928
 22
-7604.519843875491
 32
0.0
 13
-62345.43571554928
 23
-7604.519843875491
 33
0.0
  0
SOLID
  5
1635
330
128B
100
AcDbEntity
  8
0
 62
     0
100
AcDbTrace
 10
-62345.85238221592
 20
-11602.0198438756
 30
0.0
 11
-62345.01904888261
 21
-11602.0198438756
 31
0.0
 12
-62345.43571554928
 22
-11604.5198438756
 32
0.0
 13
-62345.43571554928
 23
-11604.5198438756
 33
0.0
  0
MTEXT
  5
1636
330
128B
100
AcDbEntity
  8
0
 62
     0
100
AcDbMText
 10
-62347.31071554928
 20
-20979.5198438756
 30
0.0
 40
2.5
 41
0.0
 71
     5
 72
     1
  1
4000
 11
0.0000000000000001
 21
1.0
 31
0.0
 73
     1
 44
1.0
  0
POINT
  5
1637
330
128B
100
AcDbEntity
  8
Defpoints
 62
     0
100
AcDbPoint
 10
-60733.33851817365
 20
-7604.519843875491
 30
0.0
  0
POINT
  5
1638
330
128B
100
AcDbEntity
  8
Defpoints
 62
     0
100
AcDbPoint
 10
-60415.49268526547
 20
-11604.5198438756
 30
0.0
  0
POINT
  5
1639
330
128B
100
AcDbEntity
  8
Defpoints
 62
     0
100
AcDbPoint
 10
-62345.43571554928
 20
-11604.5198438756
 30
0.0
  0
ENDBLK
  5
1298
330
128B
100
AcDbEntity
  8
0
100
AcDbBlockEnd
  0
BLOCK
  5
1361
330
1355
100
AcDbEntity
  8
0
100
AcDbBlockBegin
  2
*D28
 70
     1
 10
0.0
 20
0.0
 30
0.0
  3
*D28
  1

  0
LINE
  5
1626
330
1355
100
AcDbEntity
  8
0
 62
     0
370
    -2
100
AcDbLine
 10
-36934.50632299803
 20
-14604.76323845222
 30
0.0
 11
-32384.35753846768
 21
-14604.76323845222
 31
0.0
  0
LINE
  5
1627
330
1355
100
AcDbEntity
  8
0
 62
     0
370
    -2
100
AcDbLine
 10
-36934.50632299815
 20
-11604.51984387562
 30
0.0
 11
-32384.35753846768
 21
-11604.51984387562
 31
0.0
  0
LINE
  5
1628
330
1355
100
AcDbEntity
  8
0
 62
     0
370
    -2
100
AcDbLine
 10
-32385.60753846769
 20
-11607.01984387562
 30
0.0
 11
-32385.60753846769
 21
-14602.26323845222
 31
0.0
  0
LINE
  5
1629
330
1355
100
AcDbEntity
  8
0
 62
     0
370
    -2
100
AcDbLine
 10
-32385.60753846769
 20
-14604.76323845222
 30
0.0
 11
-32385.60753846769
 21
-21070.80490511881
 31
0.0
  0
SOLID
  5
162A
330
1355
100
AcDbEntity
  8
0
 62
     0
100
AcDbTrace
 10
-32386.02420513435
 20
-11607.01984387562
 30
0.0
 11
-32385.19087180102
 21
-11607.01984387562
 31
0.0
 12
-32385.60753846769
 22
-11604.51984387562
 32
0.0
 13
-32385.60753846769
 23
-11604.51984387562
 33
0.0
  0
SOLID
  5
162B
330
1355
100
AcDbEntity
  8
0
 62
     0
100
AcDbTrace
 10
-32386.02420513435
 20
-14602.26323845222
 30
0.0
 11
-32385.19087180102
 21
-14602.26323845222
 31
0.0
 12
-32385.60753846769
 22
-14604.76323845222
 32
0.0
 13
-32385.60753846769
 23
-14604.76323845222
 33
0.0
  0
MTEXT
  5
162C
330
1355
100
AcDbEntity
  8
0
 62
     0
100
AcDbMText
 10
-32387.69087180101
 20
-21063.09657178548
 30
0.0
 40
2.5
 41
0.0
 71
     5
 72
     1
  1
3000,24
 11
0.0000000000000001
 21
1.0
 31
0.0
 73
     1
 44
1.0
  0
POINT
  5
162D
330
1355
100
AcDbEntity
  8
Defpoints
 62
     0
100
AcDbPoint
 10
-36935.13132299803
 20
-14604.76323845222
 30
0.0
  0
POINT
  5
162E
330
1355
100
AcDbEntity
  8
Defpoints
 62
     0
100
AcDbPoint
 10
-36935.13132299815
 20
-11604.51984387562
 30
0.0
  0
POINT
  5
162F
330
1355
100
AcDbEntity
  8
Defpoints
 62
     0
100
AcDbPoint
 10
-32385.60753846769
 20
-11604.51984387562
 30
0.0
  0
ENDBLK
  5
1362
330
1355
100
AcDbEntity
  8
0
100
AcDbBlockEnd
  0
BLOCK
  5
13BD
330
13B3
100
AcDbEntity
  8
0
100
AcDbBlockBegin
  2
*D29
 70
     1
 10
0.0
 20
0.0
 30
0.0
  3
*D29
  1

  0
LINE
  5
1511
330
13B3
100
AcDbEntity
  8
0
 62
     0
370
    -2
100
AcDbLine
 10
-66667.52148894494
 20
-6604.763238451909
 30
0.0
 11
-64680.17744182843
 21
-6604.763238451909
 31
0.0
  0
LINE
  5
1512
330
13B3
100
AcDbEntity
  8
0
 62
     0
370
    -2
100
AcDbLine
 10
-63472.21263270512
 20
4395.236761547858
 30
0.0
 11
-64682.67744182842
 21
4395.236761547859
 31
0.0
  0
LINE
  5
1513
330
13B3
100
AcDbEntity
  8
0
 62
     0
370
    -2
100
AcDbLine
 10
-64681.42744182841
 20
-6602.26323845191
 30
0.0
 11
-64681.42744182841
 21
4392.736761547857
 31
0.0
  0
SOLID
  5
1514
330
13B3
100
AcDbEntity
  8
0
 62
     0
100
AcDbTrace
 10
-64681.84410849509
 20
-6602.26323845191
 30
0.0
 11
-64681.01077516174
 21
-6602.26323845191
 31
0.0
 12
-64681.42744182841
 22
-6604.763238451909
 32
0.0
 13
-64681.42744182841
 23
-6604.763238451909
 33
0.0
  0
SOLID
  5
1515
330
13B3
100
AcDbEntity
  8
0
 62
     0
100
AcDbTrace
 10
-64681.84410849509
 20
4392.736761547857
 30
0.0
 11
-64681.01077516174
 21
4392.736761547857
 31
0.0
 12
-64681.42744182841
 22
4395.236761547859
 32
0.0
 13
-64681.42744182841
 23
4395.236761547859
 33
0.0
  0
MTEXT
  5
1516
330
13B3
100
AcDbEntity
  8
0
 62
     0
100
AcDbMText
 10
-64683.30244182841
 20
-1104.763238451909
 30
0.0
 40
2.5
 41
0.0
 71
     5
 72
     1
  1
11000
 11
0.0000000000000001
 21
1.0
 31
0.0
 73
     1
 44
1.0
  0
POINT
  5
1517
330
13B3
100
AcDbEntity
  8
Defpoints
 62
     0
100
AcDbPoint
 10
-66668.14648894494
 20
-6604.763238451909
 30
0.0
  0
POINT
  5
1518
330
13B3
100
AcDbEntity
  8
Defpoints
 62
     0
100
AcDbPoint
 10
-63471.58763270511
 20
4395.236761547858
 30
0.0
  0
POINT
  5
1519
330
13B3
100
AcDbEntity
  8
Defpoints
 62
     0
100
AcDbPoint
 10
-64681.42744182841
 20
4395.236761547859
 30
0.0
  0
ENDBLK
  5
13BE
330
13B3
100
AcDbEntity
  8
0
100
AcDbBlockEnd
  0
BLOCK
  5
14D3
330
14C9
100
AcDbEntity
  8
0
100
AcDbBlockBegin
  2
*D30
 70
     1
 10
0.0
 20
0.0
 30
0.0
  3
*D30
  1

  0
LINE
  5
161D
330
14C9
100
AcDbEntity
  8
0
 62
     0
370
    -2
100
AcDbLine
 10
-68681.42744182827
 20
-2603.176692669944
 30
0.0
 11
-68681.42744182827
 21
738.9324485148886
 31
0.0
  0
LINE
  5
161E
330
14C9
100
AcDbEntity
  8
0
 62
     0
370
    -2
100
AcDbLine
 10
-76681.42744182817
 20
-2603.176692669944
 30
0.0
 11
-76681.42744182817
 21
738.9324485148886
 31
0.0
  0
LINE
  5
161F
330
14C9
100
AcDbEntity
  8
0
 62
     0
370
    -2
100
AcDbLine
 10
-68683.92744182827
 20
737.6824485148886
 30
0.0
 11
-76678.92744182815
 21
737.6824485148886
 31
0.0
  0
SOLID
  5
1620
330
14C9
100
AcDbEntity
  8
0
 62
     0
100
AcDbTrace
 10
-68683.92744182827
 20
738.0991151815551
 30
0.0
 11
-68683.92744182827
 21
737.265781848222
 31
0.0
 12
-68681.42744182827
 22
737.6824485148886
 32
0.0
 13
-68681.42744182827
 23
737.6824485148886
 33
0.0
  0
SOLID
  5
1621
330
14C9
100
AcDbEntity
  8
0
 62
     0
100
AcDbTrace
 10
-76678.92744182815
 20
738.0991151815551
 30
0.0
 11
-76678.92744182815
 21
737.265781848222
 31
0.0
 12
-76681.42744182817
 22
737.6824485148886
 32
0.0
 13
-76681.42744182817
 23
737.6824485148886
 33
0.0
  0
MTEXT
  5
1622
330
14C9
100
AcDbEntity
  8
0
 62
     0
100
AcDbMText
 10
-72681.42744182823
 20
739.5574485148886
 30
0.0
 40
2.5
 41
0.0
 71
     5
 72
     1
  1
8000
 73
     1
 44
1.0
  0
POINT
  5
1623
330
14C9
100
AcDbEntity
  8
Defpoints
 62
     0
100
AcDbPoint
 10
-68681.42744182827
 20
-2603.801692669943
 30
0.0
  0
POINT
  5
1624
330
14C9
100
AcDbEntity
  8
Defpoints
 62
     0
100
AcDbPoint
 10
-76681.42744182817
 20
-2603.801692669943
 30
0.0
  0
POINT
  5
1625
330
14C9
100
AcDbEntity
  8
Defpoints
 62
     0
100
AcDbPoint
 10
-76681.42744182817
 20
737.6824485148886
 30
0.0
  0
ENDBLK
  5
14D4
330
14C9
100
AcDbEntity
  8
0
100
AcDbBlockEnd
  0
ENDSEC
  0
SECTION
  2
ENTITIES
  0
LINE
  5
87
102
{ACAD_REACTORS
330
C0
330
D9B
102
}
330
1F
100
AcDbEntity
  8
0
100
AcDbLine
 10
-76681.42744182811
 20
25395.2367615479
 30
0.0
 11
73318.57255817196
 21
25395.2367615479
 31
0.0
  0
LINE
  5
88
102
{ACAD_REACTORS
330
B37
330
1014
330
1074
102
}
330
1F
100
AcDbEntity
  8
0
100
AcDbLine
 10
73318.57255817196
 20
25395.2367615479
 30
0.0
 11
73318.57255817196
 21
-14604.76323845222
 31
0.0
  0
LINE
  5
89
102
{ACAD_REACTORS
330
C0
330
FB8
330
1030
330
136F
102
}
330
1F
100
AcDbEntity
  8
0
100
AcDbLine
 10
73318.57255817196
 20
-14604.76323845222
 30
0.0
 11
-76681.42744182811
 21
-14604.76323845222
 31
0.0
  0
LINE
  5
8A
102
{ACAD_REACTORS
330
B37
330
11C1
102
}
330
1F
100
AcDbEntity
  8
0
100
AcDbLine
 10
-76681.42744182811
 20
-14604.76323845222
 30
0.0
 11
-76681.42744182811
 21
25395.23676154813
 31
0.0
  0
LINE
  5
8B
102
{ACAD_REACTORS
330
D8
330
D83
102
}
330
1F
100
AcDbEntity
  8
0
100
AcDbLine
 10
13318.57255817173
 20
25395.2367615479
 30
0.0
 11
13318.57255817173
 21
-14604.76323845222
 31
0.0
  0
LINE
  5
8C
102
{ACAD_REACTORS
330
F0
102
}
330
1F
100
AcDbEntity
  8
0
100
AcDbLine
 10
-31681.42744182827
 20
25395.2367615479
 30
0.0
 11
-31681.42744182827
 21
-14604.76323845222
 31
0.0
  0
LINE
  5
8D
330
1F
100
AcDbEntity
  8
0
  6
CENTER2
 62
     3
100
AcDbLine
 10
73318.57255817196
 20
5395.236761547896
 30
0.0
 11
-76681.42744182811
 21
5395.236761547896
 31
0.0
  0
LINE
  5
8E
102
{ACAD_REACTORS
330
94A
330
97A
102
}
330
1F
100
AcDbEntity
  8
0
 62
     3
100
AcDbLine
 10
73318.57255817196
 20
6395.23676154778
 30
0.0
 11
-76681.42744182811
 21
6395.23676154778
 31
0.0
  0
LINE
  5
8F
102
{ACAD_REACTORS
330
94A
102
}
330
1F
100
AcDbEntity
  8
0
 62
     3
100
AcDbLine
 10
73318.57255817196
 20
4395.236761547896
 30
0.0
 11
-76681.42744182811
 21
4395.236761547896
 31
0.0
  0
DIMENSION
  5
A9
102
{ACAD_XDICTIONARY
360
B6
102
}
102
{ACAD_REACTORS
330
C0
102
}
330
1F
100
AcDbEntity
  8
0
100
AcDbDimension
  2
*D1
 10
-93817.83484471606
 20
-14604.76323845209
 30
0.0
 11
-93817.83484471606
 21
5395.23676154813
 31
0.0
 70
   160
 71
     5
 42
40000.0
  3
ISO-25
100
AcDbAlignedDimension
 13
-65396.66519923367
 23
25395.2367615479
 33
0.0
 14
-65396.66519923367
 24
-14604.7632384521
 34
0.0
 50
90.0
100
AcDbRotatedDimension
  0
DIMENSION
  5
C1
102
{ACAD_XDICTIONARY
360
CE
102
}
102
{ACAD_REACTORS
330
D8
102
}
330
1F
100
AcDbEntity
  8
0
100
AcDbDimension
  2
*D2
 10
73318.57255817193
 20
33872.17414721135
 30
0.0
 11
43318.57255817181
 21
33874.04914721135
 31
0.0
 70
    32
 71
     5
 42
60000.00000000019
  3
ISO-25
100
AcDbAlignedDimension
 13
13318.57255817173
 23
20513.90205960836
 33
0.0
 14
73318.57255817193
 24
20513.90205960826
 34
0.0
100
AcDbRotatedDimension
  0
DIMENSION
  5
D9
102
{ACAD_XDICTIONARY
360
E6
102
}
102
{ACAD_REACTORS
330
F0
102
}
330
1F
100
AcDbEntity
  8
0
100
AcDbDimension
  2
*D3
 10
13318.5725581717
 20
33872.17414721129
 30
0.0
 11
-9181.427441828303
 21
33874.04914721129
 31
0.0
 70
    32
 71
     5
 42
45000.0
  3
ISO-25
100
AcDbAlignedDimension
 13
-31681.4274418283
 23
19416.79021024436
 33
0.0
 14
13318.5725581717
 24
19416.79021024436
 34
0.0
100
AcDbRotatedDimension
  0
DIMENSION
  5
F1
330
1F
100
AcDbEntity
  8
0
100
AcDbDimension
  2
*D4
 10
-31681.4274418283
 20
33862.47161407502
 30
0.0
 11
-54181.42744182824
 21
33864.34661407502
 31
0.0
 70
    32
 71
     5
 42
44999.99999999988
  3
ISO-25
100
AcDbAlignedDimension
 13
-76681.42744182817
 23
20589.40628392831
 33
0.0
 14
-31681.4274418283
 24
20589.40628392831
 34
0.0
100
AcDbRotatedDimension
  0
LINE
  5
129
102
{ACAD_REACTORS
330
125F
102
}
330
1F
100
AcDbEntity
  8
0
100
AcDbLine
 10
-33684.13156093854
 20
-7604.519843875491
 30
0.0
 11
-47684.13156093854
 21
-7604.519843875491
 31
0.0
  0
LINE
  5
12A
102
{ACAD_REACTORS
330
136F
102
}
330
1F
100
AcDbEntity
  8
0
100
AcDbLine
 10
-47684.13156093854
 20
-11604.51984387549
 30
0.0
 11
-33684.13156093854
 21
-11604.51984387549
 31
0.0
  0
MTEXT
  5
12B
330
1F
100
AcDbEntity
  8
0
100
AcDbMText
 10
-41859.01623115083
 20
-8660.529886236764
 30
0.0
 40
1000.0
 41
3073.568313838327
 71
     1
 72
     5
  1
{\fSimSun|b0|i0|c134|p54;}
 73
     1
 44
1.0
  0
LINE
  5
12C
102
{ACAD_REACTORS
330
12A5
102
}
330
1F
100
AcDbEntity
  8
0
100
AcDbLine
 10
-49682.81085444797
 20
-7604.519843875491
 30
0.0
 11
-61682.81085444798
 21
-7604.519843875491
 31
0.0
  0
LINE
  5
12D
102
{ACAD_REACTORS
330
12A5
102
}
330
1F
100
AcDbEntity
  8
0
100
AcDbLine
 10
-61682.81085444798
 20
-11604.51984387549
 30
0.0
 11
-49682.81085444797
 21
-11604.51984387549
 31
0.0
  0
MTEXT
  5
12E
330
1F
100
AcDbEntity
  8
0
100
AcDbMText
 10
-57655.7777594499
 20
-8633.217823051499
 30
0.0
 40
1000.0
 41
9491.666666666665
 71
     1
 72
     5
  1
{\fSimSun|b0|i0|c134|p54;}
 73
     1
 44
1.0
  0
LINE
  5
12F
330
1F
100
AcDbEntity
  8
0
100
AcDbLine
 10
-47684.13156093854
 20
-7604.519843875491
 30
0.0
 11
-47684.13156093854
 21
-11604.51984387549
 31
0.0
  0
LINE
  5
130
102
{ACAD_REACTORS
330
163
102
}
330
1F
100
AcDbEntity
  8
0
100
AcDbLine
 10
-49682.81085444797
 20
-11604.51984387549
 30
0.0
 11
-49682.81085444797
 21
-7604.519843875491
 31
0.0
  0
LINE
  5
131
330
1F
100
AcDbEntity
  8
0
100
AcDbLine
 10
-33684.27145149686
 20
-11604.51984387549
 30
0.0
 11
-33684.27145149686
 21
-7604.519843875491
 31
0.0
  0
LINE
  5
133
102
{ACAD_REACTORS
330
163
102
}
330
1F
100
AcDbEntity
  8
0
100
AcDbLine
 10
-61682.81085444798
 20
-11604.51984387549
 30
0.0
 11
-61682.81085444798
 21
-7604.519843875491
 31
0.0
  0
DIMENSION
  5
14C
102
{ACAD_XDICTIONARY
360
159
102
}
102
{ACAD_REACTORS
330
163
102
}
330
1F
100
AcDbEntity
  8
0
100
AcDbDimension
  2
*D5
 10
-49682.81085444797
 20
-2824.114860801227
 30
0.0
 11
-55682.81085444832
 21
-2824.114860801227
 31
0.0
 70
   160
 71
     5
 42
12000.0
  3
ISO-25
100
AcDbAlignedDimension
 13
-61682.81085444798
 23
-8261.36340490842
 33
0.0
 14
-49682.81085444797
 24
-8261.36340490842
 34
0.0
100
AcDbRotatedDimension
  0
LWPOLYLINE
  5
244
330
1F
100
AcDbEntity
  8
0
100
AcDbPolyline
 90
        4
 70
     1
 43
0.0
 10
-71016.89092027862
 20
12531.06592839211
 10
-41016.8909202785
 20
12531.06592839211
 10
-41016.8909202785
 20
11931.06592839211
 10
-71016.89092027862
 20
11931.06592839211
  0
LWPOLYLINE
  5
245
330
1F
100
AcDbEntity
  8
0
100
AcDbPolyline
 90
        4
 70
     1
 43
0.0
 10
-71293.30686150241
 20
21458.57886765746
 10
-41293.3068615027
 20
21458.57886765746
 10
-41293.3068615027
 20
20858.57886765746
 10
-71293.30686150241
 20
20858.57886765746
  0
LWPOLYLINE
  5
246
330
1F
100
AcDbEntity
  8
0
100
AcDbPolyline
 90
        4
 70
     1
 43
0.0
 10
-67420.14989006023
 20
13181.660805822
 10
-63420.14989006019
 20
13181.660805822
 10
-63420.14989006019
 20
11181.66080582177
 10
-67420.14989006023
 20
11181.66080582177
  0
LWPOLYLINE
  5
247
330
1F
100
AcDbEntity
  8
0
100
AcDbPolyline
 90
        4
 70
     1
 43
0.0
 10
-61418.730891285
 20
13164.69457017199
 10
-57418.73089128487
 20
13164.69457017199
 10
-57418.73089128487
 20
11164.69457017199
 10
-61418.730891285
 20
11164.69457017199
  0
LWPOLYLINE
  5
248
330
1F
100
AcDbEntity
  8
0
100
AcDbPolyline
 90
        4
 70
     1
 43
0.0
 10
-61295.49099881365
 20
22112.94283641479
 10
-57295.49099881364
 20
22112.94283641479
 10
-57295.49099881364
 20
20112.94283641491
 10
-61295.49099881365
 20
20112.94283641491
  0
LWPOLYLINE
  5
249
330
1F
100
AcDbEntity
  8
0
100
AcDbPolyline
 90
        4
 70
     1
 43
0.0
 10
-67296.9099975893
 20
22129.90907206468
 10
-63296.90999758931
 20
22129.90907206468
 10
-63296.90999758931
 20
20129.90907206479
 10
-67296.9099975893
 20
20129.90907206479
  0
MTEXT
  5
24A
330
1F
100
AcDbEntity
  8
0
100
AcDbMText
 10
-73741.15130943904
 20
-5733.092665103963
 30
0.0
 40
1000.0
 41
3695.555555555556
 71
     1
 72
     5
  1
{\fSimSun|b0|i0|c134|p54;}
 73
     1
 44
1.0
  0
LWPOLYLINE
  5
28E
330
1F
100
AcDbEntity
  8
0
100
AcDbPolyline
 90
        4
 70
     1
 43
0.0
 10
-55294.07200003812
 20
22095.97660076478
 10
-51294.07200003812
 20
22095.97660076478
 10
-51294.07200003812
 20
20095.9766007649
 10
-55294.07200003812
 20
20095.9766007649
  0
LWPOLYLINE
  5
28F
330
1F
100
AcDbEntity
  8
0
100
AcDbPolyline
 90
        4
 70
     1
 43
0.0
 10
-49292.65300126257
 20
22079.0103651149
 10
-45292.65300126256
 20
22079.0103651149
 10
-45292.65300126256
 20
20079.0103651149
 10
-49292.65300126257
 20
20079.0103651149
  0
LWPOLYLINE
  5
290
330
1F
100
AcDbEntity
  8
0
100
AcDbPolyline
 90
        4
 70
     1
 43
0.0
 10
-49415.89289373379
 20
13130.76209887198
 10
-45415.8928937338
 20
13130.76209887198
 10
-45415.8928937338
 20
11130.76209887198
 10
-49415.89289373379
 20
11130.76209887198
  0
LWPOLYLINE
  5
291
330
1F
100
AcDbEntity
  8
0
100
AcDbPolyline
 90
        4
 70
     1
 43
0.0
 10
-55417.31189250945
 20
13147.72833452211
 10
-51417.31189250946
 20
13147.72833452211
 10
-51417.31189250946
 20
11147.72833452187
 10
-55417.31189250945
 20
11147.72833452187
  0
MTEXT
  5
471
330
1F
100
AcDbEntity
  8
0
100
AcDbMText
 10
-62787.5141398604
 20
18209.50095896888
 30
0.0
 40
2000.0
 41
18586.66666666666
 71
     1
 72
     5
  1
{\fSimSun|b0|i0|c134|p54;}
 73
     1
 44
1.0
  0
MTEXT
  5
472
330
1F
100
AcDbEntity
  8
0
100
AcDbMText
 10
-17182.08907117473
 20
13943.1429458129
 30
0.0
 40
2000.0
 41
14497.02869445874
 71
     1
 72
     5
  1
{\fSimSun|b0|i0|c134|p54;}
 73
     1
 44
1.0
  0
MTEXT
  5
480
330
1F
100
AcDbEntity
  8
0
100
AcDbMText
 10
-18675.56682288868
 20
24546.5633956471
 30
0.0
 40
2000.0
 41
23116.66666666667
 71
     1
 72
     5
  1
{\fSimSun|b0|i0|c134|p6;\fSimSun|b0|i0|c134|p54;}
 73
     1
 44
1.0
  0
LWPOLYLINE
  5
485
330
1F
100
AcDbEntity
  8
0
100
AcDbPolyline
 90
        4
 70
     1
 43
0.0
 10
-24838.72373213025
 20
18870.37670109793
 10
5161.276267869746
 20
18870.37670109793
 10
5161.276267869746
 20
18270.37670109793
 10
-24838.72373213025
 20
18270.37670109793
  0
LWPOLYLINE
  5
486
330
1F
100
AcDbEntity
  8
0
100
AcDbPolyline
 90
        4
 70
     1
 43
0.0
 10
-24838.60416480899
 20
20717.61173137452
 10
5161.395835190894
 20
20717.61173137452
 10
5161.395835190894
 20
20117.61173137452
 10
-24838.60416480899
 20
20117.61173137452
  0
LWPOLYLINE
  5
4B5
102
{ACAD_REACTORS
330
4E6
330
614
330
1014
102
}
330
1F
100
AcDbEntity
  8
0
100
AcDbPolyline
 90
        4
 70
     1
 43
0.0
 10
68322.46192800952
 20
11394.45084260753
 10
28322.46192800964
 20
11394.45084260753
 10
28322.46192800964
 20
20394.45084260754
 10
68322.46192800952
 20
20394.45084260754
  0
MTEXT
  5
4B6
330
1F
100
AcDbEntity
  8
0
100
AcDbMText
 10
41209.95583642098
 20
17763.62387419038
 30
0.0
 40
2000.0
 41
23116.66666666667
 71
     1
 72
     5
  1
{\fSimSun|b0|i0|c134|p6;\fSimSun|b0|i0|c134|p54;1}
 73
     1
 44
1.0
  0
DIMENSION
  5
4CF
102
{ACAD_XDICTIONARY
360
4DC
102
}
102
{ACAD_REACTORS
330
4E6
102
}
330
1F
100
AcDbEntity
  8
0
100
AcDbDimension
  2
*D6
 10
25820.66489815069
 20
20394.45084260754
 30
0.0
 11
25818.78989815069
 21
15894.45084260754
 31
0.0
 70
    32
 71
     5
 42
9000.0
  3
ISO-25
100
AcDbAlignedDimension
 13
29726.85035920385
 23
11394.45084260753
 33
0.0
 14
30527.78522001123
 24
20394.45084260754
 34
0.0
 50
90.0
100
AcDbRotatedDimension
  0
MTEXT
  5
50F
330
1F
100
AcDbEntity
  8
0
100
AcDbMText
 10
11514.32700882759
 20
15127.19490122888
 30
0.0
 40
500.0
 41
756.5217391304347
 71
     1
 72
     5
  1
{\fSimSun|b0|i0|c134|p54;}
 73
     1
 44
1.0
  0
LINE
  5
53E
102
{ACAD_REACTORS
330
C56
102
}
330
1F
100
AcDbEntity
  8
0
100
AcDbLine
 10
13318.57255817173
 20
10395.54198078935
 30
0.0
 11
10318.57255817173
 21
10395.54198078935
 31
0.0
  0
LINE
  5
53F
102
{ACAD_REACTORS
330
D83
102
}
330
1F
100
AcDbEntity
  8
0
100
AcDbLine
 10
10318.57255817173
 20
10395.54198078935
 30
0.0
 11
10318.57255817173
 21
15395.54198078935
 31
0.0
  0
DIMENSION
  5
5FD
102
{ACAD_XDICTIONARY
360
60A
102
}
102
{ACAD_REACTORS
330
614
102
}
330
1F
100
AcDbEntity
  8
0
100
AcDbDimension
  2
*D7
 10
68322.46192800952
 20
21673.9273083106
 30
0.0
 11
48322.46192800957
 21
21675.8023083106
 31
0.0
 70
    32
 71
     5
 42
39999.99999999988
  3
ISO-25
100
AcDbAlignedDimension
 13
28322.46192800964
 23
18916.83024391377
 33
0.0
 14
68322.46192800952
 24
18916.83024391377
 34
0.0
100
AcDbRotatedDimension
  0
LINE
  5
61E
102
{ACAD_REACTORS
330
662
102
}
330
1F
100
AcDbEntity
  8
0
 62
     6
100
AcDbLine
 10
71322.18632242418
 20
2899.932861348535
 30
0.0
 11
36322.18632242419
 21
2899.932861348535
 31
0.0
  0
LINE
  5
620
102
{ACAD_REACTORS
330
A87
102
}
330
1F
100
AcDbEntity
  8
0
 62
     6
100
AcDbLine
 10
36322.18632242419
 20
2899.932861348535
 30
0.0
 11
36322.18632242419
 21
7899.932861348538
 31
0.0
  0
LINE
  5
621
102
{ACAD_REACTORS
330
662
102
}
330
1F
100
AcDbEntity
  8
0
 62
     6
100
AcDbLine
 10
36322.18632242419
 20
7899.932861348538
 30
0.0
 11
71322.18632242418
 21
7899.932861348538
 31
0.0
  0
LINE
  5
622
102
{ACAD_REACTORS
330
A87
102
}
330
1F
100
AcDbEntity
  8
0
 62
     6
100
AcDbLine
 10
71322.18632242418
 20
7899.932861348538
 30
0.0
 11
71322.18632242418
 21
2899.932861348535
 31
0.0
  0
MTEXT
  5
623
330
1F
100
AcDbEntity
  8
0
100
AcDbMText
 10
45862.94330948556
 20
6852.27537462255
 30
0.0
 40
2000.0
 41
23116.66666666667
 71
     1
 72
     5
  1
{\fSimSun|b0|i0|c134|p54;}
 73
     1
 44
1.0
  0
DIMENSION
  5
647
102
{ACAD_XDICTIONARY
360
656
102
}
102
{ACAD_REACTORS
330
662
102
}
330
1F
100
AcDbEntity
  8
0
100
AcDbDimension
  2
*D8
 10
31301.39777154655
 20
7899.932861348421
 30
0.0
 11
31299.52277154655
 21
5399.932861348484
 31
0.0
 70
    32
 71
     5
 42
4999.999999999882
  3
ISO-25
100
AcDbAlignedDimension
 13
37269.82564627478
 23
2899.932861348535
 33
0.0
 14
37877.47220924035
 24
7899.932861348419
 34
0.0
 50
90.0
100
AcDbRotatedDimension
  0
MTEXT
  5
6C2
330
1F
100
AcDbEntity
  8
0
100
AcDbMText
 10
41209.95583642098
 20
-6973.150351094663
 30
0.0
 40
2000.0
 41
23116.66666666667
 71
     7
 72
     5
  1
{\fSimSun|b0|i0|c134|p6;\fSimSun|b0|i0|c134|p54;2}
 73
     1
 44
1.0
  0
LWPOLYLINE
  5
6C3
102
{ACAD_REACTORS
330
1030
330
1074
102
}
330
1F
100
AcDbEntity
  8
0
100
AcDbPolyline
 90
        4
 70
     1
 43
0.0
 10
68322.46192800952
 20
-2603.977319511818
 10
28322.46192800964
 20
-2603.977319511818
 10
28322.46192800964
 20
-11603.97731951182
 10
68322.46192800952
 20
-11603.97731951182
  0
DIMENSION
  5
6C5
330
1F
100
AcDbEntity
  8
0
100
AcDbDimension
  2
*D9
 10
81160.68422962445
 20
9895.236761547856
 30
0.0
 11
81160.68422962445
 21
5390.438062723144
 31
0.0
 70
   160
 71
     5
 42
9000.0
  3
ISO-25
100
AcDbAlignedDimension
 13
71927.61900771826
 23
895.2367615478577
 33
0.0
 14
72397.57322478201
 24
9895.236761547858
 34
0.0
 50
90.0
100
AcDbRotatedDimension
  0
MTEXT
  5
6E6
330
1F
100
AcDbEntity
  8
0
100
AcDbMText
 10
74425.43466871986
 20
8678.510040051653
 30
0.0
 40
2000.0
 41
2711.111111111112
 71
     1
 72
     5
  1
{\fSimSun|b0|i0|c134|p54;}
 73
     1
 44
1.0
  0
LINE
  5
722
330
1F
100
AcDbEntity
  8
0
 62
     2
100
AcDbLine
 10
-70997.3323668091
 20
-14604.7632384521
 30
0.0
 11
-74997.3323668091
 21
25395.23676154813
 31
0.0
  0
LINE
  5
723
330
1F
100
AcDbEntity
  8
0
 62
     2
100
AcDbLine
 10
-70997.3323668091
 20
25395.23676154813
 30
0.0
 11
-74997.3323668091
 21
-14604.7632384521
 31
0.0
  0
LINE
  5
724
330
1F
100
AcDbEntity
  8
0
 62
     2
100
AcDbLine
 10
-70997.3323668091
 20
25395.23676154813
 30
0.0
 11
-70997.3323668091
 21
-14604.7632384521
 31
0.0
  0
LINE
  5
725
330
1F
100
AcDbEntity
  8
0
 62
     2
100
AcDbLine
 10
-74997.3323668091
 20
25395.23676154813
 30
0.0
 11
-74997.3323668091
 21
-14604.7632384521
 31
0.0
  0
LINE
  5
726
330
1F
100
AcDbEntity
  8
0
 62
     2
100
AcDbLine
 10
-74997.3323668091
 20
-14604.7632384521
 30
0.0
 11
-70997.3323668091
 21
-14604.7632384521
 31
0.0
  0
MTEXT
  5
727
330
1F
100
AcDbEntity
  8
0
 62
     1
100
AcDbMText
 10
-73899.12783460936
 20
9879.739517550332
 30
0.0
 40
1000.0
 41
2360.745498999952
 71
     1
 72
     5
  1
{\fTimes New Roman|b0|i0|c0|p18;10T}
 73
     1
 44
1.0
  0
LINE
  5
728
330
1F
100
AcDbEntity
  8
0
 62
     2
100
AcDbLine
 10
-74997.3323668091
 20
25395.23676154813
 30
0.0
 11
-70997.3323668091
 21
25395.23676154813
 31
0.0
  0
LINE
  5
734
330
1F
100
AcDbEntity
  8
0
 62
     2
100
AcDbLine
 10
19988.55896096703
 20
-14604.76323845222
 30
0.0
 11
15988.55896096703
 21
25395.2367615479
 31
0.0
  0
LINE
  5
735
330
1F
100
AcDbEntity
  8
0
 62
     2
100
AcDbLine
 10
19988.55896096703
 20
25395.2367615479
 30
0.0
 11
15988.55896096703
 21
-14604.76323845222
 31
0.0
  0
LINE
  5
736
330
1F
100
AcDbEntity
  8
0
 62
     2
100
AcDbLine
 10
19988.55896096703
 20
25395.2367615479
 30
0.0
 11
19988.55896096703
 21
-14604.76323845222
 31
0.0
  0
LINE
  5
737
330
1F
100
AcDbEntity
  8
0
 62
     2
100
AcDbLine
 10
15988.55896096703
 20
25395.2367615479
 30
0.0
 11
15988.55896096703
 21
-14604.76323845222
 31
0.0
  0
LINE
  5
738
330
1F
100
AcDbEntity
  8
0
 62
     2
100
AcDbLine
 10
15988.55896096703
 20
-14604.76323845222
 30
0.0
 11
19988.55896096703
 21
-14604.76323845222
 31
0.0
  0
MTEXT
  5
739
330
1F
100
AcDbEntity
  8
0
 62
     1
100
AcDbMText
 10
17086.76349316677
 20
9879.739517550332
 30
0.0
 40
1000.0
 41
2360.745498999952
 71
     1
 72
     5
  1
{\fTimes New Roman|b0|i0|c0|p18;30T}
 73
     1
 44
1.0
  0
LINE
  5
73A
330
1F
100
AcDbEntity
  8
0
 62
     2
100
AcDbLine
 10
15988.55896096703
 20
25395.2367615479
 30
0.0
 11
19988.55896096703
 21
25395.2367615479
 31
0.0
  0
LINE
  5
746
330
1F
100
AcDbEntity
  8
0
 62
     2
100
AcDbLine
 10
-24164.764263573
 20
-14604.7632384521
 30
0.0
 11
-28164.76426357311
 21
25395.23676154813
 31
0.0
  0
LINE
  5
747
330
1F
100
AcDbEntity
  8
0
 62
     2
100
AcDbLine
 10
-24164.764263573
 20
25395.23676154813
 30
0.0
 11
-28164.76426357311
 21
-14604.7632384521
 31
0.0
  0
LINE
  5
748
330
1F
100
AcDbEntity
  8
0
 62
     2
100
AcDbLine
 10
-24164.764263573
 20
25395.23676154813
 30
0.0
 11
-24164.764263573
 21
-14604.7632384521
 31
0.0
  0
LINE
  5
749
330
1F
100
AcDbEntity
  8
0
 62
     2
100
AcDbLine
 10
-28164.76426357311
 20
25395.23676154813
 30
0.0
 11
-28164.76426357311
 21
-14604.7632384521
 31
0.0
  0
LINE
  5
74A
330
1F
100
AcDbEntity
  8
0
 62
     2
100
AcDbLine
 10
-28164.76426357311
 20
-14604.7632384521
 30
0.0
 11
-24164.764263573
 21
-14604.7632384521
 31
0.0
  0
MTEXT
  5
74B
330
1F
100
AcDbEntity
  8
0
 62
     1
100
AcDbMText
 10
-27066.55973137321
 20
9879.739517550332
 30
0.0
 40
1000.0
 41
2360.745498999952
 71
     1
 72
     5
  1
{\fTimes New Roman|b0|i0|c0|p18;30T}
 73
     1
 44
1.0
  0
LINE
  5
74C
330
1F
100
AcDbEntity
  8
0
 62
     2
100
AcDbLine
 10
-28164.76426357311
 20
25395.23676154813
 30
0.0
 11
-24164.764263573
 21
25395.23676154813
 31
0.0
  0
MTEXT
  5
76B
330
1F
100
AcDbEntity
  8
0
100
AcDbMText
 10
-55564.98118511226
 20
3552.064908254311
 30
0.0
 40
2000.0
 41
12854.0758332972
 71
     1
 72
     5
  1
{\fSimSun|b0|i0|c134|p54;}
 73
     1
 44
1.0
  0
DIMENSION
  5
83D
330
1F
100
AcDbEntity
  8
0
100
AcDbDimension
  2
*D10
 10
-33684.13156093855
 20
-2824.114860801143
 30
0.0
 11
-40684.13156093853
 21
-2824.114860801143
 31
0.0
 70
   160
 71
     5
 42
14000.0
  3
ISO-25
100
AcDbAlignedDimension
 13
-47684.13156093854
 23
-8543.693696247297
 33
0.0
 14
-33684.13156093855
 24
-8215.971050286084
 34
0.0
100
AcDbRotatedDimension
  0
DIMENSION
  5
855
330
1F
100
AcDbEntity
  8
0
100
AcDbDimension
  2
*D11
 10
-47684.13156093854
 20
-18191.73197836825
 30
0.0
 11
-48683.47120769326
 21
-18189.64864503491
 31
0.0
 70
    32
 71
     5
 42
1998.679293509456
  3
ISO-25
100
AcDbAlignedDimension
 13
-49682.81085444799
 23
-10858.85243905976
 33
0.0
 14
-47684.13156093854
 24
-10858.85243905976
 34
0.0
100
AcDbRotatedDimension
  0
DIMENSION
  5
92F
102
{ACAD_XDICTIONARY
360
93E
102
}
102
{ACAD_REACTORS
330
94A
102
}
330
1F
100
AcDbEntity
  8
0
100
AcDbDimension
  2
*D12
 10
-88130.72723899573
 20
6395.236761548133
 30
0.0
 11
-88130.72723899573
 21
-2063.096571785476
 31
0.0
 70
   160
 71
     5
 42
2000.000000000233
  3
ISO-25
100
AcDbAlignedDimension
 13
-75330.30557351293
 23
4395.236761547896
 33
0.0
 14
-75330.30557351293
 24
6395.23676154813
 34
0.0
 50
90.0
100
AcDbRotatedDimension
  0
DIMENSION
  5
963
102
{ACAD_XDICTIONARY
360
970
102
}
102
{ACAD_REACTORS
330
97A
102
}
330
1F
100
AcDbEntity
  8
0
100
AcDbDimension
  2
*D13
 10
-88130.72723899557
 20
25395.23676154786
 30
0.0
 11
-88132.60223899559
 21
15895.23676154779
 31
0.0
 70
    32
 71
     5
 42
19000.00000000011
  3
ISO-25
100
AcDbAlignedDimension
 13
-76219.90603068184
 23
6395.236761547741
 33
0.0
 14
-74878.03695383162
 24
25395.23676154786
 34
0.0
 50
90.0
100
AcDbRotatedDimension
  0
DIMENSION
  5
A70
102
{ACAD_XDICTIONARY
360
A7D
102
}
102
{ACAD_REACTORS
330
A87
102
}
330
1F
100
AcDbEntity
  8
0
100
AcDbDimension
  2
*D14
 10
71322.18632242441
 20
170.4467374283463
 30
0.0
 11
53352.00185724461
 21
170.4467374283463
 31
0.0
 70
   160
 71
     5
 42
35000.00000000023
  3
ISO-25
100
AcDbAlignedDimension
 13
36322.18632242419
 23
3610.731683449504
 33
0.0
 14
71322.18632242441
 24
3373.470262223656
 34
0.0
100
AcDbRotatedDimension
  0
LINE
  5
A9C
330
1F
100
AcDbEntity
  8
0
100
AcDbLine
 10
73318.57255817196
 20
895.2367615478959
 30
0.0
 11
72318.57255817173
 21
895.2367615478959
 31
0.0
  0
LINE
  5
A9D
330
1F
100
AcDbEntity
  8
0
100
AcDbLine
 10
72318.57255817173
 20
895.2367615478959
 30
0.0
 11
72318.57255817173
 21
9895.236761547897
 31
0.0
  0
LINE
  5
A9E
330
1F
100
AcDbEntity
  8
0
100
AcDbLine
 10
72318.57255817173
 20
9895.236761547897
 30
0.0
 11
73318.57255817196
 21
9895.236761547897
 31
0.0
  0
LINE
  5
A9F
330
1F
100
AcDbEntity
  8
0
100
AcDbLine
 10
-75681.42744182804
 20
895.2367615478959
 30
0.0
 11
-75681.42744182804
 21
9895.236761547897
 31
0.0
  0
LINE
  5
AA0
102
{ACAD_REACTORS
330
ADF
102
}
330
1F
100
AcDbEntity
  8
0
100
AcDbLine
 10
-75681.42744182804
 20
895.2367615478959
 30
0.0
 11
-76681.42744182811
 21
895.2367615478959
 31
0.0
  0
LINE
  5
AA1
102
{ACAD_REACTORS
330
ADF
102
}
330
1F
100
AcDbEntity
  8
0
100
AcDbLine
 10
-75681.42744182804
 20
9895.236761547897
 30
0.0
 11
-76681.42744182811
 21
9895.236761547897
 31
0.0
  0
DIMENSION
  5
AC8
102
{ACAD_XDICTIONARY
360
AD5
102
}
102
{ACAD_REACTORS
330
ADF
102
}
330
1F
100
AcDbEntity
  8
0
100
AcDbDimension
  2
*D15
 10
-82233.36322540452
 20
9895.2367615479
 30
0.0
 11
-82233.36322540452
 21
13853.57009488127
 31
0.0
 70
   160
 71
     5
 42
9000.000000000001
  3
ISO-25
100
AcDbAlignedDimension
 13
-76437.23015489254
 23
895.2367615478959
 33
0.0
 14
-76437.23015489254
 24
9895.236761547897
 34
0.0
 50
90.0
100
AcDbRotatedDimension
  0
MTEXT
  5
AF8
330
1F
100
AcDbEntity
  8
0
100
AcDbMText
 10
-80498.87956523372
 20
8678.510040051653
 30
0.0
 40
2000.0
 41
2711.111111111112
 71
     1
 72
     5
  1
{\fSimSun|b0|i0|c134|p54;}
 73
     1
 44
1.0
  0
DIMENSION
  5
B20
102
{ACAD_XDICTIONARY
360
B2D
102
}
102
{ACAD_REACTORS
330
B37
102
}
330
1F
100
AcDbEntity
  8
0
100
AcDbDimension
  2
*D16
 10
73318.572558172
 20
-26589.04070193353
 30
0.0
 11
-1681.427441828055
 21
-26587.16570193353
 31
0.0
 70
    32
 71
     5
 42
150000.0000000001
  3
ISO-25
100
AcDbAlignedDimension
 13
-76681.42744182811
 23
-12337.930548512
 33
0.0
 14
73318.572558172
 24
-12337.930548512
 34
0.0
100
AcDbRotatedDimension
  0
MTEXT
  5
B92
330
1F
100
AcDbEntity
  8
0
100
AcDbMText
 10
-52643.91488302218
 20
-11560.40158948314
 30
0.0
 40
2000.0
 41
12854.0758332972
 71
     1
 72
     5
  1
{\fSimSun|b0|i0|c134|p54;}
 73
     1
 44
1.0
  0
DIMENSION
  5
C3B
102
{ACAD_XDICTIONARY
360
C4A
102
}
102
{ACAD_REACTORS
330
C56
102
}
330
1F
100
AcDbEntity
  8
0
100
AcDbDimension
  2
*D17
 10
8707.83718657076
 20
15395.23676154774
 30
0.0
 11
8705.753853237423
 21
12895.38937116851
 31
0.0
 70
    32
 71
     5
 42
4999.694780758467
  3
ISO-25
100
AcDbAlignedDimension
 13
10712.09645313595
 23
10395.54198078927
 33
0.0
 14
11256.53890280099
 24
15395.23676154774
 34
0.0
 50
90.0
100
AcDbRotatedDimension
  0
LWPOLYLINE
  5
C62
102
{ACAD_REACTORS
330
FB8
102
}
330
1F
100
AcDbEntity
  8
0
100
AcDbPolyline
 90
        4
 70
     1
 43
0.0
 10
10819.15954761393
 20
-2603.977319511818
 10
-29180.84045238595
 20
-2603.977319511818
 10
-29180.84045238595
 20
-11603.97731951182
 10
10819.15954761393
 20
-11603.97731951182
  0
MTEXT
  5
C63
330
1F
100
AcDbEntity
  8
0
100
AcDbMText
 10
-16293.34654397447
 20
-6973.150351094663
 30
0.0
 40
2000.0
 41
23116.66666666667
 71
     7
 72
     5
  1
{\fSimSun|b0|i0|c134|p6;\fSimSun|b0|i0|c134|p54;3}
 73
     1
 44
1.0
  0
LINE
  5
CDF
102
{ACAD_REACTORS
330
D9B
102
}
330
1F
100
AcDbEntity
  8
0
100
AcDbLine
 10
-31598.31820549138
 20
15398.69631839684
 30
0.0
 11
13401.68179450851
 21
15398.69631839684
 31
0.0
  0
DIMENSION
  5
D68
102
{ACAD_XDICTIONARY
360
D77
102
}
102
{ACAD_REACTORS
330
D83
102
}
330
1F
100
AcDbEntity
  8
0
100
AcDbDimension
  2
*D18
 10
13318.57255817173
 20
19682.48334944468
 30
0.0
 11
11818.57255817173
 21
19684.35834944468
 31
0.0
 70
    32
 71
     5
 42
3000.0
  3
ISO-25
100
AcDbAlignedDimension
 13
10318.57255817173
 23
14538.89851323828
 33
0.0
 14
13318.57255817173
 24
14538.89851323828
 34
0.0
100
AcDbRotatedDimension
  0
DIMENSION
  5
D84
102
{ACAD_XDICTIONARY
360
D91
102
}
102
{ACAD_REACTORS
330
D9B
102
}
330
1F
100
AcDbEntity
  8
0
100
AcDbDimension
  2
*D19
 10
-33218.00962029516
 20
25395.23676154787
 30
0.0
 11
-33220.09295362849
 21
20396.96653997236
 31
0.0
 70
    32
 71
     5
 42
9996.540443151026
  3
ISO-25
100
AcDbAlignedDimension
 13
-30728.1775751405
 23
15398.69631839684
 33
0.0
 14
-31175.85424961779
 24
25395.23676154787
 34
0.0
 50
90.0
100
AcDbRotatedDimension
  0
DIMENSION
  5
E1D
330
1F
100
AcDbEntity
  8
0
100
AcDbDimension
  2
*D20
 10
-80416.73935838591
 20
-14603.80169266997
 30
0.0
 11
-80416.73935838591
 21
-8603.801692669746
 31
0.0
 70
   160
 71
     5
 42
12000.0
  3
ISO-25
100
AcDbAlignedDimension
 13
-70112.90185275028
 23
-2603.801692669978
 33
0.0
 14
-70112.90185275028
 24
-14603.80169266998
 34
0.0
 50
90.0
100
AcDbRotatedDimension
  0
DIMENSION
  5
F9D
102
{ACAD_XDICTIONARY
360
FAC
102
}
102
{ACAD_REACTORS
330
FB8
102
}
330
1F
100
AcDbEntity
  8
0
100
AcDbDimension
  2
*D21
 10
7384.058152773291
 20
-14604.76323845214
 30
0.0
 11
7384.058152773294
 21
-21063.0965717854
 31
0.0
 70
   160
 71
     5
 42
3000.785918940325
  3
ISO-25
100
AcDbAlignedDimension
 13
9510.686894791311
 23
-11603.97731951182
 33
0.0
 14
9510.686894791311
 24
-14604.76323845214
 34
0.0
 50
90.0
100
AcDbRotatedDimension
  0
DIMENSION
  5
FF9
102
{ACAD_XDICTIONARY
360
1008
102
}
102
{ACAD_REACTORS
330
1014
102
}
330
1F
100
AcDbEntity
  8
0
100
AcDbDimension
  2
*D22
 10
73318.57255817193
 20
21673.92730831064
 30
0.0
 11
70820.51724309073
 21
21676.01064164398
 31
0.0
 70
    32
 71
     5
 42
4996.11063016241
  3
ISO-25
100
AcDbAlignedDimension
 13
68322.46192800952
 23
18741.43037583248
 33
0.0
 14
73318.57255817193
 24
18741.43037583248
 34
0.0
100
AcDbRotatedDimension
  0
DIMENSION
  5
1015
102
{ACAD_XDICTIONARY
360
1024
102
}
102
{ACAD_REACTORS
330
1030
102
}
330
1F
100
AcDbEntity
  8
0
100
AcDbDimension
  2
*D23
 10
24744.10085748691
 20
-14604.76323845214
 30
0.0
 11
24744.10085748692
 21
-21063.0965717854
 31
0.0
 70
   160
 71
     5
 42
3000.785918940325
  3
ISO-25
100
AcDbAlignedDimension
 13
32814.08914185196
 23
-11603.97731951182
 33
0.0
 14
32814.08914185196
 24
-14604.76323845214
 34
0.0
 50
90.0
100
AcDbRotatedDimension
  0
DIMENSION
  5
105D
102
{ACAD_XDICTIONARY
360
106A
102
}
102
{ACAD_REACTORS
330
1074
102
}
330
1F
100
AcDbEntity
  8
0
100
AcDbDimension
  2
*D24
 10
73318.57255817193
 20
-20055.40133825316
 30
0.0
 11
70820.51724309073
 21
-20053.31800491982
 31
0.0
 70
    32
 71
     5
 42
4996.11063016241
  3
ISO-25
100
AcDbAlignedDimension
 13
68322.46192800952
 23
-8410.514748324976
 33
0.0
 14
73318.57255817193
 24
-8410.514748324976
 34
0.0
100
AcDbRotatedDimension
  0
LINE
  5
119E
102
{ACAD_REACTORS
330
14DF
102
}
330
1F
100
AcDbEntity
  8
0
100
AcDbLine
 10
-76681.42744182811
 20
-2603.801692669943
 30
0.0
 11
-68681.42744182827
 21
-2603.801692669943
 31
0.0
  0
LINE
  5
11A9
102
{ACAD_REACTORS
330
11C1
102
}
330
1F
100
AcDbEntity
  8
0
100
AcDbLine
 10
-64681.42744182826
 20
-6604.763238451913
 30
0.0
 11
-64681.42744182827
 21
-14604.7632384521
 31
0.0
  0
DIMENSION
  5
11AA
102
{ACAD_XDICTIONARY
360
11B7
102
}
102
{ACAD_REACTORS
330
11C1
102
}
330
1F
100
AcDbEntity
  8
0
100
AcDbDimension
  2
*D25
 10
-64681.42744182822
 20
-18973.68793897405
 30
0.0
 11
-70681.42744182817
 21
-18971.81293897405
 31
0.0
 70
    32
 71
     5
 42
11999.99999999988
  3
ISO-25
100
AcDbAlignedDimension
 13
-76681.42744182811
 23
-13882.28265974151
 33
0.0
 14
-64681.42744182822
 24
-13646.86685299051
 34
0.0
100
AcDbRotatedDimension
  0
LINE
  5
11EF
102
{ACAD_REACTORS
330
125F
102
}
330
1F
100
AcDbEntity
  8
0
100
AcDbLine
 10
-68681.42744182827
 20
-6604.763238451877
 30
0.0
 11
-31681.42744182827
 21
-6604.763238452219
 31
0.0
  0
DIMENSION
  5
1244
102
{ACAD_XDICTIONARY
360
1253
102
}
102
{ACAD_REACTORS
330
125F
102
}
330
1F
100
AcDbEntity
  8
0
100
AcDbDimension
  2
*D26
 10
-30806.3017357377
 20
-6604.763238452085
 30
0.0
 11
-30806.3017357377
 21
-563.0965717853396
 31
0.0
 70
   160
 71
     5
 42
999.756605423404
  3
ISO-25
100
AcDbAlignedDimension
 13
-34050.30231671978
 23
-7604.519843875491
 33
0.0
 14
-35219.10763288638
 24
-6604.763238452084
 34
0.0
 50
90.0
100
AcDbRotatedDimension
  0
DIMENSION
  5
128A
102
{ACAD_XDICTIONARY
360
1299
102
}
102
{ACAD_REACTORS
330
12A5
102
}
330
1F
100
AcDbEntity
  8
0
100
AcDbDimension
  2
*D27
 10
-62345.43571554928
 20
-11604.5198438756
 30
0.0
 11
-62345.43571554928
 21
-20979.5198438756
 31
0.0
 70
   160
 71
     5
 42
4000.000000000116
  3
ISO-25
100
AcDbAlignedDimension
 13
-60733.33851817365
 23
-7604.519843875491
 33
0.0
 14
-60415.49268526547
 24
-11604.5198438756
 34
0.0
 50
90.0
100
AcDbRotatedDimension
  0
DIMENSION
  5
1354
102
{ACAD_XDICTIONARY
360
1363
102
}
102
{ACAD_REACTORS
330
136F
102
}
330
1F
100
AcDbEntity
  8
0
100
AcDbDimension
  2
*D28
 10
-32385.60753846769
 20
-11604.51984387562
 30
0.0
 11
-32385.60753846768
 21
-21063.09657178548
 31
0.0
 70
   160
 71
     5
 42
3000.243394576595
  3
ISO-25
100
AcDbAlignedDimension
 13
-36935.13132299803
 23
-14604.76323845222
 33
0.0
 14
-36935.13132299815
 24
-11604.51984387562
 34
0.0
 50
90.0
100
AcDbRotatedDimension
  0
LINE
  5
13CC
330
1F
100
AcDbEntity
  8
0
 62
     2
100
AcDbLine
 10
-74997.3323668091
 20
-14604.7632384521
 30
0.0
 11
-70997.3323668091
 21
-14604.7632384521
 31
0.0
  0
LINE
  5
148B
330
1F
100
AcDbEntity
  8
0
100
AcDbLine
 10
-68681.42744182827
 20
-6604.763238451877
 30
0.0
 11
-68681.42744182827
 21
-2603.801692669943
 31
0.0
  0
DIMENSION
  5
14C8
102
{ACAD_XDICTIONARY
360
14D5
102
}
102
{ACAD_REACTORS
330
14DF
102
}
330
1F
100
AcDbEntity
  8
0
100
AcDbDimension
  2
*D30
 10
-76681.42744182817
 20
737.6824485148886
 30
0.0
 11
-72681.42744182823
 21
739.5574485148886
 31
0.0
 70
    32
 71
     5
 42
7999.999999999883
  3
ISO-25
100
AcDbAlignedDimension
 13
-68681.42744182827
 23
-2603.801692669943
 33
0.0
 14
-76681.42744182817
 24
-2603.801692669943
 34
0.0
100
AcDbRotatedDimension
  0
ENDSEC
  0
SECTION
  2
OBJECTS
  0
DICTIONARY
  5
C
330
0
100
AcDbDictionary
281
     1
  3
ACAD_COLOR
350
6B
  3
ACAD_GROUP
350
D
  3
ACAD_LAYOUT
350
1A
  3
ACAD_MATERIAL
350
6A
  3
ACAD_MLINESTYLE
350
17
  3
ACAD_PLOTSETTINGS
350
19
  3
ACAD_PLOTSTYLENAME
350
E
  3
AcDbVariableDictionary
350
5E
  0
DICTIONARY
  5
B6
330
A9
100
AcDbDictionary
280
     1
281
     1
  3
ACAD_DIMASSOC
360
C0
  0
DICTIONARY
  5
CE
330
C1
100
AcDbDictionary
280
     1
281
     1
  3
ACAD_DIMASSOC
360
D8
  0
DICTIONARY
  5
E6
330
D9
100
AcDbDictionary
280
     1
281
     1
  3
ACAD_DIMASSOC
360
F0
  0
DICTIONARY
  5
159
330
14C
100
AcDbDictionary
280
     1
281
     1
  3
ACAD_DIMASSOC
360
163
  0
DICTIONARY
  5
4DC
330
4CF
100
AcDbDictionary
280
     1
281
     1
  3
ACAD_DIMASSOC
360
4E6
  0
DICTIONARY
  5
60A
330
5FD
100
AcDbDictionary
280
     1
281
     1
  3
ACAD_DIMASSOC
360
614
  0
DICTIONARY
  5
656
330
647
100
AcDbDictionary
280
     1
281
     1
  3
ACAD_DIMASSOC
360
662
  0
DICTIONARY
  5
93E
330
92F
100
AcDbDictionary
280
     1
281
     1
  3
ACAD_DIMASSOC
360
94A
  0
DICTIONARY
  5
970
330
963
100
AcDbDictionary
280
     1
281
     1
  3
ACAD_DIMASSOC
360
97A
  0
DICTIONARY
  5
A7D
330
A70
100
AcDbDictionary
280
     1
281
     1
  3
ACAD_DIMASSOC
360
A87
  0
DICTIONARY
  5
AD5
330
AC8
100
AcDbDictionary
280
     1
281
     1
  3
ACAD_DIMASSOC
360
ADF
  0
DICTIONARY
  5
B2D
330
B20
100
AcDbDictionary
280
     1
281
     1
  3
ACAD_DIMASSOC
360
B37
  0
DICTIONARY
  5
C4A
330
C3B
100
AcDbDictionary
280
     1
281
     1
  3
ACAD_DIMASSOC
360
C56
  0
DICTIONARY
  5
D77
330
D68
100
AcDbDictionary
280
     1
281
     1
  3
ACAD_DIMASSOC
360
D83
  0
DICTIONARY
  5
D91
330
D84
100
AcDbDictionary
280
     1
281
     1
  3
ACAD_DIMASSOC
360
D9B
  0
DICTIONARY
  5
FAC
330
F9D
100
AcDbDictionary
280
     1
281
     1
  3
ACAD_DIMASSOC
360
FB8
  0
DICTIONARY
  5
1008
330
FF9
100
AcDbDictionary
280
     1
281
     1
  3
ACAD_DIMASSOC
360
1014
  0
DICTIONARY
  5
1024
330
1015
100
AcDbDictionary
280
     1
281
     1
  3
ACAD_DIMASSOC
360
1030
  0
DICTIONARY
  5
106A
330
105D
100
AcDbDictionary
280
     1
281
     1
  3
ACAD_DIMASSOC
360
1074
  0
DICTIONARY
  5
11B7
330
11AA
100
AcDbDictionary
280
     1
281
     1
  3
ACAD_DIMASSOC
360
11C1
  0
DICTIONARY
  5
1253
330
1244
100
AcDbDictionary
280
     1
281
     1
  3
ACAD_DIMASSOC
360
125F
  0
DICTIONARY
  5
1299
330
128A
100
AcDbDictionary
280
     1
281
     1
  3
ACAD_DIMASSOC
360
12A5
  0
DICTIONARY
  5
1363
330
1354
100
AcDbDictionary
280
     1
281
     1
  3
ACAD_DIMASSOC
360
136F
  0
DICTIONARY
  5
14D5
330
14C8
100
AcDbDictionary
280
     1
281
     1
  3
ACAD_DIMASSOC
360
14DF
  0
DICTIONARY
  5
6B
102
{ACAD_REACTORS
330
C
102
}
330
C
100
AcDbDictionary
281
     1
  0
DICTIONARY
  5
D
102
{ACAD_REACTORS
330
C
102
}
330
C
100
AcDbDictionary
281
     1
  0
DICTIONARY
  5
1A
102
{ACAD_REACTORS
330
C
102
}
330
C
100
AcDbDictionary
281
     1
  3
Model
350
22
  3
1
350
51
  3
2
350
56
  0
DICTIONARY
  5
6A
102
{ACAD_REACTORS
330
C
102
}
330
C
100
AcDbDictionary
281
     1
  0
DICTIONARY
  5
17
102
{ACAD_REACTORS
330
C
102
}
330
C
100
AcDbDictionary
281
     1
  3
Standard
350
18
  0
DICTIONARY
  5
19
102
{ACAD_REACTORS
330
C
102
}
330
C
100
AcDbDictionary
281
     1
  0
ACDBDICTIONARYWDFLT
  5
E
102
{ACAD_REACTORS
330
C
102
}
330
C
100
AcDbDictionary
281
     1
  3
Normal
350
F
100
AcDbDictionaryWithDefault
340
F
  0
DICTIONARY
  5
5E
102
{ACAD_REACTORS
330
C
102
}
330
C
100
AcDbDictionary
281
     1
  3
DIMASSOC
350
5F
  3
HIDETEXT
350
63
  0
DIMASSOC
  5
C0
102
{ACAD_REACTORS
330
B6
102
}
330
B6
100
AcDbDimAssoc
330
A9
 90
        3
 70
     0
 71
     0
  1
AcDbOsnapPointRef
 72
    10
331
87
 73
     2
 91
        0
 40
0.0752317482839628
 10
0.0
 20
0.0
 30
0.0
 75
     0
  1
AcDbOsnapPointRef
 72
     8
331
89
 73
     2
 91
        0
 40
0.9247682517160368
 10
0.0
 20
0.0
 30
0.0
 75
     1
  1
AcDbOsnapPointRef
 72
    10
331
87
 73
     2
 91
        0
 40
0.0752317482839628
 10
0.0
 20
0.0
 30
0.0
 75
     0
  0
DIMASSOC
  5
D8
102
{ACAD_REACTORS
330
CE
102
}
330
CE
100
AcDbDimAssoc
330
C1
 90
        1
 70
     0
 71
     0
  1
AcDbOsnapPointRef
 72
    10
331
8B
 73
     2
 91
        0
 40
0.1220333675484881
 10
0.0
 20
0.0
 30
0.0
 75
     0
  0
DIMASSOC
  5
F0
102
{ACAD_REACTORS
330
E6
102
}
330
E6
100
AcDbDimAssoc
330
D9
 90
        1
 70
     0
 71
     0
  1
AcDbOsnapPointRef
 72
    10
331
8C
 73
     2
 91
        0
 40
0.1494611637825869
 10
0.0
 20
0.0
 30
0.0
 75
     0
  0
DIMASSOC
  5
163
102
{ACAD_REACTORS
330
159
102
}
330
159
100
AcDbDimAssoc
330
14C
 90
        3
 70
     0
 71
     0
  1
AcDbOsnapPointRef
 72
    10
331
133
 73
     2
 91
        0
 40
0.8357891097417676
 10
0.0
 20
0.0
 30
0.0
 75
     0
  1
AcDbOsnapPointRef
 72
     8
331
130
 73
     2
 91
        0
 40
0.8357891097417676
 10
0.0
 20
0.0
 30
0.0
 75
     1
  1
AcDbOsnapPointRef
 72
    10
331
133
 73
     2
 91
        0
 40
0.8357891097417676
 10
0.0
 20
0.0
 30
0.0
 75
     0
  0
DIMASSOC
  5
4E6
102
{ACAD_REACTORS
330
4DC
102
}
330
4DC
100
AcDbDimAssoc
330
4CF
 90
        3
 70
     0
 71
     0
  1
AcDbOsnapPointRef
 72
    10
331
4B5
 73
     2
 91
        1
 40
0.9648902892201448
 10
0.0
 20
0.0
 30
0.0
 75
     0
  1
AcDbOsnapPointRef
 72
    10
331
4B5
 73
     2
 91
        3
 40
0.0551330823000429
 10
0.0
 20
0.0
 30
0.0
 75
     0
  0
DIMASSOC
  5
614
102
{ACAD_REACTORS
330
60A
102
}
330
60A
100
AcDbDimAssoc
330
5FD
 90
        3
 70
     0
 71
     0
  1
AcDbOsnapPointRef
 72
    10
331
4B5
 73
     2
 91
        2
 40
0.8358199334784709
 10
0.0
 20
0.0
 30
0.0
 75
     0
  1
AcDbOsnapPointRef
 72
     8
331
4B5
 73
     2
 91
        4
 40
0.164180066521529
 10
0.0
 20
0.0
 30
0.0
 75
     1
  1
AcDbOsnapPointRef
 72
    10
331
4B5
 73
     2
 91
        2
 40
0.8358199334784709
 10
0.0
 20
0.0
 30
0.0
 75
     0
  0
DIMASSOC
  5
662
102
{ACAD_REACTORS
330
656
102
}
330
656
100
AcDbDimAssoc
330
647
 90
        3
 70
     0
 71
     0
  1
AcDbOsnapPointRef
 72
    10
331
61E
 73
     2
 91
        0
 40
0.9729245907471264
 10
0.0
 20
0.0
 30
0.0
 75
     0
  1
AcDbOsnapPointRef
 72
    10
331
621
 73
     2
 91
        0
 40
0.0444367396233214
 10
0.0
 20
0.0
 30
0.0
 75
     0
  0
DIMASSOC
  5
94A
102
{ACAD_REACTORS
330
93E
102
}
330
93E
100
AcDbDimAssoc
330
92F
 90
        3
 70
     0
 71
     0
  1
AcDbOsnapPointRef
 72
    10
331
8F
 73
     2
 91
        0
 40
0.9909925208778988
 10
0.0
 20
0.0
 30
0.0
 75
     0
  1
AcDbOsnapPointRef
 72
     8
331
8E
 73
     2
 91
        0
 40
0.9909925208778988
 10
0.0
 20
0.0
 30
0.0
 75
     1
  1
AcDbOsnapPointRef
 72
    10
331
8F
 73
     2
 91
        0
 40
0.9909925208778988
 10
0.0
 20
0.0
 30
0.0
 75
     0
  0
DIMASSOC
  5
97A
102
{ACAD_REACTORS
330
970
102
}
330
970
100
AcDbDimAssoc
330
963
 90
        1
 70
     0
 71
     0
  1
AcDbOsnapPointRef
 72
    10
331
8E
 73
     2
 91
        0
 40
0.9969231905923578
 10
0.0
 20
0.0
 30
0.0
 75
     0
  0
DIMASSOC
  5
A87
102
{ACAD_REACTORS
330
A7D
102
}
330
A7D
100
AcDbDimAssoc
330
A70
 90
        3
 70
     0
 71
     0
  1
AcDbOsnapPointRef
 72
    10
331
620
 73
     2
 91
        0
 40
0.1421597644201938
 10
0.0
 20
0.0
 30
0.0
 75
     0
  1
AcDbOsnapPointRef
 72
    10
331
622
 73
     2
 91
        0
 40
0.9052925198249795
 10
0.0
 20
0.0
 30
0.0
 75
     0
  0
DIMASSOC
  5
ADF
102
{ACAD_REACTORS
330
AD5
102
}
330
AD5
100
AcDbDimAssoc
330
AC8
 90
        3
 70
     0
 71
     0
  1
AcDbOsnapPointRef
 72
    10
331
AA0
 73
     2
 91
        0
 40
0.7558027130644405
 10
0.0
 20
0.0
 30
0.0
 75
     0
  1
AcDbOsnapPointRef
 72
     8
331
AA1
 73
     2
 91
        0
 40
0.7558027130644405
 10
0.0
 20
0.0
 30
0.0
 75
     1
  1
AcDbOsnapPointRef
 72
    10
331
AA0
 73
     2
 91
        0
 40
0.7558027130644405
 10
0.0
 20
0.0
 30
0.0
 75
     0
  0
DIMASSOC
  5
B37
102
{ACAD_REACTORS
330
B2D
102
}
330
B2D
100
AcDbDimAssoc
330
B20
 90
        3
 70
     0
 71
     0
  1
AcDbOsnapPointRef
 72
    10
331
8A
 73
     2
 91
        0
 40
0.0566708172485049
 10
0.0
 20
0.0
 30
0.0
 75
     0
  1
AcDbOsnapPointRef
 72
     8
331
88
 73
     2
 91
        0
 40
0.9433291827514947
 10
0.0
 20
0.0
 30
0.0
 75
     1
  1
AcDbOsnapPointRef
 72
    10
331
8A
 73
     2
 91
        0
 40
0.0566708172485049
 10
0.0
 20
0.0
 30
0.0
 75
     0
  0
DIMASSOC
  5
C56
102
{ACAD_REACTORS
330
C4A
102
}
330
C4A
100
AcDbDimAssoc
330
C3B
 90
        1
 70
     0
 71
     0
  1
AcDbOsnapPointRef
 72
    10
331
53E
 73
     2
 91
        0
 40
0.8688253683452558
 10
0.0
 20
0.0
 30
0.0
 75
     0
  0
DIMASSOC
  5
D83
102
{ACAD_REACTORS
330
D77
102
}
330
D77
100
AcDbDimAssoc
330
D68
 90
        3
 70
     0
 71
     0
  1
AcDbOsnapPointRef
 72
    10
331
53F
 73
     2
 91
        0
 40
0.8286713064897867
 10
0.0
 20
0.0
 30
0.0
 75
     0
  1
AcDbOsnapPointRef
 72
     8
331
8B
 73
     2
 91
        0
 40
0.2214084562077403
 10
0.0
 20
0.0
 30
0.0
 75
     1
  1
AcDbOsnapPointRef
 72
    10
331
53F
 73
     2
 91
        0
 40
0.8286713064897867
 10
0.0
 20
0.0
 30
0.0
 75
     0
  0
DIMASSOC
  5
D9B
102
{ACAD_REACTORS
330
D91
102
}
330
D91
100
AcDbDimAssoc
330
D84
 90
        3
 70
     0
 71
     0
  1
AcDbOsnapPointRef
 72
    10
331
CDF
 73
     2
 91
        0
 40
0.0193364584522417
 10
0.0
 20
0.0
 30
0.0
 75
     0
  1
AcDbOsnapPointRef
 72
    10
331
87
 73
     2
 91
        0
 40
0.3033704879480683
 10
0.0
 20
0.0
 30
0.0
 75
     0
  0
DIMASSOC
  5
FB8
102
{ACAD_REACTORS
330
FAC
102
}
330
FAC
100
AcDbDimAssoc
330
F9D
 90
        3
 70
     0
 71
     0
  1
AcDbOsnapPointRef
 72
    10
331
C62
 73
     2
 91
        3
 40
0.9672881836794344
 10
0.0
 20
0.0
 30
0.0
 75
     0
  1
AcDbOsnapPointRef
 72
     8
331
89
 73
     2
 91
        0
 40
0.4253859044225351
 10
0.0
 20
0.0
 30
0.0
 75
     1
  1
AcDbOsnapPointRef
 72
    10
331
C62
 73
     2
 91
        3
 40
0.9672881836794344
 10
0.0
 20
0.0
 30
0.0
 75
     0
  0
DIMASSOC
  5
1014
102
{ACAD_REACTORS
330
1008
102
}
330
1008
100
AcDbDimAssoc
330
FF9
 90
        3
 70
     0
 71
     0
  1
AcDbOsnapPointRef
 72
    10
331
4B5
 73
     2
 91
        4
 40
0.183668940752783
 10
0.0
 20
0.0
 30
0.0
 75
     0
  1
AcDbOsnapPointRef
 72
     8
331
88
 73
     2
 91
        0
 40
0.1663451596428814
 10
0.0
 20
0.0
 30
0.0
 75
     1
  1
AcDbOsnapPointRef
 72
    10
331
4B5
 73
     2
 91
        4
 40
0.183668940752783
 10
0.0
 20
0.0
 30
0.0
 75
     0
  0
DIMASSOC
  5
1030
102
{ACAD_REACTORS
330
1024
102
}
330
1024
100
AcDbDimAssoc
330
1015
 90
        3
 70
     0
 71
     0
  1
AcDbOsnapPointRef
 72
    10
331
6C3
 73
     2
 91
        3
 40
0.1122906803460583
 10
0.0
 20
0.0
 30
0.0
 75
     0
  1
AcDbOsnapPointRef
 72
     8
331
89
 73
     2
 91
        0
 40
0.3073632227754653
 10
0.0
 20
0.0
 30
0.0
 75
     1
  1
AcDbOsnapPointRef
 72
    10
331
6C3
 73
     2
 91
        3
 40
0.1122906803460583
 10
0.0
 20
0.0
 30
0.0
 75
     0
  0
DIMASSOC
  5
1074
102
{ACAD_REACTORS
330
106A
102
}
330
106A
100
AcDbDimAssoc
330
105D
 90
        3
 70
     0
 71
     0
  1
AcDbOsnapPointRef
 72
    10
331
6C3
 73
     2
 91
        4
 40
0.3548291745763158
 10
0.0
 20
0.0
 30
0.0
 75
     0
  1
AcDbOsnapPointRef
 72
     8
331
88
 73
     2
 91
        0
 40
0.8451437877468206
 10
0.0
 20
0.0
 30
0.0
 75
     1
  1
AcDbOsnapPointRef
 72
    10
331
6C3
 73
     2
 91
        4
 40
0.3548291745763158
 10
0.0
 20
0.0
 30
0.0
 75
     0
  0
DIMASSOC
  5
11C1
102
{ACAD_REACTORS
330
11B7
102
}
330
11B7
100
AcDbDimAssoc
330
11AA
 90
        3
 70
     0
 71
     0
  1
AcDbOsnapPointRef
 72
    10
331
8A
 73
     2
 91
        0
 40
0.0180620144677675
 10
0.0
 20
0.0
 30
0.0
 75
     0
  1
AcDbOsnapPointRef
 72
    10
331
11A9
 73
     2
 91
        0
 40
0.9201816969575862
 10
0.0
 20
0.0
 30
0.0
 75
     0
  0
DIMASSOC
  5
125F
102
{ACAD_REACTORS
330
1253
102
}
330
1253
100
AcDbDimAssoc
330
1244
 90
        3
 70
     0
 71
     0
  1
AcDbOsnapPointRef
 72
    10
331
129
 73
     2
 91
        0
 40
0.0261550539843743
 10
0.0
 20
0.0
 30
0.0
 75
     0
  1
AcDbOsnapPointRef
 72
    10
331
11EF
 73
     2
 91
        0
 40
0.9043870218632934
 10
0.0
 20
0.0
 30
0.0
 75
     0
  0
DIMASSOC
  5
12A5
102
{ACAD_REACTORS
330
1299
102
}
330
1299
100
AcDbDimAssoc
330
128A
 90
        3
 70
     0
 71
     0
  1
AcDbOsnapPointRef
 72
    10
331
12C
 73
     2
 91
        0
 40
0.9208773053104742
 10
0.0
 20
0.0
 30
0.0
 75
     0
  1
AcDbOsnapPointRef
 72
    10
331
12D
 73
     2
 91
        0
 40
0.1056098474318598
 10
0.0
 20
0.0
 30
0.0
 75
     0
  0
DIMASSOC
  5
136F
102
{ACAD_REACTORS
330
1363
102
}
330
1363
100
AcDbDimAssoc
330
1354
 90
        3
 70
     0
 71
     0
  1
AcDbOsnapPointRef
 72
    10
331
89
 73
     2
 91
        0
 40
0.735024692541133
 10
0.0
 20
0.0
 30
0.0
 75
     0
  1
AcDbOsnapPointRef
 72
     8
331
12A
 73
     2
 91
        0
 40
0.9463571598528799
 10
0.0
 20
0.0
 30
0.0
 75
     1
  1
AcDbOsnapPointRef
 72
    10
331
89
 73
     2
 91
        0
 40
0.735024692541133
 10
0.0
 20
0.0
 30
0.0
 75
     0
  0
DIMASSOC
  5
14DF
102
{ACAD_REACTORS
330
14D5
102
}
330
14D5
100
AcDbDimAssoc
330
14C8
 90
        3
 70
     0
 71
     0
  1
AcDbOsnapPointRef
 72
     1
331
119E
 73
     2
 91
        0
 40
1.0
 10
0.0
 20
0.0
 30
2.000000000000000E+50
 75
     0
  1
AcDbOsnapPointRef
 72
    13
331
119E
 73
     2
 91
        0
 40
0.0
 10
0.0
 20
0.0
 30
2.000000000000000E+50
 75
     0
  0
LAYOUT
  5
22
102
{ACAD_REACTORS
330
1A
102
}
330
1A
100
AcDbPlotSettings
  1

  2
none_device
  4
ANSI_A_(8.50_x_11.00_Inches)
  6

 40
6.349999904632567
 41
19.04999923706055
 42
6.350006103515625
 43
19.04998779296875
 44
215.8999938964844
 45
279.3999938964844
 46
0.0
 47
0.0
 48
0.0
 49
0.0
140
0.0
141
0.0
142
1.0
143
78.436453180766
 70
 11952
 72
     0
 73
     1
 74
     0
  7

 75
     0
147
0.0127491741332998
 76
     0
 77
     2
 78
   300
148
0.0
149
0.0
100
AcDbLayout
  1
Model
 70
     1
 71
     0
 10
0.0
 20
0.0
 11
12.0
 21
9.0
 12
0.0
 22
0.0
 32
0.0
 14
0.0
 24
0.0
 34
0.0
 15
0.0
 25
0.0
 35
0.0
146
0.0
 13
0.0
 23
0.0
 33
0.0
 16
1.0
 26
0.0
 36
0.0
 17
0.0
 27
1.0
 37
0.0
 76
     0
330
1F
  0
LAYOUT
  5
51
102
{ACAD_REACTORS
330
1A
102
}
330
1A
100
AcDbPlotSettings
  1

  2
None
  4

  6

 40
0.0
 41
0.0
 42
0.0
 43
0.0
 44
0.0
 45
0.0
 46
0.0
 47
0.0
 48
0.0
 49
0.0
140
0.0
141
0.0
142
1.0
143
1.0
 70
   688
 72
     0
 73
     0
 74
     5
  7

 75
    16
147
1.0
 76
     0
 77
     2
 78
   300
148
0.0
149
0.0
100
AcDbLayout
  1
1
 70
     1
 71
     1
 10
0.0
 20
0.0
 11
12.0
 21
9.0
 12
0.0
 22
0.0
 32
0.0
 14
0.0
 24
0.0
 34
0.0
 15
0.0
 25
0.0
 35
0.0
146
0.0
 13
0.0
 23
0.0
 33
0.0
 16
1.0
 26
0.0
 36
0.0
 17
0.0
 27
1.0
 37
0.0
 76
     0
330
50
  0
LAYOUT
  5
56
102
{ACAD_REACTORS
330
1A
102
}
330
1A
100
AcDbPlotSettings
  1

  2
None
  4

  6

 40
0.0
 41
0.0
 42
0.0
 43
0.0
 44
0.0
 45
0.0
 46
0.0
 47
0.0
 48
0.0
 49
0.0
140
0.0
141
0.0
142
1.0
143
1.0
 70
   688
 72
     0
 73
     0
 74
     5
  7

 75
    16
147
1.0
 76
     0
 77
     2
 78
   300
148
0.0
149
0.0
100
AcDbLayout
  1
2
 70
     1
 71
     2
 10
0.0
 20
0.0
 11
12.0
 21
9.0
 12
0.0
 22
0.0
 32
0.0
 14
0.0
 24
0.0
 34
0.0
 15
0.0
 25
0.0
 35
0.0
146
0.0
 13
0.0
 23
0.0
 33
0.0
 16
1.0
 26
0.0
 36
0.0
 17
0.0
 27
1.0
 37
0.0
 76
     0
330
55
  0
MLINESTYLE
  5
18
102
{ACAD_REACTORS
330
17
102
}
330
17
100
AcDbMlineStyle
  2
STANDARD
 70
     0
  3

 62
   256
 51
90.0
 52
90.0
 71
     2
 49
0.5
 62
   256
  6
BYLAYER
 49
-0.5
 62
   256
  6
BYLAYER
  0
ACDBPLACEHOLDER
  5
F
102
{ACAD_REACTORS
330
E
102
}
330
E
  0
DICTIONARYVAR
  5
5F
102
{ACAD_REACTORS
330
5E
102
}
330
5E
100
DictionaryVariables
280
     0
  1
2
  0
DICTIONARYVAR
  5
63
102
{ACAD_REACTORS
330
5E
102
}
330
5E
100
DictionaryVariables
280
     0
  1
1
  0
ENDSEC
  0
EOF
